<svg width="138" height="118" viewBox="0 0 138 118" fill="none" xmlns="http://www.w3.org/2000/svg">
<path d="M69.41 31.09L1 70.79L69.26 110.24L137.47 70.78L69.41 31.09Z" fill="#F5F5F7" stroke="#002484" stroke-width="0.25" stroke-miterlimit="10"/>
<path d="M69.21 117.04L137.47 77.63V70.78L69.21 110.19V117.04Z" fill="#D0D8F1" stroke="#002484" stroke-width="0.25" stroke-linejoin="round"/>
<path d="M69.26 117.04L1 77.63V70.78L69.26 110.19V117.04Z" fill="#123EB7" stroke="#002484" stroke-width="0.25" stroke-linejoin="round"/>
<path d="M78.1 42.63C78.6965 42.63 79.18 42.1464 79.18 41.55C79.18 40.9535 78.6965 40.47 78.1 40.47C77.5036 40.47 77.02 40.9535 77.02 41.55C77.02 42.1464 77.5036 42.63 78.1 42.63Z" fill="#F57118"/>
<path d="M1.59009 70.6499L35.7001 50.9099L103.32 89.9499L69.3201 109.81L1.59009 70.6499Z" fill="#CCEDD3"/>
<path d="M80.4901 18.2499C79.7701 18.6099 77.7501 23.3999 77.5101 24.5299C76.7901 27.2299 75.7201 30.6799 75.7201 30.6799L73.0801 30.8099C73.0801 30.8099 73.0801 28.1699 74.7701 22.8299C76.0101 18.8799 78.08 12.7499 79.55 10.6399C80 9.98989 81.7401 9.41987 82.5801 9.64987L83.3401 11.1699V13.0199C83.3401 13.0199 81.0701 17.9599 80.4901 18.2599V18.2499Z" fill="#EFF2F9" stroke="#000056" stroke-width="0.25" stroke-miterlimit="10"/>
<path d="M81.49 60.8499L83.3 60.1198L83.61 57.5898L81.24 58.0999L81.49 60.8499Z" fill="#002484"/>
<path d="M81.3401 60.1198C81.3401 60.1198 80.6901 61.4298 79.9201 61.9198C77.1101 63.6998 77.64 63.8198 77.56 64.1598C77.42 64.7698 79.3301 64.5198 80.1501 64.1298C82.7401 62.8898 82.7101 62.3998 82.7101 62.3998V62.7598C82.7101 62.7598 83.6501 62.3998 83.6001 61.8298C83.5501 61.2598 83.2801 59.9398 83.2801 59.9398C83.2801 59.9398 82.8501 60.4198 82.1101 60.4198C81.3701 60.4198 81.3301 60.1198 81.3301 60.1198H81.3401Z" fill="#EFF2F9" stroke="#000056" stroke-width="0.25" stroke-miterlimit="10"/>
<path d="M87.3701 63.7398L89.1801 63.0099L89.4901 60.4799L87.1101 60.9898L87.3701 63.7398Z" fill="#002484"/>
<path d="M90.28 31.39L89.97 61.4299C89.96 62.1899 89.33 62.8099 88.57 62.8099H86.63L84.28 35.8799L83.95 58.4699C83.95 59.3099 83.27 59.9899 82.43 59.9899L80.65 60.0599L79.13 29.3199C79.13 29.3199 80.65 31.2499 83.17 31.6599C85.69 32.0699 90.28 31.39 90.28 31.39Z" fill="#002484"/>
<path d="M79.88 15.9999C79.99 18.4499 80.17 20.6999 80.17 20.6999C80.08 25.3999 78.78 30.0199 78.78 30.0199C78.78 30.0199 79.38 31.6299 83.91 33.3799C88.88 35.3099 90.61 31.3699 90.61 31.3699C90.61 31.3699 90.79 27.8599 90.18 22.4899H90.16L90.3 16.2699C90.3 16.2699 90.44 15.4599 89.85 13.8599C89.26 12.2599 86.07 10.2199 86.07 10.2199L85.57 10.1499L83.83 9.0199" fill="#EFF2F9"/>
<path d="M79.88 15.9999C79.99 18.4499 80.17 20.6999 80.17 20.6999C80.08 25.3999 78.78 30.0199 78.78 30.0199C78.78 30.0199 79.38 31.6299 83.91 33.3799C88.88 35.3099 90.61 31.3699 90.61 31.3699C90.61 31.3699 90.79 27.8599 90.18 22.4899H90.16L90.3 16.2699C90.3 16.2699 90.44 15.4599 89.85 13.8599C89.26 12.2599 86.07 10.2199 86.07 10.2199L85.57 10.1499L83.83 9.0199" stroke="#000056" stroke-width="0.25" stroke-miterlimit="10"/>
<path d="M86.2101 8.60986C86.2101 8.60986 85.9901 9.79984 86.2101 10.5898C86.4301 11.3798 85.0501 12.0798 83.8001 12.0198C82.5501 11.9498 82.6401 11.1898 82.5901 10.2398C82.5401 9.28984 86.2101 8.61984 86.2101 8.61984V8.60986Z" fill="#F9E8D8" stroke="#000056" stroke-width="0.25" stroke-miterlimit="10"/>
<path d="M84.6501 10.3099C84.6501 10.3099 83.4001 11.2099 82.6601 10.7999C81.3601 10.0699 80.9401 7.10995 81.4801 5.34995C82.0201 3.58995 85.8801 4.13996 85.8801 4.13996L86.3801 8.52994" fill="#F9E8D8"/>
<path d="M84.6501 10.3099C84.6501 10.3099 83.4001 11.2099 82.6601 10.7999C81.3601 10.0699 80.9401 7.10995 81.4801 5.34995C82.0201 3.58995 85.8801 4.13996 85.8801 4.13996L86.3801 8.52994" stroke="#000056" stroke-width="0.25" stroke-miterlimit="10"/>
<path d="M85.8401 7.0799L85.5301 7.9599L85.1301 8.13993V6.03992C85.1301 6.03992 84.6201 6.77992 83.3601 6.97992C81.7101 7.23992 80.6101 5.96991 80.6101 5.96991C80.6101 5.96991 80.5001 4.61992 82.1001 3.84992C83.0601 3.38992 84.4201 2.47993 85.7801 3.16993C87.1401 3.85993 86.6801 4.4599 86.6801 4.4599C86.6801 4.4599 87.9801 4.99991 87.0001 7.61991C86.5501 8.81991 86.0401 9.28992 86.0401 9.28992L86.1401 7.4599L85.8301 7.0799H85.8401Z" fill="#000056"/>
<path d="M86.6701 34.2C86.6701 34.2 88.2301 35.1499 89.0001 35.2099C89.7701 35.2699 89.9401 34.8499 89.9401 34.8499L89.2401 38.4299L85.5701 36.9699L86.6801 34.2H86.6701Z" fill="#002484"/>
<path d="M81.3401 60.1199C81.3401 60.1199 80.6901 61.43 79.9201 61.92C77.1101 63.7 77.64 63.8199 77.56 64.1599C77.42 64.7699 79.3301 64.5199 80.1501 64.1299C82.7401 62.8899 82.7101 62.3999 82.7101 62.3999V62.7599C82.7101 62.7599 83.6501 62.3999 83.6001 61.8299C83.5501 61.2599 83.2801 59.9399 83.2801 59.9399C83.2801 59.9399 82.8501 60.42 82.1101 60.42C81.3701 60.42 81.3301 60.1199 81.3301 60.1199H81.3401Z" fill="#EFF2F9" stroke="#000056" stroke-width="0.25" stroke-miterlimit="10"/>
<path d="M87.52 63.51L89.2 62.83L89.49 60.48L87.28 60.95L87.52 63.51Z" fill="#002484"/>
<path d="M87.3801 62.8299C87.3801 62.8299 86.7801 64.0499 86.0601 64.4999C83.4501 66.1499 83.9401 66.2699 83.8701 66.5799C83.7401 67.1499 85.5101 66.9099 86.2701 66.5499C88.6701 65.3999 88.6501 64.9399 88.6501 64.9399V65.2699C88.6501 65.2699 89.5201 64.9399 89.4801 64.3999C89.4401 63.8599 89.1801 62.6499 89.1801 62.6499C89.1801 62.6499 88.7801 63.0999 88.1001 63.0999C87.4201 63.0999 87.3801 62.8299 87.3801 62.8299Z" fill="#EFF2F9" stroke="#000056" stroke-width="0.25" stroke-miterlimit="10"/>
<path d="M88.33 11.97C90.94 13.48 92.2 17.69 92.85 21.71C93.56 26.12 89.96 33.67 89.96 33.67L87.75 32.78C87.75 32.78 89.82 26.19 89.68 23.39C89.68 21.4 88.89 19.36 88.89 19.36" fill="#EFF2F9"/>
<path d="M88.33 11.97C90.94 13.48 92.2 17.69 92.85 21.71C93.56 26.12 89.96 33.67 89.96 33.67L87.75 32.78C87.75 32.78 89.82 26.19 89.68 23.39C89.68 21.4 88.89 19.36 88.89 19.36" stroke="#000056" stroke-width="0.25" stroke-miterlimit="10"/>
<path d="M76.8725 32.4743L77.8079 32.6397L77.4126 34.875L76.4082 34.6974C76.0635 34.6364 75.8366 34.312 75.8976 33.9673L76.0648 33.022C76.1309 32.6478 76.4902 32.3965 76.8644 32.4627L76.8725 32.4743Z" fill="white" stroke="#04005A" stroke-width="0.25" stroke-miterlimit="10"/>
<path d="M72.7067 32.4485L76.0843 33.0459L75.8962 34.1094L72.558 33.519C72.3217 33.4772 72.1596 33.2454 72.2014 33.0091L72.2449 32.7629C72.2832 32.5463 72.4918 32.4004 72.7085 32.4387L72.7067 32.4485Z" fill="white" stroke="#04005A" stroke-width="0.25" stroke-miterlimit="10"/>
<path d="M82.24 41.7899L80.86 49.5699L81.45 51.3999L80.95 54.2099C80.95 54.2099 80.24 54.3799 79.57 54.2899C78.9 54.1999 75.93 53.6799 74.76 53.0799L75.26 50.2699L76.39 48.6799L77.74 40.6999L79.93 39.1599L82.24 41.7799V41.7899Z" fill="white" stroke="#04005A" stroke-width="0.25" stroke-miterlimit="10"/>
<path d="M83.1801 41.6598C83.1801 41.6598 82.7201 41.8698 82.2401 41.7898C82.2401 41.7898 81.1901 40.8198 79.9901 40.5798C78.7901 40.3398 77.4601 40.7798 77.4601 40.7798C77.4601 40.7798 77.0601 40.6398 76.6701 40.2498C76.2801 39.8598 79.6801 39.2698 79.6801 39.2698L82.8901 40.6398L83.1601 41.6698L83.1801 41.6598Z" fill="white" stroke="#04005A" stroke-width="0.25" stroke-miterlimit="10"/>
<path d="M77.07 38.0698L76.6801 40.2498C76.6801 40.2498 78.26 39.6198 79.99 39.9898C81.72 40.3598 83.18 41.6598 83.18 41.6598L83.57 39.4798L83.13 38.0998L77.2301 37.1898L77.07 38.0798V38.0698Z" fill="white" stroke="#04005A" stroke-width="0.25" stroke-miterlimit="10"/>
<path d="M85.62 30.1599L78.6701 28.9298C78.2801 28.8598 77.9101 29.1199 77.8501 29.5099L76.42 37.6198L77.7901 37.8599C77.7901 37.8599 78.4901 37.6199 80.6701 38.0099C82.8501 38.3999 83.18 39.0498 83.18 39.0498L84.75 39.3298L86.2201 31.0099C86.2901 30.6099 86.02 30.2299 85.63 30.1599H85.62Z" fill="white" stroke="#04005A" stroke-width="0.25" stroke-miterlimit="10"/>
<path d="M80.34 54.2998C80.44 54.3198 80.28 53.6998 77.76 53.1898C75.76 52.7798 75.36 53.3298 75.36 53.3298L75.24 54.0098C75.87 54.6098 76.08 55.3399 76.01 56.1699L78.73 56.6498C78.85 56.0498 79.1 55.4698 80.22 54.9898L80.34 54.2998Z" fill="white" stroke="#04005A" stroke-width="0.25" stroke-miterlimit="10"/>
<path d="M75.5959 58.6031L78.2842 59.0785C78.7465 59.1603 79.1875 58.8518 79.2693 58.3895L79.426 57.5033C79.5078 57.041 79.1993 56.6 78.737 56.5183L76.0487 56.0428C75.5865 55.961 75.1455 56.2695 75.0637 56.7318L74.907 57.618C74.8252 58.0803 75.1336 58.5213 75.5959 58.6031Z" fill="white" stroke="#04005A" stroke-width="0.25" stroke-miterlimit="10"/>
<path d="M77.47 58.7398C77.47 58.7398 77.03 57.9099 76.33 58.5399C76.33 58.5399 74.89 67.1699 74.8 67.1999C74.61 67.2599 73.88 70.0298 74.06 70.0598L75.43 70.2899C75.43 70.2899 75.8 69.7598 75.61 67.4098L77.4801 58.7398H77.47Z" fill="white" stroke="#04005A" stroke-width="0.25" stroke-miterlimit="10"/>
<path d="M80.96 54.2099C80.96 54.2099 80.8 53.6699 79.79 53.1899C78.49 52.5799 76.15 52.0799 74.77 53.0799" stroke="#04005A" stroke-width="0.25" stroke-miterlimit="10"/>
<path d="M80.9101 51.1999C80.9101 51.1999 78.2501 49.7199 75.7201 50.2799L80.9101 51.1999Z" fill="white"/>
<path d="M80.9101 51.1999C80.9101 51.1999 78.2501 49.7199 75.7201 50.2799" stroke="#04005A" stroke-width="0.25" stroke-miterlimit="10"/>
<path d="M80.5 49.4498C80.42 49.4498 78.19 48.4898 76.74 48.7798L80.5 49.4498Z" fill="white"/>
<path d="M80.5 49.4498C80.42 49.4498 78.19 48.4898 76.74 48.7798" stroke="#04005A" stroke-width="0.25" stroke-miterlimit="10"/>
<path d="M76.41 37.6198L77.51 36.9799L84 38.1198L84.74 39.3298" stroke="#04005A" stroke-width="0.25" stroke-miterlimit="10"/>
<path d="M85.7957 36.544L84.7126 36.3525L85.1428 33.9202L86.157 34.0996C86.5607 34.171 86.838 34.5552 86.7649 34.9688L86.5838 35.9928C86.5193 36.3572 86.1699 36.6102 85.7957 36.544Z" fill="white" stroke="#04005A" stroke-width="0.25" stroke-miterlimit="10"/>
<path d="M90.1782 36.7703L86.5643 36.1311L86.7681 34.979L90.4312 35.6269C90.6676 35.6687 90.8216 35.8889 90.7798 36.1252L90.7327 36.3911C90.6875 36.6471 90.4441 36.8173 90.188 36.772L90.1782 36.7703Z" fill="white" stroke="#04005A" stroke-width="0.25" stroke-miterlimit="10"/>
<path d="M84 38.1199L85.41 30.1299" stroke="#04005A" stroke-width="0.25" stroke-miterlimit="10"/>
<path d="M77.51 36.9799L78.93 28.9799" stroke="#04005A" stroke-width="0.25" stroke-miterlimit="10"/>
<path d="M75.3901 31.5599C75.3201 31.4799 74.8301 30.6699 74.8301 30.6699L73.6601 30.8699C73.6601 30.8699 73.3801 31.4999 73.4401 32.2999C73.5101 33.0999 73.6001 34.4999 73.8801 34.3499C73.9801 34.2999 74.0401 34.0699 74.0701 33.7899C74.2301 34.2299 74.3901 34.8599 74.5901 34.7299C74.7501 34.6199 74.7301 34.0399 74.6801 33.5799C74.9101 33.9899 75.1701 34.6699 75.3601 34.4999C75.6001 34.2899 75.1501 32.7799 75.1501 32.7799C75.1501 32.7799 75.1501 32.4699 75.1701 32.2899C75.4501 32.4699 76.2201 32.7999 76.0801 32.3899C75.9701 32.0699 75.6101 31.7399 75.3801 31.5399L75.3901 31.5599Z" fill="#F9E8D8" stroke="#000056" stroke-width="0.25" stroke-miterlimit="10"/>
<path d="M86.56 34.7999C86.32 35.1599 87.1501 35.0299 87.4701 34.9299C87.4401 35.1099 87.3601 35.4099 87.3601 35.4099C87.3601 35.4099 86.5501 36.7499 86.7301 37.0199C86.8701 37.2199 87.29 36.6299 87.62 36.2899C87.46 36.7199 87.3 37.2899 87.43 37.4299C87.59 37.5999 87.9001 37.0299 88.1701 36.6499C88.1301 36.9199 88.13 37.1599 88.21 37.2399C88.45 37.4599 88.8901 36.1199 89.1501 35.3599C89.4101 34.5999 89.3 33.9199 89.3 33.9199L89.4701 33.4699L88.27 32.8999C88.27 32.8999 87.88 33.8599 87.46 34.1499C87.19 34.2899 86.76 34.5199 86.57 34.7999H86.56Z" fill="#F9E8D8" stroke="#000056" stroke-width="0.25" stroke-miterlimit="10"/>
<path d="M87.2901 5.21998C87.2901 5.21998 86.6801 5.44998 85.4701 5.55998C84.2601 5.66998 84.17 6.13 82.99 6.11C81.81 6.09 80.4201 5.81999 80.1401 5.44999C79.8601 5.07999 80.8101 4.73998 80.9001 4.58998C80.9901 4.43998 80.88 4.14997 81.18 3.76997C81.48 3.38997 80.8201 2.76999 82.1401 1.75999C83.4601 0.749992 84.4401 0.969996 85.3101 1.17C85.3101 1.17 86.0501 1.70998 86.2101 1.80998C86.7601 2.14998 87.1101 2.82997 87.1301 3.29997L87.1501 3.76997C87.1501 3.76997 87.5501 4.01998 87.4201 4.74998C87.4201 4.74998 87.6401 5.13997 87.2901 5.23997V5.21998Z" fill="#F5C814" stroke="#04005A" stroke-width="0.25" stroke-miterlimit="10"/>
<path d="M86.9201 3.75C86.9201 3.75 86.3301 4.06 85.4001 4.12C84.4701 4.18 84.8601 4.60001 84.8301 4.95001C84.8001 5.30001 85.53 5.18001 86.05 5.10001C86.57 5.02001 87.2901 4.75 87.2901 4.75C87.2901 4.75 87.4001 4.06 86.9201 3.75Z" fill="#F5C814" stroke="#04005A" stroke-width="0.25" stroke-miterlimit="10"/>
<path d="M85.8001 1.51001C85.8001 1.51001 83.9501 1.52999 83.3501 2.07999C83.3501 2.07999 81.7401 2.54 82.1501 1.75" stroke="#04005A" stroke-width="0.25" stroke-miterlimit="10"/>
<path d="M80.9001 4.57996C80.9001 4.57996 81.6802 5.46998 84.2202 5.09998L80.9001 4.57996Z" fill="#F5C814"/>
<path d="M80.9001 4.57996C80.9001 4.57996 81.6802 5.46998 84.2202 5.09998" stroke="#04005A" stroke-width="0.25" stroke-miterlimit="10"/>
<path d="M73.5601 67.8199C73.5601 67.8199 70.91 66.2599 70.6 68.5999C70.29 70.9399 67.31 70.9799 68.88 71.8799C70.45 72.7799 73.2501 71.0999 73.2501 71.0999C73.2501 71.0999 76.2101 69.8499 73.5601 67.8199Z" fill="white" stroke="#000056" stroke-width="0.25" stroke-miterlimit="10"/>
<path d="M77.14 69.9799C77.14 69.9799 77.49 73.0099 79.48 71.9699C81.47 70.9299 83.25 73.3399 83.01 71.5599C82.77 69.7799 79.85 68.4199 79.85 68.4199C79.85 68.4199 77.15 66.6899 77.14 69.9799Z" fill="white" stroke="#000056" stroke-width="0.25" stroke-miterlimit="10"/>
<path d="M69.2001 68.1001C69.2001 68.1001 66.7001 68.7201 68.4701 69.2401C70.2401 69.7601 69.7201 69.1401 69.2001 68.1001Z" fill="white" stroke="#000056" stroke-width="0.25" stroke-miterlimit="10"/>
<path d="M77.2701 72.16C76.8501 71.85 73.4201 69.2501 73.2101 70.7001C73.0001 72.1501 72.2701 73.61 74.1501 74.03C76.0301 74.45 78.31 73.41 78 72.78C77.69 72.15 77.2701 72.16 77.2701 72.16Z" fill="white" stroke="#000056" stroke-width="0.25" stroke-miterlimit="10"/>
<path d="M84.5301 68.7001C83.7201 70.3201 85.5701 70.7801 86.4001 70.3601C87.2301 69.9401 88.6901 69.5301 87.4401 68.2801C86.1901 67.0301 84.8401 68.0701 84.5301 68.7001Z" fill="white" stroke="#000056" stroke-width="0.25" stroke-miterlimit="10"/>
<path d="M79.75 71.2C78.8 71.96 79.65 72.86 80.69 72.66C81.73 72.46 81.83 69.54 79.75 71.2Z" fill="white" stroke="#000056" stroke-width="0.25" stroke-miterlimit="10"/>
<path d="M71.89 58.9299C73.45 59.0199 74.95 59.2599 74.29 60.5599C73.63 61.8599 68.49 63.26 69.75 61.61C71.01 59.96 70.39 58.8499 71.88 58.9399L71.89 58.9299Z" fill="white" stroke="#000056" stroke-width="0.25" stroke-miterlimit="10"/>
<path d="M74.05 62.84C75.66 63.04 73.34 64.65 73.01 64.09C72.68 63.53 72.39 62.63 74.05 62.84Z" fill="white" stroke="#000056" stroke-width="0.25" stroke-miterlimit="10"/>
<path d="M67.0601 63.19C66.8701 64.77 69.35 66.1 69.45 64.96C69.55 63.82 67.1601 62.32 67.0601 63.19Z" fill="white" stroke="#000056" stroke-width="0.25" stroke-miterlimit="10"/>
<path d="M79.44 66.2099C80.43 67.1999 82.35 67.6699 81.31 66.2099C80.27 64.7499 78.09 64.8599 79.44 66.2099Z" fill="white" stroke="#000056" stroke-width="0.25" stroke-miterlimit="10"/>
<path d="M64.8 68.5999C65.3964 68.5999 65.8799 68.1164 65.8799 67.5199C65.8799 66.9235 65.3964 66.4399 64.8 66.4399C64.2035 66.4399 63.72 66.9235 63.72 67.5199C63.72 68.1164 64.2035 68.5999 64.8 68.5999Z" fill="#F57118"/>
<path d="M64.2899 75.42C64.8864 75.42 65.37 74.9365 65.37 74.34C65.37 73.7435 64.8864 73.26 64.2899 73.26C63.6935 73.26 63.21 73.7435 63.21 74.34C63.21 74.9365 63.6935 75.42 64.2899 75.42Z" fill="#F57118"/>
<path d="M59.34 38.53C59.9365 38.53 60.42 38.0465 60.42 37.45C60.42 36.8535 59.9365 36.37 59.34 36.37C58.7436 36.37 58.26 36.8535 58.26 37.45C58.26 38.0465 58.7436 38.53 59.34 38.53Z" fill="#F57118"/>
<path d="M63.14 59.45C63.7365 59.45 64.2201 58.9665 64.2201 58.37C64.2201 57.7736 63.7365 57.29 63.14 57.29C62.5436 57.29 62.0601 57.7736 62.0601 58.37C62.0601 58.9665 62.5436 59.45 63.14 59.45Z" fill="#F57118"/>
<path d="M70.31 54.57C70.9065 54.57 71.39 54.0865 71.39 53.49C71.39 52.8936 70.9065 52.41 70.31 52.41C69.7135 52.41 69.23 52.8936 69.23 53.49C69.23 54.0865 69.7135 54.57 70.31 54.57Z" fill="#F57118"/>
<path d="M68.32 51.0999C68.9164 51.0999 69.4 50.6164 69.4 50.0199C69.4 49.4235 68.9164 48.9399 68.32 48.9399C67.7235 48.9399 67.24 49.4235 67.24 50.0199C67.24 50.6164 67.7235 51.0999 68.32 51.0999Z" fill="#F57118"/>
<path d="M60.9101 53.91C61.5065 53.91 61.9901 53.4265 61.9901 52.83C61.9901 52.2335 61.5065 51.75 60.9101 51.75C60.3136 51.75 59.8301 52.2335 59.8301 52.83C59.8301 53.4265 60.3136 53.91 60.9101 53.91Z" fill="#F57118"/>
<path d="M68.4 45.02C68.8142 45.02 69.15 44.6842 69.15 44.27C69.15 43.8558 68.8142 43.52 68.4 43.52C67.9858 43.52 67.65 43.8558 67.65 44.27C67.65 44.6842 67.9858 45.02 68.4 45.02Z" fill="#F57118"/>
<path d="M59.16 44.83C59.5742 44.83 59.91 44.4942 59.91 44.08C59.91 43.6657 59.5742 43.33 59.16 43.33C58.7458 43.33 58.41 43.6657 58.41 44.08C58.41 44.4942 58.7458 44.83 59.16 44.83Z" fill="#F57118"/>
<path d="M62.67 50.13C63.0843 50.13 63.42 49.7942 63.42 49.38C63.42 48.9658 63.0843 48.63 62.67 48.63C62.2558 48.63 61.92 48.9658 61.92 49.38C61.92 49.7942 62.2558 50.13 62.67 50.13Z" fill="#F57118"/>
<path d="M64.39 41.9399C64.8042 41.9399 65.14 41.6042 65.14 41.1899C65.14 40.7757 64.8042 40.4399 64.39 40.4399C63.9758 40.4399 63.64 40.7757 63.64 41.1899C63.64 41.6042 63.9758 41.9399 64.39 41.9399Z" fill="#F57118"/>
<path d="M66.49 55.59C66.9042 55.59 67.24 55.2542 67.24 54.84C67.24 54.4258 66.9042 54.09 66.49 54.09C66.0758 54.09 65.74 54.4258 65.74 54.84C65.74 55.2542 66.0758 55.59 66.49 55.59Z" fill="#F57118"/>
<path d="M120.94 72.7399C120.94 72.7399 122 74.3699 123.06 72.7399L122.42 53.3999C122.42 53.3999 121.8 53.2199 121.25 53.3999L120.94 72.7399Z" fill="#A0B2E2" stroke="#000056" stroke-width="0.25" stroke-linejoin="round"/>
<path d="M118.91 38.96L123.86 41.82V56.24L118.94 53.49L118.91 38.96Z" fill="#A0B2E2" stroke="#000056" stroke-width="0.25" stroke-linejoin="round"/>
<path d="M123.86 41.82L125.3 41.08V55.5L123.86 56.24V41.82Z" fill="#A0B2E2" stroke="#000056" stroke-width="0.25" stroke-linejoin="round"/>
<path d="M118.91 38.92L123.86 41.7799C123.86 41.7799 125.4 41.1899 125.3 41.0399C125.2 40.8899 120.35 38.1799 120.35 38.1799L118.91 38.92Z" fill="#A0B2E2" stroke="#000056" stroke-width="0.25" stroke-linejoin="round"/>
<path d="M121.66 47.1525C122.748 46.995 123.45 45.6222 123.227 44.0863C123.005 42.5504 121.943 41.433 120.855 41.5905C119.767 41.748 119.066 43.1208 119.288 44.6567C119.511 46.1926 120.573 47.31 121.66 47.1525Z" fill="#FBC39E" stroke="#000056" stroke-width="0.25" stroke-miterlimit="10"/>
<path d="M116.25 45.8999C113.35 48.7999 113.35 53.4699 116.25 56.3699" stroke="#002484" stroke-width="0.25" stroke-miterlimit="10"/>
<path d="M117.23 46.8799C114.88 49.2299 114.88 52.9999 117.23 55.3499" stroke="#002484" stroke-width="0.25" stroke-miterlimit="10"/>
<path d="M118.13 47.7799C116.29 49.6199 116.29 52.5599 118.13 54.4099" stroke="#002484" stroke-width="0.25" stroke-miterlimit="10"/>
<path d="M121.714 53.8152C122.775 53.6616 123.459 52.3231 123.242 50.8254C123.025 49.3278 121.989 48.2382 120.929 48.3918C119.869 48.5453 119.185 49.8839 119.402 51.3815C119.619 52.8791 120.654 53.9687 121.714 53.8152Z" fill="#2FEA52" stroke="#000056" stroke-width="0.25" stroke-miterlimit="10"/>
<path d="M62.98 24.4399C63.571 24.4399 64.05 23.9609 64.05 23.3699C64.05 22.779 63.571 22.2999 62.98 22.2999C62.3891 22.2999 61.91 22.779 61.91 23.3699C61.91 23.9609 62.3891 24.4399 62.98 24.4399Z" fill="#F57118"/>
<path d="M56.36 22.0699C56.951 22.0699 57.4301 21.5909 57.4301 20.9999C57.4301 20.409 56.951 19.9299 56.36 19.9299C55.7691 19.9299 55.29 20.409 55.29 20.9999C55.29 21.5909 55.7691 22.0699 56.36 22.0699Z" fill="#F57118"/>
<path d="M67.9201 23.14C68.511 23.14 68.9901 22.661 68.9901 22.07C68.9901 21.4791 68.511 21 67.9201 21C67.3292 21 66.8501 21.4791 66.8501 22.07C66.8501 22.661 67.3292 23.14 67.9201 23.14Z" fill="#F57118"/>
<path d="M58.4001 30.5699C58.991 30.5699 59.4701 30.0909 59.4701 29.4999C59.4701 28.909 58.991 28.4299 58.4001 28.4299C57.8091 28.4299 57.3301 28.909 57.3301 29.4999C57.3301 30.0909 57.8091 30.5699 58.4001 30.5699Z" fill="#F57118"/>
<path d="M61.9201 21C62.511 21 62.9901 20.5209 62.9901 19.93C62.9901 19.339 62.511 18.86 61.9201 18.86C61.3292 18.86 60.8501 19.339 60.8501 19.93C60.8501 20.5209 61.3292 21 61.9201 21Z" fill="#F57118"/>
<path d="M70.4101 28.3299C71.001 28.3299 71.4801 27.8509 71.4801 27.2599C71.4801 26.669 71.001 26.1899 70.4101 26.1899C69.8191 26.1899 69.3401 26.669 69.3401 27.2599C69.3401 27.8509 69.8191 28.3299 70.4101 28.3299Z" fill="#F57118"/>
<path d="M59.14 25.73C59.5432 25.73 59.8701 25.4032 59.8701 25C59.8701 24.5969 59.5432 24.27 59.14 24.27C58.7369 24.27 58.41 24.5969 58.41 25C58.41 25.4032 58.7369 25.73 59.14 25.73Z" fill="#F57118"/>
<path d="M53.7801 26.47C54.1832 26.47 54.51 26.1432 54.51 25.74C54.51 25.3368 54.1832 25.01 53.7801 25.01C53.3769 25.01 53.05 25.3368 53.05 25.74C53.05 26.1432 53.3769 26.47 53.7801 26.47Z" fill="#F57118"/>
<path d="M64.0201 37.18C64.4232 37.18 64.7501 36.8531 64.7501 36.45C64.7501 36.0468 64.4232 35.72 64.0201 35.72C63.6169 35.72 63.29 36.0468 63.29 36.45C63.29 36.8531 63.6169 37.18 64.0201 37.18Z" fill="#F57118"/>
<path d="M53.04 32.29C53.4432 32.29 53.7701 31.9631 53.7701 31.56C53.7701 31.1568 53.4432 30.83 53.04 30.83C52.6369 30.83 52.3101 31.1568 52.3101 31.56C52.3101 31.9631 52.6369 32.29 53.04 32.29Z" fill="#F57118"/>
<path d="M65.1501 27.2C65.5532 27.2 65.88 26.8732 65.88 26.47C65.88 26.0668 65.5532 25.74 65.1501 25.74C64.7469 25.74 64.42 26.0668 64.42 26.47C64.42 26.8732 64.7469 27.2 65.1501 27.2Z" fill="#F57118"/>
<path d="M62.98 31.55C63.3831 31.55 63.71 31.2231 63.71 30.82C63.71 30.4168 63.3831 30.09 62.98 30.09C62.5768 30.09 62.25 30.4168 62.25 30.82C62.25 31.2231 62.5768 31.55 62.98 31.55Z" fill="#F57118"/>
<path d="M67.9201 32.29C68.3232 32.29 68.6501 31.9631 68.6501 31.56C68.6501 31.1568 68.3232 30.83 67.9201 30.83C67.5169 30.83 67.1901 31.1568 67.1901 31.56C67.1901 31.9631 67.5169 32.29 67.9201 32.29Z" fill="#F57118"/>
<path d="M52.5301 21.2799C52.9332 21.2799 53.26 20.9531 53.26 20.5499C53.26 20.1468 52.9332 19.8199 52.5301 19.8199C52.1269 19.8199 51.8 20.1468 51.8 20.5499C51.8 20.9531 52.1269 21.2799 52.5301 21.2799Z" fill="#F57118"/>
<path d="M58.4001 18.31C58.8032 18.31 59.13 17.9831 59.13 17.58C59.13 17.1768 58.8032 16.85 58.4001 16.85C57.9969 16.85 57.67 17.1768 57.67 17.58C57.67 17.9831 57.9969 18.31 58.4001 18.31Z" fill="#F57118"/>
<path d="M56.0301 35.71C56.4332 35.71 56.76 35.3832 56.76 34.98C56.76 34.5768 56.4332 34.25 56.0301 34.25C55.6269 34.25 55.3 34.5768 55.3 34.98C55.3 35.3832 55.6269 35.71 56.0301 35.71Z" fill="#F57118"/>
<path d="M65.48 19.04C65.8831 19.04 66.21 18.7131 66.21 18.31C66.21 17.9068 65.8831 17.58 65.48 17.58C65.0768 17.58 64.75 17.9068 64.75 18.31C64.75 18.7131 65.0768 19.04 65.48 19.04Z" fill="#F57118"/>
</svg>
