<svg width="175" height="145" viewBox="0 0 175 145" fill="none" xmlns="http://www.w3.org/2000/svg">
<path d="M0 86.44L87.5 136.67L175 86.17L88 35.67L0 86.44Z" fill="white"/>
<path d="M0.5 86.4401L88 35.67" stroke="#002484" stroke-width="0.25" stroke-linejoin="round"/>
<path d="M87.5 143.909L0.5 93.5501V86.4401L87.5 136.67V143.909Z" fill="#123EB7" stroke="#002484" stroke-width="0.25" stroke-linejoin="round"/>
<path d="M37.3499 97.12L91.2298 128.55L141.85 99.21L129.89 92.24L155.84 78.05L112.64 54.5L37.3499 97.12Z" fill="#CCEDD3"/>
<path d="M141.19 76.6699C141.19 76.6699 140.92 77.0199 140.59 77.0199C140.26 77.0199 139.99 76.6699 139.99 76.6699V73.5699H141.18V76.6699H141.19Z" fill="#002484"/>
<path d="M140.46 73.89C137.82 73.89 135.67 70.94 135.67 67.31C135.67 63.68 139.47 58.61 140.27 58.61C141.12 58.61 145.26 63.64 145.26 67.31C145.26 70.98 143.11 73.89 140.47 73.89H140.46Z" fill="#ABDAB0"/>
<path d="M140.26 58.74C140.99 58.74 145.13 63.72 145.13 67.32C145.13 69.06 144.64 70.69 143.74 71.91C142.86 73.11 141.7 73.77 140.46 73.77C137.89 73.77 135.79 70.87 135.79 67.32C135.79 65.77 136.51 63.7 137.76 61.65C138.94 59.72 140 58.75 140.27 58.75M140.26 58.49C139.3 58.49 135.54 63.61 135.54 67.32C135.54 71.02 137.74 74.02 140.46 74.02C143.18 74.02 145.38 71.02 145.38 67.32C145.38 63.62 141.22 58.49 140.26 58.49Z" fill="#002484"/>
<path d="M91.11 82.43L75.96 73.88C75.96 73.88 79.96 70.84 80.42 71.12C80.88 71.4 97.74 81.09 97.74 81.09L91.11 82.43Z" fill="#FFFBF8"/>
<path d="M102.2 95.65C109.805 95.65 115.97 91.9295 115.97 87.34C115.97 82.7505 109.805 79.03 102.2 79.03C94.595 79.03 88.4299 82.7505 88.4299 87.34C88.4299 91.9295 94.595 95.65 102.2 95.65Z" fill="#FFFBF8"/>
<path d="M104.46 117.93C104.46 117.93 104.19 118.28 103.86 118.28C103.53 118.28 103.26 117.93 103.26 117.93V114.83H104.45V117.93H104.46Z" fill="#002484"/>
<path d="M103.72 115.15C101.08 115.15 98.9297 112.2 98.9297 108.57C98.9297 104.94 102.73 99.87 103.53 99.87C104.38 99.87 108.52 104.9 108.52 108.57C108.52 112.24 106.37 115.15 103.73 115.15H103.72Z" fill="#D5EDD7"/>
<path d="M103.53 100C104.26 100 108.4 104.98 108.4 108.58C108.4 110.32 107.91 111.95 107.01 113.17C106.13 114.37 104.97 115.03 103.73 115.03C101.16 115.03 99.0598 112.13 99.0598 108.58C99.0598 107.03 99.7798 104.96 101.03 102.91C102.21 100.98 103.27 100.01 103.54 100.01M103.53 99.75C102.57 99.75 98.8098 104.87 98.8098 108.58C98.8098 112.28 101.01 115.28 103.73 115.28C106.45 115.28 108.65 112.28 108.65 108.58C108.65 104.88 104.49 99.75 103.53 99.75Z" fill="#002484"/>
<path d="M99.5899 120.75C99.5899 120.75 99.3199 121.1 98.9899 121.1C98.6599 121.1 98.3899 120.75 98.3899 120.75V117.65H99.5799V120.75H99.5899Z" fill="#002484"/>
<path d="M98.8501 117.97C96.2101 117.97 94.0601 115.02 94.0601 111.39C94.0601 107.76 97.8601 102.69 98.6601 102.69C99.5101 102.69 103.65 107.72 103.65 111.39C103.65 115.06 101.5 117.97 98.86 117.97H98.8501Z" fill="#D5EDD7"/>
<path d="M98.6599 102.81C99.3899 102.81 103.53 107.79 103.53 111.39C103.53 113.13 103.04 114.76 102.14 115.98C101.26 117.18 100.1 117.84 98.8599 117.84C96.2899 117.84 94.1899 114.94 94.1899 111.39C94.1899 109.84 94.9099 107.77 96.1599 105.72C97.3399 103.79 98.3999 102.82 98.6699 102.82M98.6599 102.56C97.6999 102.56 93.9399 107.68 93.9399 111.39C93.9399 115.09 96.1399 118.09 98.8599 118.09C101.58 118.09 103.78 115.09 103.78 111.39C103.78 107.69 99.6199 102.56 98.6599 102.56Z" fill="#002484"/>
<path d="M49.2198 98.81C49.2198 98.81 48.9498 99.16 48.6198 99.16C48.2898 99.16 48.0198 98.81 48.0198 98.81V95.71H49.2098V98.81H49.2198Z" fill="#002484"/>
<path d="M48.4797 96.03C45.8397 96.03 43.6897 93.08 43.6897 89.45C43.6897 85.65 47.4897 80.75 48.2897 80.75C49.1397 80.75 53.2797 85.78 53.2797 89.45C53.2797 93.12 51.1297 96.03 48.4897 96.03H48.4797Z" fill="#D5EDD7"/>
<path d="M48.2798 80.88C49.0098 80.88 53.1498 85.86 53.1498 89.46C53.1498 91.2 52.6598 92.83 51.7598 94.05C50.8798 95.25 49.7198 95.91 48.4798 95.91C45.9098 95.91 43.8098 93.01 43.8098 89.46C43.8098 87.91 44.5298 85.84 45.7798 83.79C46.9598 81.86 48.0198 80.89 48.2898 80.89M48.2798 80.63C47.3198 80.63 43.5598 85.75 43.5598 89.46C43.5598 93.16 45.7598 96.16 48.4798 96.16C51.1998 96.16 53.3998 93.16 53.3998 89.46C53.3998 85.76 49.2398 80.63 48.2798 80.63Z" fill="#002484"/>
<path d="M59.4199 89.93L59.3199 89.91L59.3999 89.86L59.3599 89.66L59.2599 89.63L59.3399 89.58L59.2999 89.38L59.1999 89.36L59.2799 89.31L59.2299 89.1L59.1299 89.08L59.2099 89.03L59.1699 88.83L59.0199 88.79L54.3899 91.48L54.4299 91.68L54.5299 91.7L54.4499 91.75L54.4999 91.96L54.5999 91.98L54.5099 92.03L54.5599 92.23L54.6599 92.25L54.5799 92.3L54.6199 92.51L54.7199 92.53L54.6399 92.58L54.6899 92.78L54.8399 92.82L59.4699 90.14L59.4199 89.93Z" fill="#000056" stroke="#000056" stroke-width="0.25" stroke-linejoin="round"/>
<path d="M56.4298 93.9801C56.4298 93.9801 56.4098 93.8901 56.3898 93.8801C56.3698 93.8701 54.9598 93.0601 54.9598 93.0601L54.7998 93.1501L56.1898 93.9501L56.2698 94.0101" fill="#000056"/>
<path d="M56.4199 93.9399C56.4199 93.9399 56.3999 93.9099 56.3899 93.8899C56.3799 93.8799 56.3698 93.8699 56.3598 93.8599L54.9698 93.0599L54.5899 91.3599C54.5899 91.3599 54.5898 91.3499 54.5798 91.3399C54.5798 91.3299 54.5598 91.3199 54.5398 91.3099C54.4898 91.2799 54.4199 91.2699 54.3899 91.2899L54.2298 91.3799C54.2298 91.3799 54.2098 91.3999 54.2198 91.4099L54.6198 93.1899V94.5799L54.8399 94.7099L54.9999 94.62V93.6699L56.0599 94.2799V95.4199L56.2598 95.5299L56.4398 95.4499V94.01C56.4398 94.01 56.4398 93.9699 56.4298 93.9499L56.4199 93.9399Z" fill="#000056"/>
<path d="M54.8999 93.42L55.0699 93.51V93.35L54.8999 93.26V93.42Z" fill="#000056"/>
<path d="M61.1299 91.25C61.1299 91.25 61.1099 91.22 61.0999 91.2C61.0899 91.19 61.0799 91.18 61.0699 91.17L59.6799 90.37L59.2999 88.67C59.2999 88.67 59.2999 88.66 59.2899 88.65C59.2899 88.64 59.2699 88.63 59.2499 88.62C59.1999 88.59 59.1299 88.58 59.0999 88.6L58.9399 88.69C58.9399 88.69 58.9199 88.71 58.9299 88.72L59.3299 90.5V90.71L55.1199 93.15L55.2899 93.25V93.36L55.1899 93.42V93.58L55.3599 93.68L55.4699 93.62V93.74L55.6399 93.84L55.7499 93.78V93.9L55.9199 94L56.0299 93.94V94.06L56.1999 94.16V94H56.4699L60.7099 91.56L60.8099 91.62V92.76L61.0099 92.87L61.1899 92.79V91.35C61.1899 91.35 61.1899 91.31 61.1799 91.29L61.1299 91.25Z" fill="#000056"/>
<path d="M105.2 80.02C105.14 80.04 105.21 80.12 105.25 80.15C105.23 80.17 105.18 80.2 105.18 80.2C105.18 80.2 104.95 80.27 104.93 80.32C104.91 80.36 105.02 80.34 105.09 80.34C105.02 80.37 104.94 80.42 104.93 80.46C104.92 80.5 105.02 80.46 105.08 80.46C105.04 80.49 105.01 80.52 105.01 80.54C105.01 80.6 105.2 80.48 105.32 80.42C105.44 80.36 105.51 80.26 105.51 80.26L105.64 80.2V79.96C105.64 79.96 105.46 80.1 105.34 80.07C105.3 80.05 105.24 80.03 105.19 80.04L105.2 80.02Z" fill="#063ABE"/>
<path d="M107.44 76.85C107.44 76.85 107.13 76.91 106.98 77.15C106.83 77.39 106.65 78.76 106.46 79.04C106.16 79.48 105.55 79.96 105.55 79.96L105.65 80.33C106.47 79.75 106.65 79.57 106.88 79.29C107.11 79.01 107.45 76.84 107.45 76.84L107.44 76.85Z" fill="#04005A"/>
<path d="M108.47 80.21L108.33 83.28V85.03C108.33 85.16 108.27 85.34 108.16 85.38L107.8 85.36L107.76 83.36L107.59 81.23L107.22 83.21L106.9 85.21C106.9 85.35 106.8 85.49 106.68 85.53L106.42 85.62L106.62 83.28L106.83 80.37C106.83 80.37 107.05 80.62 107.42 80.58C107.79 80.54 108.46 80.22 108.46 80.22L108.47 80.21Z" fill="#04005A"/>
<path d="M106.95 78.12C106.97 78.52 106.89 78.89 106.89 78.89C106.88 79.68 106.84 80.36 106.84 80.36C106.84 80.36 106.88 80.74 107.54 80.83C108.27 80.93 108.52 80.19 108.52 80.19C108.52 80.19 108.55 79.6 108.46 78.73L108.48 77.69C108.48 77.69 108.5 77.55 108.41 77.31C108.32 77.07 107.86 76.87 107.86 76.87H107.79L107.53 76.77" fill="#04005A"/>
<path d="M107.88 76.6C107.88 76.6 107.85 76.81 107.88 76.93C107.91 77.05 107.71 77.23 107.53 77.28C107.35 77.33 107.36 77.19 107.35 77.04C107.34 76.89 107.88 76.61 107.88 76.61V76.6Z" fill="#063ABE"/>
<path d="M107.65 76.96C107.65 76.96 107.47 77.17 107.36 77.13C107.17 77.07 107.11 76.59 107.19 76.28C107.27 75.97 107.84 75.88 107.84 75.88L107.91 76.59" fill="#063ABE"/>
<path d="M107.82 76.37L107.77 76.53L107.71 76.58V76.23C107.71 76.23 107.64 76.38 107.45 76.47C107.21 76.59 107.05 76.43 107.05 76.43C107.05 76.43 107.03 76.21 107.27 76.01C107.41 75.89 107.61 75.68 107.81 75.73C108.01 75.78 107.94 75.9 107.94 75.9C107.94 75.9 108.13 75.93 107.99 76.41C107.92 76.63 107.85 76.73 107.85 76.73L107.87 76.42L107.82 76.37Z" fill="#04005A"/>
<path d="M108.97 81.06C108.97 81.14 109.05 81.04 109.08 81C109.08 81.03 109.09 81.09 109.09 81.09C109.09 81.09 109.07 81.39 109.1 81.42C109.13 81.44 109.14 81.3 109.16 81.21C109.16 81.3 109.17 81.41 109.2 81.42C109.23 81.43 109.23 81.31 109.24 81.22C109.24 81.27 109.26 81.31 109.28 81.32C109.32 81.33 109.3 81.07 109.29 80.91C109.29 80.76 109.23 80.65 109.23 80.65V80.48L109.05 80.46C109.05 80.46 109.09 80.71 109.04 80.86C109.02 80.91 108.98 80.99 108.97 81.05V81.06Z" fill="#063ABE"/>
<path d="M107.98 77.02C108.36 77.03 108.72 77.63 109.01 78.25C109.32 78.93 109.3 80.55 109.3 80.55L109 80.61C109 80.61 108.9 79.3 108.73 78.84C108.63 78.5 108.43 78.23 108.43 78.23" fill="#04005A"/>
<path d="M107.78 76.48L107.81 76.57C107.81 76.57 107.85 76.55 107.86 76.53C107.9 76.49 107.92 76.41 107.91 76.35C107.9 76.29 107.86 76.27 107.82 76.31C107.78 76.35 107.77 76.42 107.78 76.48Z" fill="#063ABE"/>
<path d="M106.63 85.21C106.63 85.21 106.46 85.45 106.33 85.49C105.85 85.66 105.91 85.73 105.88 85.79C105.82 85.91 106.09 86.01 106.22 85.99C106.64 85.92 106.57 85.91 106.64 85.89C106.71 85.87 106.78 85.89 106.81 85.76C106.84 85.63 106.89 85.32 106.89 85.32C106.89 85.32 106.8 85.39 106.71 85.33C106.62 85.27 106.63 85.2 106.63 85.2V85.21Z" fill="#04005A"/>
<path d="M107.96 85.14C107.96 85.14 107.89 85.42 107.78 85.51C107.4 85.84 107.48 85.88 107.47 85.96C107.47 86.1 107.74 86.09 107.86 86.02C108.22 85.8 108.15 85.82 108.22 85.77C108.29 85.72 108.35 85.71 108.33 85.58C108.31 85.45 108.24 85.14 108.24 85.14C108.24 85.14 108.19 85.24 108.08 85.22C107.97 85.2 107.96 85.13 107.96 85.13V85.14Z" fill="#04005A"/>
<path d="M102.02 79.92C102.02 79.99 102.12 79.92 102.15 79.89C102.16 79.92 102.18 79.97 102.18 79.97C102.18 79.97 102.2 80.21 102.25 80.24C102.29 80.26 102.29 80.16 102.3 80.09C102.32 80.16 102.35 80.25 102.38 80.27C102.42 80.29 102.4 80.19 102.4 80.12C102.42 80.16 102.44 80.2 102.46 80.2C102.51 80.22 102.44 80 102.4 79.88C102.36 79.76 102.28 79.66 102.28 79.66L102.24 79.52L102.01 79.46C102.01 79.46 102.11 79.67 102.06 79.78C102.04 79.81 102 79.87 102 79.92H102.02Z" fill="#063ABE"/>
<path d="M101 75.78C101 75.78 101.31 75.84 101.46 76.08C101.61 76.32 101.66 77.82 101.85 78.11C102.05 78.68 102.29 79.6 102.29 79.6L102.05 79.71C101.77 78.87 101.67 78.81 101.51 78.35C101.39 78.01 100.99 75.78 100.99 75.78H101Z" fill="#04005A"/>
<path d="M99.97 79.14L100.11 82.21V83.96C100.11 84.09 100.17 84.27 100.28 84.31L100.64 84.29L100.68 82.29L100.85 80.16L101.22 82.14L101.54 84.14C101.54 84.28 101.64 84.42 101.76 84.46L102.02 84.55L101.82 82.21L101.61 79.3C101.61 79.3 101.39 79.55 101.02 79.51C100.65 79.47 99.9799 79.15 99.9799 79.15L99.97 79.14Z" fill="#04005A"/>
<path d="M101.5 77.05C101.48 77.45 101.56 77.82 101.56 77.82C101.57 78.61 101.61 79.29 101.61 79.29C101.61 79.29 101.57 79.67 100.91 79.76C100.18 79.86 99.9298 79.12 99.9298 79.12C99.9298 79.12 99.8998 78.53 99.9898 77.66L99.9699 76.62C99.9699 76.62 99.9498 76.48 100.04 76.24C100.13 76 100.59 75.8 100.59 75.8H100.66L100.92 75.7" fill="#04005A"/>
<path d="M100.57 75.54C100.57 75.54 100.6 75.75 100.57 75.87C100.54 75.99 100.74 76.17 100.92 76.22C101.1 76.27 101.09 76.13 101.1 75.98C101.11 75.83 100.57 75.55 100.57 75.55V75.54Z" fill="#063ABE"/>
<path d="M100.8 75.8901C100.8 75.8901 100.98 76.1001 101.09 76.0601C101.28 76.0001 101.34 75.5201 101.26 75.2101C101.18 74.9001 100.61 74.8101 100.61 74.8101L100.54 75.5201" fill="#063ABE"/>
<path d="M100.62 75.3L100.67 75.46L100.73 75.51V75.16C100.73 75.16 100.8 75.31 100.99 75.4C101.23 75.52 101.39 75.36 101.39 75.36C101.39 75.36 101.41 75.14 101.17 74.94C101.03 74.82 100.83 74.61 100.63 74.66C100.43 74.71 100.5 74.83 100.5 74.83C100.5 74.83 100.31 74.86 100.45 75.34C100.52 75.56 100.59 75.66 100.59 75.66L100.57 75.35L100.62 75.3Z" fill="#04005A"/>
<path d="M99.41 79.79C99.35 79.63 99.4 79.39 99.4 79.39L99.22 79.41V79.58C99.22 79.58 99.16 79.69 99.16 79.84C99.16 79.99 99.13 80.26 99.17 80.25C99.18 80.25 99.2 80.2 99.21 80.15C99.22 80.24 99.23 80.37 99.25 80.35C99.27 80.34 99.28 80.23 99.29 80.14C99.31 80.23 99.33 80.37 99.35 80.35C99.38 80.32 99.36 80.02 99.36 80.02C99.36 80.02 99.36 79.96 99.37 79.93C99.4 79.98 99.49 80.08 99.48 79.99C99.48 79.92 99.44 79.85 99.41 79.8V79.79Z" fill="#063ABE"/>
<path d="M100.46 75.95C100.08 75.96 99.7199 76.56 99.4299 77.18C99.1199 77.86 99.1399 79.48 99.1399 79.48L99.4399 79.54C99.4399 79.54 99.5399 78.23 99.7099 77.77C99.8099 77.43 100.01 77.16 100.01 77.16" fill="#04005A"/>
<path d="M100.67 75.41L100.64 75.5C100.64 75.5 100.6 75.4801 100.59 75.4601C100.55 75.4201 100.53 75.34 100.54 75.28C100.55 75.22 100.59 75.2001 100.63 75.2401C100.67 75.2801 100.68 75.35 100.67 75.41Z" fill="#063ABE"/>
<path d="M101.81 84.14C101.81 84.14 101.98 84.38 102.11 84.42C102.59 84.59 102.53 84.66 102.56 84.72C102.62 84.84 102.35 84.94 102.22 84.92C101.8 84.85 101.87 84.84 101.8 84.82C101.73 84.8 101.66 84.82 101.63 84.69C101.6 84.56 101.55 84.25 101.55 84.25C101.55 84.25 101.64 84.32 101.73 84.26C101.82 84.2 101.81 84.13 101.81 84.13V84.14Z" fill="#04005A"/>
<path d="M100.49 84.0701C100.49 84.0701 100.56 84.3501 100.67 84.4401C101.05 84.7701 100.97 84.8101 100.98 84.8901C100.98 85.0301 100.71 85.0201 100.59 84.9501C100.23 84.7301 100.3 84.7501 100.23 84.7001C100.16 84.6501 100.1 84.6401 100.12 84.5101C100.14 84.3801 100.21 84.0701 100.21 84.0701C100.21 84.0701 100.26 84.1701 100.37 84.1501C100.48 84.1301 100.49 84.0601 100.49 84.0601V84.0701Z" fill="#04005A"/>
<path d="M98.58 85.1399C98.58 85.2099 98.6801 85.1399 98.7101 85.1099C98.7201 85.1399 98.7401 85.1899 98.7401 85.1899C98.7401 85.1899 98.7601 85.4299 98.8101 85.4599C98.8501 85.4799 98.85 85.3799 98.86 85.3099C98.88 85.3799 98.9101 85.4699 98.9401 85.4899C98.9801 85.5099 98.9601 85.4099 98.9601 85.3399C98.9801 85.3799 99.0001 85.4199 99.0201 85.4199C99.0701 85.4399 99.0001 85.2199 98.9601 85.0999C98.9201 84.9799 98.8401 84.8799 98.8401 84.8799L98.8 84.7399L98.5701 84.6799C98.5701 84.6799 98.6701 84.8899 98.6201 84.9999C98.6001 85.0299 98.5601 85.0899 98.5601 85.1399H98.58Z" fill="#063ABE"/>
<path d="M97.5601 81C97.5601 81 97.8701 81.06 98.0201 81.3C98.1701 81.54 98.2201 83.04 98.4101 83.33C98.6101 83.9 98.8501 84.82 98.8501 84.82L98.61 84.93C98.33 84.09 98.2301 84.03 98.0701 83.57C97.9501 83.23 97.55 81 97.55 81H97.5601Z" fill="#04005A"/>
<path d="M96.53 84.36L96.67 87.43V89.18C96.67 89.31 96.73 89.49 96.84 89.53L97.2 89.51L97.24 87.51L97.41 85.38L97.78 87.36L98.1 89.36C98.1 89.5 98.2 89.64 98.32 89.68L98.58 89.77L98.38 87.43L98.17 84.52C98.17 84.52 97.95 84.77 97.58 84.73C97.21 84.69 96.54 84.37 96.54 84.37L96.53 84.36Z" fill="#04005A"/>
<path d="M98.0499 82.2699C98.0299 82.6699 98.1099 83.0399 98.1099 83.0399C98.1199 83.8299 98.1599 84.5099 98.1599 84.5099C98.1599 84.5099 98.1199 84.8899 97.4599 84.9799C96.7299 85.0799 96.4799 84.3399 96.4799 84.3399C96.4799 84.3399 96.4499 83.7499 96.5399 82.8799L96.5199 81.8399C96.5199 81.8399 96.4999 81.6999 96.5899 81.4599C96.6799 81.2199 97.1399 81.0199 97.1399 81.0199H97.2099L97.4699 80.9199" fill="#04005A"/>
<path d="M97.12 80.76C97.12 80.76 97.15 80.97 97.12 81.09C97.09 81.21 97.29 81.39 97.47 81.44C97.65 81.49 97.64 81.35 97.65 81.2C97.66 81.05 97.12 80.77 97.12 80.77V80.76Z" fill="#04005A"/>
<path d="M97.3499 81.11C97.3499 81.11 97.5298 81.32 97.6398 81.28C97.8298 81.22 97.8898 80.74 97.8098 80.43C97.7298 80.12 97.1599 80.03 97.1599 80.03L97.0898 80.74" fill="#04005A"/>
<path d="M97.18 80.52L97.23 80.68L97.29 80.73V80.38C97.29 80.38 97.36 80.53 97.55 80.62C97.79 80.74 97.95 80.58 97.95 80.58C97.95 80.58 97.97 80.36 97.73 80.16C97.59 80.04 97.39 79.83 97.19 79.88C96.99 79.93 97.06 80.05 97.06 80.05C97.06 80.05 96.87 80.08 97.01 80.56C97.08 80.78 97.15 80.88 97.15 80.88L97.13 80.57L97.18 80.52Z" fill="#04005A"/>
<path d="M95.96 85.02C95.9 84.86 95.95 84.62 95.95 84.62L95.77 84.64V84.81C95.77 84.81 95.71 84.92 95.71 85.07C95.71 85.22 95.68 85.49 95.72 85.48C95.73 85.48 95.75 85.43 95.76 85.38C95.77 85.47 95.78 85.6 95.8 85.58C95.82 85.57 95.83 85.46 95.84 85.37C95.86 85.46 95.88 85.6 95.9 85.58C95.93 85.55 95.91 85.25 95.91 85.25C95.91 85.25 95.91 85.19 95.92 85.16C95.95 85.21 96.04 85.31 96.03 85.22C96.03 85.15 95.99 85.08 95.96 85.03V85.02Z" fill="#063ABE"/>
<path d="M97.02 81.1699C96.64 81.1799 96.28 81.7799 95.99 82.3999C95.68 83.0799 95.7 84.6999 95.7 84.6999L96 84.7599C96 84.7599 96.1 83.4499 96.27 82.9899C96.37 82.6499 96.57 82.3799 96.57 82.3799" fill="#04005A"/>
<path d="M97.2299 80.63L97.1999 80.72C97.1999 80.72 97.1599 80.7 97.1499 80.68C97.1099 80.64 97.09 80.56 97.1 80.5C97.11 80.44 97.15 80.42 97.19 80.46C97.23 80.5 97.2399 80.57 97.2299 80.63Z" fill="#04005A"/>
<path d="M98.3701 89.36C98.3701 89.36 98.5401 89.6 98.6701 89.64C99.1501 89.81 99.0901 89.88 99.1201 89.94C99.1801 90.06 98.9101 90.16 98.7801 90.14C98.3601 90.07 98.4301 90.06 98.3601 90.04C98.2901 90.02 98.2201 90.04 98.1901 89.91C98.1601 89.78 98.1101 89.47 98.1101 89.47C98.1101 89.47 98.2001 89.54 98.2901 89.48C98.3801 89.42 98.3701 89.35 98.3701 89.35V89.36Z" fill="#04005A"/>
<path d="M97.0399 89.29C97.0399 89.29 97.1099 89.57 97.2199 89.66C97.5999 89.99 97.5199 90.03 97.5299 90.11C97.5299 90.25 97.2599 90.24 97.1399 90.17C96.7799 89.95 96.8499 89.97 96.7799 89.92C96.7099 89.87 96.6499 89.86 96.6699 89.73C96.6899 89.6 96.7599 89.29 96.7599 89.29C96.7599 89.29 96.8099 89.39 96.9199 89.37C97.0299 89.35 97.0399 89.28 97.0399 89.28V89.29Z" fill="#04005A"/>
<path d="M105.59 84.9401C105.7 86.5201 103.45 86.8501 103.23 86.8401C103.01 86.8301 100.63 86.9301 100.6 85.0401" fill="#EFF1FE"/>
<path d="M105.59 84.9401C105.7 86.5201 103.45 86.8501 103.23 86.8401C103.01 86.8301 100.63 86.9301 100.6 85.0401" stroke="#002484" stroke-width="0.25" stroke-miterlimit="10"/>
<path d="M103.08 85.84C104.466 85.84 105.59 85.4371 105.59 84.94C105.59 84.443 104.466 84.04 103.08 84.04C101.694 84.04 100.57 84.443 100.57 84.94C100.57 85.4371 101.694 85.84 103.08 85.84Z" fill="#F57118" stroke="#002484" stroke-width="0.25" stroke-miterlimit="10"/>
<path d="M104.59 86.14L105.18 88.92" stroke="#002484" stroke-width="0.25" stroke-miterlimit="10"/>
<path d="M101.5 86.14L100.64 88.92" stroke="#002484" stroke-width="0.25" stroke-miterlimit="10"/>
<path d="M104.95 86.14L105.49 87.15" stroke="#002484" stroke-width="0.25" stroke-miterlimit="10"/>
<path d="M102.22 86.75L102.1 87.31" stroke="#002484" stroke-width="0.25" stroke-miterlimit="10"/>
<path d="M103.9 74.7901C104.242 74.7901 104.52 74.5125 104.52 74.17C104.52 73.8276 104.242 73.55 103.9 73.55C103.557 73.55 103.28 73.8276 103.28 74.17C103.28 74.5125 103.557 74.7901 103.9 74.7901Z" fill="#F57118"/>
<path d="M100.05 73.41C100.392 73.41 100.67 73.1325 100.67 72.7901C100.67 72.4476 100.392 72.17 100.05 72.17C99.7075 72.17 99.4299 72.4476 99.4299 72.7901C99.4299 73.1325 99.7075 73.41 100.05 73.41Z" fill="#F57118"/>
<path d="M106.76 74.03C107.102 74.03 107.38 73.7525 107.38 73.41C107.38 73.0676 107.102 72.79 106.76 72.79C106.417 72.79 106.14 73.0676 106.14 73.41C106.14 73.7525 106.417 74.03 106.76 74.03Z" fill="#F57118"/>
<path d="M101.24 78.35C101.582 78.35 101.86 78.0724 101.86 77.73C101.86 77.3876 101.582 77.11 101.24 77.11C100.897 77.11 100.62 77.3876 100.62 77.73C100.62 78.0724 100.897 78.35 101.24 78.35Z" fill="#F57118"/>
<path d="M103.28 72.7901C103.622 72.7901 103.9 72.5125 103.9 72.17C103.9 71.8276 103.622 71.55 103.28 71.55C102.937 71.55 102.66 71.8276 102.66 72.17C102.66 72.5125 102.937 72.7901 103.28 72.7901Z" fill="#F57118"/>
<path d="M108.21 77.0401C108.552 77.0401 108.83 76.7625 108.83 76.42C108.83 76.0776 108.552 75.8 108.21 75.8C107.867 75.8 107.59 76.0776 107.59 76.42C107.59 76.7625 107.867 77.0401 108.21 77.0401Z" fill="#F57118"/>
<path d="M101.66 75.5499C101.897 75.5499 102.09 75.3574 102.09 75.1199C102.09 74.8825 101.897 74.6899 101.66 74.6899C101.423 74.6899 101.23 74.8825 101.23 75.1199C101.23 75.3574 101.423 75.5499 101.66 75.5499Z" fill="#F57118"/>
<path d="M98.5499 75.97C98.7873 75.97 98.9799 75.7775 98.9799 75.54C98.9799 75.3025 98.7873 75.11 98.5499 75.11C98.3124 75.11 98.1199 75.3025 98.1199 75.54C98.1199 75.7775 98.3124 75.97 98.5499 75.97Z" fill="#F57118"/>
<path d="M104.5 82.19C104.737 82.19 104.93 81.9974 104.93 81.76C104.93 81.5225 104.737 81.33 104.5 81.33C104.262 81.33 104.07 81.5225 104.07 81.76C104.07 81.9974 104.262 82.19 104.5 82.19Z" fill="#F57118"/>
<path d="M98.13 79.35C98.3675 79.35 98.56 79.1575 98.56 78.92C98.56 78.6825 98.3675 78.49 98.13 78.49C97.8925 78.49 97.7 78.6825 97.7 78.92C97.7 79.1575 97.8925 79.35 98.13 79.35Z" fill="#F57118"/>
<path d="M105.15 76.4C105.387 76.4 105.58 76.2075 105.58 75.97C105.58 75.7325 105.387 75.54 105.15 75.54C104.912 75.54 104.72 75.7325 104.72 75.97C104.72 76.2075 104.912 76.4 105.15 76.4Z" fill="#F57118"/>
<path d="M103.9 78.9201C104.137 78.9201 104.33 78.7275 104.33 78.4901C104.33 78.2526 104.137 78.0601 103.9 78.0601C103.662 78.0601 103.47 78.2526 103.47 78.4901C103.47 78.7275 103.662 78.9201 103.9 78.9201Z" fill="#F57118"/>
<path d="M106.76 79.35C106.997 79.35 107.19 79.1575 107.19 78.92C107.19 78.6825 106.997 78.49 106.76 78.49C106.522 78.49 106.33 78.6825 106.33 78.92C106.33 79.1575 106.522 79.35 106.76 79.35Z" fill="#F57118"/>
<path d="M97.8299 72.96C98.0674 72.96 98.2599 72.7675 98.2599 72.53C98.2599 72.2925 98.0674 72.1 97.8299 72.1C97.5924 72.1 97.3999 72.2925 97.3999 72.53C97.3999 72.7675 97.5924 72.96 97.8299 72.96Z" fill="#F57118"/>
<path d="M101.24 71.24C101.477 71.24 101.67 71.0475 101.67 70.81C101.67 70.5725 101.477 70.38 101.24 70.38C101.002 70.38 100.81 70.5725 100.81 70.81C100.81 71.0475 101.002 71.24 101.24 71.24Z" fill="#F57118"/>
<path d="M99.8599 81.34C100.097 81.34 100.29 81.1475 100.29 80.91C100.29 80.6725 100.097 80.48 99.8599 80.48C99.6224 80.48 99.4299 80.6725 99.4299 80.91C99.4299 81.1475 99.6224 81.34 99.8599 81.34Z" fill="#F57118"/>
<path d="M105.35 71.66C105.587 71.66 105.78 71.4675 105.78 71.2301C105.78 70.9926 105.587 70.8 105.35 70.8C105.112 70.8 104.92 70.9926 104.92 71.2301C104.92 71.4675 105.112 71.66 105.35 71.66Z" fill="#F57118"/>
<path d="M101.74 84.1801L103.53 85.8201" stroke="#04005A" stroke-width="0.1" stroke-miterlimit="10"/>
<path d="M102.75 84.04L104.53 85.65" stroke="#04005A" stroke-width="0.1" stroke-miterlimit="10"/>
<path d="M102.3 84.12L104.08 85.74" stroke="#04005A" stroke-width="0.1" stroke-miterlimit="10"/>
<path d="M101.27 84.33L102.94 85.85" stroke="#04005A" stroke-width="0.1" stroke-miterlimit="10"/>
<path d="M100.76 84.48L102.23 85.81" stroke="#04005A" stroke-width="0.1" stroke-miterlimit="10"/>
<path d="M100.58 84.79L101.5 85.63" stroke="#04005A" stroke-width="0.1" stroke-miterlimit="10"/>
<path d="M103.86 84.0701L105.31 85.4101" stroke="#04005A" stroke-width="0.1" stroke-miterlimit="10"/>
<path d="M104.5 84.2L105.52 85.15" stroke="#04005A" stroke-width="0.1" stroke-miterlimit="10"/>
<path d="M103.25 84.01L104.95 85.58" stroke="#04005A" stroke-width="0.1" stroke-miterlimit="10"/>
<path d="M104.41 84.2001L102.61 85.7401" stroke="#04005A" stroke-width="0.1" stroke-miterlimit="10"/>
<path d="M103.39 84.0701L101.61 85.5901" stroke="#04005A" stroke-width="0.1" stroke-miterlimit="10"/>
<path d="M103.85 84.15L102.07 85.67" stroke="#04005A" stroke-width="0.1" stroke-miterlimit="10"/>
<path d="M104.88 84.3401L103.21 85.7701" stroke="#04005A" stroke-width="0.1" stroke-miterlimit="10"/>
<path d="M105.38 84.48L103.92 85.73" stroke="#04005A" stroke-width="0.1" stroke-miterlimit="10"/>
<path d="M105.57 84.78L104.65 85.56" stroke="#04005A" stroke-width="0.1" stroke-miterlimit="10"/>
<path d="M102.28 84.1001L100.83 85.3601" stroke="#04005A" stroke-width="0.1" stroke-miterlimit="10"/>
<path d="M101.65 84.22L100.62 85.11" stroke="#04005A" stroke-width="0.1" stroke-miterlimit="10"/>
<path d="M102.89 84.04L101.19 85.51" stroke="#04005A" stroke-width="0.1" stroke-miterlimit="10"/>
<path d="M65.7299 86.86C65.6999 86.76 65.58 86.65 65.47 86.63C65.42 86.62 65.37 86.63 65.35 86.66L64.93 87.13V81.73H63.95V90.57C63.95 90.64 64 90.71 64.09 90.77C64.28 90.88 64.59 90.88 64.78 90.77C64.87 90.71 64.92 90.64 64.92 90.57V87.87L65.7 86.99C65.7 86.99 65.73 86.92 65.71 86.87L65.7299 86.86Z" fill="#002484"/>
<path d="M65.99 85.58C65.58 85.58 65.18 85.51 64.8 85.38C63.85 85.05 63.07 84.89 62.34 84.89C61.76 84.89 61.17 84.53 60.86 84C60.58 83.52 60.58 82.98 60.86 82.5C60.88 82.46 60.88 82.4 60.86 82.36C59.59 80.71 59.95 78.47 60.71 76.92C61.58 75.15 63.03 74 64.41 74C65.04 74 65.63 74.23 66.18 74.69C66.59 75.03 67.18 75.27 67.8 75.53C68.83 75.95 69.89 76.39 70.25 77.34C70.52 78.05 70.37 78.97 69.8 80.15C69.78 80.18 69.78 80.22 69.8 80.25C70.28 81.44 70.15 82.68 69.44 83.73C68.68 84.85 67.34 85.58 66.02 85.58H65.99Z" fill="#2EA339"/>
<path d="M64.39 74.13C64.99 74.13 65.55 74.35 66.08 74.79C66.51 75.15 67.1 75.39 67.73 75.65C68.73 76.06 69.77 76.49 70.11 77.39C70.37 78.06 70.22 78.95 69.66 80.1C69.63 80.16 69.63 80.24 69.66 80.3C70.12 81.45 70 82.65 69.31 83.66C68.57 84.75 67.27 85.45 65.99 85.45C65.59 85.45 65.21 85.38 64.84 85.26C63.88 84.92 63.08 84.76 62.34 84.76C61.81 84.76 61.25 84.43 60.97 83.94C60.82 83.68 60.62 83.16 60.97 82.56C61.02 82.47 61.01 82.36 60.95 82.28C59.71 80.67 60.07 78.48 60.82 76.97C61.67 75.24 63.08 74.12 64.41 74.12M64.39 73.88C61.28 73.88 58.38 79.37 60.74 82.44C60.04 83.68 61.15 85.01 62.34 85.01C63.17 85.01 63.98 85.22 64.76 85.49C65.16 85.63 65.58 85.7 65.99 85.7C68.57 85.7 71.04 83.09 69.89 80.21C72.04 75.78 67.78 75.88 66.24 74.6C65.64 74.1 65.01 73.88 64.39 73.88Z" fill="#002484"/>
<path d="M134.89 80.3799C134.89 80.3799 134.62 80.7299 134.29 80.7299C133.96 80.7299 133.69 80.3799 133.69 80.3799V77.2799H134.88V80.3799H134.89Z" fill="#002484"/>
<path d="M134.15 77.5999C131.51 77.5999 129.36 74.6499 129.36 71.0199C129.36 67.3899 133.16 62.3199 133.96 62.3199C134.81 62.3199 138.95 67.3499 138.95 71.0199C138.95 74.6899 136.8 77.5999 134.16 77.5999H134.15Z" fill="#ABDAB0"/>
<path d="M133.96 62.45C134.69 62.45 138.83 67.43 138.83 71.03C138.83 72.77 138.34 74.4 137.44 75.62C136.56 76.82 135.4 77.48 134.16 77.48C131.59 77.48 129.49 74.58 129.49 71.03C129.49 69.48 130.21 67.41 131.46 65.36C132.64 63.43 133.7 62.46 133.97 62.46M133.96 62.2C133 62.2 129.24 67.32 129.24 71.03C129.24 74.73 131.44 77.73 134.16 77.73C136.88 77.73 139.08 74.73 139.08 71.03C139.08 67.33 134.92 62.2 133.96 62.2Z" fill="#002484"/>
<path fill-rule="evenodd" clip-rule="evenodd" d="M77.53 36.15L82.87 47.25L92.43 43.63L80.9 36.82L77.53 36.15Z" fill="#CDD8F2" stroke="#00208A" stroke-width="0.25" stroke-linejoin="round"/>
<path fill-rule="evenodd" clip-rule="evenodd" d="M89.1499 42.95L84.8799 47.84L92.4299 43.63L89.1499 42.95Z" fill="#CDD8F2" stroke="#00208A" stroke-width="0.25" stroke-linejoin="round"/>
<path d="M73.3398 41.09L73.3698 52.44L84.8298 59.16L84.8598 47.86L73.3398 41.09Z" fill="#CDD8F2" stroke="#00208A" stroke-width="0.25" stroke-linejoin="round"/>
<path fill-rule="evenodd" clip-rule="evenodd" d="M92.3298 54.82L84.8298 59.16L84.8799 47.84L92.4198 43.63L92.3298 54.82Z" fill="white" stroke="#00208A" stroke-width="0.25" stroke-linejoin="round"/>
<path fill-rule="evenodd" clip-rule="evenodd" d="M89.1498 42.95L77.5298 36.15L73.2998 41.07L84.9198 47.86L89.1498 42.95Z" fill="#063ABE" stroke="#00208A" stroke-width="0.25" stroke-linejoin="round"/>
<path fill-rule="evenodd" clip-rule="evenodd" d="M69.95 40.39L75.3 51.5L84.85 47.87L73.33 41.07L69.95 40.39Z" fill="#CDD8F2" stroke="#00208A" stroke-width="0.25" stroke-linejoin="round"/>
<path fill-rule="evenodd" clip-rule="evenodd" d="M81.5798 47.1899L77.2998 52.0799L84.8498 47.8699L81.5798 47.1899Z" fill="#CDD8F2" stroke="#00208A" stroke-width="0.25" stroke-linejoin="round"/>
<path d="M65.76 45.33L65.79 56.68L77.31 63.45L77.29 52.11L65.76 45.33Z" fill="#6A89D8" stroke="#00208A" stroke-width="0.25" stroke-linejoin="round"/>
<path fill-rule="evenodd" clip-rule="evenodd" d="M84.83 59.16L77.28 63.45L77.3 52.08L84.85 47.87L84.83 59.16Z" fill="white" stroke="#00208A" stroke-width="0.25" stroke-linejoin="round"/>
<path fill-rule="evenodd" clip-rule="evenodd" d="M81.58 47.19L69.95 40.39L65.73 45.31L77.35 52.11L81.58 47.19Z" fill="#063ABE" stroke="#00208A" stroke-width="0.25" stroke-linejoin="round"/>
<path d="M71.8099 37.65L49.4999 49.62L36.4099 42.1L58.7199 30.13L71.8099 37.65Z" fill="#CDD8F2" stroke="#00208A" stroke-width="0.25" stroke-linejoin="round"/>
<path d="M59.1799 62.29L70.0699 68.4V52.59L59.1799 46.48V62.29Z" fill="#6A89D8" stroke="#00208A" stroke-width="0.25" stroke-linejoin="round"/>
<path d="M70.0698 52.59V68.4L71.5698 67.6V51.79L70.0698 52.59Z" fill="white" stroke="#00208A" stroke-width="0.25" stroke-linejoin="round"/>
<path d="M67.4898 52.14L67.7398 67.1L27.8198 90.1V75.14L67.4898 52.14Z" fill="white" stroke="#00208A" stroke-width="0.25" stroke-linejoin="round"/>
<path d="M49.5 42.91L70.55 31.62V33.27L49.5 44.57V42.91Z" fill="#063ABE" stroke="#00208A" stroke-width="0.25" stroke-linejoin="round"/>
<path d="M71.8099 25.76L49.4999 37.73L36.4099 30.22L58.7199 18.24L71.8099 25.76Z" fill="#CDD8F2" stroke="#00208A" stroke-width="0.25" stroke-linejoin="round"/>
<path d="M37.1499 35.8201L49.4999 42.9101V44.5701L37.1499 37.4801V35.8201Z" fill="#063ABE" stroke="#00208A" stroke-width="0.25" stroke-linejoin="round"/>
<path d="M36.4099 30.25L49.4999 37.76V43.03L36.4099 35.52V30.25Z" fill="#6A89D8" stroke="#00208A" stroke-width="0.25" stroke-linejoin="round"/>
<path d="M49.5 36.13L70.55 24.83V26.49L49.5 37.78V36.13Z" fill="#063ABE" stroke="#00208A" stroke-width="0.25" stroke-linejoin="round"/>
<path d="M71.8099 13.94L49.4999 25.91L36.4099 18.39L58.7199 6.42004L71.8099 13.94Z" fill="#FFFAF7" stroke="#00208A" stroke-width="0.25" stroke-linejoin="round"/>
<path d="M36.53 35.5V30.52L49.38 37.89V42.87L36.53 35.5Z" fill="#6A89D8"/>
<path d="M36.6599 30.7301L49.2499 37.9601V42.66L36.6599 35.4301V30.7301ZM36.4099 30.3V35.5701L49.4999 43.09V37.8201L36.4099 30.3Z" fill="#00208A"/>
<path d="M37.1499 29.04L49.4999 36.13V37.78L37.1499 30.69V29.04Z" fill="#063ABE" stroke="#00208A" stroke-width="0.25" stroke-linejoin="round"/>
<path d="M49.4999 25.94V36.17L36.4099 28.6501V18.4301L49.4999 25.94Z" fill="#6A89D8" stroke="#00208A" stroke-width="0.25" stroke-linejoin="round"/>
<path d="M49.6299 25.9999L71.6899 14.1599V31.0799L49.6299 42.9099V25.9999Z" fill="white"/>
<path d="M71.57 14.37V31L49.75 42.7V26.07L71.57 14.37ZM71.82 13.96L49.51 25.93V43.12L71.82 31.15V13.96Z" fill="#00208A"/>
<path d="M41.0999 71.24L48.4799 66.97L48.4999 72.46L41.1098 76.74L41.0999 71.24Z" fill="#FFFBF8" stroke="#002484" stroke-width="0.24" stroke-linejoin="round"/>
<path d="M41.1099 76.22V76.74L48.4999 72.46L48.0899 72.22L41.1099 76.22Z" fill="#1A3A90"/>
<path d="M48.0898 72.22L48.4998 72.46L48.4798 66.97L48.0898 67.19V72.22Z" fill="#4D66A9"/>
<path d="M32.3198 76.12L39.7098 71.85L39.7198 77.34L32.3398 81.62L32.3198 76.12Z" fill="#FFFBF8" stroke="#002484" stroke-width="0.24" stroke-linejoin="round"/>
<path d="M32.3398 81.09V81.62L39.7198 77.34L39.3098 77.09L32.3398 81.09Z" fill="#1A3A90"/>
<path d="M39.3098 77.09L39.7198 77.34L39.7098 71.85L39.3098 72.07V77.09Z" fill="#4D66A9"/>
<path d="M71.6198 49.94L49.5398 61.79L36.5898 54.35L58.6698 42.5L71.6198 49.94Z" fill="#CDD8F2" stroke="#00208A" stroke-width="0.25" stroke-linejoin="round"/>
<path d="M49.5898 61.75L71.6698 49.9V52.49L49.5898 64.34V61.75Z" fill="white" stroke="#00208A" stroke-width="0.25" stroke-linejoin="round"/>
<path d="M49.54 61.82L27.46 73.66L14.5 66.23L36.58 54.38L49.54 61.82Z" fill="#CDD8F2" stroke="#00208A" stroke-width="0.25" stroke-linejoin="round"/>
<path d="M15.1699 66.04L28.1199 73.48V76.07L15.1699 68.63V66.04Z" fill="#063ABE" stroke="#00208A" stroke-width="0.25" stroke-linejoin="round"/>
<path d="M14.5 84.17L26.92 91.22V75.41L14.5 68.36V84.17Z" fill="#6A89D8" stroke="#00208A" stroke-width="0.25" stroke-linejoin="round"/>
<path d="M39.6298 75.37C39.4698 75.37 39.4598 75.19 39.4598 75.11C39.4598 75.07 39.4398 75.01 39.3998 74.98L36.0598 71.76L42.5398 68.09L45.8298 71.25C45.7898 71.48 45.5698 71.87 45.3098 72.02C45.2398 72.06 45.1798 72.08 45.1198 72.08C44.9598 72.08 44.9498 71.9 44.9498 71.82C44.9498 71.78 44.9298 71.74 44.8998 71.72C44.8798 71.7 44.8498 71.7 44.8298 71.7C44.8198 71.7 44.7998 71.7 44.7898 71.7C44.7298 71.72 44.6898 71.77 44.6998 71.83C44.6998 72.16 44.4798 72.55 44.2198 72.71C44.1498 72.75 44.0898 72.77 44.0398 72.77C43.8898 72.77 43.8698 72.59 43.8698 72.51C43.8698 72.51 43.8698 72.5 43.8698 72.49C43.8698 72.44 43.8498 72.39 43.8098 72.36C43.7898 72.34 43.7598 72.33 43.7298 72.33C43.7098 72.33 43.6998 72.33 43.6798 72.34C43.6798 72.34 43.6198 72.41 43.6198 72.46C43.6198 72.46 43.6198 72.49 43.6198 72.5C43.6198 72.81 43.3998 73.18 43.1398 73.33C43.0698 73.37 43.0098 73.39 42.9498 73.39C42.7898 73.39 42.7798 73.21 42.7798 73.13C42.7798 73.08 42.7598 73.03 42.7198 73C42.6898 72.98 42.6698 72.97 42.6398 72.97C42.6198 72.97 42.6098 72.97 42.5998 72.98C42.5598 73 42.4998 73.07 42.4998 73.11C42.4998 73.41 42.2798 73.8 42.0098 73.95C41.9398 73.99 41.8798 74.01 41.8198 74.01C41.6598 74.01 41.6498 73.83 41.6498 73.75C41.6498 73.71 41.6298 73.66 41.5898 73.64C41.5698 73.63 41.5498 73.62 41.5198 73.62C41.4998 73.62 41.4798 73.62 41.4598 73.63C41.4198 73.65 41.3798 73.7 41.3898 73.75C41.3898 74.09 41.1698 74.48 40.9098 74.63C40.8398 74.67 40.7798 74.69 40.7198 74.69C40.5698 74.69 40.5498 74.51 40.5498 74.43C40.5498 74.43 40.5498 74.43 40.5498 74.42C40.5498 74.37 40.5298 74.31 40.4898 74.29C40.4598 74.27 40.4298 74.26 40.3998 74.26C40.3898 74.26 40.3698 74.26 40.3598 74.27C40.3598 74.27 40.2998 74.34 40.2998 74.39C40.2998 74.39 40.2998 74.42 40.2998 74.43C40.2998 74.74 40.0798 75.11 39.8198 75.26C39.7498 75.3 39.6898 75.32 39.6298 75.32V75.37Z" fill="#063ABE"/>
<path d="M42.5199 68.2399L45.6699 71.2599C45.6299 71.5099 45.4499 71.7899 45.2499 71.9099C45.1799 71.9499 45.1399 71.9499 45.1299 71.9499C45.0799 71.9499 45.0799 71.8199 45.0799 71.8099C45.0799 71.7199 45.0299 71.6399 44.9499 71.5999C44.9099 71.5799 44.8699 71.5699 44.8299 71.5699C44.7799 71.5699 44.7399 71.5799 44.6999 71.6099C44.6199 71.6599 44.5799 71.7699 44.5799 71.8699C44.5799 72.1299 44.3799 72.4699 44.1599 72.6099C44.0899 72.6499 44.0499 72.6499 44.0399 72.6499C43.9899 72.6499 43.9899 72.5199 43.9899 72.5099C43.9899 72.5099 43.9899 72.49 43.9899 72.4799C43.9899 72.3899 43.9499 72.2999 43.8699 72.2499C43.8299 72.2299 43.7899 72.2099 43.7399 72.2099C43.6899 72.2099 43.6499 72.2199 43.6099 72.2499C43.5299 72.2999 43.4799 72.3999 43.4899 72.4999C43.4899 72.4999 43.4899 72.4999 43.4899 72.5099C43.4899 72.7699 43.2899 73.1099 43.0699 73.2399C42.9999 73.2799 42.9599 73.2799 42.9499 73.2799C42.8999 73.2799 42.8999 73.1499 42.8999 73.1199C42.8999 73.0299 42.8399 72.9499 42.7599 72.9099C42.7299 72.8899 42.6799 72.8799 42.6399 72.8799C42.5899 72.8799 42.5299 72.8999 42.4799 72.9199C42.3999 72.9599 42.3599 73.0499 42.3599 73.1399C42.3599 73.3999 42.1599 73.7399 41.9399 73.8799C41.8699 73.9199 41.8299 73.9199 41.8199 73.9199C41.7699 73.9199 41.7699 73.7899 41.7699 73.7799C41.7699 73.6899 41.7199 73.6099 41.6399 73.5699C41.5999 73.5499 41.5599 73.5399 41.5199 73.5399C41.4699 73.5399 41.4299 73.5499 41.3899 73.5799C41.3099 73.6299 41.2699 73.7399 41.2699 73.8399C41.2699 74.0999 41.0699 74.4399 40.8499 74.5799C40.7799 74.6199 40.7399 74.6199 40.7299 74.6199C40.6799 74.6199 40.6799 74.49 40.6799 74.4799C40.6799 74.4799 40.6799 74.4599 40.6799 74.4499C40.6799 74.3599 40.6399 74.2699 40.5599 74.2199C40.5199 74.1999 40.4799 74.1799 40.4299 74.1799C40.3799 74.1799 40.3399 74.1899 40.2999 74.2199C40.2199 74.2699 40.1699 74.3699 40.1799 74.4699C40.1799 74.4699 40.1799 74.4699 40.1799 74.4799C40.1799 74.74 39.9799 75.0799 39.7599 75.2099C39.6899 75.2499 39.6499 75.2499 39.6399 75.2499C39.5899 75.2499 39.5899 75.1199 39.5899 75.0899C39.5899 74.9999 39.5399 74.9199 39.4599 74.8699L36.2799 71.7999L42.5299 68.2599M42.5599 67.9399L35.8599 71.7399L39.3199 75.0799H39.3299C39.3299 75.0799 39.3299 75.0999 39.3299 75.1099C39.3299 75.3499 39.4499 75.4999 39.6299 75.4999C39.6999 75.4999 39.7899 75.4699 39.8799 75.4199C40.1799 75.2399 40.4199 74.8299 40.4199 74.4799C40.4199 74.7199 40.5399 74.8599 40.7199 74.8599C40.7899 74.8599 40.8799 74.8299 40.9699 74.7799C41.2699 74.5999 41.5199 74.1799 41.5199 73.8299C41.5199 73.8099 41.5199 73.7999 41.5199 73.7899C41.5199 74.0299 41.6399 74.1799 41.8199 74.1799C41.8899 74.1799 41.9799 74.1499 42.0699 74.0999C42.3699 73.9199 42.6199 73.4999 42.6199 73.1499L42.6599 73.1299C42.6599 73.1299 42.6599 73.1499 42.6599 73.1699C42.6599 73.4099 42.7799 73.5599 42.9599 73.5599C43.0299 73.5599 43.1199 73.53 43.2099 73.4799C43.5099 73.3 43.7499 72.8899 43.7499 72.5399C43.7499 72.7799 43.8699 72.9199 44.0499 72.9199C44.1199 72.9199 44.2099 72.8899 44.2999 72.8399C44.5999 72.6599 44.8499 72.2399 44.8499 71.8899C44.8499 71.8699 44.8499 71.8599 44.8499 71.8499C44.8499 72.0899 44.9699 72.2399 45.1499 72.2399C45.2199 72.2399 45.3099 72.2099 45.3999 72.1599C45.6999 71.9799 45.9499 71.5599 45.9499 71.2099C45.9499 71.2099 45.9499 71.1999 45.9499 71.1899L42.5899 67.9599L42.5599 67.9399ZM43.7299 72.4999C43.7299 72.4999 43.7299 72.4799 43.7299 72.4699C43.7299 72.4699 43.7299 72.4899 43.7299 72.4999ZM40.4199 74.4599C40.4199 74.4599 40.4199 74.4399 40.4199 74.4299C40.4199 74.4299 40.4199 74.4499 40.4199 74.4599Z" fill="#00208A"/>
<path d="M26.77 75.43V91.24L28.28 90.44V74.62L26.77 75.43Z" fill="#CDD8F2" stroke="#00208A" stroke-width="0.25" stroke-linejoin="round"/>
<path d="M33.25 79.03C33.09 79.03 33.0799 78.85 33.0799 78.7701C33.0799 78.7301 33.0599 78.6701 33.0199 78.6501L29.45 75.2101L36 71.8L39.45 74.9301C39.41 75.1601 39.1899 75.55 38.9299 75.7C38.8599 75.74 38.7999 75.7601 38.7399 75.7601C38.5799 75.7601 38.5699 75.58 38.5699 75.5C38.5699 75.46 38.5499 75.4201 38.5199 75.4001C38.4999 75.3801 38.4699 75.3801 38.4399 75.3801C38.4299 75.3801 38.4199 75.3801 38.4099 75.3801C38.3499 75.4001 38.31 75.4501 38.31 75.5101C38.31 75.8501 38.0899 76.24 37.8299 76.39C37.7599 76.43 37.7 76.45 37.64 76.45C37.48 76.45 37.4699 76.27 37.4699 76.19C37.4699 76.19 37.4699 76.19 37.4699 76.17C37.4699 76.12 37.4499 76.0701 37.4099 76.0401C37.3799 76.0201 37.3599 76.0101 37.3299 76.0101C37.3099 76.0101 37.2999 76.01 37.2899 76.0201C37.2899 76.0201 37.2299 76.09 37.2299 76.14C37.2299 76.14 37.2299 76.1701 37.2299 76.1801C37.2299 76.4901 37.01 76.8601 36.75 77.0101C36.68 77.0501 36.62 77.0701 36.56 77.0701C36.4 77.0701 36.39 76.89 36.39 76.81C36.39 76.76 36.3699 76.7101 36.3299 76.6801C36.2999 76.6601 36.28 76.6501 36.25 76.6501C36.23 76.6501 36.2199 76.65 36.2099 76.66C36.1699 76.68 36.1099 76.7501 36.1099 76.7901C36.1099 77.0901 35.8899 77.48 35.6299 77.64C35.5599 77.68 35.4999 77.7 35.4399 77.7C35.2799 77.7 35.2699 77.52 35.2699 77.44C35.2699 77.4 35.2499 77.36 35.2199 77.34C35.1999 77.32 35.17 77.31 35.14 77.31C35.13 77.31 35.1199 77.31 35.1099 77.31C35.0499 77.33 35.0099 77.38 35.0099 77.44C35.0099 77.78 34.79 78.1701 34.53 78.3201C34.46 78.3601 34.4 78.3801 34.34 78.3801C34.19 78.3801 34.17 78.2001 34.17 78.1201C34.17 78.1201 34.17 78.1101 34.17 78.1001C34.17 78.0501 34.1499 78 34.1099 77.97C34.0799 77.96 34.06 77.94 34.03 77.94C34.01 77.94 33.9999 77.94 33.9899 77.95C33.9899 77.95 33.9299 78.02 33.9299 78.06C33.9299 78.06 33.9299 78.0901 33.9299 78.1001C33.9299 78.4101 33.71 78.7801 33.45 78.9301C33.38 78.9701 33.3199 78.9901 33.2699 78.9901L33.25 79.03Z" fill="#063ABE"/>
<path d="M35.98 71.94L39.28 74.93C39.24 75.17 39.06 75.46 38.86 75.58C38.79 75.62 38.75 75.62 38.74 75.62C38.69 75.62 38.69 75.49 38.69 75.48C38.69 75.39 38.64 75.31 38.56 75.27C38.52 75.25 38.48 75.24 38.44 75.24C38.39 75.24 38.35 75.25 38.31 75.28C38.23 75.33 38.19 75.44 38.19 75.54C38.19 75.8 37.99 76.14 37.77 76.28C37.7 76.32 37.66 76.32 37.65 76.32C37.6 76.32 37.6 76.19 37.6 76.18C37.6 76.18 37.6 76.16 37.6 76.15C37.6 76.06 37.56 75.97 37.48 75.92C37.44 75.9 37.4 75.88 37.35 75.88C37.3 75.88 37.26 75.89 37.22 75.92C37.14 75.97 37.09 76.07 37.1 76.17C37.1 76.17 37.1 76.17 37.1 76.18C37.1 76.44 36.9 76.78 36.68 76.91C36.61 76.95 36.57 76.95 36.56 76.95C36.51 76.95 36.51 76.82 36.51 76.79C36.51 76.7 36.45 76.62 36.37 76.58C36.34 76.56 36.29 76.55 36.25 76.55C36.2 76.55 36.14 76.57 36.09 76.59C36.01 76.63 35.97 76.72 35.97 76.81C35.97 77.07 35.77 77.41 35.55 77.55C35.48 77.59 35.44 77.59 35.43 77.59C35.38 77.59 35.38 77.46 35.38 77.45C35.38 77.36 35.33 77.28 35.25 77.24C35.21 77.22 35.17 77.21 35.13 77.21C35.08 77.21 35.04 77.22 35 77.25C34.92 77.3 34.88 77.41 34.88 77.51C34.88 77.77 34.68 78.11 34.46 78.25C34.39 78.29 34.35 78.29 34.34 78.29C34.29 78.29 34.29 78.16 34.29 78.15C34.29 78.15 34.29 78.13 34.29 78.12C34.29 78.03 34.25 77.94 34.17 77.89C34.13 77.87 34.09 77.85 34.04 77.85C33.99 77.85 33.95 77.86 33.91 77.89C33.83 77.94 33.78 78.04 33.79 78.14C33.79 78.14 33.79 78.14 33.79 78.15C33.79 78.41 33.59 78.75 33.37 78.88C33.3 78.92 33.26 78.92 33.25 78.92C33.2 78.92 33.2 78.79 33.2 78.76C33.2 78.67 33.15 78.59 33.07 78.54L29.66 75.25L35.98 71.96M36.02 71.64L29.24 75.17L32.94 78.74H32.95C32.95 78.74 32.95 78.76 32.95 78.77C32.95 79.01 33.07 79.16 33.25 79.16C33.32 79.16 33.41 79.13 33.5 79.08C33.8 78.9 34.04 78.49 34.04 78.14C34.04 78.38 34.16 78.52 34.34 78.52C34.41 78.52 34.5 78.49 34.59 78.44C34.89 78.26 35.14 77.84 35.14 77.49C35.14 77.47 35.14 77.46 35.14 77.45C35.14 77.69 35.26 77.84 35.44 77.84C35.51 77.84 35.6 77.81 35.69 77.76C35.99 77.58 36.24 77.16 36.24 76.81L36.28 76.79C36.28 76.79 36.28 76.81 36.28 76.83C36.28 77.07 36.4 77.22 36.58 77.22C36.65 77.22 36.74 77.19 36.83 77.14C37.13 76.96 37.37 76.55 37.37 76.2C37.37 76.44 37.49 76.58 37.67 76.58C37.74 76.58 37.83 76.55 37.92 76.5C38.22 76.32 38.47 75.9 38.47 75.55C38.47 75.53 38.47 75.52 38.47 75.51C38.47 75.75 38.59 75.9 38.77 75.9C38.84 75.9 38.93 75.87 39.02 75.82C39.32 75.64 39.57 75.22 39.57 74.87C39.57 74.87 39.57 74.86 39.57 74.85L36.05 71.67L36.02 71.64ZM37.35 76.17C37.35 76.17 37.35 76.15 37.35 76.14C37.35 76.14 37.35 76.16 37.35 76.17ZM34.04 78.12C34.04 78.12 34.04 78.1 34.04 78.09C34.04 78.09 34.04 78.11 34.04 78.12Z" fill="#00208A"/>
<path d="M46.1299 71.6101C45.9699 71.6101 45.9599 71.4301 45.9599 71.3501C45.9599 71.3101 45.9399 71.2501 45.9099 71.2301L42.6199 68.0601L48.9199 64.7101L52.3099 67.4701C52.2899 67.7801 52.0799 68.1301 51.8299 68.2801C51.7599 68.3201 51.6999 68.3401 51.6499 68.3401C51.4899 68.3401 51.4799 68.1601 51.4799 68.0801C51.4799 68.0401 51.4599 68.0001 51.4299 67.9801C51.4099 67.9701 51.3799 67.9601 51.3599 67.9601C51.3499 67.9601 51.3299 67.9601 51.3199 67.9601C51.2699 67.9801 51.2299 68.0301 51.2299 68.0901C51.2299 68.4301 51.0099 68.8201 50.7499 68.9701C50.6799 69.0101 50.6199 69.0301 50.5599 69.0301C50.3999 69.0301 50.3899 68.8501 50.3899 68.7701C50.3899 68.7701 50.3899 68.7701 50.3899 68.7501C50.3899 68.7001 50.3699 68.6501 50.3299 68.6201C50.3099 68.6001 50.2799 68.5901 50.2499 68.5901C50.2299 68.5901 50.2199 68.5901 50.1999 68.6001C50.1999 68.6001 50.1399 68.6701 50.1399 68.7201C50.1399 68.7201 50.1399 68.7501 50.1399 68.7601C50.1399 69.0701 49.9199 69.4401 49.6599 69.5901C49.5899 69.6301 49.5299 69.6501 49.4699 69.6501C49.3099 69.6501 49.2999 69.4701 49.2999 69.3901C49.2999 69.3401 49.2799 69.2901 49.2399 69.2601C49.2099 69.2401 49.1899 69.2301 49.1599 69.2301C49.1399 69.2301 49.1299 69.2301 49.1199 69.2401C49.0799 69.2601 49.0199 69.3301 49.0199 69.3701C49.0199 69.6701 48.7999 70.0601 48.5399 70.2201C48.4699 70.2601 48.4099 70.2801 48.3499 70.2801C48.1899 70.2801 48.1799 70.1001 48.1799 70.0201C48.1799 69.9801 48.1599 69.9301 48.1199 69.9101C48.0999 69.9001 48.0799 69.8901 48.0599 69.8901C48.0399 69.8901 48.0199 69.8901 47.9999 69.9101C47.9599 69.9301 47.9299 69.9801 47.9299 70.0301C47.9299 70.3701 47.7099 70.7601 47.4499 70.9101C47.3799 70.9501 47.3199 70.9701 47.2699 70.9701C47.1099 70.9701 47.0999 70.7901 47.0999 70.7101C47.0999 70.7101 47.0999 70.7101 47.0999 70.7001C47.0999 70.6501 47.0799 70.5901 47.0399 70.5701C47.0099 70.5501 46.9799 70.5401 46.9599 70.5401C46.9499 70.5401 46.9299 70.5401 46.9199 70.5501C46.9199 70.5501 46.8599 70.6201 46.8599 70.6701C46.8599 70.6701 46.8599 70.7001 46.8599 70.7101C46.8599 71.0201 46.6399 71.3901 46.3799 71.5401C46.3099 71.5801 46.2499 71.6001 46.1899 71.6001L46.1299 71.6101Z" fill="#063ABE"/>
<path d="M48.8999 64.8601L52.1699 67.5301C52.1299 67.7701 51.9499 68.0501 51.7499 68.1701C51.6799 68.2101 51.6399 68.2101 51.6299 68.2101C51.5799 68.2101 51.5799 68.0801 51.5799 68.0701C51.5799 67.9801 51.5299 67.9001 51.4499 67.8601C51.4099 67.8401 51.3699 67.8301 51.3299 67.8301C51.2799 67.8301 51.2399 67.8401 51.1999 67.8701C51.1199 67.9201 51.0799 68.0301 51.0799 68.1301C51.0799 68.3901 50.8799 68.7301 50.6599 68.8701C50.5899 68.9101 50.5499 68.9101 50.5399 68.9101C50.4899 68.9101 50.4899 68.7801 50.4899 68.7701C50.4899 68.7701 50.4899 68.7501 50.4899 68.7401C50.4899 68.6501 50.4499 68.5601 50.3699 68.5101C50.3299 68.4901 50.2899 68.4701 50.2399 68.4701C50.1899 68.4701 50.1499 68.4801 50.1099 68.5101C50.0299 68.5601 49.9799 68.6601 49.9899 68.7601C49.9899 68.7601 49.9899 68.7601 49.9899 68.7701C49.9899 69.0301 49.7899 69.3701 49.5699 69.5001C49.4999 69.5401 49.4599 69.5401 49.4499 69.5401C49.3999 69.5401 49.3999 69.4101 49.3999 69.3801C49.3999 69.2901 49.3399 69.2101 49.2599 69.1701C49.2299 69.1501 49.1799 69.1401 49.1399 69.1401C49.0899 69.1401 49.0299 69.1601 48.9799 69.1801C48.8999 69.2201 48.8599 69.3101 48.8599 69.4001C48.8599 69.6601 48.6599 70.0001 48.4399 70.1401C48.3699 70.1801 48.3299 70.1801 48.3199 70.1801C48.2699 70.1801 48.2699 70.0501 48.2699 70.0401C48.2699 69.9501 48.2199 69.8701 48.1399 69.8301C48.0999 69.8101 48.0599 69.8001 48.0199 69.8001C47.9699 69.8001 47.9299 69.8101 47.8899 69.8401C47.8099 69.8901 47.7699 70.0001 47.7699 70.1001C47.7699 70.3601 47.5699 70.7001 47.3499 70.8401C47.2799 70.8801 47.2399 70.8801 47.2299 70.8801C47.1799 70.8801 47.1799 70.7501 47.1799 70.7401C47.1799 70.7401 47.1799 70.7201 47.1799 70.7101C47.1799 70.6201 47.1399 70.5301 47.0599 70.4801C47.0199 70.4601 46.9799 70.4401 46.9299 70.4401C46.8799 70.4401 46.8399 70.4501 46.7999 70.4801C46.7199 70.5301 46.6799 70.6301 46.6799 70.7301C46.6799 70.7301 46.6799 70.7301 46.6799 70.7401C46.6799 71.0001 46.4799 71.3401 46.2599 71.4701C46.1899 71.5101 46.1499 71.5101 46.1399 71.5101C46.0899 71.5101 46.0899 71.3801 46.0899 71.3501C46.0899 71.2601 46.0399 71.1801 45.9599 71.1301L42.8299 68.1101L48.8999 64.8801M48.9299 64.5601L42.4099 68.0301L45.8299 71.3301H45.8399C45.8399 71.3301 45.8399 71.3501 45.8399 71.3601C45.8399 71.6001 45.9599 71.7501 46.1399 71.7501C46.2099 71.7501 46.2999 71.7201 46.3899 71.6701C46.6899 71.4901 46.9299 71.0801 46.9299 70.7301C46.9299 70.9701 47.0499 71.1101 47.2299 71.1101C47.2999 71.1101 47.3899 71.0801 47.4799 71.0301C47.7799 70.8501 48.0299 70.4301 48.0299 70.0801C48.0299 70.0601 48.0299 70.0501 48.0299 70.0401C48.0299 70.2801 48.1499 70.4301 48.3299 70.4301C48.3999 70.4301 48.4899 70.4001 48.5799 70.3501C48.8799 70.1701 49.1299 69.7501 49.1299 69.4001L49.1699 69.3801C49.1699 69.3801 49.1699 69.4001 49.1699 69.4201C49.1699 69.6601 49.2899 69.8101 49.4699 69.8101C49.5399 69.8101 49.6299 69.7801 49.7199 69.7301C50.0199 69.5501 50.2599 69.1401 50.2599 68.7901C50.2599 69.0301 50.3799 69.1701 50.5599 69.1701C50.6299 69.1701 50.7199 69.1401 50.8099 69.0901C51.1099 68.9101 51.3599 68.4901 51.3599 68.1401C51.3599 68.1201 51.3599 68.1101 51.3599 68.1001C51.3599 68.3401 51.4799 68.4901 51.6599 68.4901C51.7299 68.4901 51.8199 68.4601 51.9099 68.4101C52.2099 68.2301 52.4599 67.8101 52.4599 67.4601C52.4599 67.4601 52.4599 67.4501 52.4599 67.4401L48.9599 64.5901L48.9299 64.5601ZM50.2399 68.7501C50.2399 68.7501 50.2399 68.7301 50.2399 68.7201C50.2399 68.7201 50.2399 68.7401 50.2399 68.7501ZM46.9199 70.7101C46.9199 70.7101 46.9199 70.6901 46.9199 70.6801C46.9199 70.6801 46.9199 70.7001 46.9199 70.7101Z" fill="#00208A"/>
<path d="M49.6299 54.88L70.4299 43.72V45.09L49.6299 56.25V54.88Z" fill="#063ABE"/>
<path d="M70.3 43.92V45.01L49.75 56.04V54.95L70.3 43.92ZM70.55 43.51L49.5 54.81V56.46L70.55 45.16V43.51Z" fill="#00208A"/>
<path d="M36.4099 48.97L49.4999 56.49V61.76L36.4099 54.25V48.97Z" fill="#6A89D8" stroke="#00208A" stroke-width="0.25" stroke-linejoin="round"/>
<path d="M49.5 56.49L71.81 44.52V49.79L49.5 61.76V56.49Z" fill="white" stroke="#00208A" stroke-width="0.25" stroke-linejoin="round"/>
<path d="M37.1499 47.71L49.4999 54.8V56.46L37.1499 49.37V47.71Z" fill="#063ABE" stroke="#00208A" stroke-width="0.25" stroke-linejoin="round"/>
<path d="M49.4999 44.6V54.92L36.4099 47.41V37.09L49.4999 44.6Z" fill="#6A89D8" stroke="#00208A" stroke-width="0.25" stroke-linejoin="round"/>
<path d="M71.82 32.63V42.95L49.5 54.92V44.6L71.82 32.63Z" fill="white" stroke="#00208A" stroke-width="0.25" stroke-linejoin="round"/>
<path d="M49.83 44.53V61.72L27.52 73.69V56.5L49.83 44.53Z" fill="white" stroke="#00208A" stroke-width="0.25" stroke-linejoin="round"/>
<path d="M27.52 66.68L49.83 54.76V56.41L27.52 68.34V66.68Z" fill="#063ABE" stroke="#00208A" stroke-width="0.25" stroke-linejoin="round"/>
<path d="M50 48.9599L71.76 37.4399V38.8599L50 50.3799V48.9599Z" fill="#063ABE"/>
<path d="M71.6399 37.64V38.78L50.1299 50.17V49.03L71.6399 37.64ZM71.8899 37.23L49.8799 48.88V50.59L71.8899 38.94V37.23Z" fill="#00208A"/>
<path d="M27.6401 61.1999L49.5701 49.1899V50.6099L27.6401 62.6199V61.1999Z" fill="#063ABE"/>
<path d="M49.44 49.4V50.54L27.77 62.41V61.27L49.44 49.4ZM49.69 48.98L27.52 61.13V62.84L49.69 50.69V48.98Z" fill="#00208A"/>
<path d="M55.1499 36.76V35.08L53.6199 35.89V37.56L55.1499 36.76Z" fill="#00208A"/>
<path d="M57.1599 34.03L55.6299 34.83V36.5L57.1599 35.7V34.03Z" fill="#00208A"/>
<path d="M55.1499 33.08V31.41L53.6199 32.21V33.89L55.1499 33.08Z" fill="#00208A"/>
<path d="M57.1599 32.02V30.35L55.6299 31.15V32.83L57.1599 32.02Z" fill="#00208A"/>
<path d="M55.6299 27.47V29.1501L57.1599 28.34V26.67L55.6299 27.47Z" fill="#00208A"/>
<path d="M59.1799 34.6V32.97L57.6499 33.77V35.44L59.2399 34.61L59.1799 34.6Z" fill="#00208A"/>
<path d="M53.6199 30.21L55.1499 29.4V27.73L53.6199 28.53V30.21Z" fill="#00208A"/>
<path d="M59.6599 30.71L61.4299 29.77V28.1L59.6599 29.03V30.71Z" fill="#00208A"/>
<path d="M57.6499 30.09V31.77L59.1799 30.96V29.29L57.6499 30.09Z" fill="#00208A"/>
<path d="M53.1299 36.14L51.3599 37.08V38.75L53.1299 37.82V36.14Z" fill="#00208A"/>
<path d="M59.6599 25.36V27.03L61.4299 26.09V24.42L59.6599 25.36Z" fill="#00208A"/>
<path d="M59.6599 34.38L61.4299 33.45V31.78L59.6599 32.71V34.38Z" fill="#00208A"/>
<path d="M53.1299 32.47L51.3599 33.4V35.07L53.1299 34.14V32.47Z" fill="#00208A"/>
<path d="M57.6499 26.42V28.09L59.1799 27.28V25.61L57.6499 26.42Z" fill="#00208A"/>
<path d="M53.1299 28.79L51.3599 29.72V31.39L53.1299 30.46V28.79Z" fill="#00208A"/>
<path d="M65.9799 31.19V29.52L64.45 30.32V32L65.9799 31.19Z" fill="#00208A"/>
<path d="M68 28.46L66.46 29.27V30.94L68 30.13V28.46Z" fill="#00208A"/>
<path d="M65.9799 27.51V25.84L64.45 26.65V28.32L65.9799 27.51Z" fill="#00208A"/>
<path d="M68 26.45V24.78L66.46 25.59V27.26L68 26.45Z" fill="#00208A"/>
<path d="M66.46 21.91V23.58L68 22.78V21.1L66.46 21.91Z" fill="#00208A"/>
<path d="M70.01 29.04V27.4L68.48 28.21V29.88L70.07 29.04H70.01Z" fill="#00208A"/>
<path d="M64.45 24.64L65.9799 23.84V22.16L64.45 22.97V24.64Z" fill="#00208A"/>
<path d="M68.48 24.53V26.2L70.01 25.39V23.72L68.48 24.53Z" fill="#00208A"/>
<path d="M63.9699 30.58L62.1899 31.51V33.19L63.9699 32.25V30.58Z" fill="#00208A"/>
<path d="M63.9699 26.9L62.1899 27.83V29.51L63.9699 28.57V26.9Z" fill="#00208A"/>
<path d="M68.48 20.85V22.52L70.01 21.72V20.04L68.48 20.85Z" fill="#00208A"/>
<path d="M63.9699 23.22L62.1899 24.15V25.83L63.9699 24.9V23.22Z" fill="#00208A"/>
<path d="M27.52 66.7L48.57 55.4V57.06L27.52 68.35V66.7Z" fill="#063ABE" stroke="#00208A" stroke-width="0.25" stroke-linejoin="round"/>
<path d="M49.8299 44.51L27.5099 56.48L14.4199 48.96L36.7399 36.99L49.8299 44.51Z" fill="#CCEDD3" stroke="#00208A" stroke-width="0.25" stroke-linecap="round" stroke-linejoin="round"/>
<path d="M14.4299 60.87L27.5199 68.39V73.66L14.4299 66.14V60.87Z" fill="#6A89D8" stroke="#00208A" stroke-width="0.25" stroke-linejoin="round"/>
<path d="M15.1699 59.61L27.5199 66.7V68.35L15.1699 61.26V59.61Z" fill="#063ABE" stroke="#00208A" stroke-width="0.25" stroke-linejoin="round"/>
<path d="M18.6099 51.32L14.4199 48.96L25.7699 42.89L30.1799 45.38L18.6099 51.32Z" fill="#CCEDD3" stroke="#00208A" stroke-width="0.25" stroke-linecap="round" stroke-linejoin="round"/>
<path d="M30.23 50.4301L23.47 54.1001L18.71 51.3001L25.46 47.8101L30.23 50.4301Z" fill="#99DCA6" stroke="#00208A" stroke-width="0.25" stroke-linecap="round" stroke-linejoin="round"/>
<path d="M30.18 45.38L25.77 42.89L36.67 37.08L40.83 39.41L30.18 45.38Z" fill="#99DCA6" stroke="#00208A" stroke-width="0.25" stroke-linecap="round" stroke-linejoin="round"/>
<path d="M36.3699 39.09C36.3699 39.09 36.22 39.27 36.03 39.27C35.84 39.27 35.6899 39.09 35.6899 39.09V37.47H36.3799V39.09H36.3699Z" fill="#00208A"/>
<path d="M35.9397 37.58C34.4397 37.58 33.2197 36.07 33.2197 34.21C33.2197 32.35 35.3897 29.73 35.8297 29.73C36.3097 29.73 38.6697 32.32 38.6697 34.21C38.6697 36.1 37.4497 37.58 35.9497 37.58H35.9397Z" fill="#CCEDD3"/>
<path d="M35.8298 29.85C36.3198 29.94 38.5399 32.43 38.5399 34.21C38.5399 35.99 37.3698 37.46 35.9398 37.46C34.5098 37.46 33.3399 36 33.3399 34.21C33.3399 32.35 35.3999 29.95 35.8199 29.85M35.8298 29.6C35.2798 29.6 33.0999 32.27 33.0999 34.21C33.0999 36.14 34.3699 37.71 35.9499 37.71C37.5199 37.71 38.7999 36.14 38.7999 34.21C38.7999 32.28 36.3899 29.6 35.8399 29.6H35.8298Z" fill="#00208A"/>
<path d="M27.5098 56.48L23.3298 54.07L34.7098 47.98L39.0598 50.28L27.5098 56.48Z" fill="#CCEDD3" stroke="#00208A" stroke-width="0.25" stroke-linecap="round" stroke-linejoin="round"/>
<path d="M39.06 50.28L34.71 47.9801L45.6 42.17L49.76 44.5L39.06 50.28Z" fill="#99DCA6" stroke="#00208A" stroke-width="0.25" stroke-linecap="round" stroke-linejoin="round"/>
<path d="M24.9199 45.01C24.9199 45.01 24.7899 45.16 24.6399 45.16C24.4899 45.16 24.3599 45.01 24.3599 45.01V43.7H24.9199V45.01Z" fill="#00208A"/>
<path d="M24.5701 43.77C23.3701 43.77 22.3901 42.56 22.3901 41.06C22.3901 39.54 24.1201 37.46 24.4801 37.46C24.8401 37.46 26.7501 39.55 26.7501 41.06C26.7501 42.57 25.7701 43.77 24.5701 43.77Z" fill="#99DCA6"/>
<path d="M24.48 37.59C24.87 37.72 26.63 39.66 26.63 41.06C26.63 41.76 26.41 42.41 26.01 42.9C25.62 43.38 25.11 43.64 24.57 43.64C23.44 43.64 22.52 42.48 22.52 41.06C22.52 39.62 24.12 37.71 24.48 37.59ZM24.48 37.34C24.03 37.34 22.27 39.5 22.27 41.07C22.27 42.64 23.3 43.9 24.57 43.9C25.84 43.9 26.87 42.63 26.87 41.07C26.87 39.51 24.92 37.34 24.47 37.34H24.48Z" fill="#00208A"/>
<path d="M17.3598 48.64C17.3598 48.64 17.2298 48.79 17.0798 48.79C16.9298 48.79 16.7998 48.64 16.7998 48.64V47.33H17.3598V48.64Z" fill="#00208A"/>
<path d="M17.0101 47.4C15.8101 47.4 14.8301 46.19 14.8301 44.69C14.8301 44.04 15.1601 43.17 15.7501 42.31C16.3001 41.5 16.8001 41.09 16.9201 41.09C17.2601 41.09 19.1901 43.18 19.1901 44.69C19.1901 45.42 18.9601 46.1 18.5401 46.61C18.1301 47.11 17.5901 47.39 17.0101 47.39V47.4Z" fill="#99DCA6"/>
<path d="M16.92 41.22C17.31 41.35 19.07 43.29 19.07 44.69C19.07 45.39 18.85 46.04 18.45 46.53C18.06 47.01 17.55 47.27 17.01 47.27C15.88 47.27 14.96 46.11 14.96 44.69C14.96 43.25 16.56 41.34 16.92 41.22ZM16.92 40.96C16.47 40.96 14.71 43.12 14.71 44.69C14.71 46.25 15.74 47.52 17.01 47.52C18.28 47.52 19.31 46.25 19.31 44.69C19.31 43.13 17.36 40.96 16.91 40.96H16.92Z" fill="#00208A"/>
<path d="M64.8699 15.9C64.8699 15.9 64.7199 16.08 64.5299 16.08C64.3399 16.08 64.1899 15.9 64.1899 15.9V14.28H64.8799V15.9H64.8699Z" fill="#00208A"/>
<path d="M64.4397 14.39C62.9397 14.39 61.7197 12.88 61.7197 11.02C61.7197 9.16003 63.8897 6.54004 64.3297 6.54004C64.8097 6.54004 67.1697 9.13003 67.1697 11.02C67.1697 12.91 65.9497 14.39 64.4497 14.39H64.4397Z" fill="#CCEDD3"/>
<path d="M64.3298 6.67004C64.8198 6.76004 67.0398 9.25004 67.0398 11.03C67.0398 12.81 65.8698 14.28 64.4398 14.28C63.0098 14.28 61.8398 12.82 61.8398 11.03C61.8398 9.24004 63.8999 6.77004 64.3199 6.67004M64.3298 6.42004C63.7798 6.42004 61.5999 9.09004 61.5999 11.03C61.5999 12.97 62.8698 14.53 64.4498 14.53C66.0298 14.53 67.2998 12.96 67.2998 11.03C67.2998 9.10004 64.8898 6.42004 64.3398 6.42004H64.3298Z" fill="#00208A"/>
<path d="M57.7899 20.64C57.7899 20.64 57.6399 20.82 57.4499 20.82C57.2599 20.82 57.1099 20.64 57.1099 20.64V19.02H57.7999V20.64H57.7899Z" fill="#00208A"/>
<path d="M57.3699 19.13C55.8699 19.13 54.6499 17.62 54.6499 15.76C54.6499 13.9 56.8199 11.28 57.2599 11.28C57.7399 11.28 60.0999 13.87 60.0999 15.76C60.0999 17.65 58.8799 19.13 57.3799 19.13H57.3699Z" fill="#99DCA6"/>
<path d="M57.25 11.4C57.74 11.49 59.96 13.98 59.96 15.76C59.96 17.54 58.79 19.01 57.36 19.01C55.93 19.01 54.76 17.55 54.76 15.76C54.76 13.97 56.82 11.5 57.24 11.4M57.25 11.15C56.7 11.15 54.52 13.82 54.52 15.76C54.52 17.7 55.79 19.26 57.37 19.26C58.95 19.26 60.22 17.69 60.22 15.76C60.22 13.83 57.81 11.15 57.26 11.15H57.25Z" fill="#00208A"/>
<path d="M50.8199 24.53C50.8199 24.53 50.6699 24.71 50.4799 24.71C50.2899 24.71 50.1399 24.53 50.1399 24.53V22.91H50.8299V24.53H50.8199Z" fill="#00208A"/>
<path d="M50.3899 23.0201C48.8899 23.0201 47.6699 21.5101 47.6699 19.6501C47.6699 17.7901 49.8399 15.17 50.2799 15.17C50.7599 15.17 53.1199 17.7601 53.1199 19.6501C53.1199 21.5401 51.8999 23.0201 50.3999 23.0201H50.3899Z" fill="#CCEDD3"/>
<path d="M50.28 15.29C50.77 15.38 52.99 17.87 52.99 19.65C52.99 21.43 51.82 22.9 50.39 22.9C48.96 22.9 47.79 21.44 47.79 19.65C47.79 17.86 49.85 15.39 50.27 15.29M50.27 15.04C49.72 15.04 47.54 17.71 47.54 19.65C47.54 21.59 48.81 23.15 50.39 23.15C51.96 23.15 53.24 21.58 53.24 19.65C53.24 17.72 50.83 15.04 50.28 15.04H50.27Z" fill="#00208A"/>
<path d="M58.1299 9.48999C58.1299 9.48999 57.9799 9.66998 57.7899 9.66998C57.5999 9.66998 57.45 9.48999 57.45 9.48999V7.87H58.14V9.48999H58.1299Z" fill="#00208A"/>
<path d="M57.7 7.98001C56.2 7.98001 54.98 6.47 54.98 4.61C54.98 2.75 57.15 0.130005 57.59 0.130005C58.07 0.130005 60.43 2.72 60.43 4.61C60.43 6.5 59.21 7.98001 57.71 7.98001H57.7Z" fill="#99DCA6"/>
<path d="M57.5899 0.260002C58.0799 0.350002 60.2999 2.84001 60.2999 4.62001C60.2999 6.40001 59.1299 7.87001 57.6999 7.87001C56.2699 7.87001 55.0999 6.41001 55.0999 4.62001C55.0999 2.83001 57.1599 0.360002 57.5799 0.260002M57.5899 0C57.0399 0 54.8599 2.67 54.8599 4.61C54.8599 6.55 56.1299 8.11 57.7099 8.11C59.2899 8.11 60.5599 6.54 60.5599 4.61C60.5599 2.68 58.1499 0 57.5999 0H57.5899Z" fill="#00208A"/>
<path d="M51.0499 14.23C51.0499 14.23 50.8999 14.41 50.7099 14.41C50.5199 14.41 50.3699 14.23 50.3699 14.23V12.61H51.0599V14.23H51.0499Z" fill="#00208A"/>
<path d="M50.6299 12.72C49.1299 12.72 47.9099 11.21 47.9099 9.34999C47.9099 7.48999 50.0799 4.87 50.5199 4.87C50.9999 4.87 53.3599 7.45999 53.3599 9.34999C53.3599 11.24 52.1399 12.72 50.6399 12.72H50.6299Z" fill="#CCEDD3"/>
<path d="M50.51 4.98999C51 5.07999 53.22 7.56999 53.22 9.34999C53.22 11.13 52.05 12.6 50.62 12.6C49.19 12.6 48.02 11.14 48.02 9.34999C48.02 7.55999 50.08 5.08999 50.5 4.98999M50.51 4.73999C49.96 4.73999 47.78 7.40999 47.78 9.34999C47.78 11.29 49.05 12.85 50.63 12.85C52.21 12.85 53.48 11.28 53.48 9.34999C53.48 7.41999 51.07 4.73999 50.52 4.73999H50.51Z" fill="#00208A"/>
<path d="M44.0799 18.12C44.0799 18.12 43.9299 18.3 43.7399 18.3C43.5499 18.3 43.3999 18.12 43.3999 18.12V16.5H44.0899V18.12H44.0799Z" fill="#00208A"/>
<path d="M43.6497 16.61C42.1497 16.61 40.9297 15.1 40.9297 13.24C40.9297 11.38 43.0997 8.76001 43.5397 8.76001C44.0197 8.76001 46.3797 11.35 46.3797 13.24C46.3797 15.13 45.1597 16.61 43.6597 16.61H43.6497Z" fill="#CCEDD3"/>
<path d="M43.5398 8.88C44.0298 8.97 46.2498 11.46 46.2498 13.24C46.2498 15.02 45.0798 16.49 43.6498 16.49C42.2198 16.49 41.0498 15.03 41.0498 13.24C41.0498 11.45 43.1098 8.98 43.5298 8.88M43.5398 8.63C42.9898 8.63 40.8098 11.3 40.8098 13.24C40.8098 15.18 42.0798 16.74 43.6598 16.74C45.2298 16.74 46.5098 15.17 46.5098 13.24C46.5098 11.31 44.0998 8.63 43.5498 8.63H43.5398Z" fill="#00208A"/>
<path d="M30.1699 42.76C30.1699 42.76 30.0399 42.91 29.8899 42.91C29.7399 42.91 29.6099 42.76 29.6099 42.76V41.45H30.1699V42.76Z" fill="#00208A"/>
<path d="M29.8201 41.52C28.6201 41.52 27.6401 40.31 27.6401 38.81C27.6401 37.31 29.3701 35.21 29.7301 35.21C30.0901 35.21 32.0001 37.3 32.0001 38.81C32.0001 40.3 31.0201 41.52 29.8201 41.52Z" fill="#99DCA6"/>
<path d="M29.73 35.34C30.12 35.47 31.88 37.41 31.88 38.81C31.88 39.51 31.66 40.16 31.26 40.65C30.87 41.13 30.36 41.39 29.82 41.39C28.69 41.39 27.77 40.23 27.77 38.81C27.77 37.37 29.37 35.46 29.73 35.34ZM29.73 35.09C29.28 35.09 27.52 37.25 27.52 38.82C27.52 40.38 28.55 41.65 29.82 41.65C31.09 41.65 32.12 40.38 32.12 38.82C32.12 37.26 30.17 35.09 29.72 35.09H29.73Z" fill="#00208A"/>
<path d="M28.96 52.5101C28.94 52.4601 28.88 52.4001 28.82 52.3901C28.79 52.3901 28.77 52.3901 28.76 52.4001L28.54 52.6501V49.8101H28.03V54.4501C28.03 54.4501 28.06 54.5301 28.11 54.5501C28.21 54.6101 28.37 54.6101 28.47 54.5501C28.52 54.5201 28.54 54.4801 28.54 54.4501V53.0301L28.95 52.5701C28.95 52.5701 28.97 52.5301 28.95 52.5101H28.96Z" fill="#002484"/>
<path d="M29.1 51.7801C28.89 51.7801 28.69 51.7501 28.5 51.6801C28 51.5001 27.58 51.4201 27.19 51.4201C26.91 51.4201 26.62 51.2401 26.46 50.9801C26.38 50.8401 26.28 50.5701 26.46 50.2501C26.48 50.2101 26.48 50.1501 26.46 50.1101C25.81 49.2601 26 48.1101 26.39 47.3201C26.84 46.4101 27.58 45.8201 28.28 45.8201C28.59 45.8201 28.89 45.9401 29.17 46.1701C29.39 46.3601 29.7 46.4801 30.03 46.6201C30.56 46.8401 31.1 47.0601 31.28 47.5401C31.42 47.9001 31.34 48.3601 31.04 48.9701C31.02 49.0001 31.02 49.0401 31.04 49.0701C31.28 49.6801 31.22 50.3101 30.86 50.8401C30.47 51.4101 29.79 51.7801 29.11 51.7801H29.1Z" fill="#2EA339"/>
<path d="M28.2599 45.94C28.5399 45.94 28.8199 46.0501 29.0699 46.2601C29.3099 46.4601 29.6299 46.5901 29.9699 46.7301C30.4699 46.9401 30.9899 47.15 31.1599 47.58C31.2799 47.9 31.1999 48.35 30.9299 48.91C30.8999 48.97 30.8999 49.05 30.9299 49.11C31.1599 49.68 31.0999 50.2601 30.7599 50.7601C30.3899 51.3001 29.7499 51.6501 29.1199 51.6501C28.9299 51.6501 28.7399 51.62 28.5599 51.55C28.0399 51.37 27.6099 51.28 27.2099 51.28C26.9699 51.28 26.7199 51.13 26.5899 50.91C26.5199 50.8 26.4399 50.57 26.5899 50.31C26.6399 50.22 26.6299 50.11 26.5699 50.03C25.9499 49.23 26.1399 48.1301 26.5099 47.3701C26.9399 46.5001 27.6299 45.94 28.2899 45.94M28.2599 45.69C26.6299 45.69 25.1099 48.5701 26.3399 50.1801C25.9699 50.8301 26.5499 51.53 27.1799 51.53C27.6199 51.53 28.0399 51.64 28.4499 51.78C28.6599 51.85 28.8799 51.89 29.0999 51.89C30.4599 51.89 31.7499 50.5201 31.1499 49.0101C32.2799 46.6801 30.0399 46.74 29.2399 46.06C28.9299 45.8 28.5999 45.6801 28.2699 45.6801L28.2599 45.69Z" fill="#002484"/>
<path d="M27.5199 56.51V66.74L14.4299 59.22V49L27.5199 56.51Z" fill="#6A89D8" stroke="#00208A" stroke-width="0.25" stroke-linejoin="round"/>
<path d="M27.5 73.63L49.58 61.78V64.37L27.5 76.22V73.63Z" fill="white" stroke="#00208A" stroke-width="0.25" stroke-linejoin="round"/>
<path d="M82.5799 60.39V54.62L80.4499 55.83L80.4299 61.62L82.5799 60.39Z" fill="#00208A"/>
<path d="M90.12 55.9301V50.17L87.9799 51.3701L87.96 57.16L90.12 55.9301Z" fill="#00208A"/>
<path d="M64.17 69.18V63.41L62.03 64.61L62.01 70.41L64.17 69.18Z" fill="#00208A"/>
<path d="M37.16 92.83C36.86 91.88 35.23 91.77 34.43 92.06C32.88 92.63 33.51 93.79 34.87 93.99C35.45 94.08 36.09 94.02 36.62 93.74C36.94 93.57 37.26 93.23 37.17 92.84L37.16 92.83Z" fill="white" stroke="#002484" stroke-width="0.25" stroke-linejoin="round"/>
<path d="M37.18 92.9299C37.28 93.8799 36.11 94.1799 35.36 94.1899C34.63 94.1899 33.44 93.8899 33.53 92.9599C33.59 93.8199 34.85 94.0699 35.55 94.0199C36.18 93.9799 37.17 93.6999 37.18 92.9299Z" fill="#718BD4" stroke="#002484" stroke-width="0.25" stroke-linejoin="round"/>
<path d="M35.6001 94.1699V95.8399V95.8499V95.8699L35.5901 95.8799L35.5801 95.8899L35.5701 95.9099L35.5601 95.9199L35.5401 95.9299L35.5301 95.9399L35.5101 95.9499L35.4901 95.9599H35.4701L35.4501 95.9699H35.4201L35.4001 95.9799H35.3801H35.3501H35.3301H35.3101L35.2801 95.9699H35.2601L35.2401 95.9599H35.2201L35.2001 95.9499L35.1801 95.9399L35.1601 95.9299L35.1501 95.9199L35.1401 95.9099L35.1201 95.8999L35.1101 95.8799V95.8699L35.1001 95.8599V95.8399V94.1699V94.1799H35.1101H35.1201H35.1401H35.1501H35.1601H35.1801H35.2001H35.2201H35.2401H35.2601H35.2801H35.3101L35.3301 94.1899H35.3501H35.3701H35.3801H35.4001L35.4201 94.1799H35.4501H35.4701H35.4901H35.5101H35.5301H35.5401H35.5601H35.5701H35.5801H35.5901H35.6001V94.1699Z" fill="#718BD4" stroke="#002484" stroke-width="0.25" stroke-linejoin="round"/>
<path d="M28.34 94.3099C28.04 93.3599 26.41 93.25 25.61 93.54C24.06 94.11 24.69 95.2699 26.05 95.4699C26.63 95.5599 27.27 95.4999 27.8 95.2199C28.12 95.0499 28.44 94.71 28.35 94.32L28.34 94.3099Z" fill="white" stroke="#002484" stroke-width="0.25" stroke-linejoin="round"/>
<path d="M28.3599 94.4099C28.4599 95.3599 27.2899 95.6599 26.5399 95.6699C25.8099 95.6699 24.6199 95.3699 24.7099 94.4399C24.7699 95.2999 26.0299 95.5499 26.7299 95.4999C27.3599 95.4599 28.3499 95.1799 28.3599 94.4099Z" fill="#718BD4" stroke="#002484" stroke-width="0.25" stroke-linejoin="round"/>
<path d="M26.79 95.6499V97.3199L26.78 97.3299V97.3499L26.77 97.3599L26.76 97.3699L26.75 97.3899L26.74 97.3999L26.72 97.4099L26.71 97.4199L26.69 97.4299H26.67L26.65 97.4399L26.63 97.4499H26.61L26.58 97.4599H26.56H26.54H26.51H26.49L26.47 97.4499H26.44L26.42 97.4399H26.4L26.38 97.4299L26.36 97.4199L26.35 97.4099L26.33 97.3999L26.32 97.3899L26.31 97.3799L26.3 97.3599L26.29 97.3499L26.28 97.3399V97.3199V95.6499H26.29L26.3 95.6599H26.31H26.32H26.33H26.35H26.36H26.38H26.4H26.42H26.44H26.47H26.49H26.51H26.54L26.56 95.6699L26.58 95.6599H26.61H26.63H26.65H26.67H26.69H26.71H26.72H26.73H26.74H26.75H26.76H26.77L26.78 95.6499H26.79Z" fill="#718BD4" stroke="#002484" stroke-width="0.25" stroke-linejoin="round"/>
<path d="M33.0599 95.3699C33.1599 96.3199 31.9899 96.6199 31.2399 96.6299C30.5099 96.6299 29.3199 96.3299 29.4099 95.3999C29.4699 96.2599 30.7299 96.5099 31.4299 96.4599C32.0599 96.4199 33.0499 96.1399 33.0599 95.3699Z" fill="#718BD4" stroke="#002484" stroke-width="0.25" stroke-linejoin="round"/>
<path d="M31.49 96.6099V98.2799V98.2899L31.48 98.3099V98.3199L31.47 98.3299L31.46 98.3499L31.44 98.3599L31.43 98.3699L31.41 98.3799L31.39 98.3899L31.37 98.3999H31.35L31.33 98.4099H31.31L31.29 98.4199H31.26H31.24H31.22H31.19L31.17 98.4099H31.15L31.12 98.3999H31.1L31.08 98.3899L31.07 98.3799L31.05 98.3699L31.03 98.3599L31.02 98.3499L31.01 98.3399L31 98.3199L30.99 98.3099V98.2999L30.98 98.2799V96.6099H30.99V96.6199H31H31.01H31.02H31.03H31.05H31.07H31.08H31.09H31.1H31.12H31.15H31.17H31.19L31.22 96.6299H31.24H31.26L31.29 96.6199H31.31H31.33H31.35H31.37H31.39H31.41H31.43H31.44H31.46H31.47H31.48L31.49 96.6099Z" fill="#123EB7"/>
<path d="M31.49 91.2799V95.3799V95.3899L31.48 95.4099V95.4199L31.47 95.4299L31.46 95.4399L31.44 95.4599L31.43 95.4699L31.41 95.4799L31.39 95.4899H31.37L31.35 95.4999L31.33 95.5099H31.31H31.29L31.26 95.5199H31.24H31.22H31.19L31.17 95.5099H31.15L31.12 95.4999H31.1L31.08 95.4899L31.07 95.4799L31.05 95.4699L31.03 95.4599L31.02 95.4499L31.01 95.4399L31 95.4199L30.99 95.4099V95.3999L30.98 95.3799V91.2799H30.99H31H31.01H31.02L31.03 91.2899H31.05H31.07H31.08H31.09H31.1L31.12 91.2999H31.15H31.17H31.19H31.22H31.24H31.26H31.29H31.31H31.33L31.35 91.2899H31.37H31.39H31.41H31.43H31.44L31.46 91.2799H31.47H31.48H31.49Z" fill="#123EB7"/>
<path d="M33.0499 95.2699C32.7499 94.3199 31.1199 94.2099 30.3199 94.4999C28.7699 95.0699 29.3999 96.2299 30.7599 96.4299C31.3399 96.5199 31.9799 96.4599 32.5099 96.1799C32.8299 96.0099 33.1499 95.6699 33.0599 95.2799L33.0499 95.2699Z" fill="white" stroke="#002484" stroke-width="0.25" stroke-linejoin="round"/>
<path d="M38.39 86.15V86.09L34.8299 84.04H34.64L29.8499 83.58L25.45 84.91L23.2 87.45L24.03 90.24L27.5699 92.29L32.4699 92.81L36.9099 91.51L39.1599 88.94L38.3599 86.15H38.39Z" fill="#EFF2F9"/>
<mask id="mask0_889_43162" style="mask-type:luminance" maskUnits="userSpaceOnUse" x="23" y="83" width="17" height="10">
<path d="M38.39 86.15V86.09L34.8299 84.04H34.64L29.8499 83.58L25.45 84.91L23.2 87.45L24.03 90.24L27.5699 92.29L32.4699 92.81L36.9099 91.51L39.1599 88.94L38.3599 86.15H38.39Z" fill="white"/>
</mask>
<g mask="url(#mask0_889_43162)">
<path d="M31.1799 83.89L34.8299 84.09L38.3699 86.13L31.1799 83.89Z" fill="#718BD4" stroke="#002484" stroke-width="0.25" stroke-linecap="round" stroke-linejoin="round"/>
<path d="M25.46 84.96L31.18 83.89L29.85 83.63L25.46 84.96Z" fill="#718BD4" stroke="#002484" stroke-width="0.25" stroke-linecap="round" stroke-linejoin="round"/>
<path d="M24.04 90.28L31.2 83.83L23.21 87.49L24.04 90.28Z" fill="#718BD4" stroke="#002484" stroke-width="0.25" stroke-linecap="round" stroke-linejoin="round"/>
<path d="M27.7598 92.2199L31.1398 84.2899L32.3398 92.7099L27.7598 92.2199Z" fill="#718BD4"/>
<path d="M31.0698 84.75L32.1898 92.56L27.9398 92.11L31.0698 84.75ZM31.1998 83.83L27.5898 92.33L32.4898 92.85L31.1998 83.83Z" fill="#002484"/>
<path d="M39.1799 88.98L31.2 83.83L36.9299 91.55L39.1799 88.98Z" fill="#718BD4" stroke="#002484" stroke-width="0.25" stroke-linecap="round" stroke-linejoin="round"/>
</g>
<path d="M38.39 86.15V86.09L34.8299 84.04H34.64L29.8499 83.58L25.45 84.91L23.2 87.45L24.03 90.24L27.5699 92.29L32.4699 92.81L36.9099 91.51L39.1599 88.94L38.3599 86.15H38.39Z" stroke="#002484" stroke-width="0.25" stroke-linecap="round" stroke-linejoin="round"/>
<path d="M159.85 69.74L155.5 78.15L164.73 72.82L159.85 69.74Z" fill="#686A6B"/>
<path fill-rule="evenodd" clip-rule="evenodd" d="M159.85 69.74L155.5 78.15L164.73 72.82L159.85 69.74Z" fill="#CDD8F2" stroke="#00208A" stroke-width="0.25" stroke-linejoin="round"/>
<path fill-rule="evenodd" clip-rule="evenodd" d="M164.18 73.11L164.17 73.12V73.11H164.18Z" fill="white" stroke="#00208A" stroke-width="0.25" stroke-linejoin="round"/>
<path d="M144.97 71.4401L144.99 85.9801L155.45 92.2701L155.43 77.7301L144.97 71.4401Z" fill="#CDD8F2" stroke="#00208A" stroke-width="0.25" stroke-linejoin="round"/>
<path fill-rule="evenodd" clip-rule="evenodd" d="M164.17 73.11V73.1201L164.08 87.05L155.42 92.2701L155.44 78.17L155.5 78.1501L159.51 70.1801L164.17 73.11Z" fill="white" stroke="#00208A" stroke-width="0.25" stroke-linejoin="round"/>
<path fill-rule="evenodd" clip-rule="evenodd" d="M160.25 69.98L148.98 63.39L144.49 71.88L155.75 78.47L160.25 69.98Z" fill="#6A89D8" stroke="#00208A" stroke-width="0.25" stroke-linejoin="round"/>
<path fill-rule="evenodd" clip-rule="evenodd" d="M141.21 74.38L146.28 84.91L155.34 81.47L144.41 75.02L141.21 74.38Z" fill="#CDD8F2" stroke="#00208A" stroke-width="0.25" stroke-linejoin="round"/>
<path fill-rule="evenodd" clip-rule="evenodd" d="M152.23 80.8201L148.18 85.4701L155.34 81.4701L152.23 80.8201Z" fill="#CDD8F2" stroke="#00208A" stroke-width="0.25" stroke-linejoin="round"/>
<path d="M137.23 79.0701L137.26 89.8301L148.14 96.2101L148.16 85.4901L137.23 79.0701Z" fill="#CDD8F2" stroke="#00208A" stroke-width="0.25" stroke-linejoin="round"/>
<path fill-rule="evenodd" clip-rule="evenodd" d="M155.25 92.09L148.14 96.21L148.18 85.47L155.34 81.47L155.25 92.09Z" fill="white" stroke="#00208A" stroke-width="0.25" stroke-linejoin="round"/>
<path fill-rule="evenodd" clip-rule="evenodd" d="M152.23 80.82L141.21 74.38L137.2 79.04L148.22 85.49L152.23 80.82Z" fill="#6A89D8" stroke="#00208A" stroke-width="0.25" stroke-linejoin="round"/>
<path fill-rule="evenodd" clip-rule="evenodd" d="M134.02 78.4L139.09 88.93L148.16 85.5L137.22 79.04L134.02 78.4Z" fill="#CDD8F2" stroke="#00208A" stroke-width="0.25" stroke-linejoin="round"/>
<path fill-rule="evenodd" clip-rule="evenodd" d="M145.05 84.85L140.99 89.49L148.16 85.5L145.05 84.85Z" fill="#CDD8F2" stroke="#00208A" stroke-width="0.25" stroke-linejoin="round"/>
<path d="M130.05 83.09L130.07 93.85L141 100.28L140.98 89.51L130.05 83.09Z" fill="#CDD8F2" stroke="#00208A" stroke-width="0.25" stroke-linejoin="round"/>
<path fill-rule="evenodd" clip-rule="evenodd" d="M148.14 96.21L140.97 100.28L140.99 89.49L148.15 85.49L148.14 96.21Z" fill="white" stroke="#00208A" stroke-width="0.25" stroke-linejoin="round"/>
<path fill-rule="evenodd" clip-rule="evenodd" d="M145.05 84.85L134.02 78.4L130.01 83.07L141.04 89.51L145.05 84.85Z" fill="#6A89D8" stroke="#00208A" stroke-width="0.25" stroke-linejoin="round"/>
<path d="M147.54 96.37V90.6L145.41 91.8L145.39 97.6L147.54 96.37Z" fill="#00208A"/>
<path d="M163.25 87.54V81.77L161.12 82.97L161.1 88.76L163.25 87.54Z" fill="#00208A"/>
<path d="M159.8 82.73L157.26 84.24V87.51L159.8 86.04V82.73Z" fill="#F1F4FE" stroke="#002484" stroke-width="0.25" stroke-linejoin="round"/>
<path d="M163.05 74.42L160.51 75.92V79.19L163.05 77.7301V74.42Z" fill="#F1F4FE" stroke="#002484" stroke-width="0.25" stroke-linejoin="round"/>
<path d="M159.58 76.42L157.04 77.9301V81.2L159.58 79.7401V76.42Z" fill="#F1F4FE" stroke="#002484" stroke-width="0.25" stroke-linejoin="round"/>
<path d="M154.28 85.5801L151.74 87.0901V90.3601L154.28 88.8901V85.5801Z" fill="#F1F4FE" stroke="#002484" stroke-width="0.25" stroke-linejoin="round"/>
<path d="M144.56 90.42L142.02 91.92V95.19L144.56 93.7301V90.42Z" fill="#F1F4FE" stroke="#002484" stroke-width="0.25" stroke-linejoin="round"/>
<path d="M136.06 89.75L138.6 91.26V94.53L136.06 93.07V89.75Z" fill="#F1F4FE" stroke="#002484" stroke-width="0.25" stroke-linejoin="round"/>
<path d="M131.98 87.37L134.52 88.87V92.14L131.98 90.68V87.37Z" fill="#F1F4FE" stroke="#002484" stroke-width="0.25" stroke-linejoin="round"/>
<path d="M134.1 97.1L134 97.08L134.09 97.03L134.04 96.82L133.94 96.8L134.02 96.75L133.98 96.55L133.88 96.52L133.96 96.48L133.91 96.27L133.81 96.25L133.9 96.2L133.85 95.99L133.7 95.96L129.07 98.64L129.11 98.85L129.21 98.87L129.13 98.92L129.18 99.12L129.28 99.15L129.19 99.19L129.24 99.4L129.34 99.42L129.26 99.47L129.3 99.67L129.4 99.7L129.32 99.75L129.37 99.95L129.52 99.99L134.15 97.3L134.1 97.1Z" fill="#000056" stroke="#000056" stroke-width="0.25" stroke-linejoin="round"/>
<path d="M131.11 101.15C131.11 101.15 131.09 101.06 131.07 101.05C131.05 101.04 129.64 100.23 129.64 100.23L129.48 100.32L130.87 101.12L130.95 101.18" fill="#000056"/>
<path d="M131.1 101.11C131.1 101.11 131.08 101.08 131.07 101.06C131.06 101.05 131.05 101.04 131.04 101.03L129.65 100.23L129.27 98.5299C129.27 98.5299 129.27 98.5199 129.26 98.5099C129.26 98.4999 129.24 98.4899 129.22 98.4799C129.17 98.4499 129.1 98.4399 129.07 98.4599L128.91 98.5499C128.91 98.5499 128.89 98.5699 128.9 98.5799L129.3 100.36V101.75L129.52 101.88L129.68 101.79V100.84L130.74 101.45V102.59L130.94 102.7L131.12 102.62V101.18C131.12 101.18 131.12 101.14 131.11 101.12L131.1 101.11Z" fill="#000056"/>
<path d="M129.59 100.58L129.75 100.68V100.52L129.59 100.42V100.58Z" fill="#000056"/>
<path d="M135.81 98.4199C135.81 98.4199 135.79 98.3899 135.78 98.3699C135.77 98.3599 135.76 98.3499 135.75 98.3399L134.36 97.5399L133.98 95.8399C133.98 95.8399 133.98 95.8299 133.97 95.8199C133.97 95.8099 133.95 95.7999 133.93 95.7899C133.88 95.7599 133.81 95.7499 133.78 95.7699L133.62 95.8599C133.62 95.8599 133.6 95.8799 133.61 95.8899L134.01 97.6699V97.8799L129.8 100.32L129.97 100.42V100.53L129.87 100.59V100.75L130.04 100.85L130.15 100.79V100.91L130.32 101.01L130.43 100.95V101.07L130.6 101.17L130.71 101.11V101.23L130.88 101.33V101.17H131.15L135.39 98.7299L135.49 98.7899V99.9299L135.69 100.04L135.87 99.9599V98.5199C135.87 98.5199 135.87 98.4799 135.86 98.4599L135.81 98.4199Z" fill="#000056"/>
<path d="M126.05 105.21C126.05 105.21 125.81 105.53 125.51 105.53C125.21 105.53 124.97 105.21 124.97 105.21V102.37H126.06V105.21H126.05Z" fill="#002484"/>
<path d="M125.37 102.66C122.96 102.66 121 99.97 121 96.65C121 93.33 124.47 88.71 125.19 88.71C125.96 88.71 129.74 93.3 129.74 96.65C129.74 100 127.78 102.66 125.37 102.66Z" fill="#ABDAB0"/>
<path d="M125.19 88.83C125.81 88.83 129.62 93.21 129.62 96.65C129.62 98.23 129.17 99.72 128.35 100.84C127.55 101.93 126.49 102.53 125.37 102.53C123.03 102.53 121.12 99.89 121.12 96.65C121.12 93.21 124.62 88.84 125.19 88.83ZM125.19 88.58C124.32 88.58 120.87 93.26 120.87 96.65C120.87 100.04 122.88 102.78 125.37 102.78C127.86 102.78 129.87 100.04 129.87 96.65C129.87 93.26 126.07 88.58 125.19 88.58Z" fill="#002484"/>
<path d="M119.01 109.19C119.01 109.19 118.74 109.54 118.41 109.54C118.08 109.54 117.81 109.19 117.81 109.19V106.09H119V109.19H119.01Z" fill="#002484"/>
<path d="M118.27 106.41C115.63 106.41 113.48 103.46 113.48 99.83C113.48 96.2 117.28 91.13 118.08 91.13C118.93 91.13 123.07 96.16 123.07 99.83C123.07 103.5 120.92 106.41 118.28 106.41H118.27Z" fill="#ABDAB0"/>
<path d="M118.07 91.25C118.8 91.25 122.94 96.23 122.94 99.83C122.94 101.57 122.45 103.2 121.55 104.42C120.67 105.62 119.51 106.28 118.27 106.28C115.7 106.28 113.6 103.38 113.6 99.83C113.6 98.28 114.32 96.21 115.57 94.16C116.75 92.23 117.81 91.26 118.08 91.26M118.07 91C117.11 91 113.35 96.12 113.35 99.83C113.35 103.53 115.55 106.53 118.27 106.53C120.99 106.53 123.19 103.53 123.19 99.83C123.19 96.13 119.03 91 118.07 91Z" fill="#002484"/>
</svg>
