<svg width="178" height="104" viewBox="0 0 178 104" fill="none" xmlns="http://www.w3.org/2000/svg">
<path d="M2.5 57.9308L82 103.431L177.5 47.5L99.37 1.43079L2.5 57.9308Z" fill="white"/>
<path d="M82 103.5L90.5 98.5L177.5 47.5L96.87 0L0 56.5" fill="#F5F5F7"/>
<path d="M93.5603 65.5399L110.25 75.9599L115.32 72.7399L99.2003 62.3099L93.5603 65.5399Z" fill="white"/>
<path d="M114.76 72.46L168.07 42.01L173.56 45.44L82.1902 98.54L4.9502 54.35L11.3902 50.55L81.8102 91.29L109.54 75.45" fill="white"/>
<path d="M99.3603 62.66L106.37 58.59L100.07 54.92L117.51 44.59L92.5903 30.09L56.5303 50.9L88.6303 68.92L92.7303 66.49L93.9803 65.75" fill="white"/>
<path d="M69.0302 30.6899L68.9702 39.2L47.9502 51.3299L47.9302 42.8699L69.0302 30.6899Z" fill="#FFFBF8" stroke="#002484" stroke-width="0.25" stroke-linejoin="round"/>
<path d="M47.9501 51.27L37.6101 45.32L37.5901 36.86L47.9301 42.87L47.9501 51.27Z" fill="#CDD8F2" stroke="#00208A" stroke-width="0.25" stroke-linejoin="round"/>
<path d="M47.9301 42.87L37.5901 36.86L58.8501 24.59L69.0301 30.69L47.9301 42.87Z" fill="#D0D8F1" stroke="#002484" stroke-width="0.25" stroke-linejoin="round"/>
<path d="M56.1501 40.39L58.1501 39.23L58.2601 42.71L56.1401 43.91V40.38L56.1501 40.39Z" fill="#D0D8F1" stroke="#002484" stroke-width="0.2" stroke-linejoin="round"/>
<path d="M59.0601 38.62L61.0601 37.46L61.17 40.94L59.05 42.14V38.61L59.0601 38.62Z" fill="#D0D8F1" stroke="#002484" stroke-width="0.2" stroke-linejoin="round"/>
<path d="M61.9302 36.91L63.9302 35.75L64.0402 39.23L61.9202 40.43V36.9L61.9302 36.91Z" fill="#D0D8F1" stroke="#002484" stroke-width="0.2" stroke-linejoin="round"/>
<path d="M64.78 35.27L66.78 34.11L66.89 37.59L64.77 38.79V35.26L64.78 35.27Z" fill="#D0D8F1" stroke="#002484" stroke-width="0.2" stroke-linejoin="round"/>
<path d="M53.9902 41.87L51.4702 43.33L51.4802 49.26L53.9902 47.73V41.87Z" fill="#00208A"/>
<path d="M83.76 44.67C83.66 44.69 83.51 44.58 83.51 44.58V44.78L83.63 44.83C83.63 44.83 83.7 44.91 83.79 44.96C83.89 45.01 84.05 45.1 84.05 45.06C84.05 45.04 84.02 45.02 83.99 45C84.05 45.01 84.13 45.04 84.12 45C84.12 44.97 84.04 44.93 83.99 44.9C84.05 44.9 84.13 44.92 84.12 44.89C84.1 44.84 83.91 44.79 83.91 44.79C83.91 44.79 83.87 44.77 83.85 44.75C83.88 44.73 83.95 44.66 83.89 44.65C83.85 44.64 83.8 44.66 83.77 44.67H83.76Z" fill="#063ABE"/>
<path d="M82.01 42C82.01 42 82.27 42.05 82.4 42.25C82.53 42.45 82.67 43.59 82.84 43.83C83.09 44.2 83.6 44.6 83.6 44.6L83.52 44.91C82.84 44.42 82.69 44.27 82.49 44.04C82.29 43.81 82.02 42 82.02 42H82.01Z" fill="#04005A"/>
<path d="M81.1502 44.8101L81.1702 47.2001L80.6902 48.0701C80.6902 48.1801 80.7702 48.2801 80.8602 48.3101L81.1002 48.3801L81.7502 47.4301L81.8902 45.6501L82.2002 47.3L82.4702 48.97C82.4702 49.09 82.5502 49.2101 82.6602 49.2401L82.8802 49.3201L82.7102 47.36L82.5302 44.9301C82.5302 44.9301 82.3402 45.1401 82.0402 45.1001C81.7402 45.0601 81.1702 44.8 81.1702 44.8L81.1502 44.8101Z" fill="#04005A"/>
<path d="M82.42 43.06C82.41 43.4 82.4701 43.7 82.4701 43.7C82.4801 44.36 82.51 44.9299 82.51 44.9299C82.51 44.9299 82.48 45.2499 81.92 45.3199C81.31 45.3999 81.1001 44.7899 81.1001 44.7899C81.1001 44.7899 81.08 44.2999 81.15 43.5699L81.1301 42.7C81.1301 42.7 81.1101 42.5799 81.1901 42.3799C81.2701 42.1799 81.65 42.0199 81.65 42.0199H81.71L81.92 41.9399" fill="#04005A"/>
<path d="M81.65 41.8C81.65 41.8 81.68 41.9701 81.65 42.0701C81.62 42.1701 81.7899 42.32 81.9499 42.36C82.1099 42.4 82.09 42.29 82.1 42.16C82.11 42.03 81.66 41.8 81.66 41.8H81.65Z" fill="#063ABE"/>
<path d="M81.8401 42.09C81.8401 42.09 81.9901 42.2599 82.0801 42.2299C82.2401 42.1799 82.2901 41.7799 82.2201 41.5199C82.1501 41.2599 81.6801 41.1899 81.6801 41.1899L81.6201 41.7799" fill="#063ABE"/>
<path d="M81.69 41.6L81.73 41.73L81.78 41.77V41.48C81.78 41.48 81.84 41.6 82 41.68C82.2 41.78 82.34 41.64 82.34 41.64C82.34 41.64 82.35 41.46 82.16 41.29C82.04 41.19 81.88 41.01 81.71 41.06C81.54 41.11 81.6 41.21 81.6 41.21C81.6 41.21 81.44 41.24 81.56 41.64C81.62 41.82 81.68 41.91 81.68 41.91V41.65L81.7 41.61L81.69 41.6Z" fill="#04005A"/>
<path d="M80.6801 45.35C80.6301 45.22 80.6701 45.01 80.6701 45.01L80.5201 45.03V45.17C80.5201 45.17 80.4701 45.26 80.4701 45.39C80.4701 45.52 80.4501 45.74 80.4701 45.73C80.4801 45.73 80.4901 45.69 80.5001 45.65C80.5001 45.73 80.51 45.83 80.54 45.82C80.56 45.81 80.5701 45.72 80.5701 45.64C80.5901 45.71 80.6001 45.83 80.6201 45.81C80.6501 45.79 80.6201 45.53 80.6201 45.53C80.6201 45.53 80.6201 45.48 80.6301 45.45C80.6601 45.49 80.7301 45.57 80.7201 45.5C80.7201 45.45 80.6801 45.38 80.6601 45.34L80.6801 45.35Z" fill="#063ABE"/>
<path d="M81.5601 42.14C81.2401 42.14 80.9401 42.65 80.7001 43.16C80.4401 43.73 80.4601 45.08 80.4601 45.08L80.7101 45.13C80.7101 45.13 80.8001 44.03 80.9301 43.65C81.0201 43.37 81.1801 43.14 81.1801 43.14" fill="#04005A"/>
<path d="M81.73 41.69L81.71 41.76C81.71 41.76 81.68 41.74 81.67 41.73C81.64 41.7 81.62 41.63 81.63 41.58C81.64 41.53 81.67 41.52 81.7 41.55C81.73 41.58 81.74 41.64 81.73 41.69Z" fill="#063ABE"/>
<path d="M82.68 48.98C82.68 48.98 82.82 49.18 82.93 49.22C83.33 49.36 83.28 49.42 83.31 49.47C83.36 49.57 83.14 49.65 83.03 49.64C82.68 49.58 82.74 49.57 82.68 49.56C82.62 49.55 82.56 49.56 82.53 49.45C82.5 49.34 82.46 49.08 82.46 49.08C82.46 49.08 82.53 49.14 82.61 49.09C82.69 49.04 82.68 48.98 82.68 48.98Z" fill="#04005A"/>
<path d="M81.14 48.16C81.14 48.16 81.1 48.4 81.14 48.57C81.32 49.18 81.24 49.12 81.22 49.17C81.18 49.26 80.97 48.95 80.9 48.79C80.7 48.27 80.74 48.35 80.71 48.26C80.68 48.17 80.63 48.09 80.69 48.03C80.75 47.97 80.91 47.87 80.91 47.87C80.91 47.87 80.91 47.99 81.01 48.09C81.11 48.19 81.13 48.17 81.13 48.17L81.14 48.16Z" fill="#04005A"/>
<path d="M81.43 41.45C81.43 41.45 81.5201 41.48 81.6901 41.5C81.8601 41.52 81.88 41.58 82.05 41.58C82.22 41.58 82.42 41.54 82.46 41.48C82.5 41.42 82.3601 41.38 82.3501 41.36C82.3401 41.34 82.35 41.3 82.31 41.24C82.27 41.18 82.36 41.1 82.17 40.95C81.98 40.8 81.84 40.84 81.71 40.87C81.71 40.87 81.6 40.95 81.58 40.96C81.5 41.01 81.45 41.11 81.45 41.17V41.24C81.45 41.24 81.3901 41.28 81.4101 41.38C81.4101 41.38 81.38 41.44 81.43 41.45Z" fill="#000056" stroke="#04005A" stroke-width="0.04" stroke-miterlimit="10"/>
<path d="M81.4901 41.23C81.4901 41.23 81.5801 41.27 81.7101 41.28C81.8401 41.29 81.7901 41.35 81.7901 41.4C81.7901 41.45 81.6901 41.43 81.6101 41.42C81.5301 41.41 81.4301 41.37 81.4301 41.37C81.4301 41.37 81.4101 41.27 81.4801 41.23H81.4901Z" fill="#000056" stroke="#04005A" stroke-width="0.04" stroke-miterlimit="10"/>
<path d="M81.6501 40.91C81.6501 40.91 81.9202 40.91 82.0002 40.99C82.0002 40.99 82.2301 41.06 82.1701 40.94" fill="#000056"/>
<path d="M81.6501 40.91C81.6501 40.91 81.9202 40.91 82.0002 40.99C82.0002 40.99 82.2301 41.06 82.1701 40.94" stroke="#04005A" stroke-width="0.04" stroke-miterlimit="10"/>
<path d="M82.3601 41.3501C82.3601 41.3501 82.2501 41.4801 81.8801 41.4301L82.3601 41.3501Z" fill="#000056"/>
<path d="M82.3601 41.3501C82.3601 41.3501 82.2501 41.4801 81.8801 41.4301" stroke="#04005A" stroke-width="0.04" stroke-miterlimit="10"/>
<path d="M80.5 14.78L80.46 29.42L127.85 56.78L127.89 42.14L80.5 14.78Z" fill="#FFFBF8" stroke="#002484" stroke-width="0.23" stroke-linejoin="round"/>
<path d="M127.85 56.68L145.74 46.38L145.79 31.75L127.89 42.14L127.85 56.68Z" fill="#123EB7" stroke="#002484" stroke-width="0.23" stroke-linejoin="round"/>
<path d="M127.89 42.14L145.79 31.75L98.3999 4.39001L80.6599 14.77L127.89 42.14Z" fill="#D0D8F1" stroke="#002484" stroke-width="0.23" stroke-linejoin="round"/>
<path d="M80.46 17.42L127.89 44.89" stroke="#002484" stroke-width="0.23" stroke-linejoin="round"/>
<path d="M80.46 20.5L127.89 47.97" stroke="#002484" stroke-width="0.23" stroke-linejoin="round"/>
<path d="M80.46 23.5701L127.89 51.0501" stroke="#002484" stroke-width="0.23" stroke-linejoin="round"/>
<path d="M80.46 26.65L127.89 54.13" stroke="#002484" stroke-width="0.23" stroke-linejoin="round"/>
<path d="M127.89 44.89L145.79 34.79" stroke="#002484" stroke-width="0.23" stroke-linejoin="round"/>
<path d="M127.89 47.88L145.79 37.77" stroke="#002484" stroke-width="0.23" stroke-linejoin="round"/>
<path d="M127.89 50.86L145.79 40.75" stroke="#002484" stroke-width="0.23" stroke-linejoin="round"/>
<path d="M127.87 53.84L145.76 43.74" stroke="#002484" stroke-width="0.23" stroke-linejoin="round"/>
<path d="M92.15 32.13C92.15 32.13 91.52 33.22 91.85 34.3C92.05 34.94 93.14 36.1 93.44 35.66C94.7 33.81 96.28 34.19 96.28 34.19" fill="#D0D8F1"/>
<path d="M92.15 32.13C92.15 32.13 91.52 33.22 91.85 34.3C92.05 34.94 93.14 36.1 93.44 35.66C94.7 33.81 96.28 34.19 96.28 34.19" stroke="#002484" stroke-width="0.23" stroke-miterlimit="10"/>
<path d="M94.1299 30.54C94.1299 30.54 91.4399 30.95 91.9199 31.87C92.3999 32.79 97.8899 35.18 97.8499 34.19" fill="#D0D8F1"/>
<path d="M94.1299 30.54C94.1299 30.54 91.4399 30.95 91.9199 31.87C92.3999 32.79 97.8899 35.18 97.8499 34.19" stroke="#002484" stroke-width="0.23" stroke-miterlimit="10"/>
<path d="M100.83 34.05C100.83 34.05 102.19 33.76 103.33 34.26C104.47 34.76 106.16 36.17 106.28 35.43C106.5 33.97 103.34 31.88 103.34 31.88" fill="#D0D8F1"/>
<path d="M100.83 34.05C100.83 34.05 102.19 33.76 103.33 34.26C104.47 34.76 106.16 36.17 106.28 35.43C106.5 33.97 103.34 31.88 103.34 31.88" stroke="#002484" stroke-width="0.23" stroke-miterlimit="10"/>
<path d="M100.06 34.11C100.06 34.11 101.57 34.22 102.47 32.93C103.37 31.65 103.88 31.81 102.83 31.1C101.77 30.39 100.4 30.27 99.5901 30.36" fill="#D0D8F1"/>
<path d="M100.06 34.11C100.06 34.11 101.57 34.22 102.47 32.93C103.37 31.65 103.88 31.81 102.83 31.1C101.77 30.39 100.4 30.27 99.5901 30.36" stroke="#002484" stroke-width="0.23" stroke-miterlimit="10"/>
<path d="M99.53 30.25C99.17 29.78 97.97 29.23 96.11 29.4C94.26 29.58 93.91 30.18 94.06 30.44C94.21 30.7 97.46 34.81 99.26 34.65C101.07 34.5 99.89 30.72 99.52 30.25H99.53Z" fill="#D0D8F1" stroke="#002484" stroke-width="0.23" stroke-miterlimit="10"/>
<path d="M82.6099 25.1801L84.9299 26.5201L84.9199 31.9501L82.6099 30.5601V25.1801Z" fill="#00208A"/>
<path d="M124.69 36.74L127.84 34.91L131.02 36.75V37.88L127.86 39.71L124.69 37.87V36.74Z" fill="#002484"/>
<path d="M127.85 34.92L131.02 36.75V37.88L127.86 39.71H127.85V34.92Z" fill="#718BD4" stroke="#002484" stroke-width="0.23" stroke-linejoin="round"/>
<path d="M124.91 36.7401L127.84 35.05L130.79 36.7501L127.86 38.4501L124.91 36.7401Z" fill="#D0D8F1"/>
<path d="M127.84 35.18L130.56 36.75L127.86 38.31L125.14 36.74L127.84 35.18ZM127.84 34.91L124.68 36.74L127.86 38.58L131.02 36.75L127.84 34.91Z" fill="#123EB7"/>
<path d="M126.71 36.09C126.08 36.45 126.09 37.0401 126.71 37.4001C127.33 37.7601 128.36 37.7701 128.98 37.4001C129.6 37.0301 129.6 36.45 128.98 36.09C128.36 35.73 127.33 35.72 126.71 36.09Z" fill="#002484"/>
<path d="M84.5 14.17L87.66 12.34L90.83 14.18V15.31L87.68 17.14L84.5 15.3V14.17Z" fill="#002484"/>
<path d="M87.6699 12.35L90.8299 14.18V15.31L87.6799 17.14L87.6699 17.13V12.35Z" fill="#718BD4" stroke="#002484" stroke-width="0.23" stroke-linejoin="round"/>
<path d="M84.73 14.17L87.66 12.47L90.6 14.18L87.68 15.87L84.73 14.17Z" fill="#D0D8F1"/>
<path d="M87.66 12.6L90.38 14.17L87.68 15.73L84.96 14.16L87.66 12.6ZM87.66 12.34L84.5 14.17L87.68 16.01L90.84 14.18L87.66 12.34Z" fill="#123EB7"/>
<path d="M86.53 13.51C85.9 13.87 85.91 14.46 86.53 14.82C87.15 15.18 88.18 15.19 88.8 14.82C89.42 14.45 89.42 13.87 88.8 13.51C88.18 13.15 87.15 13.14 86.53 13.51Z" fill="#002484"/>
<path d="M136.36 30.36L139.52 28.53L142.7 30.37V31.5L139.54 33.33L136.36 31.49V30.36Z" fill="#002484"/>
<path d="M139.53 28.54L142.7 30.37V31.5L139.54 33.33L139.53 33.32V28.54Z" fill="#718BD4" stroke="#002484" stroke-width="0.23" stroke-linejoin="round"/>
<path d="M136.59 30.36L139.52 28.67L142.47 30.37L139.54 32.07L136.59 30.36Z" fill="#D0D8F1"/>
<path d="M139.52 28.8L142.24 30.37L139.54 31.93L136.82 30.36L139.52 28.8ZM139.52 28.53L136.36 30.36L139.54 32.2L142.7 30.37L139.52 28.53Z" fill="#123EB7"/>
<path d="M138.39 29.71C137.76 30.07 137.77 30.66 138.39 31.02C139.01 31.38 140.04 31.39 140.66 31.02C141.28 30.65 141.28 30.07 140.66 29.71C140.04 29.35 139.01 29.34 138.39 29.71Z" fill="#002484"/>
<path d="M109.47 42.76C107.9 42.09 106.41 40.24 104.74 38.43C103.1 36.64 101.35 34.22 101.47 32.58C101.52 31.97 103.1 31.26 105.64 32.32C107.32 33.02 108.63 34.13 110.2 35.84C111.76 37.54 112.41 38.97 112.58 40.07C112.61 40.26 112.69 41.63 111.96 42.27C111.23 42.92 109.7 42.86 109.47 42.76Z" fill="#D0D8F1" stroke="#002484" stroke-width="0.23" stroke-miterlimit="10"/>
<path d="M112.49 39.91C112.49 39.91 111.03 38.13 108.29 38.12C106.4 38.14 108.26 37.69 108.26 37.69C108.26 37.69 110.26 37.13 112.46 39.11" stroke="#002484" stroke-width="0.23" stroke-miterlimit="10"/>
<path d="M111.77 37.9C111.77 37.9 110.7 36.12 106.92 36.09C104.25 36.11 109.04 34.73 111.17 36.9" stroke="#002484" stroke-width="0.23" stroke-miterlimit="10"/>
<path d="M109.04 34.73C106.64 32.6 103.44 34.38 105.56 34.18C108.3 33.97 110.21 35.84 110.21 35.84" stroke="#002484" stroke-width="0.23" stroke-miterlimit="10"/>
<path d="M30.4701 59.5599C30.3901 59.5799 29.98 59.3899 29.39 59.0699C27.06 57.8099 21.8101 54.5599 21.8101 54.5599L37.01 45.9299L45.45 50.9199L30.4701 59.5599Z" fill="white"/>
<path d="M33.9 50.51C33.9 50.51 33.86 50.57 33.79 50.62C33.67 50.72 33.5 50.84 33.31 50.78C33.21 50.75 32.75 49.66 32.75 49.66C32.75 49.66 32.84 49.48 33.18 49.39C33.55 49.3 33.75 49.66 33.87 49.87C34.03 50.18 33.89 50.5 33.89 50.5L33.9 50.51Z" fill="#002484"/>
<path d="M33.66 50.45C33.66 50.64 33.57 50.77 33.44 50.79C33.36 50.8 33.27 50.79 33.17 50.73C32.9 50.58 32.68 50.2 32.69 49.89C32.69 49.58 32.91 49.46 33.18 49.61C33.45 49.76 33.67 50.14 33.66 50.45Z" fill="#123EB7" stroke="#002484" stroke-width="0.19" stroke-linejoin="round"/>
<path d="M33.1501 50.56C32.9801 50.46 32.8301 50.21 32.8301 50.01C32.8301 49.86 32.9101 49.77 33.0301 49.77C33.0801 49.77 33.1301 49.79 33.1801 49.82C33.3501 49.92 33.5001 50.17 33.5001 50.37C33.5001 50.52 33.4201 50.61 33.3001 50.61C33.2501 50.61 33.2001 50.59 33.1501 50.56Z" fill="#F6F6F6" stroke="#002484" stroke-width="0.19" stroke-linejoin="round"/>
<path d="M33.15 50.43C33.05 50.37 32.96 50.22 32.96 50.1C32.96 50.01 33 49.96 33.07 49.96C33.1 49.96 33.13 49.96 33.16 49.99C33.26 50.05 33.35 50.2 33.35 50.32C33.35 50.41 33.31 50.46 33.24 50.46C33.21 50.46 33.18 50.46 33.15 50.43Z" fill="#718BD4" stroke="#002484" stroke-width="0.19" stroke-linejoin="round"/>
<path d="M37.4401 52.62C37.4401 52.62 37.4 52.68 37.33 52.73C37.21 52.83 37.0401 52.95 36.8501 52.89C36.7501 52.86 36.29 51.77 36.29 51.77C36.29 51.77 36.3801 51.59 36.7201 51.5C37.0901 51.41 37.2901 51.77 37.4101 51.98C37.5701 52.29 37.4301 52.61 37.4301 52.61L37.4401 52.62Z" fill="#002484"/>
<path d="M37.2101 52.56C37.2101 52.75 37.1201 52.88 36.9901 52.9C36.9101 52.91 36.8201 52.9 36.7201 52.84C36.4501 52.69 36.2301 52.31 36.2401 52C36.2401 51.69 36.4601 51.57 36.7301 51.72C37.0001 51.87 37.2201 52.25 37.2101 52.56Z" fill="#123EB7" stroke="#002484" stroke-width="0.19" stroke-linejoin="round"/>
<path d="M36.7001 52.66C36.5301 52.56 36.3801 52.31 36.3801 52.11C36.3801 51.96 36.4601 51.87 36.5801 51.87C36.6301 51.87 36.6801 51.89 36.7301 51.92C36.9001 52.02 37.0501 52.27 37.0501 52.47C37.0501 52.62 36.9701 52.71 36.8501 52.71C36.8001 52.71 36.7501 52.69 36.7001 52.66Z" fill="#F6F6F6" stroke="#002484" stroke-width="0.19" stroke-linejoin="round"/>
<path d="M36.7 52.53C36.6 52.47 36.51 52.3201 36.51 52.2001C36.51 52.1101 36.55 52.0601 36.62 52.0601C36.65 52.0601 36.68 52.0601 36.71 52.0901C36.81 52.1501 36.9 52.3 36.9 52.42C36.9 52.51 36.86 52.5601 36.79 52.5601C36.76 52.5601 36.73 52.56 36.7 52.53Z" fill="#718BD4" stroke="#002484" stroke-width="0.19" stroke-linejoin="round"/>
<path fill-rule="evenodd" clip-rule="evenodd" d="M38.7801 53.31C38.6201 53.5 38.4001 53.29 38.2201 53.21C37.9101 53.03 37.6301 52.87 37.3701 52.71C37.3701 52.67 37.3601 52.63 37.3501 52.59C37.2901 52.19 36.9601 51.74 36.6201 51.58C36.5201 51.53 36.3501 51.51 36.1801 51.54C36.0501 51.56 35.9401 51.68 35.8601 51.8C35.5901 51.64 35.3201 51.49 35.0201 51.32C34.9101 51.25 34.3201 50.89 33.7401 50.52C33.7301 50.46 33.7101 50.37 33.6801 50.23C33.5801 49.73 33.3101 49.61 33.1001 49.54C33.0101 49.51 32.8801 49.51 32.7401 49.55C32.6601 49.58 32.5801 49.63 32.5201 49.69C32.4901 49.66 32.4701 49.64 32.4601 49.63C32.3801 49.56 32.3301 49.3 32.3301 49.3V49.04L32.4001 48.32L32.8701 47.89C32.8701 47.89 33.9601 48.11 34.1401 48.2C35.2501 48.73 36.2601 49.72 36.9301 50.77C37.4901 51.43 38.6801 51.75 38.7901 52.7C38.9101 52.95 38.7901 53.07 38.7801 53.3V53.31Z" fill="#FCFCFF" stroke="#002484" stroke-width="0.19" stroke-linejoin="round"/>
<path fill-rule="evenodd" clip-rule="evenodd" d="M32.6201 48.82C32.5801 48.88 32.5201 48.89 32.4301 48.85C32.4201 48.85 32.4101 48.84 32.4001 48.83C32.3701 48.81 32.3601 48.8 32.3601 48.76C32.3601 48.7 32.3801 48.63 32.3701 48.55C32.3701 48.53 32.3701 48.5 32.3701 48.47C32.3701 48.45 32.3701 48.44 32.3901 48.45C32.3901 48.45 32.4001 48.45 32.4101 48.47C32.4801 48.54 32.5401 48.61 32.6001 48.69C32.6401 48.75 32.6501 48.8 32.6201 48.84" fill="#002484"/>
<path fill-rule="evenodd" clip-rule="evenodd" d="M32.8701 47.9L35.3001 46.49C35.5201 46.51 35.7401 46.61 35.9601 46.69C37.0001 47.12 38.5001 48.26 38.5001 48.26C38.5001 48.26 39.2401 49.14 39.5601 49.59C40.1301 50.09 41.1301 50.48 41.2101 51.31L41.1301 51.66L38.7201 53.34L38.7701 52.73C38.6901 51.9 37.6801 51.5 37.1201 51.01C36.6901 50.61 36.4001 50.04 35.9901 49.62C35.0601 48.89 34.0001 48.19 32.8601 47.91L32.8701 47.9Z" fill="#A0B2E2" stroke="#002484" stroke-width="0.19" stroke-linejoin="round"/>
<path d="M38.4 48.41C38.4 48.41 37.86 48.71 37.48 48.92L36.26 49.65C36.32 49.74 36.39 49.83 36.45 49.92C36.62 50.15 36.78 50.38 36.93 50.61C37.01 50.73 37.1 50.83 37.2 50.89C37.22 50.89 37.24 50.91 37.25 50.92C37.26 50.92 37.27 50.93 37.28 50.94C37.3 50.95 37.32 50.96 37.34 50.97C37.34 50.97 38.24 50.57 38.54 50.35C38.85 50.12 39.32 49.56 39.32 49.56L38.4 48.39V48.41Z" fill="#002484"/>
<path d="M36.4001 50.41C36.2301 50.18 36.0801 49.97 35.9001 49.78C35.6601 49.59 35.4301 49.42 35.2001 49.26L34.6101 50.02H34.5901L36.5601 51.16V51.02C36.6001 50.8 36.5401 50.58 36.4101 50.4L36.4001 50.41Z" fill="#002484"/>
<path d="M32.6401 48.8899L34.3701 49.8899L34.9801 49.0999C34.4401 48.7399 33.9401 48.4799 33.4601 48.2999C33.3201 48.2499 32.6501 48.8799 32.6501 48.8799L32.6401 48.8899Z" fill="#002484"/>
<path d="M41.1802 51.46L41.2402 51.27L41.1902 51.11C41.1902 51.11 41.0402 51.18 40.9402 51.23C40.7802 51.33 40.6702 51.42 40.6702 51.42L40.7002 51.5C40.7402 51.6 40.8402 51.64 40.9302 51.59L41.1802 51.45V51.46Z" fill="#002484"/>
<path d="M38.8 52.89V52.73V52.55C38.8 52.55 38.9301 52.45 39.0301 52.4C39.1901 52.31 39.3101 52.27 39.3101 52.27L39.3501 52.34C39.4001 52.43 39.3701 52.54 39.2801 52.59L38.8101 52.89H38.8Z" fill="#002484"/>
<path d="M27.3099 54.52C27.3099 54.52 27.2699 54.58 27.1999 54.63C27.0799 54.73 26.9099 54.85 26.7199 54.79C26.6199 54.76 26.1599 53.67 26.1599 53.67C26.1599 53.67 26.2499 53.49 26.5899 53.4C26.9599 53.31 27.1599 53.67 27.2799 53.88C27.4399 54.19 27.2999 54.51 27.2999 54.51L27.3099 54.52Z" fill="#002484"/>
<path d="M27.0699 54.46C27.0699 54.65 26.9799 54.78 26.8499 54.8C26.7699 54.81 26.6799 54.8 26.5799 54.74C26.3099 54.59 26.0899 54.21 26.0999 53.9C26.0999 53.59 26.3199 53.47 26.5899 53.62C26.8599 53.77 27.0799 54.15 27.0699 54.46Z" fill="#123EB7" stroke="#002484" stroke-width="0.19" stroke-linejoin="round"/>
<path d="M26.56 54.56C26.39 54.46 26.24 54.21 26.24 54.01C26.24 53.86 26.32 53.77 26.44 53.77C26.49 53.77 26.54 53.79 26.59 53.82C26.76 53.92 26.91 54.17 26.91 54.37C26.91 54.52 26.83 54.61 26.71 54.61C26.66 54.61 26.61 54.59 26.56 54.56Z" fill="#F6F6F6" stroke="#002484" stroke-width="0.19" stroke-linejoin="round"/>
<path d="M26.5601 54.43C26.4601 54.37 26.3701 54.22 26.3701 54.1C26.3701 54.01 26.4101 53.96 26.4801 53.96C26.5101 53.96 26.5401 53.96 26.5701 53.99C26.6701 54.05 26.7601 54.2 26.7601 54.32C26.7601 54.41 26.7201 54.46 26.6501 54.46C26.6201 54.46 26.5901 54.46 26.5601 54.43Z" fill="#718BD4" stroke="#002484" stroke-width="0.19" stroke-linejoin="round"/>
<path d="M30.85 56.62C30.85 56.62 30.81 56.68 30.74 56.73C30.62 56.83 30.4499 56.95 30.2599 56.89C30.1599 56.86 29.7 55.77 29.7 55.77C29.7 55.77 29.79 55.59 30.13 55.5C30.5 55.41 30.7 55.77 30.82 55.98C30.98 56.29 30.84 56.61 30.84 56.61L30.85 56.62Z" fill="#002484"/>
<path d="M30.62 56.56C30.62 56.75 30.53 56.88 30.4 56.9C30.32 56.91 30.23 56.9 30.13 56.84C29.86 56.69 29.64 56.31 29.65 56C29.65 55.69 29.87 55.57 30.14 55.72C30.41 55.87 30.63 56.25 30.62 56.56Z" fill="#123EB7" stroke="#002484" stroke-width="0.19" stroke-linejoin="round"/>
<path d="M30.11 56.67C29.94 56.57 29.79 56.32 29.79 56.12C29.79 55.97 29.8701 55.88 29.9901 55.88C30.0401 55.88 30.09 55.9 30.14 55.93C30.31 56.03 30.4601 56.28 30.4601 56.48C30.4601 56.63 30.38 56.72 30.26 56.72C30.21 56.72 30.16 56.7 30.11 56.67Z" fill="#F6F6F6" stroke="#002484" stroke-width="0.19" stroke-linejoin="round"/>
<path d="M30.1099 56.5401C30.0099 56.4801 29.9199 56.3301 29.9199 56.2101C29.9199 56.1201 29.9599 56.0701 30.0299 56.0701C30.0599 56.0701 30.0899 56.0701 30.1199 56.1001C30.2199 56.1601 30.3099 56.3101 30.3099 56.4301C30.3099 56.5201 30.2699 56.5701 30.1999 56.5701C30.1699 56.5701 30.1399 56.5701 30.1099 56.5401Z" fill="#718BD4" stroke="#002484" stroke-width="0.19" stroke-linejoin="round"/>
<path fill-rule="evenodd" clip-rule="evenodd" d="M32.19 57.32C32.03 57.51 31.81 57.3 31.63 57.22C31.32 57.04 31.04 56.88 30.78 56.72C30.78 56.68 30.77 56.64 30.76 56.6C30.7 56.2 30.37 55.75 30.03 55.59C29.93 55.54 29.76 55.52 29.59 55.55C29.46 55.57 29.35 55.69 29.27 55.81C29 55.65 28.73 55.5 28.43 55.33C28.32 55.26 27.73 54.9 27.15 54.53C27.14 54.47 27.12 54.38 27.09 54.24C26.99 53.74 26.72 53.62 26.51 53.55C26.42 53.52 26.29 53.52 26.15 53.56C26.07 53.59 25.99 53.64 25.93 53.7C25.9 53.67 25.88 53.65 25.87 53.64C25.79 53.57 25.74 53.31 25.74 53.31V53.05L25.81 52.33L26.28 51.9C26.28 51.9 27.37 52.12 27.55 52.21C28.66 52.74 29.67 53.73 30.34 54.78C30.9 55.44 32.09 55.76 32.2 56.71C32.32 56.96 32.2 57.08 32.19 57.31V57.32Z" fill="#FCFCFF" stroke="#002484" stroke-width="0.19" stroke-linejoin="round"/>
<path fill-rule="evenodd" clip-rule="evenodd" d="M26.03 52.82C25.99 52.88 25.93 52.89 25.84 52.85C25.83 52.85 25.82 52.84 25.81 52.83C25.78 52.81 25.77 52.8 25.77 52.76C25.77 52.7 25.79 52.63 25.78 52.55C25.78 52.53 25.78 52.5 25.78 52.47C25.78 52.45 25.78 52.44 25.8 52.45C25.8 52.45 25.81 52.45 25.82 52.47C25.89 52.54 25.95 52.61 26.01 52.69C26.05 52.75 26.06 52.8 26.03 52.84" fill="#002484"/>
<path fill-rule="evenodd" clip-rule="evenodd" d="M26.28 51.91L28.71 50.5C28.93 50.52 29.15 50.62 29.37 50.7C30.41 51.13 31.91 52.27 31.91 52.27C31.91 52.27 32.65 53.15 32.97 53.6C33.54 54.1 34.54 54.49 34.62 55.32L34.54 55.67L32.13 57.35L32.18 56.74C32.1 55.91 31.09 55.51 30.53 55.02C30.1 54.62 29.81 54.05 29.4 53.63C28.47 52.9 27.41 52.2 26.27 51.92L26.28 51.91Z" fill="#A0B2E2" stroke="#002484" stroke-width="0.19" stroke-linejoin="round"/>
<path d="M31.8099 52.41C31.8099 52.41 31.2699 52.71 30.8899 52.92L29.6699 53.65C29.7299 53.74 29.7999 53.83 29.8599 53.92C30.0299 54.15 30.1899 54.38 30.3399 54.61C30.4199 54.73 30.5099 54.83 30.6099 54.89C30.6299 54.89 30.6499 54.91 30.6599 54.92C30.6699 54.92 30.6799 54.93 30.6899 54.94C30.7099 54.95 30.7299 54.96 30.7499 54.97C30.7499 54.97 31.6499 54.57 31.9499 54.35C32.2599 54.12 32.7299 53.56 32.7299 53.56L31.8099 52.39V52.41Z" fill="#002484"/>
<path d="M29.81 54.41C29.64 54.18 29.49 53.97 29.31 53.78C29.07 53.59 28.84 53.42 28.61 53.26L28.02 54.02H28L29.97 55.16V55.02C30.01 54.8 29.95 54.58 29.82 54.4L29.81 54.41Z" fill="#002484"/>
<path d="M26.05 52.8899L27.7801 53.8899L28.39 53.0999C27.85 52.7399 27.3501 52.4799 26.8701 52.2999C26.7301 52.2499 26.0601 52.8799 26.0601 52.8799L26.05 52.8899Z" fill="#002484"/>
<path d="M34.6001 55.46L34.6601 55.27L34.6101 55.11C34.6101 55.11 34.4601 55.18 34.3601 55.23C34.2001 55.33 34.0901 55.42 34.0901 55.42L34.1201 55.5C34.1601 55.6 34.2601 55.64 34.3501 55.59L34.6001 55.45V55.46Z" fill="#002484"/>
<path d="M32.21 56.89V56.73V56.55C32.21 56.55 32.34 56.45 32.44 56.4C32.6 56.31 32.72 56.27 32.72 56.27L32.7599 56.34C32.8099 56.43 32.78 56.54 32.69 56.59L32.22 56.89H32.21Z" fill="#002484"/>
<path d="M79.7901 88.63C79.7101 88.65 79.3001 88.46 78.7101 88.14C76.3801 86.88 71.1301 83.63 71.1301 83.63L86.3301 75L94.7701 79.99L79.7901 88.63Z" fill="white"/>
<path d="M47.8802 70.3299C47.8002 70.3499 47.3902 70.16 46.8002 69.84C44.4702 68.58 39.2202 65.3299 39.2202 65.3299L54.4202 56.7L62.8602 61.6899L47.8802 70.3299Z" fill="white"/>
<path d="M58.8202 76.0799C58.7402 76.0999 58.3301 75.91 57.7401 75.59C55.4101 74.33 50.1602 71.0799 50.1602 71.0799L65.3601 62.45L73.8001 67.4399L58.8202 76.0799Z" fill="white"/>
<path d="M65.2301 63.5699L73.3701 59.0299L67.1201 55.45L58.8401 60.3299L58.8301 60.34L65.2301 63.5699Z" fill="#D0D8F1" stroke="#002484" stroke-width="0.2" stroke-linejoin="round"/>
<path d="M58.8901 60.34L58.8801 67.18L58.9401 67.2L59.5001 67.52V67.46L65.2401 70.63L65.2801 63.52" fill="#002484"/>
<path d="M70.3401 67.7399C70.3401 67.7399 70.4301 67.8599 70.5801 67.9899C70.8401 68.2099 71.2101 68.4699 71.6301 68.3399C71.8501 68.2699 72.8601 65.8499 72.8601 65.8499C72.8601 65.8499 72.6501 65.4499 71.9101 65.2599C71.1001 65.0499 70.7301 65.8999 70.7301 65.8999L70.3401 67.7399Z" fill="#002484"/>
<path d="M71.9301 65.7499C72.5201 65.4099 73.0101 65.6799 73.0101 66.3599C73.0101 67.0399 72.5301 67.8699 71.9401 68.2199C71.7201 68.3499 71.5201 68.3899 71.3501 68.3599C71.0601 68.3099 70.8701 68.0399 70.8701 67.6099C70.8701 66.9299 71.3501 66.0999 71.9401 65.7499H71.9301Z" fill="#123EB7" stroke="#002484" stroke-width="0.2" stroke-linejoin="round"/>
<path d="M71.66 67.94C71.4 67.94 71.23 67.73 71.23 67.4C71.23 66.96 71.54 66.41 71.93 66.19C72.05 66.12 72.16 66.09 72.26 66.09C72.52 66.09 72.69 66.3 72.69 66.63C72.69 67.07 72.38 67.62 71.99 67.84C71.88 67.91 71.76 67.94 71.66 67.94Z" fill="#F6F6F6" stroke="#002484" stroke-width="0.2" stroke-linejoin="round"/>
<path d="M71.79 67.61C71.64 67.61 71.54 67.49 71.54 67.3C71.54 67.03 71.7301 66.71 71.9601 66.57C72.0301 66.53 72.0901 66.51 72.1501 66.51C72.3001 66.51 72.4001 66.63 72.4001 66.82C72.4001 67.09 72.21 67.41 71.98 67.55C71.91 67.59 71.85 67.61 71.79 67.61Z" fill="#718BD4" stroke="#002484" stroke-width="0.2" stroke-linejoin="round"/>
<path d="M65.3101 70.6399C65.3101 70.6399 65.4 70.7599 65.55 70.8899C65.81 71.1099 66.1801 71.37 66.6001 71.24C66.8201 71.17 67.83 68.7499 67.83 68.7499C67.83 68.7499 67.6201 68.35 66.8801 68.16C66.0701 67.95 65.7 68.8 65.7 68.8L65.3101 70.6399Z" fill="#002484"/>
<path d="M66.9001 68.65C67.4901 68.31 67.9801 68.58 67.9801 69.26C67.9801 69.94 67.5001 70.77 66.9101 71.12C66.6901 71.25 66.4901 71.29 66.3201 71.26C66.0301 71.21 65.8401 70.94 65.8401 70.51C65.8401 69.83 66.3201 69 66.9101 68.65H66.9001Z" fill="#123EB7" stroke="#002484" stroke-width="0.2" stroke-linejoin="round"/>
<path d="M66.63 70.84C66.37 70.84 66.2 70.63 66.2 70.3C66.2 69.86 66.51 69.31 66.9 69.09C67.02 69.02 67.1299 68.99 67.2299 68.99C67.4899 68.99 67.66 69.2 67.66 69.53C67.66 69.97 67.35 70.52 66.96 70.74C66.85 70.81 66.73 70.84 66.63 70.84Z" fill="#F6F6F6" stroke="#002484" stroke-width="0.2" stroke-linejoin="round"/>
<path d="M66.76 70.51C66.61 70.51 66.51 70.39 66.51 70.2C66.51 69.93 66.7 69.61 66.93 69.47C67 69.43 67.06 69.41 67.12 69.41C67.27 69.41 67.37 69.53 67.37 69.72C67.37 69.99 67.18 70.31 66.95 70.45C66.88 70.49 66.82 70.51 66.76 70.51Z" fill="#718BD4" stroke="#002484" stroke-width="0.2" stroke-linejoin="round"/>
<path d="M65.3302 70.1299C65.2502 70.1799 65.1802 70.2999 65.1802 70.3999V70.4799C65.1802 70.5799 65.2502 70.6299 65.3302 70.5799L73.2502 65.8999C73.3302 65.8499 73.4002 65.7299 73.4002 65.6299V65.5499C73.4002 65.4499 73.3302 65.3999 73.2502 65.4499L65.3302 70.1299Z" fill="#718BD4" stroke="#002484" stroke-width="0.2" stroke-linejoin="round"/>
<path d="M65.23 63.5999V70.1899L73.36 65.4199V59.0399L65.23 63.5999Z" fill="#F6F6F6" stroke="#002484" stroke-width="0.2" stroke-linejoin="round"/>
<path d="M61.4701 72.16L61.2401 71.99L59.3201 72.54L58.8 71.51L61.1201 70.61L61.7801 71.33L61.4701 72.16Z" fill="#123EB7" stroke="#002484" stroke-width="0.2" stroke-linejoin="round"/>
<path d="M58.6602 73.4499C58.6602 73.4499 58.7501 73.5699 58.9001 73.6999C59.1601 73.9199 59.5301 74.1799 59.9501 74.0499C60.1701 73.9799 61.1801 71.5599 61.1801 71.5599C61.1801 71.5599 61.0301 71.1699 60.4001 71.1199C59.7701 71.0599 59.0501 71.6099 59.0501 71.6099L58.6602 73.4499Z" fill="#002484" stroke="#002484" stroke-width="0.2" stroke-linejoin="round"/>
<path d="M60.2502 71.4599C60.8402 71.1199 61.3302 71.3899 61.3302 72.0699C61.3302 72.7499 60.8502 73.5799 60.2602 73.9299C60.0402 74.0599 59.8402 74.0999 59.6702 74.0699C59.3802 74.0199 59.1902 73.7499 59.1902 73.3199C59.1902 72.6399 59.6702 71.8099 60.2602 71.4599H60.2502Z" fill="#123EB7" stroke="#002484" stroke-width="0.2" stroke-linejoin="round"/>
<path d="M59.98 73.6499C59.72 73.6499 59.55 73.4399 59.55 73.1099C59.55 72.6699 59.8601 72.1199 60.2501 71.8999C60.3601 71.8299 60.48 71.7999 60.58 71.7999C60.84 71.7999 61.01 72.0099 61.01 72.3399C61.01 72.7799 60.7001 73.3299 60.3101 73.5499C60.2001 73.6199 60.08 73.6499 59.98 73.6499Z" fill="#F6F6F6" stroke="#002484" stroke-width="0.2" stroke-linejoin="round"/>
<path d="M60.1101 73.32C59.9601 73.32 59.8601 73.2 59.8601 73.01C59.8601 72.74 60.0501 72.42 60.2801 72.28C60.3501 72.24 60.4101 72.22 60.4701 72.22C60.6201 72.22 60.7201 72.34 60.7201 72.53C60.7201 72.8 60.5301 73.12 60.3001 73.26C60.2301 73.3 60.1701 73.32 60.1101 73.32Z" fill="#718BD4" stroke="#002484" stroke-width="0.2" stroke-linejoin="round"/>
<path d="M63.5902 65.17C61.2902 63.83 59.4202 63.03 59.1802 63.11C59.1802 63.11 58.2402 63.32 57.3502 64.07L55.6402 66.59C55.6402 66.59 53.7602 68.3 53.6802 68.59C53.6802 68.59 53.6102 69.04 53.6502 69.85C53.6502 70.01 53.6002 70.07 53.6802 70.2C53.9602 70.7 55.6502 72.34 57.7902 72.69C57.7902 72.69 58.1502 72.69 59.1402 72.03C59.1402 72.03 58.9402 71.52 59.2202 71.43C59.2202 71.43 59.0502 71.52 60.6502 70.75C60.5402 70.8 61.7802 69.99 61.4802 72.16L63.4402 71.06C63.4402 71.06 63.7502 65.25 63.6002 65.17H63.5902Z" fill="#D0D8F1" stroke="#002484" stroke-width="0.2" stroke-linejoin="round"/>
<path d="M63.7501 70.9199L63.6001 65.1799C63.6001 65.1799 63.4601 65.1099 63.4101 65.1299C62.9501 65.3699 62.4601 65.7199 62.4001 65.7599C62.1001 65.9399 62.0001 66.0299 61.8301 66.2399C61.7301 66.3599 61.6701 66.4799 61.5301 66.7399L60.1301 69.3099C60.1301 69.3099 58.1201 70.6099 57.8801 71.0799C57.7401 71.3499 57.8001 72.5799 57.8001 72.5799C58.4401 72.5899 58.9001 72.4199 59.3401 72.2099C59.3401 72.2099 59.4301 71.9199 59.5001 71.8199C59.6801 71.5499 60.8701 70.7699 61.1001 70.7299C61.1001 70.7299 61.3801 70.6699 61.4201 71.1699C61.4301 71.2899 61.4601 71.7199 61.4701 72.1499L63.7601 70.9099L63.7501 70.9199Z" fill="#F6F6F6" stroke="#002484" stroke-width="0.2" stroke-linejoin="round"/>
<path d="M63.0801 65.6499C63.1601 65.5999 63.2701 65.6499 63.2701 65.7599L63.3001 67.1099C63.3001 67.4799 63.1101 67.8199 62.8101 68.0299L61.1501 69.1899C61.1501 69.1899 61.0501 69.1899 61.0501 69.1399V68.4699C61.0401 68.3199 61.0801 68.1599 61.1401 68.0299L61.9901 66.5199C62.0601 66.3799 62.1601 66.2699 62.2901 66.1899L63.0601 65.6599L63.0801 65.6499Z" fill="#002484"/>
<path d="M61.4902 66.21L57.6402 64.25C57.6402 64.25 56.3202 65.94 55.9502 66.46C55.9502 66.46 56.4902 67.36 57.2702 67.77C58.0502 68.18 59.9502 68.85 59.9502 68.85L61.5002 66.21H61.4902Z" fill="#002484"/>
<path d="M59.5001 72.2599L59.3601 72.1699C58.3501 72.4999 57.8001 72.5999 57.8001 72.5999C56.3101 72.0999 55.7501 71.7599 55.1101 71.3599C54.4001 70.9299 53.9501 70.4799 53.8001 70.2999C53.6501 70.1199 53.6501 69.9899 53.6501 69.9499C53.6501 69.9399 53.6501 69.9299 53.6501 69.9299C53.6101 69.9299 53.5601 69.9799 53.5501 70.0299C53.5101 70.2199 53.5701 70.8999 53.5701 70.8999C53.5701 70.9799 53.6301 71.4099 53.6801 71.4699C54.7001 72.6699 56.4401 73.3999 57.5001 73.6299C57.7201 73.6799 58.1001 73.6599 58.3201 73.5899L58.9101 73.3799C58.9901 73.3499 59.1001 73.2899 59.1601 73.2399C59.2301 73.1699 59.2801 73.0299 59.2801 73.0299C59.4501 72.5599 59.5101 72.2799 59.5101 72.2799L59.5001 72.2599Z" fill="#718BD4" stroke="#002484" stroke-width="0.2" stroke-linejoin="round"/>
<path d="M56.6602 71.0199L56.4102 71.6899C56.4102 71.6899 56.7302 71.8199 57.0002 71.9199C57.4702 72.0999 57.7901 72.1699 57.7901 72.1699L57.8102 71.5099L56.6701 71.0199H56.6602Z" fill="#002484"/>
<path d="M53.9801 69.3499L53.6401 69.0499C53.6401 69.0499 53.6401 69.2299 53.6301 69.3099C53.6301 69.4699 53.6401 69.8199 53.6401 69.8199L53.6701 69.8899L53.7701 70.0499L53.8901 70.1899L54.0401 70.3399L53.9801 69.3599V69.3499Z" fill="#002484"/>
<path d="M69.1903 82.2899C69.1103 82.3099 68.7003 82.1199 68.1103 81.7999C65.7803 80.5399 60.5303 77.2899 60.5303 77.2899L75.7303 68.6599L84.1703 73.6499L69.1903 82.2899Z" fill="white"/>
<path d="M75.6902 75.26C75.6902 75.26 75.7402 75.33 75.8302 75.4C75.9802 75.53 76.2002 75.68 76.4402 75.6C76.5702 75.56 77.1602 74.16 77.1602 74.16C77.1602 74.16 77.0402 73.93 76.6102 73.82C76.1402 73.7 75.8702 74.16 75.7302 74.44C75.5202 74.84 75.7002 75.25 75.7002 75.25L75.6902 75.26Z" fill="#002484"/>
<path d="M76.6102 74.11C76.9502 73.91 77.2302 74.07 77.2302 74.47C77.2302 74.86 76.9502 75.35 76.6102 75.55C76.4802 75.62 76.3602 75.65 76.2702 75.63C76.1002 75.6 75.9902 75.44 75.9902 75.19C75.9902 74.8 76.2702 74.31 76.6102 74.11Z" fill="#123EB7" stroke="#002484" stroke-width="0.25" stroke-linejoin="round"/>
<path d="M76.4602 75.3799C76.3102 75.3799 76.2102 75.2599 76.2102 75.0699C76.2102 74.8099 76.3902 74.4999 76.6102 74.3699C76.6802 74.3299 76.7402 74.3099 76.8002 74.3099C76.9502 74.3099 77.0502 74.4299 77.0502 74.6199C77.0502 74.8799 76.8702 75.1899 76.6502 75.3199C76.5802 75.3599 76.5202 75.3799 76.4602 75.3799Z" fill="#F6F6F6" stroke="#002484" stroke-width="0.25" stroke-linejoin="round"/>
<path d="M76.5302 75.1799C76.4402 75.1799 76.3901 75.1099 76.3901 74.9999C76.3901 74.8499 76.5002 74.6599 76.6302 74.5799C76.6702 74.5599 76.7101 74.5499 76.7401 74.5499C76.8301 74.5499 76.8801 74.6199 76.8901 74.7299C76.8901 74.8799 76.7801 75.0699 76.6501 75.1499C76.6101 75.1699 76.5701 75.1799 76.5401 75.1799H76.5302Z" fill="#718BD4" stroke="#002484" stroke-width="0.25" stroke-linejoin="round"/>
<path d="M71.1402 77.9599C71.1402 77.9599 71.1902 78.0299 71.2802 78.0999C71.4302 78.2299 71.6502 78.3799 71.8902 78.2999C72.0202 78.2599 72.6102 76.8599 72.6102 76.8599C72.6102 76.8599 72.4902 76.6299 72.0602 76.5199C71.5902 76.3999 71.3202 76.8599 71.1802 77.1399C70.9702 77.5399 71.1502 77.9499 71.1502 77.9499L71.1402 77.9599Z" fill="#002484"/>
<path d="M72.0702 76.8C72.4102 76.6 72.6902 76.76 72.6902 77.16C72.6902 77.55 72.4102 78.04 72.0702 78.24C71.9402 78.31 71.8202 78.34 71.7302 78.32C71.5602 78.29 71.4502 78.13 71.4502 77.88C71.4502 77.49 71.7302 77 72.0702 76.8Z" fill="#123EB7" stroke="#002484" stroke-width="0.25" stroke-linejoin="round"/>
<path d="M71.9102 78.0699C71.7602 78.0699 71.6602 77.9499 71.6602 77.7599C71.6602 77.4999 71.8402 77.1899 72.0602 77.0599C72.1302 77.0199 72.1902 76.9999 72.2502 76.9999C72.4002 76.9999 72.5002 77.1199 72.5002 77.3099C72.5002 77.5699 72.3202 77.8799 72.1002 78.0099C72.0302 78.0499 71.9702 78.0699 71.9102 78.0699Z" fill="#F6F6F6" stroke="#002484" stroke-width="0.25" stroke-linejoin="round"/>
<path d="M71.9801 77.8799C71.8901 77.8799 71.8401 77.8099 71.8401 77.6999C71.8401 77.5499 71.9501 77.3599 72.0801 77.2799C72.1201 77.2599 72.1601 77.2499 72.1901 77.2499C72.2801 77.2499 72.3301 77.3199 72.3401 77.4299C72.3401 77.5799 72.2301 77.7699 72.1001 77.8499C72.0601 77.8699 72.0201 77.8799 71.9901 77.8799H71.9801Z" fill="#718BD4" stroke="#002484" stroke-width="0.25" stroke-linejoin="round"/>
<path fill-rule="evenodd" clip-rule="evenodd" d="M69.4303 78.8499C69.6303 79.0899 69.9103 78.8299 70.1403 78.7199C70.5303 78.4899 70.8903 78.2799 71.2303 78.0799C71.2303 78.0299 71.2503 77.9799 71.2503 77.9199C71.3303 77.4099 71.7503 76.8299 72.1803 76.6299C72.3103 76.5699 72.5303 76.5399 72.7403 76.5799C72.9103 76.6099 73.0503 76.7599 73.1503 76.9199C73.4903 76.7199 73.8403 76.5199 74.2203 76.3099C74.3703 76.2099 75.1203 75.7599 75.8703 75.2899C75.8903 75.2099 75.9103 75.0999 75.9403 74.9199C76.0603 74.2799 76.4103 74.1299 76.6803 74.0399C76.8003 73.9999 76.9703 73.9999 77.1403 74.0599C77.2503 74.0999 77.3403 74.1599 77.4303 74.2399C77.4703 74.2099 77.5003 74.1799 77.5103 74.1599C77.6103 74.0799 77.6703 73.7299 77.6703 73.7299V73.3999L77.5803 72.4799L76.9803 71.9299C76.9803 71.9299 75.5903 72.2099 75.3503 72.3299C73.9303 73.0099 72.6303 74.2799 71.7703 75.6299C71.0603 76.4799 69.5203 76.8899 69.3803 78.1099C69.2203 78.4299 69.3903 78.5799 69.4003 78.8699L69.4303 78.8499Z" fill="#FCFCFF" stroke="#002484" stroke-width="0.25" stroke-linejoin="round"/>
<path fill-rule="evenodd" clip-rule="evenodd" d="M77.3302 73.0899C77.3902 73.1699 77.4602 73.1799 77.5702 73.1199C77.5802 73.1199 77.6002 73.0999 77.6102 73.0899C77.6502 73.0599 77.6602 73.0499 77.6602 72.9999C77.6502 72.9199 77.6402 72.8399 77.6402 72.7299C77.6402 72.7099 77.6402 72.6699 77.6402 72.6199C77.6402 72.5899 77.6402 72.5799 77.6202 72.5899C77.6202 72.5899 77.6102 72.5999 77.6002 72.6099C77.5102 72.6999 77.4302 72.7899 77.3602 72.8899C77.3002 72.9699 77.2902 73.0299 77.3302 73.0799" fill="#002484"/>
<path fill-rule="evenodd" clip-rule="evenodd" d="M77.0003 71.91L73.8803 70.1C73.6003 70.13 73.3103 70.25 73.0303 70.35C71.7003 70.9 69.7803 72.36 69.7803 72.36C69.7803 72.36 68.8303 73.49 68.4203 74.06C67.6903 74.7 66.4103 75.21 66.3003 76.27L66.4003 76.72L69.4903 78.87L69.4303 78.08C69.5403 77.02 70.8203 76.51 71.5503 75.87C72.1003 75.36 72.4703 74.63 73.0003 74.09C74.1903 73.15 75.5503 72.26 77.0203 71.9L77.0003 71.91Z" fill="#A0B2E2" stroke="#002484" stroke-width="0.25" stroke-linejoin="round"/>
<path d="M69.9202 72.5599C69.9202 72.5599 70.6103 72.9499 71.1003 73.2199L72.6602 74.1599C72.6602 74.1599 72.6602 74.1599 72.6602 74.1699C72.5802 74.2799 72.4902 74.3999 72.4102 74.5099C72.2002 74.7999 71.9902 75.0999 71.7902 75.3999C71.6902 75.5599 71.5702 75.6899 71.4402 75.7599C71.4202 75.7699 71.4002 75.7799 71.3702 75.7899C71.3602 75.7899 71.3402 75.7999 71.3302 75.8099C71.3102 75.8199 71.2802 75.8399 71.2602 75.8499C71.2602 75.8499 70.1002 75.3399 69.7302 75.0599C69.3302 74.7599 68.7302 74.0499 68.7302 74.0499L69.9002 72.5499L69.9202 72.5599Z" fill="#002484"/>
<path d="M72.4803 75.12C72.6903 74.83 72.8904 74.55 73.1304 74.31C73.4404 74.07 73.7404 73.84 74.0304 73.64L74.7804 74.62H74.8003L72.2804 76.09L72.2603 75.91C72.2303 75.63 72.3103 75.35 72.4803 75.12Z" fill="#002484"/>
<path d="M77.3103 73.18L75.0903 74.47L74.3103 73.46C75.0003 73 75.6403 72.67 76.2603 72.43C76.4403 72.36 77.3003 73.18 77.3003 73.18H77.3103Z" fill="#002484"/>
<path d="M66.3503 76.47L66.2803 76.22L66.3403 76.02C66.3403 76.02 66.5403 76.1 66.6603 76.18C66.8703 76.31 67.0003 76.42 67.0003 76.42L66.9603 76.52C66.9103 76.65 66.7803 76.7 66.6603 76.64L66.3403 76.46L66.3503 76.47Z" fill="#002484"/>
<path d="M69.4103 78.31V78.11V77.88C69.4103 77.88 69.2402 77.75 69.1202 77.69C68.9102 77.58 68.7602 77.52 68.7602 77.52L68.7102 77.61C68.6502 77.72 68.6902 77.87 68.8002 77.93L69.4103 78.32V78.31Z" fill="#002484"/>
<path d="M68.78 82.6299C68.68 82.6499 68.53 82.5399 68.53 82.5399V82.7399L68.65 82.7899C68.65 82.7899 68.72 82.8699 68.81 82.9199C68.91 82.9699 69.07 83.0599 69.07 83.0199C69.07 82.9999 69.04 82.9799 69.01 82.9599C69.07 82.9699 69.15 82.9999 69.14 82.9599C69.14 82.9299 69.06 82.8899 69.01 82.8599C69.07 82.8599 69.15 82.8799 69.14 82.8499C69.12 82.7999 68.93 82.7499 68.93 82.7499C68.93 82.7499 68.89 82.7299 68.87 82.7099C68.9 82.6899 68.97 82.6199 68.91 82.6099C68.87 82.5999 68.82 82.6199 68.79 82.6299H68.78Z" fill="#063ABE"/>
<path d="M67.03 79.96C67.03 79.96 67.29 80.01 67.42 80.21C67.55 80.41 67.69 81.55 67.86 81.79C68.11 82.16 68.62 82.56 68.62 82.56L68.54 82.87C67.86 82.38 67.71 82.23 67.51 82C67.31 81.77 67.04 79.96 67.04 79.96H67.03Z" fill="#04005A"/>
<path d="M66.1702 82.77L66.1902 85.16L65.7102 86.03C65.7102 86.14 65.7902 86.24 65.8802 86.27L66.1202 86.34L66.7702 85.39L66.9102 83.61L67.2202 85.26L67.4902 86.93C67.4902 87.05 67.5702 87.17 67.6802 87.2L67.9002 87.28L67.7302 85.32L67.5502 82.89C67.5502 82.89 67.3602 83.1 67.0602 83.06C66.7602 83.02 66.1902 82.76 66.1902 82.76L66.1702 82.77Z" fill="#04005A"/>
<path d="M67.4401 81.0199C67.4301 81.3599 67.4901 81.6599 67.4901 81.6599C67.5001 82.3199 67.5301 82.8899 67.5301 82.8899C67.5301 82.8899 67.5001 83.2099 66.9401 83.2799C66.3301 83.3599 66.1201 82.7499 66.1201 82.7499C66.1201 82.7499 66.1001 82.2599 66.1701 81.5299L66.1501 80.6599C66.1501 80.6599 66.1301 80.5399 66.2101 80.3399C66.2901 80.1399 66.6701 79.9799 66.6701 79.9799H66.7301L66.9401 79.8999" fill="#04005A"/>
<path d="M66.67 79.76C66.67 79.76 66.7 79.93 66.67 80.03C66.64 80.13 66.81 80.28 66.97 80.32C67.13 80.36 67.11 80.25 67.12 80.12C67.13 79.99 66.68 79.76 66.68 79.76H66.67Z" fill="#063ABE"/>
<path d="M66.8601 80.0499C66.8601 80.0499 67.0102 80.2199 67.1002 80.1899C67.2602 80.1399 67.3101 79.7399 67.2401 79.4799C67.1701 79.2199 66.7001 79.1499 66.7001 79.1499L66.6401 79.7399" fill="#063ABE"/>
<path d="M66.71 79.56L66.75 79.69L66.8 79.73V79.44C66.8 79.44 66.86 79.5599 67.02 79.6399C67.22 79.7399 67.36 79.6 67.36 79.6C67.36 79.6 67.37 79.42 67.18 79.25C67.06 79.15 66.9 78.97 66.73 79.02C66.56 79.07 66.62 79.1699 66.62 79.1699C66.62 79.1699 66.46 79.2 66.58 79.6C66.64 79.78 66.7 79.87 66.7 79.87V79.61L66.72 79.57L66.71 79.56Z" fill="#04005A"/>
<path d="M65.7001 83.31C65.6501 83.18 65.6901 82.97 65.6901 82.97L65.5401 82.99V83.13C65.5401 83.13 65.4901 83.22 65.4901 83.35C65.4901 83.48 65.4701 83.7 65.4901 83.69C65.5001 83.69 65.5101 83.65 65.5201 83.61C65.5201 83.69 65.5301 83.79 65.5601 83.78C65.5801 83.77 65.5901 83.68 65.5901 83.6C65.6101 83.67 65.6201 83.79 65.6401 83.77C65.6701 83.75 65.6401 83.49 65.6401 83.49C65.6401 83.49 65.6401 83.44 65.6501 83.41C65.6801 83.45 65.7501 83.53 65.7401 83.46C65.7401 83.41 65.7001 83.34 65.6801 83.3L65.7001 83.31Z" fill="#063ABE"/>
<path d="M66.5801 80.11C66.2601 80.11 65.9601 80.62 65.7201 81.13C65.4601 81.7 65.4801 83.05 65.4801 83.05L65.7301 83.1C65.7301 83.1 65.8201 82 65.9501 81.62C66.0401 81.34 66.2001 81.11 66.2001 81.11" fill="#04005A"/>
<path d="M66.7501 79.6499L66.73 79.7199C66.73 79.7199 66.7001 79.6999 66.6901 79.6899C66.6601 79.6599 66.6401 79.5899 66.6501 79.5399C66.6601 79.4899 66.6901 79.4799 66.7201 79.5099C66.7501 79.5399 66.7601 79.5999 66.7501 79.6499Z" fill="#063ABE"/>
<path d="M67.7 86.9399C67.7 86.9399 67.84 87.1399 67.95 87.1799C68.35 87.3199 68.3 87.3799 68.33 87.4299C68.38 87.5299 68.16 87.6099 68.05 87.5999C67.7 87.5399 67.76 87.5299 67.7 87.5199C67.64 87.5099 67.58 87.5199 67.55 87.4099C67.52 87.2999 67.48 87.0399 67.48 87.0399C67.48 87.0399 67.55 87.0999 67.63 87.0499C67.71 86.9999 67.7 86.9399 67.7 86.9399Z" fill="#04005A"/>
<path d="M66.1601 86.12C66.1601 86.12 66.1201 86.36 66.1601 86.53C66.3401 87.14 66.26 87.08 66.24 87.13C66.2 87.22 65.99 86.91 65.92 86.75C65.72 86.23 65.76 86.31 65.73 86.22C65.7 86.13 65.65 86.05 65.71 85.99C65.77 85.93 65.9301 85.83 65.9301 85.83C65.9301 85.83 65.9301 85.95 66.0301 86.05C66.1301 86.15 66.1501 86.13 66.1501 86.13L66.1601 86.12Z" fill="#04005A"/>
<path d="M66.4501 79.41C66.4501 79.41 66.5401 79.44 66.7101 79.46C66.8801 79.48 66.9001 79.54 67.0701 79.54C67.2401 79.54 67.4401 79.5 67.4801 79.44C67.5201 79.38 67.3801 79.34 67.3701 79.32C67.3601 79.3 67.3701 79.26 67.3301 79.2C67.2901 79.14 67.3801 79.06 67.1901 78.91C67.0001 78.76 66.8601 78.8 66.7301 78.83C66.7301 78.83 66.6201 78.91 66.6001 78.92C66.5201 78.97 66.4701 79.07 66.4701 79.13V79.2C66.4701 79.2 66.4101 79.24 66.4301 79.34C66.4301 79.34 66.4001 79.4 66.4501 79.41Z" fill="#000056" stroke="#04005A" stroke-width="0.04" stroke-miterlimit="10"/>
<path d="M66.5101 79.1899C66.5101 79.1899 66.6001 79.2299 66.7301 79.2399C66.8601 79.2499 66.8102 79.3099 66.8102 79.3599C66.8102 79.4099 66.7102 79.3899 66.6302 79.3799C66.5502 79.3699 66.4501 79.3299 66.4501 79.3299C66.4501 79.3299 66.4302 79.2299 66.5002 79.1899H66.5101Z" fill="#000056" stroke="#04005A" stroke-width="0.04" stroke-miterlimit="10"/>
<path d="M66.6702 78.87C66.6702 78.87 66.9402 78.87 67.0202 78.95C67.0202 78.95 67.2502 79.02 67.1902 78.9" fill="#000056"/>
<path d="M66.6702 78.87C66.6702 78.87 66.9402 78.87 67.0202 78.95C67.0202 78.95 67.2502 79.02 67.1902 78.9" stroke="#04005A" stroke-width="0.04" stroke-miterlimit="10"/>
<path d="M67.3802 79.3101C67.3802 79.3101 67.2701 79.44 66.9001 79.39L67.3802 79.3101Z" fill="#000056"/>
<path d="M67.3802 79.3101C67.3802 79.3101 67.2701 79.44 66.9001 79.39" stroke="#04005A" stroke-width="0.04" stroke-miterlimit="10"/>
</svg>
