<svg width="194" height="118" viewBox="0 0 194 118" fill="none" xmlns="http://www.w3.org/2000/svg">
<path d="M1.19678 53.27L99.3366 109.926L192.697 55.6559L93.1968 9.56399e-06L1.19678 53.27Z" fill="white"/>
<path d="M99.1868 117.246L193.697 61.8163V55.1562L99.1868 109.926V117.246Z" fill="#D0D8F1" stroke="#002484" stroke-width="0.25" stroke-linejoin="round"/>
<path d="M99.1869 117.246L1 60.2663V53.1562L99.3369 109.926L99.1869 117.246Z" fill="#123EB7" stroke="#002484" stroke-width="0.25" stroke-linejoin="round"/>
<path d="M88.2068 7.84631L36.2869 37.7763L51.2969 46.4863L85.9268 26.5263L100.857 35.0263L118.547 25.0063L88.2068 7.84631Z" fill="#CCEDD3"/>
<path d="M149.357 72.9165L128.307 85.1665L126.817 84.3065L124.187 82.7766L124.017 82.6765C124.107 82.5865 124.197 82.4965 124.287 82.3965C126.407 80.1665 127.577 77.5265 127.577 74.7365C127.577 72.1065 126.537 69.5866 124.617 67.4366C124.557 67.3666 124.497 67.2965 124.437 67.2365L124.727 67.0666C124.787 67.1266 124.847 67.2065 124.907 67.2665L132.317 62.9565L149.357 72.9165Z" fill="#CCEDD3"/>
<path d="M126.557 59.8464L119.987 63.6864L119.667 63.8764C119.587 63.8264 119.497 63.7864 119.427 63.7364C115.517 61.6164 110.427 60.4364 105.127 60.4364C100.577 60.4364 96.1767 61.2964 92.5567 62.8864L91.8367 62.8564H91.6767L81.1467 56.9264L101.307 45.0864L126.557 59.8364V59.8464Z" fill="#CCEDD3"/>
<path d="M105.637 81.7864C102.027 81.7864 98.6667 80.9464 96.1767 79.4264C93.8267 77.9864 92.5467 76.1064 92.5767 74.1364C92.6067 72.0964 94.0267 70.1764 96.5567 68.7364C99.0267 67.3364 102.287 66.5664 105.717 66.5664C109.327 66.5664 112.687 67.4064 115.177 68.9264C117.527 70.3664 118.807 72.2464 118.777 74.2164C118.747 76.2564 117.327 78.1764 114.797 79.6064C112.327 81.0064 109.067 81.7764 105.637 81.7764V81.7864Z" fill="#CCEDD3"/>
<path d="M87.7968 68.6465C85.9668 70.6465 84.7068 72.8865 84.0768 75.2465C83.9568 75.7065 77.5868 79.2965 69.9668 83.4465L52.9268 73.5165L75.2268 60.4165L85.1368 66.2065L87.8068 68.6465H87.7968Z" fill="#CCEDD3"/>
<path d="M123.487 87.9765L100.827 101.167L76.3767 86.9265L86.3467 81.1065L86.6367 80.9365C87.7867 82.1265 89.2167 83.2065 90.8967 84.1165C94.8067 86.2465 99.8867 87.4165 105.197 87.4165C109.897 87.4165 114.407 86.4965 118.107 84.8165L123.497 87.9765H123.487Z" fill="#CCEDD3"/>
<path d="M132.537 69.8765C132.537 69.8765 132.277 70.2165 131.957 70.2165C131.637 70.2165 131.377 69.8765 131.377 69.8765V66.8665H132.527V69.8765H132.537Z" fill="#00208A"/>
<path d="M131.827 67.1862C129.267 67.1862 127.187 64.3263 127.187 60.8163C127.187 57.3063 130.867 52.3862 131.637 52.3862C132.457 52.3862 136.467 57.2563 136.467 60.8163C136.467 64.3763 134.387 67.1862 131.827 67.1862Z" fill="#99DCA6"/>
<path d="M131.637 52.5164C132.347 52.5164 136.347 57.3364 136.347 60.8164C136.347 62.4964 135.867 64.0764 134.997 65.2664C134.147 66.4264 133.017 67.0664 131.827 67.0664C129.337 67.0664 127.307 64.2664 127.307 60.8164C127.307 59.3164 127.997 57.3164 129.207 55.3264C130.347 53.4564 131.377 52.5164 131.627 52.5164M131.637 52.2664C130.707 52.2664 127.057 57.2264 127.057 60.8164C127.057 64.4064 129.187 67.3064 131.827 67.3064C134.467 67.3064 136.597 64.3964 136.597 60.8164C136.597 57.2364 132.567 52.2664 131.637 52.2664Z" fill="#00208A"/>
<path d="M78.1869 71.3362C78.1869 71.3362 77.9269 71.6762 77.6069 71.6762C77.2869 71.6762 77.0269 71.3362 77.0269 71.3362V68.3262H78.1768V71.3362H78.1869Z" fill="#00208A"/>
<path d="M77.4769 68.6362C74.9169 68.6362 72.8369 65.7762 72.8369 62.2662C72.8369 60.7462 73.5369 58.7162 74.7569 56.7162C75.7969 54.9962 76.9069 53.8462 77.2869 53.8462C78.1069 53.8462 82.1169 58.7162 82.1169 62.2662C82.1169 63.9762 81.6269 65.5762 80.7469 66.7862C79.8669 67.9762 78.7069 68.6362 77.4769 68.6362Z" fill="#99DCA6"/>
<path d="M77.2868 53.9663C77.9968 53.9663 81.9968 58.7863 81.9968 62.2663C81.9968 63.9463 81.5168 65.5263 80.6468 66.7163C79.7968 67.8763 78.6668 68.5163 77.4768 68.5163C74.9868 68.5163 72.9568 65.7163 72.9568 62.2663C72.9568 60.7663 73.6468 58.7663 74.8568 56.7763C75.9968 54.9063 77.0268 53.9663 77.2768 53.9663M77.2868 53.7163C76.3568 53.7163 72.7068 58.6763 72.7168 62.2663C72.7168 65.8563 74.8468 68.7563 77.4868 68.7563C80.1268 68.7563 82.2568 65.8463 82.2568 62.2663C82.2568 58.6863 78.2268 53.7163 77.2968 53.7163H77.2868Z" fill="#00208A"/>
<path d="M65.6168 75.7166C65.6168 75.7166 65.3568 76.0565 65.0368 76.0565C64.7168 76.0565 64.4568 75.7166 64.4568 75.7166V72.7065H65.6068V75.7166H65.6168Z" fill="#00208A"/>
<path d="M64.9068 73.0163C62.3468 73.0163 60.2668 70.1563 60.2668 66.6463C60.2668 63.1363 63.9468 58.2263 64.7168 58.2263C65.5368 58.2263 69.5468 63.0963 69.5468 66.6463C69.5468 70.1963 67.4668 73.0163 64.9068 73.0163Z" fill="#99DCA6"/>
<path d="M64.7168 58.3464C65.4268 58.3464 69.4267 63.1664 69.4267 66.6464C69.4267 68.3264 68.9468 69.9064 68.0768 71.0964C67.2268 72.2564 66.0968 72.8964 64.9068 72.8964C62.4168 72.8964 60.3868 70.0964 60.3868 66.6464C60.3868 65.1464 61.0768 63.1464 62.2868 61.1564C63.4268 59.2864 64.4567 58.3464 64.7067 58.3464M64.7168 58.0964C63.7868 58.0964 60.1367 63.0564 60.1467 66.6464C60.1467 70.2364 62.2768 73.1364 64.9168 73.1364C67.5568 73.1364 69.6868 70.2264 69.6868 66.6464C69.6868 63.0664 65.6568 58.0964 64.7268 58.0964H64.7168Z" fill="#00208A"/>
<path d="M101.917 56.4265C101.917 56.4265 101.657 56.7665 101.337 56.7665C101.017 56.7665 100.757 56.4265 100.757 56.4265V53.4165H101.907V56.4265H101.917Z" fill="#00208A"/>
<path d="M101.207 53.7365C98.6469 53.7365 96.5669 50.8765 96.5669 47.3665C96.5669 43.6865 100.247 38.9365 101.017 38.9365C101.837 38.9365 105.847 43.8065 105.847 47.3665C105.847 50.9265 103.767 53.7365 101.207 53.7365Z" fill="#99DCA6"/>
<path d="M101.017 39.0664C101.727 39.0664 105.727 43.8864 105.727 47.3664C105.727 49.0464 105.247 50.6264 104.377 51.8164C103.527 52.9764 102.397 53.6164 101.207 53.6164C98.7168 53.6164 96.6868 50.8164 96.6868 47.3664C96.6868 45.8664 97.3768 43.8664 98.5868 41.8764C99.7268 40.0064 100.757 39.0664 101.007 39.0664M101.017 38.8164C100.087 38.8164 96.4368 43.7764 96.4468 47.3664C96.4568 50.9564 98.5768 53.8564 101.217 53.8564C103.857 53.8564 105.987 50.9464 105.987 47.3664C105.987 43.7864 101.957 38.8164 101.027 38.8164H101.017Z" fill="#00208A"/>
<path d="M106.777 57.9966C106.777 57.9966 106.517 58.3366 106.197 58.3366C105.877 58.3366 105.617 57.9966 105.617 57.9966V54.9866H106.767V57.9966H106.777Z" fill="#00208A"/>
<path d="M106.057 55.3064C103.497 55.3064 101.417 52.4464 101.417 48.9364C101.417 45.4264 105.097 40.5164 105.867 40.5164C106.687 40.5164 110.697 45.3864 110.697 48.9364C110.697 52.4864 108.617 55.3064 106.057 55.3064Z" fill="#99DCA6"/>
<path d="M105.867 40.6365C106.577 40.6365 110.577 45.4565 110.577 48.9365C110.577 50.6165 110.097 52.1965 109.227 53.3865C108.377 54.5465 107.247 55.1865 106.057 55.1865C103.567 55.1865 101.537 52.3865 101.537 48.9365C101.537 47.4365 102.227 45.4365 103.437 43.4465C104.577 41.5765 105.607 40.6365 105.857 40.6365M105.867 40.3865C104.937 40.3865 101.287 45.3465 101.297 48.9365C101.297 52.5265 103.427 55.4265 106.067 55.4365C108.697 55.4365 110.837 52.5265 110.837 48.9465C110.837 45.3565 106.807 40.3965 105.877 40.3965L105.867 40.3865Z" fill="#00208A"/>
<path d="M72.8468 78.6364C72.8468 78.6364 72.5868 78.9764 72.2668 78.9764C71.9468 78.9764 71.6868 78.6364 71.6868 78.6364V75.6265H72.8368V78.6364H72.8468Z" fill="#00208A"/>
<path d="M72.1368 75.9462C69.5768 75.9462 67.4968 73.0862 67.4968 69.5762C67.4968 66.0662 71.1768 61.1562 71.9468 61.1562C72.7668 61.1562 76.7768 66.0262 76.7768 69.5762C76.7768 73.1262 74.6968 75.9462 72.1368 75.9462Z" fill="#99DCA6"/>
<path d="M71.9467 61.2764C72.6567 61.2764 76.6567 66.0964 76.6567 69.5764C76.6567 71.2564 76.1767 72.8364 75.3067 74.0264C74.4567 75.1864 73.3267 75.8264 72.1367 75.8264C69.6467 75.8264 67.6167 73.0264 67.6167 69.5764C67.6167 68.0764 68.3067 66.0764 69.5167 64.0864C70.6567 62.2164 71.6867 61.2764 71.9367 61.2764M71.9467 61.0264C71.0167 61.0264 67.3667 65.9864 67.3767 69.5764C67.3767 73.1664 69.5067 76.0664 72.1467 76.0764C74.7767 76.0764 76.9167 73.1664 76.9167 69.5864C76.9167 65.9964 72.8867 61.0364 71.9567 61.0364L71.9467 61.0264Z" fill="#00208A"/>
<path d="M96.5968 59.6064C96.5968 59.6064 96.3368 59.9464 96.0168 59.9464C95.6968 59.9464 95.4368 59.6064 95.4368 59.6064V56.5964H96.5868V59.6064H96.5968Z" fill="#00208A"/>
<path d="M95.8868 56.9065C93.3268 56.9065 91.2468 54.0465 91.2468 50.5365C91.2468 47.0265 94.9268 42.1064 95.6968 42.1064C96.5168 42.1064 100.527 46.9765 100.527 50.5365C100.527 54.0965 98.4468 56.9065 95.8868 56.9065Z" fill="#99DCA6"/>
<path d="M95.6967 42.2363C96.4067 42.2363 100.407 47.0563 100.407 50.5363C100.407 52.2163 99.9267 53.7963 99.0567 54.9863C98.2067 56.1463 97.0767 56.7863 95.8867 56.7863C93.3967 56.7863 91.3667 53.9863 91.3667 50.5363C91.3667 49.0363 92.0567 47.0363 93.2667 45.0463C94.4067 43.1763 95.4367 42.2363 95.6867 42.2363M95.6967 41.9863C94.7667 41.9863 91.1167 46.9463 91.1267 50.5363C91.1267 54.1263 93.2567 57.0263 95.8967 57.0263C98.5367 57.0263 100.667 54.1163 100.667 50.5363C100.667 46.9563 96.6367 41.9863 95.7067 41.9863H95.6967Z" fill="#00208A"/>
<path d="M138.797 68.2863C138.737 68.3063 138.807 68.3863 138.847 68.4163C138.827 68.4363 138.777 68.4663 138.777 68.4663C138.777 68.4663 138.547 68.5363 138.527 68.5863C138.507 68.6263 138.617 68.6063 138.687 68.6063C138.617 68.6363 138.537 68.6863 138.527 68.7263C138.517 68.7663 138.617 68.7263 138.677 68.7263C138.637 68.7563 138.607 68.7863 138.607 68.8063C138.607 68.8663 138.797 68.7463 138.917 68.6863C139.037 68.6263 139.107 68.5263 139.107 68.5263L139.237 68.4663V68.2263C139.237 68.2263 139.057 68.3663 138.937 68.3363C138.897 68.3163 138.837 68.2963 138.787 68.3063L138.797 68.2863Z" fill="#063ABE"/>
<path d="M141.047 65.1165C141.047 65.1165 140.737 65.1764 140.587 65.4164C140.437 65.6564 140.257 67.0265 140.067 67.3065C139.767 67.7465 139.157 68.2264 139.157 68.2264L139.257 68.5965C140.077 68.0165 140.257 67.8365 140.487 67.5565C140.717 67.2765 141.057 65.1064 141.057 65.1064L141.047 65.1165Z" fill="#04005A"/>
<path d="M142.077 68.4663L142.047 71.3263L142.627 72.3663C142.627 72.4963 142.537 72.6263 142.417 72.6563L142.137 72.7463L141.357 71.6063L141.187 69.4763L140.817 71.4563L140.497 73.4563C140.497 73.5963 140.397 73.7363 140.277 73.7763L140.017 73.8663L140.217 71.5263L140.427 68.6163C140.427 68.6163 140.647 68.8663 141.017 68.8263C141.387 68.7863 142.057 68.4663 142.057 68.4663H142.077Z" fill="#04005A"/>
<path d="M140.547 66.3764C140.567 66.7764 140.487 67.1464 140.487 67.1464C140.477 67.9364 140.437 68.6164 140.437 68.6164C140.437 68.6164 140.477 68.9964 141.137 69.0864C141.867 69.1864 142.117 68.4464 142.117 68.4464C142.117 68.4464 142.147 67.8564 142.057 66.9864L142.077 65.9464C142.077 65.9464 142.097 65.8064 142.007 65.5664C141.917 65.3264 141.457 65.1264 141.457 65.1264H141.387L141.127 65.0264" fill="#04005A"/>
<path d="M141.477 64.8662C141.477 64.8662 141.447 65.0762 141.477 65.1962C141.507 65.3162 141.307 65.4962 141.127 65.5462C140.947 65.5962 140.957 65.4562 140.947 65.3062C140.937 65.1562 141.477 64.8762 141.477 64.8762V64.8662Z" fill="#063ABE"/>
<path d="M141.247 65.2162C141.247 65.2162 141.067 65.4262 140.957 65.3862C140.767 65.3262 140.707 64.8463 140.787 64.5363C140.867 64.2263 141.437 64.1362 141.437 64.1362L141.507 64.8463" fill="#063ABE"/>
<path d="M141.427 64.6263L141.377 64.7863L141.317 64.8363V64.4863C141.317 64.4863 141.247 64.6363 141.057 64.7263C140.817 64.8463 140.657 64.6863 140.657 64.6863C140.657 64.6863 140.637 64.4663 140.877 64.2663C141.017 64.1463 141.217 63.9363 141.417 63.9863C141.617 64.0363 141.547 64.1563 141.547 64.1563C141.547 64.1563 141.737 64.1863 141.597 64.6663C141.527 64.8863 141.457 64.9863 141.457 64.9863L141.477 64.6763L141.427 64.6263Z" fill="#04005A"/>
<path d="M142.567 69.3163C142.567 69.3963 142.647 69.2963 142.677 69.2563C142.677 69.2863 142.687 69.3463 142.687 69.3463C142.687 69.3463 142.667 69.6463 142.697 69.6763C142.727 69.6963 142.737 69.5563 142.757 69.4663C142.757 69.5563 142.767 69.6663 142.797 69.6763C142.827 69.6863 142.827 69.5663 142.837 69.4763C142.837 69.5263 142.857 69.5663 142.877 69.5763C142.917 69.5863 142.897 69.3263 142.887 69.1663C142.887 69.0163 142.827 68.9063 142.827 68.9063V68.7363L142.647 68.7163C142.647 68.7163 142.687 68.9663 142.637 69.1163C142.617 69.1663 142.577 69.2463 142.567 69.3063V69.3163Z" fill="#063ABE"/>
<path d="M141.587 65.2864C141.967 65.2964 142.327 65.8964 142.617 66.5164C142.927 67.1964 142.907 68.8164 142.907 68.8164L142.607 68.8764C142.607 68.8764 142.507 67.5664 142.337 67.1064C142.237 66.7664 142.037 66.4964 142.037 66.4964" fill="#04005A"/>
<path d="M141.377 64.7362L141.407 64.8262C141.407 64.8262 141.447 64.8062 141.457 64.7862C141.497 64.7462 141.517 64.6662 141.507 64.6062C141.497 64.5462 141.457 64.5262 141.417 64.5662C141.377 64.6062 141.367 64.6762 141.377 64.7362Z" fill="#063ABE"/>
<path d="M140.237 73.4763C140.237 73.4763 140.067 73.7163 139.937 73.7563C139.457 73.9263 139.517 73.9963 139.487 74.0563C139.427 74.1763 139.697 74.2763 139.827 74.2563C140.247 74.1863 140.177 74.1763 140.247 74.1563C140.317 74.1363 140.387 74.1563 140.417 74.0263C140.447 73.8963 140.497 73.5863 140.497 73.5863C140.497 73.5863 140.407 73.6563 140.317 73.5963C140.227 73.5363 140.237 73.4663 140.237 73.4663V73.4763Z" fill="#04005A"/>
<path d="M142.077 72.4865C142.077 72.4865 142.127 72.7764 142.077 72.9764C141.857 73.7064 141.957 73.6365 141.977 73.6865C142.027 73.7965 142.277 73.4264 142.357 73.2264C142.597 72.6064 142.547 72.7065 142.587 72.5865C142.627 72.4665 142.687 72.3765 142.607 72.3065C142.527 72.2365 142.347 72.1064 142.347 72.1064C142.347 72.1064 142.347 72.2465 142.227 72.3765C142.107 72.5065 142.077 72.4764 142.077 72.4764V72.4865Z" fill="#04005A"/>
<path d="M138.687 68.5964C138.687 68.5964 139.447 72.0064 135.827 73.9864" stroke="#000056" stroke-width="0.1" stroke-miterlimit="10"/>
<path d="M138.267 73.3265C138.327 73.2165 138.377 73.0965 138.397 72.9765C138.397 72.9465 138.407 72.9065 138.397 72.8765C138.367 72.8365 138.297 72.8465 138.257 72.8765C138.217 72.9065 138.197 72.9565 138.177 73.0065C138.117 73.1165 137.997 73.2065 137.867 73.2265C137.857 73.2265 137.837 73.2265 137.827 73.2365C137.817 73.2365 137.807 73.2665 137.817 73.2765C137.817 73.2765 137.817 73.2765 137.827 73.2865C137.927 73.3665 138.107 73.5465 138.227 73.5465C138.197 73.4665 138.227 73.3965 138.277 73.3265H138.267Z" fill="#000056" stroke="#000056" stroke-width="0.1" stroke-miterlimit="10"/>
<path d="M134.807 73.4763C134.747 73.5063 134.697 73.5463 134.647 73.5963C134.607 73.6363 134.557 73.6763 134.537 73.7263C134.507 73.7963 134.517 73.8663 134.527 73.9363C134.527 74.0763 134.497 74.2063 134.467 74.3363C134.467 74.3863 134.447 74.4363 134.467 74.4763C134.497 74.5263 134.567 74.5463 134.627 74.5363C134.687 74.5263 134.737 74.4863 134.787 74.4463C134.837 74.4063 134.897 74.3663 134.947 74.3263C134.977 74.2963 135.017 74.2763 135.037 74.2363C135.057 74.2063 135.047 74.1663 135.047 74.1263C135.047 74.0163 135.047 73.8963 135.007 73.7863C134.997 73.7463 134.977 73.7063 134.977 73.6663C134.977 73.6163 135.017 73.5163 134.987 73.4663C134.957 73.4163 134.847 73.4463 134.807 73.4663V73.4763Z" fill="#000056" stroke="#000056" stroke-width="0.1" stroke-miterlimit="10"/>
<path d="M134.937 76.2263L135.297 76.3163C135.387 76.3163 135.467 76.2563 135.527 76.1963C135.567 76.1463 135.587 76.1063 135.597 76.0763C135.617 75.9563 135.417 75.9163 135.367 75.9563L135.287 76.0063L135.167 75.9363L135.537 75.4863L135.467 75.3963L135.127 74.9863C135.087 75.3163 134.987 75.5663 134.777 75.9263C134.737 76.0663 134.807 76.1663 134.927 76.2163L134.937 76.2263Z" fill="#000056" stroke="#000056" stroke-width="0.1" stroke-miterlimit="10"/>
<path d="M137.137 75.3964L137.297 74.2964L137.617 74.5864L137.427 75.4264C137.427 75.4264 137.407 75.5164 137.367 75.5564L137.297 75.6264C137.147 75.7564 136.967 75.5964 137.027 75.5164C137.067 75.4464 137.137 75.4064 137.137 75.4064V75.3964Z" fill="#000056" stroke="#000056" stroke-width="0.1" stroke-miterlimit="10"/>
<path d="M134.897 74.5564L135.117 75.1364C135.117 75.1364 135.117 75.1564 135.127 75.1564C135.257 75.3964 135.317 75.5964 135.807 75.6764C135.837 75.6764 135.867 75.6764 135.907 75.6864C135.907 75.6864 135.907 75.6864 135.917 75.6864L135.987 75.6664L136.147 75.6264L136.277 75.5864C136.587 75.4264 137.107 74.9264 137.307 74.6464C137.497 74.5064 137.567 74.4864 137.627 74.4764C137.727 74.4664 137.787 74.4764 138.357 73.9564C138.377 73.8464 138.357 73.6964 138.307 73.5464C138.077 73.1564 137.607 73.0464 137.187 73.3164C136.877 73.5164 136.507 73.7364 136.357 73.8164C136.317 73.8364 136.297 73.8564 136.297 73.8564C136.247 73.8664 136.197 73.8764 136.147 73.8864C136.047 73.9064 135.957 73.9264 135.877 73.9464C135.837 73.9464 135.807 73.9564 135.777 73.9664L135.677 73.8564L134.997 74.4464L134.887 74.5364L134.897 74.5564Z" fill="#000056" stroke="#000056" stroke-width="0.1" stroke-miterlimit="10"/>
<path d="M138.287 73.5063C138.287 73.5063 138.387 73.6464 138.397 73.8964C138.397 74.0064 138.377 74.2064 138.357 74.3164C138.347 74.4064 138.367 74.4864 138.417 74.5564L138.547 74.7263C138.547 74.7263 138.587 74.8164 138.587 74.8564L138.617 75.5964C138.617 75.5964 138.597 75.6863 138.557 75.7263L138.477 75.7864C138.327 75.9164 138.167 75.7664 138.207 75.6764L138.317 75.5364L138.277 74.9964C137.797 74.9964 137.487 74.6764 137.347 74.2364" fill="#000056"/>
<path d="M138.287 73.5063C138.287 73.5063 138.387 73.6464 138.397 73.8964C138.397 74.0064 138.377 74.2064 138.357 74.3164C138.347 74.4064 138.367 74.4864 138.417 74.5564L138.547 74.7263C138.547 74.7263 138.587 74.8164 138.587 74.8564L138.617 75.5964C138.617 75.5964 138.597 75.6863 138.557 75.7263L138.477 75.7864C138.327 75.9164 138.167 75.7664 138.207 75.6764L138.317 75.5364L138.277 74.9964C137.797 74.9964 137.487 74.6764 137.347 74.2364" stroke="#000056" stroke-width="0.1" stroke-miterlimit="10"/>
<path d="M134.957 74.7065L135.017 74.8665C135.077 74.8865 135.137 74.8965 135.207 74.8965C135.407 74.8965 135.607 74.8065 135.727 74.6765C135.867 74.5265 135.937 74.2564 135.897 74.0464C135.897 74.0164 135.887 73.9865 135.877 73.9565C135.837 73.9565 135.827 73.9465 135.797 73.9365L135.687 73.8665C135.737 73.9065 135.777 73.9765 135.787 74.0565C135.817 74.2265 135.757 74.4565 135.647 74.5865C135.547 74.6965 135.377 74.7664 135.207 74.7664C135.137 74.7664 135.047 74.7565 134.957 74.7065Z" fill="#000056"/>
<path d="M134.567 74.9764L134.857 74.8164C134.997 74.7864 135.157 74.7364 135.297 74.6664C135.407 74.6164 135.497 74.5464 135.567 74.4764L135.647 74.0364L135.687 73.8564L135.477 73.6064L135.117 73.4664C135.007 73.4264 134.877 73.4464 134.787 73.5364L134.537 73.7964C134.467 73.8764 134.417 73.9764 134.397 74.0764L134.357 74.2764L134.087 74.5564C133.987 74.7164 134.287 75.0864 134.567 74.9464V74.9764Z" fill="#000056" stroke="#000056" stroke-width="0.1" stroke-miterlimit="10"/>
<path d="M134.297 74.7164L134.087 74.5764V74.6864L134.157 74.7764L134.177 74.8864L134.187 74.7964H134.277L134.297 74.7164Z" fill="#123EB7"/>
<path d="M136.477 75.1365V76.0465L136.177 77.0865L136.007 77.2165C135.887 77.2965 135.687 77.1265 135.787 77.0065L135.947 76.8165L136.057 75.9765L135.817 75.3665" fill="#000056"/>
<path d="M136.477 75.1365V76.0465L136.177 77.0865L136.007 77.2165C135.887 77.2965 135.687 77.1265 135.787 77.0065L135.947 76.8165L136.057 75.9765L135.817 75.3665" stroke="#000056" stroke-width="0.1" stroke-miterlimit="10"/>
<path d="M135.467 73.6165C135.467 73.6165 135.507 73.6165 135.537 73.6465C135.807 73.7865 135.687 73.8665 135.807 74.3765C135.837 74.4865 135.957 74.5764 135.947 74.6964C135.937 74.8064 135.777 74.9565 135.667 74.9665C135.357 74.9965 135.407 74.6064 135.357 74.4164C135.357 74.3964 135.347 74.3764 135.337 74.3564" fill="#000056"/>
<path d="M135.467 73.6165C135.467 73.6165 135.507 73.6165 135.537 73.6465C135.807 73.7865 135.687 73.8665 135.807 74.3765C135.837 74.4865 135.957 74.5764 135.947 74.6964C135.937 74.8064 135.777 74.9565 135.667 74.9665C135.357 74.9965 135.407 74.6064 135.357 74.4164C135.357 74.3964 135.347 74.3764 135.337 74.3564" stroke="#123EB7" stroke-width="0.05" stroke-miterlimit="10"/>
<path fill-rule="evenodd" clip-rule="evenodd" d="M113.507 13.9963L108.437 24.5363L99.3667 21.0963L110.307 14.6363L113.507 13.9963Z" fill="#6A89D8" stroke="#00208A" stroke-width="0.25" stroke-linejoin="round"/>
<path fill-rule="evenodd" clip-rule="evenodd" d="M102.477 20.4463L106.527 25.0863L99.3667 21.0963L102.477 20.4463Z" fill="#6A89D8" stroke="#00208A" stroke-width="0.25" stroke-linejoin="round"/>
<path d="M117.477 18.6863L117.447 29.4463L106.577 35.8263L106.547 25.1163L117.477 18.6863Z" fill="#CDD8F2" stroke="#00208A" stroke-width="0.25" stroke-linejoin="round"/>
<path fill-rule="evenodd" clip-rule="evenodd" d="M99.4567 31.7164L106.577 35.8264L106.527 25.0864L99.3767 21.0864L99.4567 31.7164Z" fill="#CDD8F2" stroke="#00208A" stroke-width="0.25" stroke-linejoin="round"/>
<path fill-rule="evenodd" clip-rule="evenodd" d="M102.477 20.4463L113.507 13.9963L117.517 18.6663L106.487 25.1163L102.477 20.4463Z" fill="#CDD8F2" stroke="#00208A" stroke-width="0.25" stroke-linejoin="round"/>
<path fill-rule="evenodd" clip-rule="evenodd" d="M120.687 18.0264L115.617 28.5564L106.547 25.1164L117.487 18.6664L120.687 18.0264Z" fill="#6A89D8" stroke="#00208A" stroke-width="0.25" stroke-linejoin="round"/>
<path fill-rule="evenodd" clip-rule="evenodd" d="M109.657 24.4663L113.717 29.1163L106.547 25.1163L109.657 24.4663Z" fill="#6A89D8" stroke="#00208A" stroke-width="0.25" stroke-linejoin="round"/>
<path d="M124.667 22.7163L124.637 33.4763L113.707 39.8963L113.727 29.1363L124.667 22.7163Z" fill="white" stroke="#00208A" stroke-width="0.25" stroke-linejoin="round"/>
<path fill-rule="evenodd" clip-rule="evenodd" d="M106.577 35.8264L113.737 39.8965L113.717 29.1165L106.557 25.1165L106.577 35.8264Z" fill="#CDD8F2" stroke="#00208A" stroke-width="0.25" stroke-linejoin="round"/>
<path fill-rule="evenodd" clip-rule="evenodd" d="M109.657 24.4664L120.687 18.0264L124.697 22.6964L113.677 29.1364L109.657 24.4664Z" fill="#CDD8F2" stroke="#00208A" stroke-width="0.25" stroke-linejoin="round"/>
<path d="M107.597 36.3564V30.5964L109.727 31.7964L109.747 37.5864L107.597 36.3564Z" fill="#00208A"/>
<path d="M103.397 34.0764V28.3064L105.527 29.5064L105.557 35.3064L103.397 34.0764Z" fill="#00208A"/>
<path d="M110.187 32.1763L112.727 33.6863V36.9563L110.187 35.4963V32.1763Z" fill="#F1F4FE" stroke="#002484" stroke-width="0.25" stroke-linejoin="round"/>
<path d="M100.257 26.7263L102.797 28.2263V31.4963L100.257 30.0363V26.7263Z" fill="#F1F4FE" stroke="#002484" stroke-width="0.25" stroke-linejoin="round"/>
<path fill-rule="evenodd" clip-rule="evenodd" d="M131.797 24.8862L126.717 35.4262L117.657 31.9862L128.587 25.5262L131.797 24.8862Z" fill="#6A89D8" stroke="#00208A" stroke-width="0.25" stroke-linejoin="round"/>
<path fill-rule="evenodd" clip-rule="evenodd" d="M120.767 31.3362L124.817 35.9762L117.657 31.9862L120.767 31.3362Z" fill="#6A89D8" stroke="#00208A" stroke-width="0.25" stroke-linejoin="round"/>
<path d="M135.767 29.5762L135.737 40.3362L124.867 46.7162L124.837 36.0062L135.767 29.5762Z" fill="#CDD8F2" stroke="#00208A" stroke-width="0.25" stroke-linejoin="round"/>
<path fill-rule="evenodd" clip-rule="evenodd" d="M117.747 42.6063L124.867 46.7163L124.817 35.9763L117.657 31.9763L117.747 42.6063Z" fill="#CDD8F2" stroke="#00208A" stroke-width="0.25" stroke-linejoin="round"/>
<path fill-rule="evenodd" clip-rule="evenodd" d="M120.767 31.3362L131.797 24.8862L135.797 29.5562L124.777 36.0062L120.767 31.3362Z" fill="#CDD8F2" stroke="#00208A" stroke-width="0.25" stroke-linejoin="round"/>
<path fill-rule="evenodd" clip-rule="evenodd" d="M138.977 28.9163L133.907 39.4463L124.837 36.0063L135.777 29.5563L138.977 28.9163Z" fill="#6A89D8" stroke="#00208A" stroke-width="0.25" stroke-linejoin="round"/>
<path fill-rule="evenodd" clip-rule="evenodd" d="M127.947 35.3562L132.007 40.0062L124.837 36.0062L127.947 35.3562Z" fill="#6A89D8" stroke="#00208A" stroke-width="0.25" stroke-linejoin="round"/>
<path d="M142.947 33.6062L142.927 44.3662L131.997 50.7862L132.017 40.0262L142.947 33.6062Z" fill="white" stroke="#00208A" stroke-width="0.25" stroke-linejoin="round"/>
<path fill-rule="evenodd" clip-rule="evenodd" d="M124.867 46.7164L132.027 50.7864L132.007 40.0063L124.847 36.0063L124.867 46.7164Z" fill="#CDD8F2" stroke="#00208A" stroke-width="0.25" stroke-linejoin="round"/>
<path fill-rule="evenodd" clip-rule="evenodd" d="M127.947 35.3563L138.977 28.9163L142.987 33.5863L131.957 40.0263L127.947 35.3563Z" fill="#CDD8F2" stroke="#00208A" stroke-width="0.25" stroke-linejoin="round"/>
<path d="M125.977 47.1662V41.3962L128.107 42.5963L128.137 48.3962L125.977 47.1662Z" fill="#00208A"/>
<path d="M121.497 44.7263V38.9563L123.627 40.1563L123.657 45.9463L121.497 44.7263Z" fill="#00208A"/>
<path d="M128.717 42.9163L131.257 44.4263V47.6963L128.717 46.2263V42.9163Z" fill="#F1F4FE" stroke="#002484" stroke-width="0.25" stroke-linejoin="round"/>
<path fill-rule="evenodd" clip-rule="evenodd" d="M27.2268 27.5063L32.5768 38.6163L42.1368 34.9964L30.6068 28.1863L27.2268 27.5063Z" fill="#CDD8F2" stroke="#00208A" stroke-width="0.25" stroke-linejoin="round"/>
<path fill-rule="evenodd" clip-rule="evenodd" d="M38.8569 34.3064L34.5769 39.1964L42.1369 34.9964L38.8569 34.3064Z" fill="#CDD8F2" stroke="#00208A" stroke-width="0.25" stroke-linejoin="round"/>
<path d="M23.0469 32.4563L23.0669 43.7963L34.5369 50.5163L34.5669 39.2263L23.0469 32.4563Z" fill="#CDD8F2" stroke="#00208A" stroke-width="0.25" stroke-linejoin="round"/>
<path fill-rule="evenodd" clip-rule="evenodd" d="M42.0369 46.1863L34.5369 50.5163L34.5769 39.1963L42.1269 34.9863L42.0369 46.1863Z" fill="white" stroke="#00208A" stroke-width="0.25" stroke-linejoin="round"/>
<path fill-rule="evenodd" clip-rule="evenodd" d="M38.8568 34.3064L27.2268 27.5063L23.0068 32.4363L34.6268 39.2263L38.8568 34.3064Z" fill="#6A89D8" stroke="#00208A" stroke-width="0.25" stroke-linejoin="round"/>
<path fill-rule="evenodd" clip-rule="evenodd" d="M19.6567 31.7463L24.9967 42.8563L34.5567 39.2363L23.0267 32.4263L19.6567 31.7463Z" fill="#CDD8F2" stroke="#00208A" stroke-width="0.25" stroke-linejoin="round"/>
<path fill-rule="evenodd" clip-rule="evenodd" d="M31.2768 38.5464L27.0068 43.4464L34.5568 39.2364L31.2768 38.5464Z" fill="#CDD8F2" stroke="#00208A" stroke-width="0.25" stroke-linejoin="round"/>
<path d="M15.4668 36.6963L15.4968 48.0363L27.0168 54.8063L26.9868 43.4663L15.4668 36.6963Z" fill="#CDD8F2" stroke="#00208A" stroke-width="0.25" stroke-linejoin="round"/>
<path fill-rule="evenodd" clip-rule="evenodd" d="M34.5368 50.5163L26.9868 54.8063L27.0068 43.4463L34.5568 39.2263L34.5368 50.5163Z" fill="white" stroke="#00208A" stroke-width="0.25" stroke-linejoin="round"/>
<path fill-rule="evenodd" clip-rule="evenodd" d="M31.2768 38.5463L19.6568 31.7463L15.4268 36.6763L27.0568 43.4663L31.2768 38.5463Z" fill="#6A89D8" stroke="#00208A" stroke-width="0.25" stroke-linejoin="round"/>
<path d="M33.5567 51.0464V45.2764L31.4267 46.4763L31.4067 52.2764L33.5567 51.0464Z" fill="#00208A"/>
<path d="M37.6668 48.7563V42.9863L35.5368 44.1863L35.5068 49.9763L37.6668 48.7563Z" fill="#00208A"/>
<path d="M38.3466 38.3064L35.8066 39.8064V43.0764L38.3466 41.6164V38.3064Z" fill="#F1F4FE" stroke="#002484" stroke-width="0.25" stroke-linejoin="round"/>
<path d="M30.1567 46.8962L27.6167 48.4062V51.6762L30.1567 50.2062V46.8962Z" fill="#F1F4FE" stroke="#002484" stroke-width="0.25" stroke-linejoin="round"/>
<path d="M141.167 35.2664L145.517 43.6764L136.287 38.3464L141.167 35.2664Z" fill="#686A6B"/>
<path fill-rule="evenodd" clip-rule="evenodd" d="M141.167 35.2664L145.517 43.6764L136.287 38.3464L141.167 35.2664Z" fill="#CDD8F2" stroke="#00208A" stroke-width="0.25" stroke-linejoin="round"/>
<path fill-rule="evenodd" clip-rule="evenodd" d="M136.837 38.6362H136.847H136.837Z" fill="white" stroke="#00208A" stroke-width="0.25" stroke-linejoin="round"/>
<path d="M156.047 36.9563L156.027 51.5063L145.567 57.7963L145.587 43.2463L156.047 36.9563Z" fill="white" stroke="#00208A" stroke-width="0.25" stroke-linejoin="round"/>
<path fill-rule="evenodd" clip-rule="evenodd" d="M136.847 38.6263V38.6463L136.937 52.5763L145.597 57.7963L145.577 43.6963L145.517 43.6763L141.507 35.7063L136.857 38.6263H136.847Z" fill="#CDD8F2" stroke="#00208A" stroke-width="0.25" stroke-linejoin="round"/>
<path fill-rule="evenodd" clip-rule="evenodd" d="M140.767 35.4963L152.037 28.9062L156.537 37.4062L145.267 43.9963L140.767 35.4963Z" fill="#CDD8F2" stroke="#00208A" stroke-width="0.25" stroke-linejoin="round"/>
<path fill-rule="evenodd" clip-rule="evenodd" d="M159.817 39.8962L154.747 50.4362L145.677 46.9962L156.607 40.5362L159.817 39.8962Z" fill="#6A89D8" stroke="#00208A" stroke-width="0.25" stroke-linejoin="round"/>
<path fill-rule="evenodd" clip-rule="evenodd" d="M148.787 46.3462L152.837 50.9862L145.677 46.9962L148.787 46.3462Z" fill="#6A89D8" stroke="#00208A" stroke-width="0.25" stroke-linejoin="round"/>
<path d="M163.787 44.5862L163.757 55.3462L152.887 61.7262L152.857 51.0162L163.787 44.5862Z" fill="#CDD8F2" stroke="#00208A" stroke-width="0.25" stroke-linejoin="round"/>
<path fill-rule="evenodd" clip-rule="evenodd" d="M145.767 57.6163L152.887 61.7263L152.837 50.9863L145.677 46.9863L145.767 57.6163Z" fill="#CDD8F2" stroke="#00208A" stroke-width="0.25" stroke-linejoin="round"/>
<path fill-rule="evenodd" clip-rule="evenodd" d="M148.787 46.3463L159.817 39.8962L163.817 44.5663L152.797 51.0162L148.787 46.3463Z" fill="#CDD8F2" stroke="#00208A" stroke-width="0.25" stroke-linejoin="round"/>
<path fill-rule="evenodd" clip-rule="evenodd" d="M166.997 43.9263L161.927 54.4563L152.857 51.0163L163.797 44.5563L166.997 43.9263Z" fill="#6A89D8" stroke="#00208A" stroke-width="0.25" stroke-linejoin="round"/>
<path fill-rule="evenodd" clip-rule="evenodd" d="M155.967 50.3662L160.027 55.0162L152.857 51.0162L155.967 50.3662Z" fill="#6A89D8" stroke="#00208A" stroke-width="0.25" stroke-linejoin="round"/>
<path d="M170.967 48.6162L170.947 59.3762L160.017 65.7962L160.037 55.0362L170.967 48.6162Z" fill="white" stroke="#00208A" stroke-width="0.25" stroke-linejoin="round"/>
<path fill-rule="evenodd" clip-rule="evenodd" d="M152.887 61.7263L160.047 65.7964L160.027 55.0164L152.867 51.0164L152.887 61.7263Z" fill="#CDD8F2" stroke="#00208A" stroke-width="0.25" stroke-linejoin="round"/>
<path fill-rule="evenodd" clip-rule="evenodd" d="M155.967 50.3663L166.997 43.9263L171.007 48.5863L159.977 55.0363L155.967 50.3663Z" fill="#CDD8F2" stroke="#00208A" stroke-width="0.25" stroke-linejoin="round"/>
<path d="M154.107 62.3862V56.6262L156.247 57.8262L156.267 63.6162L154.107 62.3862Z" fill="#00208A"/>
<path d="M149.917 60.1062V54.3362L152.047 55.5362L152.077 61.3362L149.917 60.1062Z" fill="#00208A"/>
<path d="M141.477 55.4563V49.6863L143.607 50.8863L143.637 56.6863L141.477 55.4563Z" fill="#00208A"/>
<path d="M169.687 52.0164L167.147 53.5264V56.7964L169.687 55.3264V52.0164Z" fill="#F1F4FE" stroke="#002484" stroke-width="0.25" stroke-linejoin="round"/>
<path d="M165.577 54.2363L163.037 55.7363V59.0063L165.577 57.5463V54.2363Z" fill="#F1F4FE" stroke="#002484" stroke-width="0.25" stroke-linejoin="round"/>
<path d="M141.987 43.0662L144.527 44.5662V47.8362L141.987 46.3762V43.0662Z" fill="#F1F4FE" stroke="#002484" stroke-width="0.25" stroke-linejoin="round"/>
<path d="M137.917 40.6763L140.457 42.1763V45.4463L137.917 43.9863V40.6763Z" fill="#F1F4FE" stroke="#002484" stroke-width="0.25" stroke-linejoin="round"/>
<path d="M156.857 58.0264L159.397 59.5364V62.8064L156.857 61.3364V58.0264Z" fill="#F1F4FE" stroke="#002484" stroke-width="0.25" stroke-linejoin="round"/>
<path d="M146.407 52.4062L148.947 53.9162V57.1862L146.407 55.7162V52.4062Z" fill="#F1F4FE" stroke="#002484" stroke-width="0.25" stroke-linejoin="round"/>
<path d="M146.277 38.2665L148.047 37.4265L147.977 39.7265L146.277 40.5865V38.2665Z" fill="#F7F8FE"/>
<path d="M147.927 37.5365V39.6665L146.337 40.4965V38.3165L147.927 37.5265M148.027 37.3764L146.237 38.2565V40.6564L148.027 39.7165V37.3665V37.3764Z" fill="#00208A"/>
<path d="M144.757 38.2263L144.767 37.5063L146.267 38.2963L146.237 40.4964L144.757 38.2263Z" fill="#CDD8F2"/>
<path d="M144.817 37.6563L146.187 38.3163V40.3163L144.817 38.2164V37.6563ZM144.717 37.5063V38.2563L146.287 40.6563V38.2563L144.717 37.5063Z" fill="#00208A"/>
<path d="M148.037 37.3764L146.467 36.5264L144.717 37.5064L146.287 38.2564L148.037 37.3764Z" fill="#00208A"/>
<path fill-rule="evenodd" clip-rule="evenodd" d="M83.4268 21.6462L88.7668 32.7562L98.3268 29.1362L86.7968 22.3262L83.4268 21.6462Z" fill="#CDD8F2" stroke="#00208A" stroke-width="0.25" stroke-linejoin="round"/>
<path fill-rule="evenodd" clip-rule="evenodd" d="M95.0469 28.4463L90.7769 33.3463L98.3269 29.1363L95.0469 28.4463Z" fill="#CDD8F2" stroke="#00208A" stroke-width="0.25" stroke-linejoin="round"/>
<path d="M79.2368 26.5962L79.2668 37.9362L90.7268 44.6662L90.7568 33.3662L79.2368 26.5962Z" fill="#CDD8F2" stroke="#00208A" stroke-width="0.25" stroke-linejoin="round"/>
<path fill-rule="evenodd" clip-rule="evenodd" d="M98.2268 40.3262L90.7268 44.6662L90.7768 33.3462L98.3168 29.1262L98.2268 40.3262Z" fill="white" stroke="#00208A" stroke-width="0.25" stroke-linejoin="round"/>
<path fill-rule="evenodd" clip-rule="evenodd" d="M95.0468 28.4462L83.4268 21.6462L79.1968 26.5762L90.8168 33.3662L95.0468 28.4462Z" fill="#6A89D8" stroke="#00208A" stroke-width="0.25" stroke-linejoin="round"/>
<path fill-rule="evenodd" clip-rule="evenodd" d="M75.8467 25.8962L81.1967 36.9962L90.7567 33.3762L79.2267 26.5662L75.8467 25.8962Z" fill="#CDD8F2" stroke="#00208A" stroke-width="0.25" stroke-linejoin="round"/>
<path fill-rule="evenodd" clip-rule="evenodd" d="M87.4768 32.6863L83.1968 37.5863L90.7568 33.3763L87.4768 32.6863Z" fill="#CDD8F2" stroke="#00208A" stroke-width="0.25" stroke-linejoin="round"/>
<path d="M71.6567 30.8362L71.6867 42.1762L83.2067 48.9462L83.1867 37.6062L71.6567 30.8362Z" fill="#CDD8F2" stroke="#00208A" stroke-width="0.25" stroke-linejoin="round"/>
<path fill-rule="evenodd" clip-rule="evenodd" d="M90.7268 44.6662L83.1768 48.9462L83.1968 37.5862L90.7468 33.3662L90.7268 44.6662Z" fill="white" stroke="#00208A" stroke-width="0.25" stroke-linejoin="round"/>
<path fill-rule="evenodd" clip-rule="evenodd" d="M87.4767 32.6862L75.8467 25.8962L71.6267 30.8162L83.2467 37.6062L87.4767 32.6862Z" fill="#6A89D8" stroke="#00208A" stroke-width="0.25" stroke-linejoin="round"/>
<path d="M93.9666 42.6562V36.8862L91.8366 38.0862L91.8167 43.8762L93.9666 42.6562Z" fill="#00208A"/>
<path d="M97.2968 30.6963L94.7568 32.1963V35.4663L97.2968 34.0063V30.6963Z" fill="#F1F4FE" stroke="#002484" stroke-width="0.25" stroke-linejoin="round"/>
<path d="M94.1667 32.5264L91.6267 34.0264V37.3064L94.1667 35.8364V32.5264Z" fill="#F1F4FE" stroke="#002484" stroke-width="0.25" stroke-linejoin="round"/>
<path d="M86.7368 36.7861L84.1968 38.2861V41.5661L86.7368 40.0961V36.7861Z" fill="#F1F4FE" stroke="#002484" stroke-width="0.25" stroke-linejoin="round"/>
<path d="M86.8567 41.1362L84.3167 42.6362V45.9062L86.8567 44.4462V41.1362Z" fill="#F1F4FE" stroke="#002484" stroke-width="0.25" stroke-linejoin="round"/>
<path d="M89.9566 45.2563V39.4863L87.8166 40.6863L87.7966 46.4863L89.9566 45.2563Z" fill="#00208A"/>
<path d="M69.3968 31.9165L64.2168 41.9365L75.2068 35.5865L69.3968 31.9165Z" fill="#686A6B"/>
<path fill-rule="evenodd" clip-rule="evenodd" d="M69.3968 31.9165L64.2168 41.9365L75.2068 35.5865L69.3968 31.9165Z" fill="#CDD8F2" stroke="#00208A" stroke-width="0.25" stroke-linejoin="round"/>
<path fill-rule="evenodd" clip-rule="evenodd" d="M74.5466 35.9365H74.5366V35.9265L74.5466 35.9365Z" fill="white" stroke="#00208A" stroke-width="0.25" stroke-linejoin="round"/>
<path d="M51.6667 33.9365L51.6967 51.2565L64.1567 58.7465L64.1267 41.4265L51.6667 33.9365Z" fill="#CDD8F2" stroke="#00208A" stroke-width="0.25" stroke-linejoin="round"/>
<path fill-rule="evenodd" clip-rule="evenodd" d="M74.5367 35.9265V35.9365L74.4367 52.5365L64.1167 58.7465L64.1467 41.9565L64.2167 41.9365L68.9967 32.4465L74.5367 35.9265Z" fill="white" stroke="#00208A" stroke-width="0.25" stroke-linejoin="round"/>
<path fill-rule="evenodd" clip-rule="evenodd" d="M69.8667 32.2064L56.4467 24.3464L51.0967 34.4664L64.5167 42.3165L69.8667 32.2064Z" fill="#6A89D8" stroke="#00208A" stroke-width="0.25" stroke-linejoin="round"/>
<path fill-rule="evenodd" clip-rule="evenodd" d="M49.2168 40.1565L54.5668 51.2565L64.1168 47.6365L52.5968 40.8265L49.2168 40.1565Z" fill="#CDD8F2" stroke="#00208A" stroke-width="0.25" stroke-linejoin="round"/>
<path fill-rule="evenodd" clip-rule="evenodd" d="M60.8469 46.9465L56.5669 51.8466L64.1169 47.6365L60.8469 46.9465Z" fill="#CDD8F2" stroke="#00208A" stroke-width="0.25" stroke-linejoin="round"/>
<path d="M45.0269 45.0964L45.0569 56.4464L56.5169 63.1664L56.5569 51.8664L45.0269 45.0964Z" fill="#CDD8F2" stroke="#00208A" stroke-width="0.25" stroke-linejoin="round"/>
<path fill-rule="evenodd" clip-rule="evenodd" d="M64.0168 58.8264L56.5168 63.1664L56.5668 51.8465L64.1168 47.6265L64.0168 58.8264Z" fill="white" stroke="#00208A" stroke-width="0.25" stroke-linejoin="round"/>
<path fill-rule="evenodd" clip-rule="evenodd" d="M60.8468 46.9465L49.2168 40.1565L44.9968 45.0765L56.6168 51.8665L60.8468 46.9465Z" fill="#6A89D8" stroke="#00208A" stroke-width="0.25" stroke-linejoin="round"/>
<path fill-rule="evenodd" clip-rule="evenodd" d="M41.6467 44.3965L46.9867 55.4965L56.5468 51.8765L45.0168 45.0665L41.6467 44.3965Z" fill="#CDD8F2" stroke="#00208A" stroke-width="0.25" stroke-linejoin="round"/>
<path fill-rule="evenodd" clip-rule="evenodd" d="M53.2668 51.1965L48.9968 56.0865L56.5468 51.8766L53.2668 51.1965Z" fill="#CDD8F2" stroke="#00208A" stroke-width="0.25" stroke-linejoin="round"/>
<path d="M37.4568 49.3364L37.4868 60.6864L48.9968 67.4564L48.9768 56.1064L37.4568 49.3364Z" fill="#CDD8F2" stroke="#00208A" stroke-width="0.25" stroke-linejoin="round"/>
<path fill-rule="evenodd" clip-rule="evenodd" d="M56.5168 63.1664L48.9668 67.4565L48.9968 56.0865L56.5368 51.8765L56.5168 63.1664Z" fill="white" stroke="#00208A" stroke-width="0.25" stroke-linejoin="round"/>
<path fill-rule="evenodd" clip-rule="evenodd" d="M53.2668 51.1965L41.6467 44.3965L37.4167 49.3165L49.0367 56.1065L53.2668 51.1965Z" fill="#6A89D8" stroke="#00208A" stroke-width="0.25" stroke-linejoin="round"/>
<path d="M55.6068 63.5664V57.7964L53.4668 58.9964L53.4468 64.7864L55.6068 63.5664Z" fill="#00208A"/>
<path d="M59.7068 61.2663V55.4963L57.5769 56.7063L57.5469 62.4963L59.7068 61.2663Z" fill="#00208A"/>
<path d="M69.3266 40.8064L66.7866 42.3064V45.5864L69.3266 44.1164V40.8064Z" fill="#F1F4FE" stroke="#002484" stroke-width="0.25" stroke-linejoin="round"/>
<path d="M63.0869 53.7563L60.5469 55.2563V58.5264L63.0869 57.0664V53.7563Z" fill="#F1F4FE" stroke="#002484" stroke-width="0.25" stroke-linejoin="round"/>
<path d="M52.3666 59.4666L49.8267 60.9666V64.2365L52.3666 62.7766V59.4666Z" fill="#F1F4FE" stroke="#002484" stroke-width="0.25" stroke-linejoin="round"/>
<path d="M73.4067 38.4165L70.8667 39.9265V43.1965L73.4067 41.7365V38.4165Z" fill="#F1F4FE" stroke="#002484" stroke-width="0.25" stroke-linejoin="round"/>
<path d="M62.2068 37.7365L62.2268 35.4365L63.9568 36.3665L63.9268 38.6365L62.2068 37.7365Z" fill="#6A89D8"/>
<path d="M62.2768 35.5965L63.8668 36.3865V38.5665L62.2768 37.7365V35.6065M62.1768 35.4365V37.7865L63.9668 38.7265V36.3265L62.1768 35.4465V35.4365Z" fill="#00208A"/>
<path d="M63.9568 36.3064L65.4968 35.5864L65.4468 36.3064L63.9568 38.5864V36.3064Z" fill="white"/>
<path d="M65.4067 35.6764V36.2864L63.9867 38.4664V36.3564L65.4067 35.6764ZM65.4867 35.5564L63.9167 36.3064V38.7064L65.4867 36.3064V35.5564Z" fill="#00208A"/>
<path d="M62.1667 35.4364L63.7467 34.5864L65.4867 35.5564L63.9167 36.3064L62.1667 35.4364Z" fill="#00208A"/>
<path d="M20.5768 59.7863C20.5768 59.7863 20.3368 60.1063 20.0368 60.1063C19.7368 60.1063 19.4968 59.7863 19.4968 59.7863V56.9563H20.5868V59.7863H20.5768Z" fill="#002484"/>
<path d="M19.9069 57.2564C17.4969 57.2564 15.5369 54.5664 15.5369 51.2664C15.5369 47.9664 18.9969 43.3464 19.7269 43.3464C20.4969 43.3464 24.2769 47.9264 24.2769 51.2664C24.2769 54.6064 22.3169 57.2564 19.9069 57.2564Z" fill="#D5EDD7"/>
<path d="M19.7268 43.4563C20.3968 43.4563 24.1568 47.9963 24.1568 51.2663C24.1568 52.8463 23.7068 54.3363 22.8868 55.4463C22.0868 56.5363 21.0268 57.1463 19.9068 57.1463C17.5668 57.1463 15.6568 54.5063 15.6568 51.2663C15.6568 47.9663 19.0368 43.4563 19.7268 43.4563ZM19.7268 43.2363C18.8568 43.2363 15.4268 47.9063 15.4268 51.2763C15.4268 54.6463 17.4368 57.3863 19.9068 57.3863C22.3768 57.3863 24.3868 54.6563 24.3868 51.2763C24.3868 47.9063 20.5968 43.2363 19.7268 43.2363Z" fill="#002484"/>
<path d="M26.5268 63.0663C26.5268 63.0663 26.2868 63.3863 25.9868 63.3863C25.6868 63.3863 25.4468 63.0663 25.4468 63.0663V60.2363H26.5368V63.0663H26.5268Z" fill="#002484"/>
<path d="M25.8568 60.5365C23.4468 60.5365 21.4868 57.8464 21.4868 54.5464C21.4868 51.2464 24.9468 46.6265 25.6768 46.6265C26.4468 46.6265 30.2268 51.2064 30.2268 54.5464C30.2268 57.8864 28.2668 60.5365 25.8568 60.5365Z" fill="#D5EDD7"/>
<path d="M25.6767 46.7364C26.3467 46.7364 30.1067 51.2764 30.1067 54.5464C30.1067 56.1264 29.6567 57.6163 28.8367 58.7263C28.0367 59.8163 26.9767 60.4264 25.8567 60.4264C23.5167 60.4264 21.6067 57.7864 21.6067 54.5464C21.6067 53.1364 22.2567 51.2464 23.3967 49.3764C24.4667 47.6164 25.4367 46.7263 25.6767 46.7263M25.6767 46.5063C24.8067 46.5063 21.3767 51.1764 21.3767 54.5464C21.3767 57.9164 23.3867 60.6564 25.8567 60.6564C28.3267 60.6564 30.3367 57.9264 30.3367 54.5464C30.3367 51.1664 26.5467 46.5063 25.6767 46.5063Z" fill="#002484"/>
<path d="M65.2969 27.6164C65.5785 27.6164 65.8069 27.3881 65.8069 27.1064C65.8069 26.8248 65.5785 26.5964 65.2969 26.5964C65.0152 26.5964 64.7869 26.8248 64.7869 27.1064C64.7869 27.3881 65.0152 27.6164 65.2969 27.6164Z" fill="#F57118"/>
<path d="M62.1367 26.4763C62.4184 26.4763 62.6467 26.248 62.6467 25.9663C62.6467 25.6846 62.4184 25.4563 62.1367 25.4563C61.8551 25.4563 61.6267 25.6846 61.6267 25.9663C61.6267 26.248 61.8551 26.4763 62.1367 26.4763Z" fill="#F57118"/>
<path d="M67.6567 26.9863C67.9384 26.9863 68.1667 26.758 68.1667 26.4763C68.1667 26.1946 67.9384 25.9663 67.6567 25.9663C67.3751 25.9663 67.1467 26.1946 67.1467 26.4763C67.1467 26.758 67.3751 26.9863 67.6567 26.9863Z" fill="#F57118"/>
<path d="M63.1067 30.5364C63.3884 30.5364 63.6167 30.308 63.6167 30.0264C63.6167 29.7447 63.3884 29.5164 63.1067 29.5164C62.825 29.5164 62.5967 29.7447 62.5967 30.0264C62.5967 30.308 62.825 30.5364 63.1067 30.5364Z" fill="#F57118"/>
<path d="M64.7869 25.9663C65.0685 25.9663 65.2969 25.7379 65.2969 25.4563C65.2969 25.1746 65.0685 24.9463 64.7869 24.9463C64.5052 24.9463 64.2769 25.1746 64.2769 25.4563C64.2769 25.7379 64.5052 25.9663 64.7869 25.9663Z" fill="#F57118"/>
<path d="M68.8469 29.4663C69.1286 29.4663 69.3569 29.2379 69.3569 28.9563C69.3569 28.6746 69.1286 28.4463 68.8469 28.4463C68.5653 28.4463 68.3369 28.6746 68.3369 28.9563C68.3369 29.2379 68.5653 29.4663 68.8469 29.4663Z" fill="#F57118"/>
<path d="M63.4569 28.2364C63.6502 28.2364 63.8069 28.0797 63.8069 27.8864C63.8069 27.6931 63.6502 27.5364 63.4569 27.5364C63.2636 27.5364 63.1069 27.6931 63.1069 27.8864C63.1069 28.0797 63.2636 28.2364 63.4569 28.2364Z" fill="#F57118"/>
<path d="M60.8969 28.5862C61.0902 28.5862 61.2469 28.4295 61.2469 28.2362C61.2469 28.0429 61.0902 27.8862 60.8969 27.8862C60.7036 27.8862 60.5469 28.0429 60.5469 28.2362C60.5469 28.4295 60.7036 28.5862 60.8969 28.5862Z" fill="#F57118"/>
<path d="M65.7868 33.6963C65.9801 33.6963 66.1368 33.5396 66.1368 33.3463C66.1368 33.153 65.9801 32.9963 65.7868 32.9963C65.5935 32.9963 65.4368 33.153 65.4368 33.3463C65.4368 33.5396 65.5935 33.6963 65.7868 33.6963Z" fill="#F57118"/>
<path d="M60.5468 31.3663C60.7401 31.3663 60.8968 31.2096 60.8968 31.0163C60.8968 30.823 60.7401 30.6663 60.5468 30.6663C60.3535 30.6663 60.1968 30.823 60.1968 31.0163C60.1968 31.2096 60.3535 31.3663 60.5468 31.3663Z" fill="#F57118"/>
<path d="M66.3368 28.9363C66.5301 28.9363 66.6868 28.7796 66.6868 28.5863C66.6868 28.393 66.5301 28.2363 66.3368 28.2363C66.1435 28.2363 65.9868 28.393 65.9868 28.5863C65.9868 28.7796 66.1435 28.9363 66.3368 28.9363Z" fill="#F57118"/>
<path d="M65.2968 31.0164C65.4901 31.0164 65.6468 30.8597 65.6468 30.6664C65.6468 30.4731 65.4901 30.3164 65.2968 30.3164C65.1035 30.3164 64.9468 30.4731 64.9468 30.6664C64.9468 30.8597 65.1035 31.0164 65.2968 31.0164Z" fill="#F57118"/>
<path d="M67.6569 31.3663C67.8502 31.3663 68.0069 31.2096 68.0069 31.0163C68.0069 30.823 67.8502 30.6663 67.6569 30.6663C67.4636 30.6663 67.3069 30.823 67.3069 31.0163C67.3069 31.2096 67.4636 31.3663 67.6569 31.3663Z" fill="#F57118"/>
<path d="M60.3068 26.1063C60.5001 26.1063 60.6568 25.9496 60.6568 25.7563C60.6568 25.563 60.5001 25.4062 60.3068 25.4062C60.1135 25.4062 59.9568 25.563 59.9568 25.7563C59.9568 25.9496 60.1135 26.1063 60.3068 26.1063Z" fill="#F57118"/>
<path d="M63.1068 24.6863C63.3001 24.6863 63.4568 24.5296 63.4568 24.3363C63.4568 24.143 63.3001 23.9863 63.1068 23.9863C62.9135 23.9863 62.7568 24.143 62.7568 24.3363C62.7568 24.5296 62.9135 24.6863 63.1068 24.6863Z" fill="#F57118"/>
<path d="M61.9767 32.9964C62.17 32.9964 62.3267 32.8397 62.3267 32.6464C62.3267 32.4531 62.17 32.2964 61.9767 32.2964C61.7834 32.2964 61.6267 32.4531 61.6267 32.6464C61.6267 32.8397 61.7834 32.9964 61.9767 32.9964Z" fill="#F57118"/>
<path d="M66.4867 25.0364C66.68 25.0364 66.8367 24.8797 66.8367 24.6864C66.8367 24.4931 66.68 24.3364 66.4867 24.3364C66.2934 24.3364 66.1367 24.4931 66.1367 24.6864C66.1367 24.8797 66.2934 25.0364 66.4867 25.0364Z" fill="#F57118"/>
<path d="M147.397 29.3965C147.678 29.3965 147.907 29.1681 147.907 28.8865C147.907 28.6048 147.678 28.3765 147.397 28.3765C147.115 28.3765 146.887 28.6048 146.887 28.8865C146.887 29.1681 147.115 29.3965 147.397 29.3965Z" fill="#F57118"/>
<path d="M144.237 28.2663C144.518 28.2663 144.747 28.038 144.747 27.7563C144.747 27.4747 144.518 27.2463 144.237 27.2463C143.955 27.2463 143.727 27.4747 143.727 27.7563C143.727 28.038 143.955 28.2663 144.237 28.2663Z" fill="#F57118"/>
<path d="M149.757 28.7764C150.038 28.7764 150.267 28.548 150.267 28.2663C150.267 27.9847 150.038 27.7563 149.757 27.7563C149.475 27.7563 149.247 27.9847 149.247 28.2663C149.247 28.548 149.475 28.7764 149.757 28.7764Z" fill="#F57118"/>
<path d="M145.207 32.3264C145.488 32.3264 145.717 32.0981 145.717 31.8164C145.717 31.5347 145.488 31.3064 145.207 31.3064C144.925 31.3064 144.697 31.5347 144.697 31.8164C144.697 32.0981 144.925 32.3264 145.207 32.3264Z" fill="#F57118"/>
<path d="M146.887 27.7563C147.168 27.7563 147.397 27.528 147.397 27.2463C147.397 26.9647 147.168 26.7363 146.887 26.7363C146.605 26.7363 146.377 26.9647 146.377 27.2463C146.377 27.528 146.605 27.7563 146.887 27.7563Z" fill="#F57118"/>
<path d="M150.947 31.2563C151.228 31.2563 151.457 31.028 151.457 30.7463C151.457 30.4647 151.228 30.2363 150.947 30.2363C150.665 30.2363 150.437 30.4647 150.437 30.7463C150.437 31.028 150.665 31.2563 150.947 31.2563Z" fill="#F57118"/>
<path d="M145.557 30.0164C145.75 30.0164 145.907 29.8597 145.907 29.6664C145.907 29.4731 145.75 29.3164 145.557 29.3164C145.363 29.3164 145.207 29.4731 145.207 29.6664C145.207 29.8597 145.363 30.0164 145.557 30.0164Z" fill="#F57118"/>
<path d="M142.997 30.3663C143.19 30.3663 143.347 30.2096 143.347 30.0163C143.347 29.823 143.19 29.6663 142.997 29.6663C142.803 29.6663 142.647 29.823 142.647 30.0163C142.647 30.2096 142.803 30.3663 142.997 30.3663Z" fill="#F57118"/>
<path d="M147.887 35.4864C148.08 35.4864 148.237 35.3297 148.237 35.1364C148.237 34.9431 148.08 34.7864 147.887 34.7864C147.693 34.7864 147.537 34.9431 147.537 35.1364C147.537 35.3297 147.693 35.4864 147.887 35.4864Z" fill="#F57118"/>
<path d="M142.647 33.1463C142.84 33.1463 142.997 32.9896 142.997 32.7963C142.997 32.603 142.84 32.4463 142.647 32.4463C142.453 32.4463 142.297 32.603 142.297 32.7963C142.297 32.9896 142.453 33.1463 142.647 33.1463Z" fill="#F57118"/>
<path d="M148.427 30.7164C148.62 30.7164 148.777 30.5597 148.777 30.3664C148.777 30.1731 148.62 30.0164 148.427 30.0164C148.233 30.0164 148.077 30.1731 148.077 30.3664C148.077 30.5597 148.233 30.7164 148.427 30.7164Z" fill="#F57118"/>
<path d="M147.397 32.7964C147.59 32.7964 147.747 32.6397 147.747 32.4464C147.747 32.2531 147.59 32.0964 147.397 32.0964C147.203 32.0964 147.047 32.2531 147.047 32.4464C147.047 32.6397 147.203 32.7964 147.397 32.7964Z" fill="#F57118"/>
<path d="M149.757 33.1463C149.95 33.1463 150.107 32.9896 150.107 32.7963C150.107 32.603 149.95 32.4463 149.757 32.4463C149.563 32.4463 149.407 32.603 149.407 32.7963C149.407 32.9896 149.563 33.1463 149.757 33.1463Z" fill="#F57118"/>
<path d="M142.407 27.8863C142.6 27.8863 142.757 27.7296 142.757 27.5363C142.757 27.343 142.6 27.1863 142.407 27.1863C142.213 27.1863 142.057 27.343 142.057 27.5363C142.057 27.7296 142.213 27.8863 142.407 27.8863Z" fill="#F57118"/>
<path d="M145.207 26.4764C145.4 26.4764 145.557 26.3197 145.557 26.1264C145.557 25.9331 145.4 25.7764 145.207 25.7764C145.013 25.7764 144.857 25.9331 144.857 26.1264C144.857 26.3197 145.013 26.4764 145.207 26.4764Z" fill="#F57118"/>
<path d="M144.077 34.7864C144.27 34.7864 144.427 34.6297 144.427 34.4364C144.427 34.2431 144.27 34.0864 144.077 34.0864C143.883 34.0864 143.727 34.2431 143.727 34.4364C143.727 34.6297 143.883 34.7864 144.077 34.7864Z" fill="#F57118"/>
<path d="M148.587 26.8265C148.78 26.8265 148.937 26.6698 148.937 26.4765C148.937 26.2832 148.78 26.1265 148.587 26.1265C148.393 26.1265 148.237 26.2832 148.237 26.4765C148.237 26.6698 148.393 26.8265 148.587 26.8265Z" fill="#F57118"/>
</svg>
