<svg width="195" height="138" viewBox="0 0 195 138" fill="none" xmlns="http://www.w3.org/2000/svg">
<path d="M4.5 73.15L99.4999 130.15L193.92 75.45L97.5 19.15L4.5 73.15Z" fill="white"/>
<path d="M99.5 137.47L194 82.2167V75.5567L99.5 130.15V137.47Z" fill="#D0D8F1" stroke="#002484" stroke-width="0.25" stroke-linejoin="round"/>
<path d="M99.5 130.15L117.96 119.32L193.92 75.45L97.5 19.15L1 74" fill="#F5F5F7"/>
<path d="M99.5 130.15L117.96 119.32L193.92 75.45L97.5 19.15L1 74" stroke="#002484" stroke-width="0.25" stroke-miterlimit="10"/>
<path d="M109.7 123.75L57.3201 93.88L46.1601 100.59L38.42 95.64L48.3701 90.31L17.8201 72.87L97.7501 27.03L120.58 39.94L127.92 44.29L105.46 57.34L118.26 64.22L92.6901 78.93L122.25 95.54L144.49 82.7L150.43 85.85L114.39 106.78L126.77 113.91L109.7 123.75Z" fill="white"/>
<path d="M38.68 96.1799L38.5 89.1499L47.87 94.4099L47.74 101.38L38.68 96.1799Z" fill="#FBFCFF" stroke="#002484" stroke-width="0.25" stroke-miterlimit="10"/>
<path d="M39.21 89.5498V96.5598" stroke="#002484" stroke-width="0.25" stroke-miterlimit="10"/>
<path d="M39.96 89.97V96.92" stroke="#002484" stroke-width="0.25" stroke-miterlimit="10"/>
<path d="M40.5801 90.3198V97.2498" stroke="#002484" stroke-width="0.25" stroke-miterlimit="10"/>
<path d="M41.1499 90.6399V97.7299" stroke="#002484" stroke-width="0.25" stroke-miterlimit="10"/>
<path d="M41.75 91.01V97.94" stroke="#002484" stroke-width="0.25" stroke-miterlimit="10"/>
<path d="M42.29 91.2798V98.2098" stroke="#002484" stroke-width="0.25" stroke-miterlimit="10"/>
<path d="M42.9299 91.6299V98.6799" stroke="#002484" stroke-width="0.25" stroke-miterlimit="10"/>
<path d="M43.6201 92.0298V99.1198" stroke="#002484" stroke-width="0.25" stroke-miterlimit="10"/>
<path d="M44.3301 99.4198V92.2998" stroke="#002484" stroke-width="0.25" stroke-miterlimit="10"/>
<path d="M45.0801 92.8398V99.9099" stroke="#002484" stroke-width="0.25" stroke-miterlimit="10"/>
<path d="M45.78 93.24V100.19" stroke="#002484" stroke-width="0.25" stroke-miterlimit="10"/>
<path d="M46.45 93.6199V100.67" stroke="#002484" stroke-width="0.25" stroke-miterlimit="10"/>
<path d="M47.1499 94.01V101.02" stroke="#002484" stroke-width="0.25" stroke-miterlimit="10"/>
<path d="M119.15 55.9001L140.68 43.3201L141.01 43.0901C141.28 42.8901 141.45 42.5701 141.45 42.2101C141.45 41.6001 140.95 41.1001 140.34 41.1001C140.16 41.1001 139.9 41.2601 139.71 41.3901L139.57 41.4901L118.63 53.6901" fill="#CDD5EE"/>
<path d="M119.15 55.9001L140.68 43.3201L141.01 43.0901C141.28 42.8901 141.45 42.5701 141.45 42.2101C141.45 41.6001 140.95 41.1001 140.34 41.1001C140.16 41.1001 139.9 41.2601 139.71 41.3901L139.57 41.4901L118.63 53.6901" stroke="#002484" stroke-width="0.25" stroke-miterlimit="10"/>
<path d="M119.167 55.8604C119.68 55.7064 119.951 55.1012 119.774 54.5088C119.596 53.9164 119.036 53.561 118.523 53.715C118.009 53.869 117.738 54.4742 117.916 55.0666C118.093 55.659 118.653 56.0144 119.167 55.8604Z" fill="#CDD5EE" stroke="#002484" stroke-width="0.25" stroke-miterlimit="10"/>
<path d="M119.12 54.2102C119.12 54.2102 118.02 54.0702 118.27 54.7702C118.52 55.4702 118.82 55.5101 119.06 55.3201C119.3 55.1301 119.36 54.4901 119.11 54.2001L119.12 54.2102Z" fill="#CDD5EE" stroke="#002484" stroke-width="0.22" stroke-miterlimit="10"/>
<path d="M113.37 60.52L134.9 47.94L135.23 47.71C135.5 47.51 135.67 47.19 135.67 46.83C135.67 46.22 135.17 45.72 134.56 45.72C134.38 45.72 134.12 45.88 133.93 46.01L133.79 46.11L112.85 58.31" fill="#CDD5EE"/>
<path d="M113.37 60.52L134.9 47.94L135.23 47.71C135.5 47.51 135.67 47.19 135.67 46.83C135.67 46.22 135.17 45.72 134.56 45.72C134.38 45.72 134.12 45.88 133.93 46.01L133.79 46.11L112.85 58.31" stroke="#002484" stroke-width="0.25" stroke-miterlimit="10"/>
<path d="M113.389 60.4871C113.902 60.3331 114.174 59.7279 113.996 59.1355C113.818 58.5431 113.258 58.1877 112.745 58.3417C112.232 58.4957 111.96 59.1009 112.138 59.6933C112.316 60.2857 112.876 60.6411 113.389 60.4871Z" fill="#6C89D9" stroke="#002484" stroke-width="0.25" stroke-linejoin="round"/>
<path d="M115.03 61.6301L136.56 49.0501L136.89 48.8201C137.16 48.6201 137.33 48.3001 137.33 47.9401C137.33 47.3301 136.83 46.8301 136.22 46.8301C136.04 46.8301 135.78 46.9901 135.59 47.1201L135.45 47.2201L114.51 59.4201" fill="#CDD5EE"/>
<path d="M115.03 61.6301L136.56 49.0501L136.89 48.8201C137.16 48.6201 137.33 48.3001 137.33 47.9401C137.33 47.3301 136.83 46.8301 136.22 46.8301C136.04 46.8301 135.78 46.9901 135.59 47.1201L135.45 47.2201L114.51 59.4201" stroke="#002484" stroke-width="0.25" stroke-miterlimit="10"/>
<path d="M115.048 61.5931C115.561 61.4391 115.833 60.8339 115.655 60.2415C115.477 59.649 114.917 59.2936 114.404 59.4477C113.891 59.6017 113.619 60.2068 113.797 60.7993C113.975 61.3917 114.535 61.7471 115.048 61.5931Z" fill="#6C89D9" stroke="#002484" stroke-width="0.25" stroke-linejoin="round"/>
<path d="M116.81 62.79L138.34 50.21L138.67 49.98C138.94 49.78 139.11 49.46 139.11 49.1C139.11 48.49 138.61 47.99 138 47.99C137.82 47.99 137.56 48.15 137.37 48.28L137.23 48.38L116.29 60.58" fill="#CDD5EE"/>
<path d="M116.81 62.79L138.34 50.21L138.67 49.98C138.94 49.78 139.11 49.46 139.11 49.1C139.11 48.49 138.61 47.99 138 47.99C137.82 47.99 137.56 48.15 137.37 48.28L137.23 48.38L116.29 60.58" stroke="#002484" stroke-width="0.25" stroke-miterlimit="10"/>
<path d="M116.837 62.7522C117.35 62.5982 117.621 61.9931 117.444 61.4006C117.266 60.8082 116.706 60.4528 116.192 60.6068C115.679 60.7609 115.408 61.366 115.585 61.9584C115.763 62.5509 116.323 62.9063 116.837 62.7522Z" fill="#6C89D9" stroke="#002484" stroke-width="0.25" stroke-linejoin="round"/>
<path d="M118.3 63.6501L139.83 51.0701L140.16 50.8401C140.43 50.6401 140.6 50.3201 140.6 49.9601C140.6 49.3501 140.1 48.8501 139.49 48.8501C139.31 48.8501 139.05 49.0101 138.86 49.1401L138.72 49.2401L117.78 61.4401" fill="#CDD5EE"/>
<path d="M118.3 63.6501L139.83 51.0701L140.16 50.8401C140.43 50.6401 140.6 50.3201 140.6 49.9601C140.6 49.3501 140.1 48.8501 139.49 48.8501C139.31 48.8501 139.05 49.0101 138.86 49.1401L138.72 49.2401L117.78 61.4401" stroke="#002484" stroke-width="0.25" stroke-miterlimit="10"/>
<path d="M118.321 63.6177C118.834 63.4637 119.106 62.8586 118.928 62.2661C118.75 61.6737 118.19 61.3183 117.677 61.4723C117.164 61.6263 116.892 62.2315 117.07 62.8239C117.247 63.4164 117.808 63.7717 118.321 63.6177Z" fill="#6C89D9" stroke="#002484" stroke-width="0.25" stroke-linejoin="round"/>
<path d="M115.06 59.4802L136.59 46.9002L136.92 46.6702C137.19 46.4702 137.36 46.1502 137.36 45.7902C137.36 45.1802 136.86 44.6802 136.25 44.6802C136.07 44.6802 135.81 44.8402 135.62 44.9702L135.48 45.0702L114.54 57.2702" fill="#CDD5EE"/>
<path d="M115.06 59.4802L136.59 46.9002L136.92 46.6702C137.19 46.4702 137.36 46.1502 137.36 45.7902C137.36 45.1802 136.86 44.6802 136.25 44.6802C136.07 44.6802 135.81 44.8402 135.62 44.9702L135.48 45.0702L114.54 57.2702" stroke="#002484" stroke-width="0.25" stroke-miterlimit="10"/>
<path d="M115.088 59.4424C115.601 59.2884 115.873 58.6833 115.695 58.0908C115.517 57.4984 114.957 57.143 114.444 57.297C113.931 57.4511 113.659 58.0562 113.837 58.6486C114.015 59.2411 114.575 59.5965 115.088 59.4424Z" fill="#6C89D9" stroke="#002484" stroke-width="0.25" stroke-linejoin="round"/>
<path d="M116.81 60.1601L138.34 47.5801L138.67 47.3501C138.94 47.1501 139.11 46.8301 139.11 46.4701C139.11 46.1101 138.61 45.3601 138 45.3601C137.82 45.3601 137.56 45.5201 137.37 45.6501L137.23 45.7501L116.29 57.9501" fill="#CDD5EE"/>
<path d="M116.81 60.1601L138.34 47.5801L138.67 47.3501C138.94 47.1501 139.11 46.8301 139.11 46.4701C139.11 46.1101 138.61 45.3601 138 45.3601C137.82 45.3601 137.56 45.5201 137.37 45.6501L137.23 45.7501L116.29 57.9501" stroke="#002484" stroke-width="0.25" stroke-miterlimit="10"/>
<path d="M116.83 60.1233C117.343 59.9693 117.615 59.3642 117.437 58.7717C117.259 58.1793 116.699 57.8239 116.186 57.9779C115.673 58.132 115.401 58.7371 115.579 59.3295C115.757 59.922 116.317 60.2774 116.83 60.1233Z" fill="#6C89D9" stroke="#002484" stroke-width="0.25" stroke-linejoin="round"/>
<path d="M118.68 60.8701L140.21 48.2901L140.54 48.0601C140.81 47.8601 140.98 47.5401 140.98 47.1801C140.98 46.5701 140.48 46.0701 139.87 46.0701C139.69 46.0701 139.43 46.2301 139.24 46.3601L139.1 46.4601L118.16 58.6601" fill="#CDD5EE"/>
<path d="M118.68 60.8701L140.21 48.2901L140.54 48.0601C140.81 47.8601 140.98 47.5401 140.98 47.1801C140.98 46.5701 140.48 46.0701 139.87 46.0701C139.69 46.0701 139.43 46.2301 139.24 46.3601L139.1 46.4601L118.16 58.6601" stroke="#002484" stroke-width="0.25" stroke-miterlimit="10"/>
<path d="M118.705 60.8357C119.219 60.6817 119.49 60.0766 119.312 59.4841C119.135 58.8917 118.574 58.5363 118.061 58.6903C117.548 58.8444 117.277 59.4495 117.454 60.0419C117.632 60.6344 118.192 60.9898 118.705 60.8357Z" fill="#6C89D9" stroke="#002484" stroke-width="0.25" stroke-linejoin="round"/>
<path d="M119.91 64.55L141.44 51.97L141.77 51.74C142.04 51.54 142.21 51.22 142.21 50.86C142.21 50.5 141.71 49.75 141.1 49.75C140.92 49.75 140.66 49.91 140.47 50.04L140.33 50.14L119.39 62.34" fill="#CDD5EE"/>
<path d="M119.91 64.55L141.44 51.97L141.77 51.74C142.04 51.54 142.21 51.22 142.21 50.86C142.21 50.5 141.71 49.75 141.1 49.75C140.92 49.75 140.66 49.91 140.47 50.04L140.33 50.14L119.39 62.34" stroke="#002484" stroke-width="0.25" stroke-miterlimit="10"/>
<path d="M119.941 64.5137C120.454 64.3597 120.726 63.7546 120.548 63.1621C120.37 62.5697 119.81 62.2143 119.297 62.3683C118.784 62.5223 118.512 63.1275 118.69 63.7199C118.868 64.3124 119.428 64.6678 119.941 64.5137Z" fill="#6C89D9" stroke="#002484" stroke-width="0.25" stroke-linejoin="round"/>
<path d="M120.42 61.8L141.95 49.22L142.28 48.99C142.55 48.79 142.72 48.47 142.72 48.11C142.72 47.75 142.22 47 141.61 47C141.43 47 141.17 47.16 140.98 47.29L140.84 47.39L119.9 59.59" fill="#CDD5EE"/>
<path d="M120.42 61.8L141.95 49.22L142.28 48.99C142.55 48.79 142.72 48.47 142.72 48.11C142.72 47.75 142.22 47 141.61 47C141.43 47 141.17 47.16 140.98 47.29L140.84 47.39L119.9 59.59" stroke="#002484" stroke-width="0.25" stroke-miterlimit="10"/>
<path d="M120.449 61.7632C120.962 61.6092 121.234 61.0041 121.056 60.4116C120.878 59.8192 120.318 59.4638 119.805 59.6178C119.292 59.7719 119.02 60.377 119.198 60.9694C119.376 61.5619 119.936 61.9173 120.449 61.7632Z" fill="#6C89D9" stroke="#002484" stroke-width="0.25" stroke-linejoin="round"/>
<path d="M116.81 57.78L138.34 45.2L138.67 44.97C138.94 44.77 139.11 44.45 139.11 44.09C139.11 43.48 138.61 42.98 138 42.98C137.82 42.98 137.56 43.14 137.37 43.27L137.23 43.37L116.29 55.57" fill="#CDD5EE"/>
<path d="M116.81 57.78L138.34 45.2L138.67 44.97C138.94 44.77 139.11 44.45 139.11 44.09C139.11 43.48 138.61 42.98 138 42.98C137.82 42.98 137.56 43.14 137.37 43.27L137.23 43.37L116.29 55.57" stroke="#002484" stroke-width="0.25" stroke-miterlimit="10"/>
<path d="M116.826 57.7437C117.339 57.5897 117.611 56.9845 117.433 56.3921C117.255 55.7997 116.695 55.4443 116.182 55.5983C115.669 55.7523 115.397 56.3575 115.575 56.9499C115.753 57.5424 116.313 57.8977 116.826 57.7437Z" fill="#6C89D9" stroke="#002484" stroke-width="0.25" stroke-linejoin="round"/>
<path d="M118.68 58.7399L140.21 46.1599L140.54 45.9299C140.81 45.7299 140.98 45.4099 140.98 45.0499C140.98 44.4399 140.48 43.9399 139.87 43.9399C139.69 43.9399 139.43 44.0999 139.24 44.2299L139.1 44.3299L118.16 56.5299" fill="#CDD5EE"/>
<path d="M118.68 58.7399L140.21 46.1599L140.54 45.9299C140.81 45.7299 140.98 45.4099 140.98 45.0499C140.98 44.4399 140.48 43.9399 139.87 43.9399C139.69 43.9399 139.43 44.0999 139.24 44.2299L139.1 44.3299L118.16 56.5299" stroke="#002484" stroke-width="0.25" stroke-miterlimit="10"/>
<path d="M118.703 58.7056C119.216 58.5516 119.488 57.9464 119.31 57.354C119.132 56.7616 118.572 56.4062 118.059 56.5602C117.546 56.7142 117.274 57.3194 117.452 57.9118C117.63 58.5043 118.19 58.8596 118.703 58.7056Z" fill="#6C89D9" stroke="#002484" stroke-width="0.25" stroke-linejoin="round"/>
<path d="M119.82 59.8601L141.35 47.2801L141.68 47.0501C141.95 46.8501 142.12 46.5301 142.12 46.1701C142.12 45.5601 141.62 45.0601 141.01 45.0601C140.83 45.0601 140.57 45.2201 140.38 45.3501L140.24 45.4501L119.3 57.6501" fill="#CDD5EE"/>
<path d="M119.82 59.8601L141.35 47.2801L141.68 47.0501C141.95 46.8501 142.12 46.5301 142.12 46.1701C142.12 45.5601 141.62 45.0601 141.01 45.0601C140.83 45.0601 140.57 45.2201 140.38 45.3501L140.24 45.4501L119.3 57.6501" stroke="#002484" stroke-width="0.25" stroke-miterlimit="10"/>
<path d="M119.837 59.8206C120.35 59.6666 120.622 59.0615 120.444 58.469C120.266 57.8766 119.706 57.5212 119.193 57.6752C118.68 57.8292 118.408 58.4344 118.586 59.0268C118.764 59.6193 119.324 59.9746 119.837 59.8206Z" fill="#6C89D9" stroke="#002484" stroke-width="0.25" stroke-linejoin="round"/>
<path d="M118.09 56.25L139.62 43.67L139.95 43.44C140.22 43.24 140.39 42.92 140.39 42.56C140.39 41.95 139.89 41.45 139.28 41.45C139.1 41.45 138.84 41.61 138.65 41.74L138.51 41.84L117.57 54.0399" fill="#CDD5EE"/>
<path d="M118.09 56.25L139.62 43.67L139.95 43.44C140.22 43.24 140.39 42.92 140.39 42.56C140.39 41.95 139.89 41.45 139.28 41.45C139.1 41.45 138.84 41.61 138.65 41.74L138.51 41.84L117.57 54.0399" stroke="#002484" stroke-width="0.25" stroke-miterlimit="10"/>
<path d="M118.112 56.2103C118.625 56.0562 118.897 55.4511 118.719 54.8587C118.541 54.2662 117.981 53.9108 117.468 54.0649C116.955 54.2189 116.683 54.824 116.861 55.4165C117.039 56.0089 117.599 56.3643 118.112 56.2103Z" fill="#6C89D9" stroke="#002484" stroke-width="0.25" stroke-linejoin="round"/>
<path d="M119.44 57.6201L140.97 45.0401L141.3 44.8101C141.57 44.6101 141.74 44.2901 141.74 43.9301C141.74 43.5701 141.24 42.8201 140.63 42.8201C140.45 42.8201 140.19 42.9801 140 43.1101L139.86 43.2101L118.92 55.4101" fill="#CDD5EE"/>
<path d="M119.44 57.6201L140.97 45.0401L141.3 44.8101C141.57 44.6101 141.74 44.2901 141.74 43.9301C141.74 43.5701 141.24 42.8201 140.63 42.8201C140.45 42.8201 140.19 42.9801 140 43.1101L139.86 43.2101L118.92 55.4101" stroke="#002484" stroke-width="0.25" stroke-miterlimit="10"/>
<path d="M119.462 57.594C119.975 57.44 120.247 56.8349 120.069 56.2424C119.891 55.65 119.331 55.2946 118.818 55.4486C118.305 55.6027 118.033 56.2078 118.211 56.8002C118.389 57.3927 118.949 57.7481 119.462 57.594Z" fill="#6C89D9" stroke="#002484" stroke-width="0.25" stroke-linejoin="round"/>
<path d="M119.06 55.1301L140.59 42.5501L140.92 42.3201C141.19 42.1201 141.36 41.8001 141.36 41.4401C141.36 40.8301 140.86 40.3301 140.25 40.3301C140.07 40.3301 139.81 40.4901 139.62 40.6201L139.48 40.7201L118.54 52.9201" fill="#CDD5EE"/>
<path d="M119.06 55.1301L140.59 42.5501L140.92 42.3201C141.19 42.1201 141.36 41.8001 141.36 41.4401C141.36 40.8301 140.86 40.3301 140.25 40.3301C140.07 40.3301 139.81 40.4901 139.62 40.6201L139.48 40.7201L118.54 52.9201" stroke="#002484" stroke-width="0.25" stroke-miterlimit="10"/>
<path d="M119.079 55.0989C119.592 54.9449 119.864 54.3398 119.686 53.7473C119.508 53.1549 118.948 52.7995 118.435 52.9535C117.922 53.1075 117.65 53.7127 117.828 54.3051C118.006 54.8976 118.566 55.253 119.079 55.0989Z" fill="#6C89D9" stroke="#002484" stroke-width="0.25" stroke-linejoin="round"/>
<path d="M114.23 44.8601L135.76 32.2801L136.09 32.0501C136.36 31.8501 136.53 31.5301 136.53 31.1701C136.53 30.5601 136.03 30.0601 135.42 30.0601C135.24 30.0601 134.98 30.2201 134.79 30.3501L134.65 30.4501L113.71 42.6501" fill="#CDD5EE"/>
<path d="M114.23 44.8601L135.76 32.2801L136.09 32.0501C136.36 31.8501 136.53 31.5301 136.53 31.1701C136.53 30.5601 136.03 30.0601 135.42 30.0601C135.24 30.0601 134.98 30.2201 134.79 30.3501L134.65 30.4501L113.71 42.6501" stroke="#002484" stroke-width="0.25" stroke-miterlimit="10"/>
<path d="M114.25 44.8214C114.763 44.6673 115.035 44.0622 114.857 43.4698C114.679 42.8773 114.119 42.5219 113.606 42.6759C113.093 42.83 112.821 43.4351 112.999 44.0275C113.177 44.62 113.737 44.9754 114.25 44.8214Z" fill="#6C89D9" stroke="#002484" stroke-width="0.25" stroke-linejoin="round"/>
<path d="M113.72 43.1401C113.72 43.1401 114.82 43.0001 114.57 43.7001C114.32 44.4001 114.02 44.4401 113.78 44.2501C113.54 44.0601 113.48 43.4201 113.73 43.1301L113.72 43.1401Z" fill="#6C89D9" stroke="#002484" stroke-width="0.25" stroke-linejoin="round"/>
<path d="M118.51 53.4101C118.51 53.4101 119.61 53.2701 119.36 53.9701C119.11 54.6701 118.81 54.7101 118.57 54.5201C118.33 54.3301 118.27 53.6901 118.52 53.4001L118.51 53.4101Z" fill="#6C89D9" stroke="#002484" stroke-width="0.25" stroke-linejoin="round"/>
<path d="M118.88 55.9001C118.88 55.9001 119.98 55.7601 119.73 56.4601C119.48 57.1601 119.18 57.2001 118.94 57.0101C118.7 56.8201 118.64 56.1801 118.89 55.8901L118.88 55.9001Z" fill="#6C89D9" stroke="#002484" stroke-width="0.25" stroke-linejoin="round"/>
<path d="M119.12 58.2001C119.12 58.2001 120.22 58.0601 119.97 58.7601C119.72 59.4601 119.42 59.5002 119.18 59.3102C118.94 59.1202 118.88 58.4802 119.13 58.1902L119.12 58.2001Z" fill="#6C89D9" stroke="#002484" stroke-width="0.25" stroke-linejoin="round"/>
<path d="M119.78 60.1201C119.78 60.1201 120.88 59.9801 120.63 60.6801C120.38 61.3801 120.08 61.4201 119.84 61.2301C119.6 61.0401 119.54 60.4001 119.79 60.1101L119.78 60.1201Z" fill="#6C89D9" stroke="#002484" stroke-width="0.25" stroke-linejoin="round"/>
<path d="M116.16 58.3901C116.16 58.3901 117.26 58.2501 117.01 58.9501C116.76 59.6501 116.46 59.6901 116.22 59.5001C115.98 59.3101 115.92 58.6701 116.17 58.3801L116.16 58.3901Z" fill="#6C89D9" stroke="#002484" stroke-width="0.25" stroke-linejoin="round"/>
<path d="M114.38 57.78C114.38 57.78 115.48 57.64 115.23 58.34C114.98 59.04 114.68 59.08 114.44 58.89C114.2 58.7 114.14 58.06 114.39 57.77L114.38 57.78Z" fill="#6C89D9" stroke="#002484" stroke-width="0.25" stroke-linejoin="round"/>
<path d="M116.16 56.04C116.16 56.04 117.26 55.9 117.01 56.6C116.76 57.3 116.46 57.34 116.22 57.15C115.98 56.96 115.92 56.32 116.17 56.03L116.16 56.04Z" fill="#6C89D9" stroke="#002484" stroke-width="0.25" stroke-linejoin="round"/>
<path d="M112.83 58.8701C112.83 58.8701 113.93 58.7301 113.68 59.4301C113.43 60.1301 113.13 60.1701 112.89 59.9801C112.65 59.7901 112.59 59.1501 112.84 58.8601L112.83 58.8701Z" fill="#6C89D9" stroke="#002484" stroke-width="0.25" stroke-linejoin="round"/>
<path d="M116.02 61.01C116.02 61.01 117.12 60.87 116.87 61.57C116.62 62.27 116.32 62.31 116.08 62.12C115.84 61.93 115.78 61.29 116.03 61L116.02 61.01Z" fill="#6C89D9" stroke="#002484" stroke-width="0.25" stroke-linejoin="round"/>
<path d="M114.49 59.9802C114.49 59.9802 115.59 59.8402 115.34 60.5402C115.09 61.2402 114.79 61.2802 114.55 61.0902C114.31 60.9002 114.25 60.2602 114.5 59.9702L114.49 59.9802Z" fill="#6C89D9" stroke="#002484" stroke-width="0.25" stroke-linejoin="round"/>
<path d="M117.76 62C117.76 62 118.86 61.86 118.61 62.56C118.36 63.26 118.06 63.3 117.82 63.11C117.58 62.92 117.52 62.28 117.77 61.99L117.76 62Z" fill="#6C89D9" stroke="#002484" stroke-width="0.25" stroke-linejoin="round"/>
<path d="M119.37 62.9101C119.37 62.9101 120.47 62.7701 120.22 63.4701C119.97 64.1701 119.67 64.2101 119.43 64.0201C119.19 63.8301 119.13 63.1901 119.38 62.9001L119.37 62.9101Z" fill="#6C89D9" stroke="#002484" stroke-width="0.25" stroke-linejoin="round"/>
<path d="M95.2598 15.7699V13.1099L97.2498 11.9099V14.5799L95.2598 15.7699Z" fill="#123EB7" stroke="#002484" stroke-width="0.25" stroke-linejoin="round"/>
<path d="M90.3999 10.1199L95.3099 13.0299V15.7499L90.3999 12.9299V10.1199Z" fill="white" stroke="#002484" stroke-width="0.25" stroke-linejoin="round"/>
<path d="M92.2998 9.0199L97.2498 11.9099L95.4198 12.9799L90.5298 10.0899L92.2998 9.0199Z" fill="#A0B2E2"/>
<path d="M87.3999 8.33992L123.69 29.2399L121.88 25.6199L89.6299 7.04993L87.3999 8.34993" stroke="#002484" stroke-width="0.25" stroke-linecap="round" stroke-linejoin="round"/>
<path d="M125.62 28.1299L123.82 24.5199L91.5598 5.93994L89.3398 7.21994L125.62 28.1299Z" stroke="#002484" stroke-width="0.25" stroke-linecap="round" stroke-linejoin="round"/>
<path d="M123.69 29.2399L125.61 28.1199" stroke="#002484" stroke-width="0.25" stroke-linecap="round" stroke-linejoin="round"/>
<path d="M92.4597 8.69992L94.3097 7.53992" stroke="#002484" stroke-width="0.25" stroke-linecap="round" stroke-linejoin="round"/>
<path d="M94.6998 9.95998L96.5198 8.78996L92.4598 8.69997L91.5498 5.96997" stroke="#002484" stroke-width="0.25" stroke-linecap="round" stroke-linejoin="round"/>
<path d="M97.5098 11.58L99.2998 10.45" stroke="#002484" stroke-width="0.25" stroke-linecap="round" stroke-linejoin="round"/>
<path d="M99.6998 12.86L101.51 11.7L97.5098 11.58L96.5398 8.88" stroke="#002484" stroke-width="0.25" stroke-linecap="round" stroke-linejoin="round"/>
<path d="M102.43 14.4499L104.27 13.2899" stroke="#002484" stroke-width="0.25" stroke-linecap="round" stroke-linejoin="round"/>
<path d="M104.68 15.7L106.48 14.54L102.43 14.45L101.51 11.72" stroke="#002484" stroke-width="0.25" stroke-linecap="round" stroke-linejoin="round"/>
<path d="M107.36 17.2899L109.21 16.1299" stroke="#002484" stroke-width="0.25" stroke-linecap="round" stroke-linejoin="round"/>
<path d="M109.61 18.5399L111.41 17.3799L107.36 17.2899L106.45 14.5599" stroke="#002484" stroke-width="0.25" stroke-linecap="round" stroke-linejoin="round"/>
<path d="M112.35 20.13L114.2 18.97" stroke="#002484" stroke-width="0.25" stroke-linecap="round" stroke-linejoin="round"/>
<path d="M114.6 21.3799L116.37 20.2299L112.35 20.1299L111.44 17.3999" stroke="#002484" stroke-width="0.25" stroke-linecap="round" stroke-linejoin="round"/>
<path d="M117.35 22.9299L119.13 21.8099" stroke="#002484" stroke-width="0.25" stroke-linecap="round" stroke-linejoin="round"/>
<path d="M119.49 24.25L121.32 23.08L117.35 22.93L116.37 20.23" stroke="#002484" stroke-width="0.25" stroke-linecap="round" stroke-linejoin="round"/>
<path d="M121.88 25.65L123.82 24.52" stroke="#002484" stroke-width="0.25" stroke-linecap="round" stroke-linejoin="round"/>
<path d="M122.94 27.7299L124.82 26.56L121.88 25.6499L121.32 23.08" stroke="#002484" stroke-width="0.25" stroke-linecap="round" stroke-linejoin="round"/>
<path d="M90.4399 10.0699L92.2799 8.90991" stroke="#002484" stroke-width="0.25" stroke-linecap="round" stroke-linejoin="round"/>
<path d="M92.6798 11.32L94.3698 10.23L90.4398 10.07L89.3398 7.21997" stroke="#002484" stroke-width="0.25" stroke-linecap="round" stroke-linejoin="round"/>
<path d="M95.4199 12.9799L97.2699 11.8199" stroke="#002484" stroke-width="0.25" stroke-linecap="round" stroke-linejoin="round"/>
<path d="M97.6699 14.23L99.4799 13.07L95.4199 12.98L94.3699 10.23" stroke="#002484" stroke-width="0.25" stroke-linecap="round" stroke-linejoin="round"/>
<path d="M100.4 15.8199L102.25 14.6599" stroke="#002484" stroke-width="0.25" stroke-linecap="round" stroke-linejoin="round"/>
<path d="M102.65 17.07L104.45 15.91L100.4 15.82L99.4897 13.09" stroke="#002484" stroke-width="0.25" stroke-linecap="round" stroke-linejoin="round"/>
<path d="M105.33 18.66L107.18 17.5" stroke="#002484" stroke-width="0.25" stroke-linecap="round" stroke-linejoin="round"/>
<path d="M107.54 19.9299L109.36 18.7599L105.33 18.6599L104.42 15.9299" stroke="#002484" stroke-width="0.25" stroke-linecap="round" stroke-linejoin="round"/>
<path d="M110.29 21.52L112.14 20.36" stroke="#002484" stroke-width="0.25" stroke-linecap="round" stroke-linejoin="round"/>
<path d="M112.48 22.78L114.38 21.59L110.29 21.52L109.36 18.76" stroke="#002484" stroke-width="0.25" stroke-linecap="round" stroke-linejoin="round"/>
<path d="M115.22 24.36L117.06 23.2" stroke="#002484" stroke-width="0.25" stroke-linecap="round" stroke-linejoin="round"/>
<path d="M117.43 25.6399L119.26 24.4599L115.22 24.3599L114.41 21.5599" stroke="#002484" stroke-width="0.25" stroke-linecap="round" stroke-linejoin="round"/>
<path d="M119.86 27.02L121.7 25.86" stroke="#002484" stroke-width="0.25" stroke-linecap="round" stroke-linejoin="round"/>
<path d="M122.92 27.7299L119.86 27.02L119.26 24.46" stroke="#002484" stroke-width="0.25" stroke-linecap="round" stroke-linejoin="round"/>
<path d="M102.7 46.8598L107.96 43.7998V44.3698L102.7 47.4298V46.8598Z" fill="#D0D8F1" stroke="#002484" stroke-width="0.25" stroke-linejoin="round"/>
<path d="M97.6499 43.9399L102.92 40.8899L107.96 43.7999L102.7 46.8599L97.6499 43.9399Z" fill="white" stroke="#002484" stroke-width="0.25" stroke-linejoin="round"/>
<path d="M102.7 46.8599V47.4299L97.6499 44.5099V43.9399L102.7 46.8599Z" fill="#D0D8F1" stroke="#002484" stroke-width="0.25" stroke-linejoin="round"/>
<path d="M102.79 45.0399L100.18 43.5299L102.79 41.8999L105.38 43.5399L102.79 45.0499V45.0399Z" stroke="#002484" stroke-width="0.25" stroke-linecap="round" stroke-linejoin="round"/>
<path d="M102.79 41.9L100.18 40.26L102.79 38.75L105.38 40.26L102.79 41.89V41.9Z" stroke="#002484" stroke-width="0.25" stroke-linecap="round" stroke-linejoin="round"/>
<path d="M100.18 40.27L102.79 45.04L105.38 40.27" stroke="#002484" stroke-width="0.25" stroke-linecap="round" stroke-linejoin="round"/>
<path d="M102.8 38.5299L100.19 37.0199L102.8 35.3899L105.39 37.0299L102.8 38.5399V38.5299Z" stroke="#002484" stroke-width="0.25" stroke-linecap="round" stroke-linejoin="round"/>
<path d="M100.19 37.0498L102.8 41.8198L105.39 37.0498" stroke="#002484" stroke-width="0.25" stroke-linecap="round" stroke-linejoin="round"/>
<path d="M102.8 35.16L100.19 33.65L102.8 32.02L105.39 33.66L102.8 35.17V35.16Z" stroke="#002484" stroke-width="0.25" stroke-linecap="round" stroke-linejoin="round"/>
<path d="M100.19 33.6699L102.8 38.4499L105.39 33.6699" stroke="#002484" stroke-width="0.25" stroke-linecap="round" stroke-linejoin="round"/>
<path d="M102.8 31.5L100.19 29.99L102.8 28.36L105.39 30L102.8 31.51V31.5Z" stroke="#002484" stroke-width="0.25" stroke-linecap="round" stroke-linejoin="round"/>
<path d="M100.19 30.01L102.8 34.79L105.39 30.02" stroke="#002484" stroke-width="0.25" stroke-linecap="round" stroke-linejoin="round"/>
<path d="M102.8 28.17L100.19 26.66L102.8 25.03L105.39 26.67L102.8 28.18V28.17Z" stroke="#002484" stroke-width="0.25" stroke-linecap="round" stroke-linejoin="round"/>
<path d="M100.19 26.6801L102.8 31.4601L105.39 26.6801" stroke="#002484" stroke-width="0.25" stroke-linecap="round" stroke-linejoin="round"/>
<path d="M102.8 24.92L100.19 23.41L102.8 21.78L105.39 23.42L102.8 24.93V24.92Z" stroke="#002484" stroke-width="0.25" stroke-linecap="round" stroke-linejoin="round"/>
<path d="M100.19 23.4301L102.8 28.2101L105.39 23.4301" stroke="#002484" stroke-width="0.25" stroke-linecap="round" stroke-linejoin="round"/>
<path d="M102.8 21.5799L100.19 20.0699L102.8 18.4399L105.39 20.0799L102.8 21.5899V21.5799Z" stroke="#002484" stroke-width="0.25" stroke-linecap="round" stroke-linejoin="round"/>
<path d="M100.19 20.09L102.8 24.87L105.39 20.09" stroke="#002484" stroke-width="0.25" stroke-linecap="round" stroke-linejoin="round"/>
<path d="M102.8 21.53L100.19 20.02L102.8 18.39L105.39 20.03L102.8 21.54V21.53Z" fill="#002484"/>
<path d="M105.38 43.89L105.18 43.77V9.84998L105.38 9.96997V43.89Z" fill="#002484"/>
<path d="M100.31 43.9601L100.11 43.84V9.92004L100.31 10.04V43.9601Z" fill="#D0D8F1"/>
<path d="M100.31 43.95L100.51 43.84V9.92004L100.31 10.04V43.95Z" fill="#002484"/>
<path d="M105.37 43.88L105.57 43.76V9.84998L105.37 9.95998V43.88Z" fill="#D0D8F1"/>
<path d="M102.71 45.17L102.51 45.05V11.13L102.71 11.25V45.17Z" fill="#002484"/>
<path d="M102.7 45.2L102.9 45.09V11.17L102.7 11.29V45.2Z" fill="#D0D8F1"/>
<path d="M102.71 11.48V11.29L105.57 9.75V9.92999L102.71 11.48Z" fill="#D0D8F1"/>
<path d="M102.71 11.48V11.29L100.11 9.75V9.94L102.71 11.48Z" fill="#D0D8F1"/>
<path d="M102.85 8.42004V8.62004L100.66 9.86005L100.48 9.76004L102.85 8.42004Z" fill="#002484"/>
<path d="M105.22 9.76004L105.04 9.86005L102.85 8.62004V8.42004L105.22 9.76004Z" fill="#002484"/>
<path d="M102.84 8.20996L100.11 9.74995L102.71 11.28L105.58 9.73996L102.84 8.19995V8.20996ZM100.48 9.75995L102.85 8.41995L105.22 9.75995L102.72 11.09L100.48 9.75995Z" fill="#002484"/>
<path d="M103 1.08997L100.45 9.75996L100.29 9.85997L102.83 1.18997L103 1.08997Z" fill="#002484"/>
<path d="M102.83 1.18997L100.29 9.85997L100.11 9.74997L102.66 1.08997L102.83 1.18997Z" fill="#D0D8F1"/>
<path d="M103 1.08997L105.57 9.74997L105.39 9.85997L102.83 1.18997L103 1.08997Z" fill="#D0D8F1"/>
<path d="M102.83 1.18997L105.39 9.85997L105.22 9.75996L102.66 1.08997L102.83 1.18997Z" fill="#002484"/>
<path d="M102.83 1.18997L102.71 11.29L102.55 11.19L102.66 1.08997L102.83 1.18997Z" fill="#002484"/>
<path d="M103 1.09L102.83 1.19L102.66 1.09L102.83 1L103 1.09Z" fill="#002484"/>
<path d="M103 1.08997L102.87 11.21L102.71 11.29L102.83 1.18997L103 1.08997Z" fill="#D0D8F1"/>
<path d="M97.5999 16.0399L97.9898 15.9299V16.3199C97.9898 16.3199 97.7898 16.3899 97.7298 16.3899C97.6698 16.3899 97.5999 16.0399 97.5999 16.0399Z" fill="#002484"/>
<path d="M97.96 14.3L97.99 18.3699L100.78 19.94L101.27 18.69L100.96 15.09L98.9799 13.96L97.96 14.3Z" fill="#002484"/>
<path d="M103.47 16.9V17.78L100.91 19.27C100.94 18.21 100.89 16.89 100.62 15.93L103.17 14.5C103.37 15.25 103.47 16.03 103.47 16.9Z" fill="#123EB7" stroke="#002484" stroke-width="0.25" stroke-linejoin="round"/>
<path d="M100.88 19.2799L103.43 17.7899C103.43 18.4099 103.43 18.6699 103.43 18.6899L100.88 20.1799C100.88 20.1799 100.88 19.8999 100.88 19.2799Z" fill="#D0D8F1" stroke="#002484" stroke-width="0.25" stroke-linejoin="round"/>
<path d="M100.43 19.03L100.88 19.29C100.88 19.91 100.88 20.17 100.88 20.19L97.5798 18.28V16.12L97.7398 16.21C97.7998 16.24 97.8499 16.21 97.8499 16.15V14.55C97.8499 14.55 97.8198 14.44 97.7798 14.42L97.5898 14.31V14.22C97.5898 14.07 97.6998 14 97.8398 14.08L100.07 15.37C100.29 15.5 100.48 15.75 100.57 16.03L100.48 15.98C100.43 15.95 100.39 15.98 100.39 16.03V18.93C100.39 18.93 100.41 19.02 100.44 19.04L100.43 19.03Z" fill="white" stroke="#002484" stroke-width="0.25" stroke-linejoin="round"/>
<path d="M103.12 14.5399L100.57 16.0299C100.48 15.7499 100.28 15.4999 100.07 15.3699L97.8399 14.0799C97.7699 14.0399 97.7099 14.0399 97.6699 14.0599L100.22 12.5699C100.22 12.5699 100.33 12.5499 100.39 12.5899L102.62 13.88C102.84 14 103.03 14.2599 103.12 14.5399Z" fill="#D0D8F1" stroke="#002484" stroke-width="0.25" stroke-linejoin="round"/>
<path d="M100.08 18.5099V15.8999L98.1499 14.7799V16.3599C98.1499 16.3599 98.1599 16.4399 98.1899 16.4699L99.9599 18.5299C99.9599 18.5299 99.9799 18.5499 99.9999 18.5599C100.04 18.5799 100.08 18.5599 100.08 18.5099Z" fill="#002484"/>
<path d="M124.79 36.4601V28.67" stroke="#002484" stroke-width="0.25" stroke-linecap="round" stroke-linejoin="round"/>
<path d="M102.83 1L91.5498 5.97" stroke="#002484" stroke-width="0.25" stroke-linecap="round" stroke-linejoin="round"/>
<path d="M123.82 24.52L102.83 1" stroke="#002484" stroke-width="0.25" stroke-linecap="round" stroke-linejoin="round"/>
<path d="M74.1099 91.2901C74.3639 91.2901 74.5699 91.0842 74.5699 90.8301C74.5699 90.5761 74.3639 90.3701 74.1099 90.3701C73.8558 90.3701 73.6499 90.5761 73.6499 90.8301C73.6499 91.0842 73.8558 91.2901 74.1099 91.2901Z" fill="#F57118"/>
<path d="M71.2501 90.2701C71.5041 90.2701 71.7101 90.0641 71.7101 89.8101C71.7101 89.556 71.5041 89.3501 71.2501 89.3501C70.996 89.3501 70.79 89.556 70.79 89.8101C70.79 90.0641 70.996 90.2701 71.2501 90.2701Z" fill="#F57118"/>
<path d="M76.24 90.7301C76.4941 90.7301 76.7 90.5241 76.7 90.2701C76.7 90.016 76.4941 89.8101 76.24 89.8101C75.986 89.8101 75.78 90.016 75.78 90.2701C75.78 90.5241 75.986 90.7301 76.24 90.7301Z" fill="#F57118"/>
<path d="M72.1299 93.93C72.384 93.93 72.5899 93.7241 72.5899 93.47C72.5899 93.216 72.384 93.01 72.1299 93.01C71.8759 93.01 71.6699 93.216 71.6699 93.47C71.6699 93.7241 71.8759 93.93 72.1299 93.93Z" fill="#F57118"/>
<path d="M73.6499 89.8101C73.904 89.8101 74.1099 89.6042 74.1099 89.3501C74.1099 89.0961 73.904 88.8901 73.6499 88.8901C73.3959 88.8901 73.1899 89.0961 73.1899 89.3501C73.1899 89.6042 73.3959 89.8101 73.6499 89.8101Z" fill="#F57118"/>
<path d="M77.3201 92.97C77.5742 92.97 77.7801 92.7641 77.7801 92.51C77.7801 92.256 77.5742 92.05 77.3201 92.05C77.0661 92.05 76.8601 92.256 76.8601 92.51C76.8601 92.7641 77.0661 92.97 77.3201 92.97Z" fill="#F57118"/>
<path d="M72.4501 91.85C72.6268 91.85 72.7701 91.7067 72.7701 91.53C72.7701 91.3532 72.6268 91.21 72.4501 91.21C72.2734 91.21 72.1301 91.3532 72.1301 91.53C72.1301 91.7067 72.2734 91.85 72.4501 91.85Z" fill="#F57118"/>
<path d="M70.14 92.17C70.3168 92.17 70.4601 92.0268 70.4601 91.85C70.4601 91.6733 70.3168 91.53 70.14 91.53C69.9633 91.53 69.8201 91.6733 69.8201 91.85C69.8201 92.0268 69.9633 92.17 70.14 92.17Z" fill="#F57118"/>
<path d="M74.55 96.7899C74.7267 96.7899 74.87 96.6466 74.87 96.4699C74.87 96.2932 74.7267 96.1499 74.55 96.1499C74.3733 96.1499 74.23 96.2932 74.23 96.4699C74.23 96.6466 74.3733 96.7899 74.55 96.7899Z" fill="#F57118"/>
<path d="M69.82 94.68C69.9967 94.68 70.14 94.5368 70.14 94.36C70.14 94.1833 69.9967 94.04 69.82 94.04C69.6433 94.04 69.5 94.1833 69.5 94.36C69.5 94.5368 69.6433 94.68 69.82 94.68Z" fill="#F57118"/>
<path d="M75.0399 92.4901C75.2167 92.4901 75.36 92.3468 75.36 92.1701C75.36 91.9934 75.2167 91.8501 75.0399 91.8501C74.8632 91.8501 74.72 91.9934 74.72 92.1701C74.72 92.3468 74.8632 92.4901 75.0399 92.4901Z" fill="#F57118"/>
<path d="M74.11 94.37C74.2868 94.37 74.4301 94.2267 74.4301 94.05C74.4301 93.8733 74.2868 93.73 74.11 93.73C73.9333 93.73 73.79 93.8733 73.79 94.05C73.79 94.2267 73.9333 94.37 74.11 94.37Z" fill="#F57118"/>
<path d="M76.2399 94.68C76.4167 94.68 76.5599 94.5368 76.5599 94.36C76.5599 94.1833 76.4167 94.04 76.2399 94.04C76.0632 94.04 75.9199 94.1833 75.9199 94.36C75.9199 94.5368 76.0632 94.68 76.2399 94.68Z" fill="#F57118"/>
<path d="M69.6 89.93C69.7768 89.93 69.92 89.7868 69.92 89.61C69.92 89.4333 69.7768 89.29 69.6 89.29C69.4233 89.29 69.28 89.4333 69.28 89.61C69.28 89.7868 69.4233 89.93 69.6 89.93Z" fill="#F57118"/>
<path d="M72.1301 88.65C72.3068 88.65 72.45 88.5067 72.45 88.33C72.45 88.1533 72.3068 88.01 72.1301 88.01C71.9533 88.01 71.8101 88.1533 71.8101 88.33C71.8101 88.5067 71.9533 88.65 72.1301 88.65Z" fill="#F57118"/>
<path d="M71.11 96.16C71.2868 96.16 71.4301 96.0167 71.4301 95.84C71.4301 95.6633 71.2868 95.52 71.11 95.52C70.9333 95.52 70.79 95.6633 70.79 95.84C70.79 96.0167 70.9333 96.16 71.11 96.16Z" fill="#F57118"/>
<path d="M75.1901 88.9701C75.3669 88.9701 75.5101 88.8268 75.5101 88.6501C75.5101 88.4733 75.3669 88.3301 75.1901 88.3301C75.0134 88.3301 74.8701 88.4733 74.8701 88.6501C74.8701 88.8268 75.0134 88.9701 75.1901 88.9701Z" fill="#F57118"/>
<path d="M74.4101 70.7299C73.6701 71.16 68.5601 74.14 67.7001 74.64L55.3501 81.83V82.6V83.97V85.34L67.2201 78.42L79.5701 71.28V68.5399V67.71L74.4101 70.72V70.7299Z" fill="#CDD8F2" stroke="#00208A" stroke-width="0.21" stroke-linejoin="round"/>
<path d="M56.99 69.1299L69.35 61.9299L79.59 67.7199L67.24 74.9299L56.99 69.1299Z" fill="#9CB0E5" stroke="#00208A" stroke-width="0.21" stroke-linejoin="round"/>
<path d="M79.21 56.46V67.89L69.03 61.89V50.45L79.21 56.46Z" fill="#CDD8F2" stroke="#00208A" stroke-width="0.21" stroke-linejoin="round"/>
<path d="M79.2401 67.9199L68.14 67.8099L61.8101 71.4999L50.3 64.8799L62.2701 57.8699V58.0099L79.2401 67.9199Z" fill="#00208A"/>
<path d="M45.0701 76.0801L57.42 68.8801L67.67 74.6701L55.3201 81.8801L45.0701 76.0801Z" fill="#9CB0E5" stroke="#00208A" stroke-width="0.21" stroke-linejoin="round"/>
<path d="M34.8901 70.3699L47.2401 63.1699L57.4901 68.9599L45.1401 76.1599L34.8901 70.3699Z" fill="#9CB0E5" stroke="#00208A" stroke-width="0.21" stroke-linejoin="round"/>
<path d="M67.1702 63.52V74.96L56.9902 68.95V57.51L67.1702 63.52Z" fill="#CDD8F2" stroke="#00208A" stroke-width="0.21" stroke-linejoin="round"/>
<path d="M67.0801 74.9699L55.9801 74.8499L49.6501 78.5499L34.8901 70.4399L47.2401 63.1699L67.0801 74.9699Z" fill="#00208A"/>
<path d="M35.4502 59.3701L35.9102 59.0901V70.5301L35.4502 70.8101V59.3701Z" fill="white" stroke="#00208A" stroke-width="0.21" stroke-linejoin="round"/>
<path d="M35.4502 58.8201L35.9102 59.0901L35.4502 59.3701V58.8201Z" fill="#00208A"/>
<path d="M45.28 64.5901L45.74 64.3201V75.7501L45.28 76.0301V64.5901Z" fill="white" stroke="#00208A" stroke-width="0.21" stroke-linejoin="round"/>
<path d="M44.8 64.33L45.2801 64.05L45.7401 64.32L45.2801 64.59L44.8 64.33Z" fill="#00208A"/>
<path d="M45.2801 64.5901V76.0301L44.8 75.7601V64.3301L45.2801 64.5901Z" fill="#00208A"/>
<path d="M56.9602 56.9798L69.3202 49.7798L79.5602 55.5698L67.2102 62.7798L56.9602 56.9798Z" fill="#9CB0E5" stroke="#00208A" stroke-width="0.21" stroke-linejoin="round"/>
<path d="M79.5203 44.6499V56.0899L69.3403 50.0799V38.6399L79.5203 44.6499Z" fill="#CDD8F2" stroke="#00208A" stroke-width="0.21" stroke-linejoin="round"/>
<path d="M45.0303 63.93L57.3903 56.73L67.6303 62.52L55.2803 69.73L45.0303 63.93Z" fill="#9CB0E5" stroke="#00208A" stroke-width="0.21" stroke-linejoin="round"/>
<path d="M35.1802 58.5599L46.9702 51.6899L56.7402 57.2199L44.9602 64.0899L35.1802 58.5599Z" fill="#9CB0E5" stroke="#00208A" stroke-width="0.21" stroke-linejoin="round"/>
<path d="M67.26 51.23V62.67L57.0701 56.66V45.23L67.26 51.23Z" fill="#00208A"/>
<path d="M35.4202 47.2199L35.8802 46.9399V58.3799L35.4202 58.6599V47.2199Z" fill="white" stroke="#00208A" stroke-width="0.21" stroke-linejoin="round"/>
<path d="M45.2502 52.4399L45.7102 52.1699V63.6099L45.2502 63.8799V52.4399Z" fill="white" stroke="#00208A" stroke-width="0.21" stroke-linejoin="round"/>
<path d="M44.7703 52.1799L45.2503 51.8999L45.7103 52.1699L45.2503 52.4399L44.7703 52.1799Z" fill="#00208A"/>
<path d="M45.1702 52.6098V64.7798L44.6902 64.5098V52.3398L45.1702 52.6098Z" fill="#00208A"/>
<path d="M55.4801 69.7999L55.3101 69.6999V58.3799L55.4501 58.4599V57.6499L35.0801 46.4399V70.7999L35.5801 71.0699V59.6699L54.8601 70.2699V81.5399L55.3401 81.8099V70.5399L55.4801 70.6199V69.8099V69.7999ZM54.8201 58.1199V69.4399L35.5401 58.8399V47.5199L54.8201 58.1199Z" fill="#00208A"/>
<path d="M34.8901 70.4399V73.9799L55.4201 85.3499V81.8399L34.8901 70.4399Z" fill="#9CB0E5" stroke="#00208A" stroke-width="0.21" stroke-linejoin="round"/>
<path d="M67.4502 50.52L55.2702 57.47C55.2702 57.47 45.8502 52.33 45.2102 51.97C45.2502 51.95 57.3702 45.04 57.4002 45.02L67.4502 50.52Z" fill="#CDD8F2" stroke="#00208A" stroke-width="0.21" stroke-linejoin="round"/>
<path d="M57.3601 45.0701L45.1801 52.0201C45.1801 52.0201 35.7601 46.8801 35.1201 46.5201C35.1601 46.5001 47.2801 39.5901 47.3101 39.5701L57.3601 45.0701Z" fill="#CDD8F2" stroke="#00208A" stroke-width="0.21" stroke-linejoin="round"/>
<path d="M79.6801 43.3699L67.4501 50.5199L57.4001 45.0199C57.4001 45.0199 69.6002 37.8899 69.6302 37.8699L79.6801 43.3699Z" fill="#CDD8F2" stroke="#00208A" stroke-width="0.21" stroke-linejoin="round"/>
<path d="M67.0801 39.2099L67.5401 38.9299V50.3699L67.0801 50.6499V39.2099Z" fill="white" stroke="#00208A" stroke-width="0.21" stroke-linejoin="round"/>
<path d="M66.6001 38.9399L67.0801 38.6599L67.5401 38.9299L67.0801 39.2099L66.6001 38.9399Z" fill="#002089" stroke="#00208A" stroke-width="0.21" stroke-linejoin="round"/>
<path d="M67.0801 39.2099V50.6499L66.6001 50.3799V38.9399L67.0801 39.2099Z" fill="#CDD8F2" stroke="#00208A" stroke-width="0.21" stroke-linejoin="round"/>
<path d="M55.3 45.9799L55.76 45.7V57.14L55.3 57.42V45.9799Z" fill="white" stroke="#00208A" stroke-width="0.21" stroke-linejoin="round"/>
<path d="M54.8201 45.7099L55.3 45.4299L55.76 45.6999L55.3 45.9799L54.8201 45.7099Z" fill="#002089" stroke="#00208A" stroke-width="0.21" stroke-linejoin="round"/>
<path d="M55.3 45.9799V57.42L54.8201 57.1499V45.71L55.3 45.9799Z" fill="#CDD8F2" stroke="#00208A" stroke-width="0.21" stroke-linejoin="round"/>
<path d="M79.04 32.26L79.5001 31.99V43.43L79.04 43.7V32.26Z" fill="white" stroke="#00208A" stroke-width="0.21" stroke-linejoin="round"/>
<path d="M78.55 32L79.04 31.72L79.5001 31.99L79.04 32.26L78.55 32Z" fill="#002089" stroke="#00208A" stroke-width="0.21" stroke-linejoin="round"/>
<path d="M79.04 32.26V43.7L78.55 43.43V32L79.04 32.26Z" fill="#CDD8F2" stroke="#00208A" stroke-width="0.21" stroke-linejoin="round"/>
<path d="M79.1602 55.8001H68.0002L67.7502 55.9501V51.0801L69.4202 50.1001L79.1602 55.8001Z" fill="#00208A"/>
<path d="M79.7202 55.5199L79.6902 43.3699L67.7601 50.3199L55.4102 57.5199V81.8399L55.8701 81.5599V70.2299L67.3001 63.5699V74.8999L67.3401 74.8799L67.6401 74.7099L67.8001 74.6199V63.2899L79.2301 56.6299V67.9599L79.7301 67.6799V55.5299L79.7202 55.5199ZM79.1902 55.7999L67.8001 62.4699L55.8401 69.4399V58.0799L67.2701 51.4199V62.7499L67.3102 62.7299L67.6101 62.5599L67.7701 62.4699V51.1399L79.2001 44.4799V55.8099L79.1902 55.7999Z" fill="white" stroke="#00208A" stroke-width="0.21" stroke-linejoin="round"/>
<path d="M44.4799 40.9201C44.4199 40.9401 44.4899 41.0201 44.5299 41.0501C44.5099 41.0701 44.4599 41.1001 44.4599 41.1001C44.4599 41.1001 44.2299 41.1701 44.2099 41.2201C44.1899 41.2601 44.2999 41.2401 44.3699 41.2401C44.2999 41.2701 44.2199 41.3201 44.2099 41.3601C44.1999 41.4001 44.2999 41.3601 44.3599 41.3601C44.3199 41.3901 44.2899 41.4201 44.2899 41.4401C44.2899 41.5001 44.4799 41.3801 44.5999 41.3201C44.7199 41.2601 44.7899 41.1601 44.7899 41.1601L44.9199 41.1001V40.8601C44.9199 40.8601 44.7399 41.0001 44.6199 40.9701C44.5799 40.9501 44.5199 40.9301 44.4699 40.9401L44.4799 40.9201Z" fill="#063ABE"/>
<path d="M46.7198 37.74C46.7198 37.74 46.4098 37.8 46.2598 38.04C46.1098 38.28 45.9298 39.65 45.7398 39.93C45.4398 40.37 44.8298 40.85 44.8298 40.85L44.9298 41.22C45.7498 40.64 45.9299 40.46 46.1599 40.18C46.3899 39.9 46.7298 37.73 46.7298 37.73L46.7198 37.74Z" fill="#04005A"/>
<path d="M47.7499 41.1001L47.7199 43.9601L48.2999 45.0001C48.2999 45.1301 48.2099 45.2601 48.0899 45.2901L47.8099 45.3801L47.0299 44.2401L46.8599 42.1101L46.4899 44.0901L46.1699 46.0901C46.1699 46.2301 46.0699 46.3701 45.9499 46.4101L45.6899 46.5001L45.8899 44.1601L46.0999 41.2501C46.0999 41.2501 46.3199 41.5001 46.6899 41.4601C47.0599 41.4201 47.7299 41.1001 47.7299 41.1001H47.7499Z" fill="#04005A"/>
<path d="M46.2299 39.0101C46.2499 39.4101 46.1699 39.7802 46.1699 39.7802C46.1599 40.5702 46.1199 41.2502 46.1199 41.2502C46.1199 41.2502 46.1599 41.6302 46.8199 41.7202C47.5499 41.8202 47.7999 41.0802 47.7999 41.0802C47.7999 41.0802 47.8299 40.4901 47.7399 39.6201L47.7599 38.5802C47.7599 38.5802 47.7799 38.4401 47.6899 38.2001C47.5999 37.9601 47.1399 37.7601 47.1399 37.7601H47.0699L46.8099 37.6602" fill="#04005A"/>
<path d="M47.16 37.5C47.16 37.5 47.13 37.71 47.16 37.83C47.19 37.95 46.99 38.13 46.81 38.18C46.63 38.23 46.64 38.09 46.63 37.94C46.62 37.79 47.16 37.51 47.16 37.51V37.5Z" fill="#063ABE"/>
<path d="M46.9301 37.85C46.9301 37.85 46.7501 38.06 46.6401 38.02C46.4501 37.96 46.3901 37.48 46.4701 37.17C46.5501 36.86 47.1201 36.77 47.1201 36.77L47.1901 37.48" fill="#063ABE"/>
<path d="M47.1 37.2601L47.05 37.4201L46.99 37.4701V37.1201C46.99 37.1201 46.92 37.2701 46.73 37.3601C46.49 37.4801 46.33 37.3201 46.33 37.3201C46.33 37.3201 46.31 37.1001 46.55 36.9001C46.69 36.7801 46.89 36.5701 47.09 36.6201C47.29 36.6701 47.22 36.7901 47.22 36.7901C47.22 36.7901 47.41 36.8201 47.27 37.3001C47.2 37.5201 47.13 37.6201 47.13 37.6201L47.15 37.3101L47.1 37.2601Z" fill="#04005A"/>
<path d="M48.25 41.9501C48.25 42.0301 48.33 41.9301 48.36 41.8901C48.36 41.9201 48.37 41.9801 48.37 41.9801C48.37 41.9801 48.35 42.2801 48.38 42.3101C48.41 42.3301 48.42 42.1901 48.44 42.1001C48.44 42.1901 48.45 42.3001 48.48 42.3101C48.51 42.3201 48.51 42.2001 48.52 42.1101C48.52 42.1601 48.54 42.2001 48.56 42.2101C48.6 42.2201 48.58 41.9601 48.57 41.8001C48.57 41.6501 48.51 41.5401 48.51 41.5401V41.3701L48.33 41.3501C48.33 41.3501 48.37 41.6001 48.32 41.7501C48.3 41.8001 48.26 41.8801 48.25 41.9401V41.9501Z" fill="#063ABE"/>
<path d="M47.2598 37.9102C47.6398 37.9202 47.9998 38.5202 48.2898 39.1402C48.5998 39.8202 48.5798 41.4402 48.5798 41.4402L48.2798 41.5002C48.2798 41.5002 48.1798 40.1901 48.0098 39.7301C47.9098 39.3901 47.7098 39.1201 47.7098 39.1201" fill="#04005A"/>
<path d="M47.06 37.37L47.09 37.46C47.09 37.46 47.13 37.44 47.14 37.42C47.18 37.38 47.2 37.3 47.19 37.24C47.18 37.18 47.14 37.16 47.1 37.2C47.06 37.24 47.05 37.31 47.06 37.37Z" fill="#063ABE"/>
<path d="M45.9099 46.1001C45.9099 46.1001 45.7399 46.3401 45.6099 46.3801C45.1299 46.5501 45.1899 46.6201 45.1599 46.6801C45.0999 46.8001 45.3699 46.9001 45.4999 46.8801C45.9199 46.8101 45.8499 46.8001 45.9199 46.7801C45.9899 46.7601 46.0599 46.7801 46.0899 46.6501C46.1199 46.5201 46.1699 46.2101 46.1699 46.2101C46.1699 46.2101 46.0799 46.2801 45.9899 46.2201C45.8999 46.1601 45.9099 46.0901 45.9099 46.0901V46.1001Z" fill="#04005A"/>
<path d="M47.7599 45.1202C47.7599 45.1202 47.8099 45.4102 47.7599 45.6102C47.5399 46.3402 47.6399 46.2702 47.6599 46.3202C47.7099 46.4302 47.9599 46.0602 48.0399 45.8602C48.2799 45.2402 48.2299 45.3402 48.2699 45.2202C48.3099 45.1002 48.3699 45.0102 48.2899 44.9402C48.2099 44.8702 48.0299 44.7402 48.0299 44.7402C48.0299 44.7402 48.0299 44.8802 47.9099 45.0102C47.7899 45.1402 47.7599 45.1102 47.7599 45.1102V45.1202Z" fill="#04005A"/>
<path d="M47.4098 37.0801C47.4098 37.0801 47.2999 37.1201 47.0999 37.1401C46.8999 37.1601 46.8698 37.2401 46.6698 37.2401C46.4698 37.2401 46.2298 37.1901 46.1798 37.1301C46.1298 37.0701 46.2998 37.0101 46.3098 36.9801C46.3198 36.9501 46.3098 36.9001 46.3598 36.8401C46.4098 36.7801 46.2998 36.6701 46.5298 36.4901C46.7598 36.3101 46.9298 36.3501 47.0798 36.3901C47.0798 36.3901 47.2098 36.4801 47.2398 36.5001C47.3398 36.5601 47.3998 36.6801 47.3998 36.7601V36.8401C47.3998 36.8401 47.4698 36.8801 47.4498 37.0101C47.4498 37.0101 47.4898 37.0801 47.4298 37.0901L47.4098 37.0801Z" fill="#000056" stroke="#04005A" stroke-width="0.04" stroke-miterlimit="10"/>
<path d="M47.3498 36.8201C47.3498 36.8201 47.2498 36.8701 47.0898 36.8801C46.9298 36.8901 46.9998 36.9601 46.9898 37.0201C46.9798 37.0801 47.1098 37.0601 47.1998 37.0501C47.2898 37.0401 47.4098 36.9901 47.4098 36.9901C47.4098 36.9901 47.4298 36.8701 47.3498 36.8201Z" fill="#000056" stroke="#04005A" stroke-width="0.04" stroke-miterlimit="10"/>
<path d="M47.1498 36.4399C47.1498 36.4399 46.8298 36.4399 46.7298 36.5399C46.7298 36.5399 46.4498 36.6199 46.5198 36.4799" fill="#000056"/>
<path d="M47.1498 36.4399C47.1498 36.4399 46.8298 36.4399 46.7298 36.5399C46.7298 36.5399 46.4498 36.6199 46.5198 36.4799" stroke="#04005A" stroke-width="0.04" stroke-miterlimit="10"/>
<path d="M46.3098 36.97C46.3098 36.97 46.4498 37.12 46.8798 37.06L46.3098 36.97Z" fill="#000056"/>
<path d="M46.3098 36.97C46.3098 36.97 46.4498 37.12 46.8798 37.06" stroke="#04005A" stroke-width="0.04" stroke-miterlimit="10"/>
<path d="M66.8701 85.5099C67.0101 85.5799 67.4001 86.4999 67.4401 86.7199C67.5801 87.2399 67.7901 87.8999 67.7901 87.8999L68.3001 87.9199C68.3001 87.9199 68.3001 87.4099 67.9801 86.3799C67.7401 85.6199 67.3401 84.4399 67.0601 84.0299C66.9701 83.9099 66.6401 83.7999 66.4801 83.8399L66.3301 84.1299V84.4899C66.3301 84.4899 66.7701 85.4399 66.8801 85.4999L66.8701 85.5099Z" fill="#000056" stroke="#000056" stroke-width="0.1" stroke-miterlimit="10"/>
<path d="M66.6803 93.7201L66.3303 93.5801L66.2703 93.0901L66.7203 93.1901L66.6803 93.7201Z" fill="#002484"/>
<path d="M66.7002 93.5801C66.7002 93.5801 66.8202 93.8301 66.9702 93.9301C67.5102 94.2701 67.4102 94.3001 67.4302 94.3601C67.4602 94.4801 67.0902 94.4301 66.9302 94.3601C66.4302 94.1201 66.4402 94.0301 66.4402 94.0301V94.1001C66.4402 94.1001 66.2602 94.0301 66.2702 93.9201C66.2802 93.8101 66.3302 93.5601 66.3302 93.5601C66.3302 93.5601 66.4102 93.6501 66.5602 93.6501C66.7102 93.6501 66.7102 93.5901 66.7102 93.5901L66.7002 93.5801Z" fill="#EFF2F9" stroke="#000056" stroke-width="0.1" stroke-miterlimit="10"/>
<path d="M65.5401 94.2802L65.1902 94.1302L65.1401 93.6501L65.5901 93.7502L65.5401 94.2802Z" fill="#002484"/>
<path d="M64.9802 88.0399L65.0402 93.8199C65.0402 93.9699 65.1602 94.0799 65.3102 94.0799H65.6802L66.1302 88.8899L66.1902 93.2399C66.1902 93.3999 66.3202 93.5299 66.4802 93.5299H66.8202L67.1102 87.6199C67.1102 87.6199 66.8202 87.9899 66.3302 88.0699C65.8402 88.1499 64.9602 88.0199 64.9602 88.0199L64.9802 88.0399Z" fill="#000056" stroke="#000056" stroke-width="0.1" stroke-miterlimit="10"/>
<path d="M66.9902 85.08C66.9702 85.55 66.9302 85.99 66.9302 85.99C66.9502 86.89 67.2002 87.78 67.2002 87.78C67.2002 87.78 67.0802 88.09 66.2102 88.43C65.2502 88.8 64.9202 88.04 64.9202 88.04C64.9202 88.04 64.8903 87.36 65.0003 86.33L64.9703 85.13C64.9703 85.13 64.9403 84.97 65.0603 84.67C65.1803 84.37 65.7902 83.97 65.7902 83.97H65.8902L66.2302 83.74" fill="#000056"/>
<path d="M66.9902 85.08C66.9702 85.55 66.9302 85.99 66.9302 85.99C66.9502 86.89 67.2002 87.78 67.2002 87.78C67.2002 87.78 67.0802 88.09 66.2102 88.43C65.2502 88.8 64.9202 88.04 64.9202 88.04C64.9202 88.04 64.8903 87.36 65.0003 86.33L64.9703 85.13C64.9703 85.13 64.9403 84.97 65.0603 84.67C65.1803 84.37 65.7902 83.97 65.7902 83.97H65.8902L66.2302 83.74" stroke="#000056" stroke-width="0.1" stroke-miterlimit="10"/>
<path d="M65.7702 83.6599C65.7702 83.6599 65.8102 83.8899 65.7702 84.0399C65.7302 84.1899 65.9902 84.3299 66.2402 84.3099C66.4902 84.2899 66.4602 84.1499 66.4702 83.9699C66.4802 83.7899 65.7702 83.6599 65.7702 83.6599Z" fill="#063ABE"/>
<path d="M66.07 83.9899C66.07 83.9899 66.31 84.1599 66.45 84.0799C66.7 83.9399 66.78 83.3699 66.68 83.0299C66.58 82.6899 65.83 82.7999 65.83 82.7999L65.73 83.6499" fill="#063ABE"/>
<path d="M65.8401 83.36L65.9001 83.53L65.9801 83.56V83.16C65.9801 83.16 66.0801 83.3 66.3201 83.34C66.6401 83.39 66.8501 83.15 66.8501 83.15C66.8501 83.15 66.8701 82.89 66.5601 82.74C66.3801 82.65 66.1101 82.48 65.8501 82.61C65.5901 82.74 65.6801 82.86 65.6801 82.86C65.6801 82.86 65.4301 82.96 65.6201 83.47C65.7101 83.7 65.8001 83.79 65.8001 83.79L65.7801 83.44L65.8401 83.37V83.36Z" fill="#063ABE"/>
<path d="M65.6803 88.5901C65.6803 88.5901 65.3803 88.7701 65.2303 88.7801C65.0803 88.7901 65.0503 88.7101 65.0503 88.7101L65.1903 89.4001L65.9003 89.1201L65.6903 88.5901H65.6803Z" fill="#000056" stroke="#000056" stroke-width="0.1" stroke-miterlimit="10"/>
<path d="M66.7002 93.5801C66.7002 93.5801 66.8202 93.8301 66.9702 93.9301C67.5102 94.2701 67.4102 94.3001 67.4302 94.3601C67.4602 94.4801 67.0902 94.4301 66.9302 94.3601C66.4302 94.1201 66.4402 94.0301 66.4402 94.0301V94.1001C66.4402 94.1001 66.2602 94.0301 66.2702 93.9201C66.2802 93.8101 66.3302 93.5601 66.3302 93.5601C66.3302 93.5601 66.4102 93.6501 66.5602 93.6501C66.7102 93.6501 66.7102 93.5901 66.7102 93.5901L66.7002 93.5801Z" fill="#000056" stroke="#000056" stroke-width="0.1" stroke-miterlimit="10"/>
<path d="M65.5101 94.2299L65.1902 94.0999L65.1401 93.6499L65.5602 93.7399L65.5101 94.2299Z" fill="#000056" stroke="#000056" stroke-width="0.1" stroke-miterlimit="10"/>
<path d="M65.5403 94.1001C65.5403 94.1001 65.6603 94.3401 65.7903 94.4201C66.2903 94.7401 66.2003 94.7601 66.2103 94.8201C66.2403 94.9301 65.8903 94.8801 65.7503 94.8201C65.2903 94.6001 65.2903 94.5101 65.2903 94.5101V94.5701C65.2903 94.5701 65.1203 94.5101 65.1303 94.4001C65.1403 94.2901 65.1903 94.0601 65.1903 94.0601C65.1903 94.0601 65.2703 94.1501 65.4003 94.1501C65.5303 94.1501 65.5403 94.1001 65.5403 94.1001Z" fill="#000056" stroke="#000056" stroke-width="0.1" stroke-miterlimit="10"/>
<path d="M65.3602 84.3C64.8602 84.59 64.6202 85.4 64.4902 86.18C64.3502 87.03 65.0502 88.48 65.0502 88.48L65.4802 88.31C65.4802 88.31 65.0802 87.04 65.1102 86.5C65.1102 86.12 65.2602 85.72 65.2602 85.72" fill="#000056"/>
<path d="M65.3602 84.3C64.8602 84.59 64.6202 85.4 64.4902 86.18C64.3502 87.03 65.0502 88.48 65.0502 88.48L65.4802 88.31C65.4802 88.31 65.0802 87.04 65.1102 86.5C65.1102 86.12 65.2602 85.72 65.2602 85.72" stroke="#000056" stroke-width="0.1" stroke-miterlimit="10"/>
<path d="M67.6537 88.673L67.4567 88.7078L67.3801 88.2745L67.5573 88.2432C67.6262 88.231 67.6958 88.2796 67.708 88.3485L67.7393 88.5258C67.7515 88.5947 67.711 88.6527 67.6421 88.6649L67.6537 88.673Z" fill="#F0F9FA" stroke="#002484" stroke-width="0.1" stroke-miterlimit="10"/>
<path d="M68.4009 88.4524L67.7608 88.5657L67.7242 88.3589L68.3741 88.2439C68.3741 88.2439 68.4582 88.2595 68.4669 88.3088L68.4756 88.358C68.4756 88.358 68.4501 88.4437 68.4107 88.4507L68.4009 88.4524Z" fill="#F0F9FA" stroke="#002484" stroke-width="0.1" stroke-miterlimit="10"/>
<path d="M66.5303 90.0498L66.7903 91.5498L66.6803 91.8998L66.7803 92.4398C66.7803 92.4398 66.9203 92.4698 67.0503 92.4598C67.1803 92.4498 67.7503 92.3398 67.9803 92.2298L67.8803 91.6898L67.6603 91.3798L67.4003 89.8398L66.9803 89.5398L66.5403 90.0498H66.5303Z" fill="#F0F9FA" stroke="#002484" stroke-width="0.1" stroke-miterlimit="10"/>
<path d="M66.3501 90.0198C66.3501 90.0198 66.4401 90.0598 66.5301 90.0398C66.5301 90.0398 66.7301 89.8498 66.9601 89.8098C67.1901 89.7698 67.4501 89.8498 67.4501 89.8498C67.4501 89.8498 67.5301 89.8198 67.6001 89.7498C67.6701 89.6798 67.0201 89.5598 67.0201 89.5598L66.4001 89.8198L66.3501 90.0198Z" fill="#F0F9FA" stroke="#002484" stroke-width="0.1" stroke-miterlimit="10"/>
<path d="M67.5303 89.3299L67.6003 89.7499C67.6003 89.7499 67.3003 89.6299 66.9603 89.6999C66.6203 89.7699 66.3503 90.0199 66.3503 90.0199L66.2803 89.5999L66.3603 89.3299L67.5003 89.1499L67.5303 89.3199V89.3299Z" fill="#F0F9FA" stroke="#002484" stroke-width="0.1" stroke-miterlimit="10"/>
<path d="M65.8801 87.8099L67.2201 87.5699C67.2901 87.5599 67.3701 87.6099 67.3801 87.6799L67.6601 89.2399L67.4001 89.2899C67.4001 89.2899 67.2601 89.2399 66.8401 89.3199C66.4201 89.3999 66.3601 89.5199 66.3601 89.5199L66.0601 89.5699L65.7801 87.9699C65.7701 87.8899 65.8201 87.8199 65.8901 87.8099H65.8801Z" fill="#F0F9FA" stroke="#002484" stroke-width="0.1" stroke-miterlimit="10"/>
<path d="M66.9001 92.4599C66.9001 92.4599 66.9101 92.3399 67.4001 92.2499C67.7801 92.1699 67.8601 92.2799 67.8601 92.2799L67.8802 92.4099C67.7602 92.5199 67.7201 92.6699 67.7301 92.8299L67.2101 92.9199C67.1901 92.7999 67.1401 92.6899 66.9201 92.5999L66.9001 92.4699V92.4599Z" fill="#F0F9FA" stroke="#002484" stroke-width="0.1" stroke-miterlimit="10"/>
<path d="M67.7193 92.7968L67.1974 92.8891C67.1103 92.9045 67.0523 92.9875 67.0677 93.0746L67.099 93.2518C67.1144 93.3388 67.1974 93.3969 67.2844 93.3815L67.8063 93.2892C67.8933 93.2738 67.9514 93.1908 67.936 93.1038L67.9047 92.9265C67.8893 92.8395 67.8063 92.7814 67.7193 92.7968Z" fill="#F0F9FA" stroke="#002484" stroke-width="0.1" stroke-miterlimit="10"/>
<path d="M67.4502 93.31C67.4502 93.31 67.5302 93.15 67.6702 93.27C67.6702 93.27 67.9502 94.93 67.9702 94.94C68.0102 94.95 68.1502 95.48 68.1102 95.49L67.8502 95.53C67.8502 95.53 67.7802 95.43 67.8202 94.97L67.4602 93.3L67.4502 93.31Z" fill="#F0F9FA" stroke="#002484" stroke-width="0.1" stroke-miterlimit="10"/>
<path d="M66.7803 92.4399C66.7803 92.4399 66.8103 92.3399 67.0103 92.2399C67.2603 92.1199 67.7103 92.0299 67.9803 92.2199" fill="#F0F9FA"/>
<path d="M66.7803 92.4399C66.7803 92.4399 66.8103 92.3399 67.0103 92.2399C67.2603 92.1199 67.7103 92.0299 67.9803 92.2199" stroke="#002484" stroke-width="0.1" stroke-miterlimit="10"/>
<path d="M65.7753 88.5718L65.9723 88.537L66.0558 89.0096L65.8491 89.0462C65.7801 89.0584 65.7106 89.0098 65.6984 88.9408L65.6636 88.7439C65.6496 88.6651 65.6983 88.5956 65.7771 88.5816L65.7753 88.5718Z" fill="#F0F9FA" stroke="#002484" stroke-width="0.1" stroke-miterlimit="10"/>
<path d="M64.9501 88.8662L65.6591 88.7408L65.6992 88.9673L65 89.0909C64.9508 89.0996 64.9044 89.0672 64.8957 89.018L64.887 88.9687C64.887 88.9687 64.9125 88.883 64.9519 88.876L64.9501 88.8662Z" fill="#F0F9FA" stroke="#002484" stroke-width="0.1" stroke-miterlimit="10"/>
<path d="M67.7202 88.2399C67.6902 88.3199 67.8402 88.2599 67.9002 88.2199C67.9002 88.2499 67.9002 88.3099 67.9002 88.3099C67.9002 88.3099 67.8102 88.5999 67.8602 88.6399C67.9002 88.6699 67.9502 88.5399 67.9902 88.4599C67.9902 88.5499 67.9802 88.6599 68.0102 88.6799C68.0502 88.6999 68.0802 88.5799 68.1102 88.4999C68.1102 88.5499 68.1302 88.5999 68.1502 88.6099C68.2102 88.6399 68.2202 88.3699 68.2402 88.2199C68.2502 88.0699 68.2002 87.9399 68.2002 87.9399L67.9802 87.8999C67.9802 87.8999 67.8902 88.0599 67.8702 88.0699C67.8302 88.1099 67.7602 88.1699 67.7402 88.2299L67.7202 88.2399Z" fill="#063ABE"/>
<path d="M65.5302 88.5801C65.4502 88.5201 65.3701 88.3401 65.3701 88.3401L65.1401 88.4501L65.1701 88.5401C65.1701 88.5401 65.1501 88.6701 65.2001 88.8201C65.2501 88.9701 65.3302 89.2201 65.3802 89.1801C65.4002 89.1701 65.4002 89.1201 65.3802 89.0701C65.4302 89.1401 65.4901 89.2501 65.5201 89.2201C65.5401 89.1901 65.5201 89.0801 65.4801 89.0001C65.5401 89.0701 65.6201 89.1801 65.6501 89.1401C65.6801 89.0901 65.5302 88.8301 65.5302 88.8301C65.5302 88.8301 65.5101 88.7701 65.5101 88.7401C65.5701 88.7601 65.7301 88.7801 65.6801 88.7101C65.6401 88.6601 65.5601 88.6101 65.5101 88.5901L65.5302 88.5801Z" fill="#063ABE"/>
<path d="M65.5602 83.0101C65.5602 83.0101 65.6802 83.0501 65.9102 83.0701C66.1402 83.0901 66.1602 83.1801 66.3902 83.1801C66.6202 83.1801 66.8902 83.1201 66.9402 83.0501C66.9902 82.9801 66.8102 82.9101 66.7902 82.8801C66.7702 82.8501 66.7902 82.7901 66.7402 82.7201C66.6902 82.6501 66.8102 82.5301 66.5502 82.3301C66.2902 82.1301 66.1102 82.1801 65.9402 82.2201C65.9402 82.2201 65.8002 82.3201 65.7702 82.3401C65.6602 82.4101 65.6002 82.5401 65.5902 82.6301V82.7201C65.5902 82.7201 65.5102 82.7701 65.5302 82.9101C65.5302 82.9101 65.4902 82.9801 65.5602 83.0001V83.0101Z" fill="#000056" stroke="#000056" stroke-width="0.1" stroke-miterlimit="10"/>
<path d="M65.6302 82.72C65.6302 82.72 65.7402 82.78 65.9202 82.79C66.1002 82.8 66.0202 82.88 66.0302 82.95C66.0402 83.02 65.8902 82.99 65.8002 82.98C65.7102 82.97 65.5602 82.91 65.5602 82.91C65.5602 82.91 65.5402 82.78 65.6302 82.72Z" fill="#000056" stroke="#000056" stroke-width="0.1" stroke-miterlimit="10"/>
<path d="M65.8501 82.29C65.8501 82.29 66.2101 82.29 66.3201 82.4C66.3201 82.4 66.6301 82.49 66.5501 82.34" stroke="#04005A" stroke-width="0.1" stroke-miterlimit="10"/>
<path d="M66.7901 82.8801C66.7901 82.8801 66.6401 83.0501 66.1501 82.9801L66.7901 82.8801Z" fill="#000056"/>
<path d="M66.7901 82.8801C66.7901 82.8801 66.6401 83.0501 66.1501 82.9801" stroke="#000056" stroke-width="0.1" stroke-miterlimit="10"/>
<path d="M45.5903 84.5199C45.4703 84.5499 45.2803 84.4099 45.2803 84.4099V84.6499L45.4203 84.7099C45.4203 84.7099 45.5003 84.8099 45.6103 84.8699C45.7303 84.9299 45.9303 85.0399 45.9203 84.9899C45.9203 84.9699 45.8903 84.9399 45.8503 84.9099C45.9203 84.9199 46.0103 84.9599 46.0003 84.9099C46.0003 84.8799 45.9103 84.8299 45.8403 84.7899C45.9103 84.7899 46.0103 84.8099 46.0003 84.7699C45.9803 84.7199 45.7503 84.6499 45.7503 84.6499C45.7503 84.6499 45.7103 84.6199 45.6803 84.5999C45.7203 84.5699 45.7903 84.4899 45.7303 84.4699C45.6803 84.4599 45.6203 84.4799 45.5803 84.4999L45.5903 84.5199Z" fill="#063ABE"/>
<path d="M43.4902 81.3198C43.4902 81.3198 43.8002 81.3798 43.9502 81.6198C44.1002 81.8598 44.2802 83.2298 44.4702 83.5098C44.7702 83.9498 45.3802 84.4298 45.3802 84.4298L45.2802 84.7998C44.4602 84.2198 44.2802 84.0398 44.0502 83.7598C43.8202 83.4798 43.4802 81.3098 43.4802 81.3098L43.4902 81.3198Z" fill="#04005A"/>
<path d="M42.4601 84.6799L42.4901 87.5399L41.9102 88.5799C41.9102 88.7099 42.0001 88.8399 42.1201 88.8699L42.4001 88.9599L43.1801 87.8199L43.3502 85.6899L43.7202 87.6699L44.0401 89.6699C44.0401 89.8099 44.1401 89.9499 44.2601 89.9899L44.5201 90.0799L44.3202 87.7399L44.1101 84.8299C44.1101 84.8299 43.8901 85.0799 43.5201 85.0399C43.1501 84.9999 42.4801 84.6799 42.4801 84.6799H42.4601Z" fill="#04005A"/>
<path d="M43.9901 82.59C43.9701 82.99 44.0501 83.36 44.0501 83.36C44.0601 84.15 44.1001 84.83 44.1001 84.83C44.1001 84.83 44.0601 85.21 43.4001 85.3C42.6701 85.4 42.4201 84.66 42.4201 84.66C42.4201 84.66 42.3901 84.07 42.4801 83.2L42.4601 82.16C42.4601 82.16 42.4401 82.02 42.5301 81.78C42.6201 81.54 43.0801 81.34 43.0801 81.34H43.1501L43.4101 81.24" fill="#04005A"/>
<path d="M43.0601 81.0698C43.0601 81.0698 43.0901 81.2798 43.0601 81.3998C43.0301 81.5198 43.2301 81.6998 43.4101 81.7498C43.5901 81.7998 43.5801 81.6598 43.5901 81.5098C43.6001 81.3598 43.0601 81.0798 43.0601 81.0798V81.0698Z" fill="#063ABE"/>
<path d="M43.28 81.4198C43.28 81.4198 43.46 81.6298 43.57 81.5898C43.76 81.5298 43.82 81.0499 43.74 80.7399C43.66 80.4299 43.09 80.3398 43.09 80.3398L43.02 81.0499" fill="#063ABE"/>
<path d="M43.1101 80.8299L43.1601 80.9899L43.2201 81.0399V80.6899C43.2201 80.6899 43.2901 80.8399 43.4801 80.9299C43.7201 81.0499 43.8801 80.8899 43.8801 80.8899C43.8801 80.8899 43.9001 80.6699 43.6601 80.4699C43.5201 80.3499 43.3201 80.1399 43.1201 80.1899C42.9201 80.2399 42.9901 80.3599 42.9901 80.3599C42.9901 80.3599 42.8001 80.3899 42.9401 80.8699C43.0101 81.0899 43.0801 81.1899 43.0801 81.1899L43.0601 80.8799L43.1101 80.8299Z" fill="#04005A"/>
<path d="M41.9002 85.3299C41.8402 85.1699 41.8902 84.9299 41.8902 84.9299L41.7102 84.9499V85.1199C41.7102 85.1199 41.6502 85.2299 41.6502 85.3799C41.6502 85.5299 41.6202 85.7999 41.6602 85.7899C41.6702 85.7899 41.6902 85.7399 41.7002 85.6899C41.7102 85.7799 41.7202 85.9099 41.7402 85.8899C41.7602 85.8799 41.7702 85.7699 41.7802 85.6799C41.8002 85.7699 41.8202 85.9099 41.8402 85.8899C41.8702 85.8599 41.8502 85.5599 41.8502 85.5599C41.8502 85.5599 41.8502 85.4999 41.8602 85.4699C41.8902 85.5199 41.9802 85.6199 41.9702 85.5299C41.9702 85.4599 41.9302 85.3899 41.9002 85.3399V85.3299Z" fill="#063ABE"/>
<path d="M42.9501 81.49C42.5701 81.5 42.2101 82.1 41.9201 82.72C41.6101 83.4 41.6301 85.02 41.6301 85.02L41.9301 85.08C41.9301 85.08 42.0301 83.77 42.2001 83.31C42.3001 82.97 42.5001 82.7 42.5001 82.7" fill="#04005A"/>
<path d="M43.1601 80.9398L43.1301 81.0298C43.1301 81.0298 43.0901 81.0098 43.0801 80.9898C43.0401 80.9498 43.0201 80.8698 43.0301 80.8098C43.0401 80.7498 43.0801 80.7298 43.1201 80.7698C43.1601 80.8098 43.1701 80.8798 43.1601 80.9398Z" fill="#063ABE"/>
<path d="M44.3 89.6799C44.3 89.6799 44.4701 89.9199 44.6001 89.9599C45.0801 90.1299 45.02 90.1999 45.05 90.2599C45.11 90.3799 44.8401 90.4799 44.7101 90.4599C44.2901 90.3899 44.36 90.3799 44.29 90.3599C44.22 90.3399 44.1501 90.3599 44.1201 90.2299C44.0901 90.0999 44.04 89.7899 44.04 89.7899C44.04 89.7899 44.1301 89.8599 44.2201 89.7999C44.3101 89.7399 44.3 89.6699 44.3 89.6699V89.6799Z" fill="#04005A"/>
<path d="M42.45 88.6898C42.45 88.6898 42.4 88.9798 42.45 89.1798C42.67 89.9098 42.57 89.8398 42.55 89.8898C42.5 89.9998 42.25 89.6298 42.17 89.4298C41.93 88.8098 41.9801 88.9098 41.9401 88.7898C41.9001 88.6698 41.84 88.5798 41.92 88.5098C42 88.4398 42.1801 88.3098 42.1801 88.3098C42.1801 88.3098 42.18 88.4498 42.3 88.5798C42.42 88.7098 42.45 88.6798 42.45 88.6798V88.6898Z" fill="#04005A"/>
<path d="M42.8001 80.6499C42.8001 80.6499 42.9101 80.6899 43.1101 80.7099C43.3101 80.7299 43.3401 80.8099 43.5401 80.8099C43.7401 80.8099 43.9801 80.7599 44.0301 80.6999C44.0801 80.6399 43.9101 80.5799 43.9001 80.5499C43.8901 80.5199 43.9001 80.4699 43.8501 80.4099C43.8001 80.3499 43.9101 80.2399 43.6801 80.0599C43.4501 79.8799 43.2801 79.9199 43.1301 79.9599C43.1301 79.9599 43.0001 80.0499 42.9701 80.0699C42.8701 80.1299 42.8101 80.2499 42.8101 80.3299V80.4099C42.8101 80.4099 42.7401 80.4499 42.7601 80.5799C42.7601 80.5799 42.7201 80.6499 42.7801 80.6599L42.8001 80.6499Z" fill="#000056" stroke="#04005A" stroke-width="0.04" stroke-miterlimit="10"/>
<path d="M42.8701 80.3999C42.8701 80.3999 42.9701 80.4499 43.1301 80.4599C43.2901 80.4699 43.2201 80.5399 43.2301 80.5999C43.2401 80.6599 43.1101 80.6399 43.0201 80.6299C42.9301 80.6199 42.8101 80.5699 42.8101 80.5699C42.8101 80.5699 42.7901 80.4499 42.8701 80.3999Z" fill="#000056" stroke="#04005A" stroke-width="0.04" stroke-miterlimit="10"/>
<path d="M43.0601 80.0098C43.0601 80.0098 43.38 80.0098 43.48 80.1098C43.48 80.1098 43.7601 80.1898 43.6901 80.0498" fill="#000056"/>
<path d="M43.0601 80.0098C43.0601 80.0098 43.38 80.0098 43.48 80.1098C43.48 80.1098 43.7601 80.1898 43.6901 80.0498" stroke="#04005A" stroke-width="0.04" stroke-miterlimit="10"/>
<path d="M43.9101 80.5398C43.9101 80.5398 43.7701 80.6898 43.3401 80.6298L43.9101 80.5398Z" fill="#000056"/>
<path d="M43.9101 80.5398C43.9101 80.5398 43.7701 80.6898 43.3401 80.6298" stroke="#04005A" stroke-width="0.04" stroke-miterlimit="10"/>
<path d="M99.6099 51.2197C99.6099 51.2197 99.6399 51.3897 99.6099 51.4797C99.5799 51.5697 99.7499 51.7197 99.8899 51.7597C100.03 51.7997 100.03 51.6897 100.03 51.5697C100.03 51.4497 99.6099 51.2197 99.6099 51.2197Z" fill="#063ABE"/>
<path d="M99.7901 51.4996C99.7901 51.4996 99.9401 51.6596 100.02 51.6396C100.17 51.5896 100.22 51.2097 100.16 50.9597C100.1 50.7097 99.6401 50.6396 99.6401 50.6396L99.5801 51.2097" fill="#063ABE"/>
<path d="M99.65 51.0297L99.6901 51.1597L99.74 51.1997V50.9197C99.74 50.9197 99.8 51.0397 99.95 51.1097C100.14 51.1997 100.27 51.0697 100.27 51.0697C100.27 51.0697 100.28 50.8897 100.1 50.7397C99.9901 50.6397 99.83 50.4697 99.67 50.5197C99.51 50.5697 99.5601 50.6597 99.5601 50.6597C99.5601 50.6597 99.41 50.6897 99.52 51.0697C99.57 51.2497 99.6301 51.3297 99.6301 51.3297V51.0797L99.65 51.0397V51.0297Z" fill="#063ABE"/>
<path d="M100.77 54.7198C100.77 54.7698 100.85 54.7198 100.88 54.6998C100.89 54.7198 100.91 54.7598 100.91 54.7598C100.91 54.7598 100.93 54.9498 100.97 54.9698C101 54.9898 101 54.8999 101.01 54.8499C101.03 54.9099 101.05 54.9799 101.08 54.9899C101.11 54.9999 101.1 54.9198 101.1 54.8698C101.12 54.8998 101.13 54.9298 101.15 54.9398C101.19 54.9598 101.14 54.7798 101.1 54.6798C101.07 54.5798 101 54.4998 101 54.4998L100.97 54.3898L100.78 54.3499C100.78 54.3499 100.86 54.5198 100.82 54.6098C100.8 54.6398 100.77 54.6798 100.78 54.7198H100.77Z" fill="#063ABE"/>
<path d="M99.9502 51.4097C99.9502 51.4097 100.2 51.4597 100.32 51.6497C100.44 51.8397 100.48 53.0397 100.63 53.2697C100.79 53.7197 100.98 54.4597 100.98 54.4597L100.79 54.5497C100.56 53.8797 100.48 53.8297 100.36 53.4597C100.27 53.1897 99.9502 51.4097 99.9502 51.4097Z" fill="#04005A"/>
<path d="M99.1301 54.0999L99.2401 56.5598V57.9599C99.2401 58.0599 99.2901 58.2099 99.3801 58.2399L99.6701 58.2198L99.7001 56.6198L99.8301 54.9198L100.12 56.4998L100.37 58.0999C100.37 58.2099 100.45 58.3298 100.55 58.3598L100.76 58.4298L100.6 56.5598L100.43 54.2399C100.43 54.2399 100.25 54.4399 99.9601 54.4099C99.6701 54.3799 99.1301 54.1198 99.1301 54.1198V54.0999Z" fill="#04005A"/>
<path d="M100.35 52.4296C100.34 52.7496 100.4 53.0496 100.4 53.0496C100.41 53.6796 100.44 54.2196 100.44 54.2196C100.44 54.2196 100.41 54.5196 99.8801 54.5996C99.3001 54.6796 99.0901 54.0896 99.0901 54.0896C99.0901 54.0896 99.07 53.6196 99.14 52.9296L99.12 52.0996C99.12 52.0996 99.1 51.9896 99.17 51.7996C99.24 51.6096 99.61 51.4496 99.61 51.4496H99.67L99.87 51.3696" fill="#04005A"/>
<path d="M98.6801 54.6198C98.6301 54.4898 98.6701 54.2998 98.6701 54.2998L98.5301 54.3198V54.4598C98.5301 54.4598 98.4901 54.5398 98.4801 54.6698C98.4801 54.7898 98.4601 55.0098 98.4801 54.9898C98.4901 54.9898 98.5001 54.9498 98.5101 54.9098C98.5101 54.9798 98.5201 55.0798 98.5501 55.0698C98.5701 55.0698 98.5801 54.9698 98.5801 54.8998C98.6001 54.9698 98.6101 55.0798 98.6301 55.0598C98.6601 55.0398 98.6301 54.7898 98.6301 54.7898C98.6301 54.7898 98.6301 54.7398 98.6401 54.7198C98.6601 54.7598 98.7401 54.8398 98.7301 54.7698C98.7301 54.7198 98.6901 54.6498 98.6801 54.6198Z" fill="#063ABE"/>
<path d="M99.5201 51.5498C99.2201 51.5498 98.9301 52.0298 98.7001 52.5298C98.4501 53.0698 98.4701 54.3698 98.4701 54.3698L98.7101 54.4098C98.7101 54.4098 98.7901 53.3598 98.9201 52.9898C99.0001 52.7198 99.1601 52.4998 99.1601 52.4998" fill="#04005A"/>
<path d="M99.69 51.1198L99.67 51.1898C99.67 51.1898 99.64 51.1698 99.63 51.1598C99.6 51.1298 99.58 51.0598 99.59 51.0098C99.6 50.9598 99.63 50.9498 99.66 50.9798C99.69 51.0098 99.7 51.0698 99.69 51.1198Z" fill="#063ABE"/>
<path d="M100.6 58.0898C100.6 58.0898 100.78 58.2398 100.89 58.2398C101.04 58.2398 101.27 58.2398 101.3 58.2998C101.35 58.3998 101.09 58.5898 100.99 58.5698C100.66 58.5198 100.65 58.6598 100.59 58.6398C100.53 58.6198 100.48 58.6398 100.45 58.5298C100.42 58.4198 100.38 58.1798 100.38 58.1798C100.38 58.1798 100.45 58.2398 100.53 58.1798C100.61 58.1198 100.59 58.0798 100.59 58.0798L100.6 58.0898Z" fill="#04005A"/>
<path d="M99.5501 58.0498H99.7701C100.17 58.0498 100.06 58.3898 100.04 58.3498C100.04 58.3498 99.2401 58.5198 99.2501 58.4098C99.2601 58.2998 99.3201 58.0598 99.3201 58.0598C99.3201 58.0598 99.3601 58.1398 99.4501 58.1198C99.5401 58.0998 99.5501 58.0498 99.5501 58.0498Z" fill="#04005A"/>
<path d="M100.3 50.6198C100.48 50.6598 100.53 50.7398 100.46 50.8398C100.34 50.9998 100.11 51.1498 99.9601 51.1998C99.8101 51.2498 99.6201 51.2998 99.4301 51.2198C99.3001 51.1698 99.2901 50.9398 99.3401 50.9098C99.3401 50.9098 99.3101 50.6698 99.4501 50.5598C99.5901 50.4498 99.7001 50.3498 99.9201 50.3598C100.16 50.3798 100.18 50.3998 100.22 50.4398C100.37 50.5698 100.24 50.6398 100.37 50.7698" fill="#000056"/>
<path d="M100.3 50.6198C100.48 50.6598 100.53 50.7398 100.46 50.8398C100.34 50.9998 100.11 51.1498 99.9601 51.1998C99.8101 51.2498 99.6201 51.2998 99.4301 51.2198C99.3001 51.1698 99.2901 50.9398 99.3401 50.9098C99.3401 50.9098 99.3101 50.6698 99.4501 50.5598C99.5901 50.4498 99.7001 50.3498 99.9201 50.3598C100.16 50.3798 100.18 50.3998 100.22 50.4398C100.37 50.5698 100.24 50.6398 100.37 50.7698" stroke="#04005A" stroke-width="0.04" stroke-miterlimit="10"/>
<path d="M99.8402 50.3499C99.8402 50.3499 100.17 50.3299 100 50.4599C99.8302 50.5899 99.7301 50.5998 99.6401 50.7498C99.5501 50.8998 99.5401 50.8999 99.4601 50.8799C99.3801 50.8599 99.3801 50.7299 99.4601 50.5999C99.5401 50.4699 99.6402 50.3798 99.8402 50.3398V50.3499Z" fill="#000056" stroke="#04005A" stroke-width="0.04" stroke-miterlimit="10"/>
<path d="M99.3401 50.8699C99.3401 50.8699 99.4701 51.0799 99.8101 50.9399C100.15 50.7999 100.08 50.7999 100.12 50.8599C100.16 50.9199 100.14 50.9899 100.09 51.0199C100.04 51.0499 99.8201 51.1599 99.6501 51.1799C99.5201 51.1999 99.3201 51.1299 99.3101 51.0699C99.3001 51.0099 99.2601 50.8899 99.3401 50.8699Z" fill="#000056" stroke="#04005A" stroke-width="0.04" stroke-miterlimit="10"/>
<path d="M162.41 39.8601L158.53 39.8801L157.27 67.5201C157.27 67.5201 157.27 67.5401 157.27 67.5601V67.6001V67.6501C157.3 68.8501 158.76 69.6401 160.56 69.6401C162.38 69.6401 163.85 68.7101 163.85 67.5701L162.42 39.8501L162.41 39.8601Z" fill="white" stroke="#002484" stroke-width="0.21" stroke-miterlimit="10"/>
<path d="M158.26 45.8401L158.53 39.8801L162.41 39.8601L162.72 45.8401C162.72 45.8401 162.15 46.8701 160.56 46.8701C158.97 46.8701 158.26 45.8401 158.26 45.8401Z" fill="#6C89D9" stroke="#002484" stroke-width="0.21" stroke-miterlimit="10"/>
<path d="M162.41 39.8401C162.41 40.5101 161.54 41.0501 160.48 41.0501C159.41 41.0501 158.55 40.5101 158.55 39.8401C158.55 39.1701 159.42 38.6301 160.48 38.6301C161.55 38.6301 162.41 39.1701 162.41 39.8401Z" fill="#002484" stroke="#002484" stroke-width="0.21" stroke-miterlimit="10"/>
<path d="M162.41 39.8601L158.53 39.8801L157.27 67.5201C157.27 67.5201 157.27 67.5401 157.27 67.5601V67.6001V67.6501C157.3 68.8501 158.76 69.6401 160.56 69.6401C162.38 69.6401 163.85 68.7101 163.85 67.5701L162.42 39.8501L162.41 39.8601Z" stroke="#002484" stroke-width="0.21" stroke-miterlimit="10"/>
<path d="M155.83 37.06L151.95 37.08L150.69 64.72C150.69 64.72 150.69 64.74 150.69 64.76V64.8V64.8501C150.72 66.0501 152.18 66.84 153.98 66.84C155.8 66.84 157.27 65.91 157.27 64.7701L155.84 37.05L155.83 37.06Z" fill="white" stroke="#002484" stroke-width="0.21" stroke-miterlimit="10"/>
<path d="M151.68 43.0401L151.95 37.0801L155.83 37.0601L156.14 43.0401C156.14 43.0401 155.57 44.0701 153.98 44.0701C152.39 44.0701 151.68 43.0401 151.68 43.0401Z" fill="#6C89D9" stroke="#002484" stroke-width="0.21" stroke-miterlimit="10"/>
<path d="M155.83 37.0401C155.83 37.7101 154.96 38.2501 153.9 38.2501C152.84 38.2501 151.97 37.7101 151.97 37.0401C151.97 36.3701 152.84 35.8301 153.9 35.8301C154.97 35.8301 155.83 36.3701 155.83 37.0401Z" fill="#002484" stroke="#002484" stroke-width="0.21" stroke-miterlimit="10"/>
<path d="M155.83 37.06L151.95 37.08L150.69 64.72C150.69 64.72 150.69 64.74 150.69 64.76V64.8V64.8501C150.72 66.0501 152.18 66.84 153.98 66.84C155.8 66.84 157.27 65.9101 157.27 64.7701L155.84 37.05L155.83 37.06Z" stroke="#002484" stroke-width="0.21" stroke-miterlimit="10"/>
<path d="M124.22 54.9102L142.65 44.2002L150.01 55.0702L131.58 65.7802L124.22 54.9102Z" fill="#6C89D9" stroke="#002484" stroke-width="0.21" stroke-linejoin="round"/>
<path d="M131.6 59.18L150.03 48.47L157.39 59.33L138.96 70.04L131.6 59.18Z" fill="#6C89D9" stroke="#002484" stroke-width="0.21" stroke-linejoin="round"/>
<path d="M138.98 63.43L157.41 52.72L164.75 63.55L146.32 74.26L138.98 63.43Z" fill="#6C89D9" stroke="#002484" stroke-width="0.21" stroke-linejoin="round"/>
<path d="M146.34 67.6801L153.69 78.5401L153.67 86.6402L146.32 82.5202L138.93 78.2601L131.56 74.0002L124.17 69.7402L124.22 54.9102L131.58 65.7802L131.6 59.1801L138.96 70.0401L138.98 63.4301L146.32 74.2601L146.34 67.6801Z" fill="#D0D8F1" stroke="#00208A" stroke-width="0.21" stroke-linejoin="round"/>
<path d="M146.34 67.68L164.77 56.97L172.12 67.83L153.69 78.54L146.34 67.68Z" fill="#6C89D9" stroke="#002484" stroke-width="0.21" stroke-linejoin="round"/>
<path d="M153.69 78.5401L172.12 67.8301L172.1 76.0501L153.67 86.7601L153.69 78.5401Z" fill="#FCFCFF" stroke="#002484" stroke-width="0.21" stroke-linejoin="round"/>
<path d="M147.27 83.1601V77.0901L149.51 78.3601L149.54 84.4501L147.27 83.1601Z" fill="#00208A"/>
<path d="M156.15 78.73L158.26 77.51L158.38 81.18L156.15 82.44V78.73Z" fill="#D0D8F1" stroke="#002484" stroke-width="0.21" stroke-linejoin="round"/>
<path d="M159.95 76.5501L162.06 75.3301L162.18 79.0001L159.95 80.2601V76.5501Z" fill="#D0D8F1" stroke="#002484" stroke-width="0.21" stroke-linejoin="round"/>
<path d="M164.07 74.24L166.18 73.02L166.3 76.69L164.07 77.95V74.24Z" fill="#D0D8F1" stroke="#002484" stroke-width="0.21" stroke-linejoin="round"/>
<path d="M168.18 72L170.29 70.78L170.41 74.45L168.18 75.71V72Z" fill="#D0D8F1" stroke="#002484" stroke-width="0.21" stroke-linejoin="round"/>
<path d="M141.18 78.24C141.31 78.11 141.41 77.99 141.45 77.9L140.82 77.68V77.65C140.82 77.65 141.14 76.85 141.15 76.49L140.36 76.43C140.36 76.43 140.53 75.21 140.42 74.8C140.42 74.8 140.09 74.94 139.87 75.01L139.8 74.78V74.73L139.76 74.66C139.76 74.66 139.43 73.56 139.21 73.12L138.8 73.56C138.76 73.47 138.7 73.36 138.7 73.36C138.7 73.36 138.11 72.21 137.81 71.8C137.81 71.8 137.71 72.32 137.65 72.54L137.49 72.33C137.44 72.25 137.38 72.18 137.38 72.18C137.38 72.18 136.61 71.07 136.25 70.7C136.25 70.7 136.3 71.33 136.31 71.59V71.54C136.26 71.48 136.2 71.43 136.2 71.43C136.2 71.43 135.28 70.43 134.9 70.13C134.9 70.13 135.11 70.82 135.18 71.12L135.07 70.99C135 70.92 134.89 70.84 134.89 70.84C134.89 70.84 133.89 70 133.5 69.77C133.5 69.77 133.83 70.48 133.96 70.8L133.87 70.76C133.8 70.7 133.77 70.68 133.77 70.68C133.77 70.68 132.74 70.05 132.36 69.93C132.36 69.93 132.8 70.62 132.99 70.94C132.99 70.94 131.99 70.64 131.66 70.66C131.66 70.66 132.22 71.26 132.46 71.53L132.4 71.51C132.33 71.51 132.24 71.51 132.24 71.51C132.24 71.51 131.35 71.51 131.08 71.63C131.08 71.63 131.68 72.12 131.95 72.36L132 72.38C131.94 72.4 131.88 72.45 131.88 72.45C131.88 72.45 131.75 72.53 131.6 72.64L141.16 78.23L141.18 78.24Z" fill="#FDFDFF" stroke="#002484" stroke-width="0.21" stroke-linejoin="round"/>
<path d="M135.61 74.91C135.61 74.46 135.98 74.31 136.44 74.57C136.9 74.83 137.28 75.41 137.28 75.86" fill="#002484"/>
<path d="M159.16 29.0601C159.53 29.0601 159.83 28.7601 159.83 28.3901C159.83 28.0201 159.53 27.7201 159.16 27.7201C158.79 27.7201 158.49 28.0201 158.49 28.3901C158.49 28.7601 158.79 29.0601 159.16 29.0601Z" fill="#F57118"/>
<path d="M155.02 27.5801C155.39 27.5801 155.69 27.2801 155.69 26.9101C155.69 26.5401 155.39 26.2401 155.02 26.2401C154.65 26.2401 154.35 26.5401 154.35 26.9101C154.35 27.2801 154.65 27.5801 155.02 27.5801Z" fill="#F57118"/>
<path d="M162.24 28.24C162.61 28.24 162.91 27.9401 162.91 27.57C162.91 27.2 162.61 26.9 162.24 26.9C161.87 26.9 161.57 27.2 161.57 27.57C161.57 27.9401 161.87 28.24 162.24 28.24Z" fill="#F57118"/>
<path d="M156.3 32.8801C156.67 32.8801 156.97 32.5801 156.97 32.2101C156.97 31.84 156.67 31.54 156.3 31.54C155.93 31.54 155.63 31.84 155.63 32.2101C155.63 32.5801 155.93 32.8801 156.3 32.8801Z" fill="#F57118"/>
<path d="M158.49 26.9101C158.86 26.9101 159.16 26.6101 159.16 26.2401C159.16 25.8701 158.86 25.5701 158.49 25.5701C158.12 25.5701 157.82 25.8701 157.82 26.2401C157.82 26.6101 158.12 26.9101 158.49 26.9101Z" fill="#F57118"/>
<path d="M163.79 31.48C164.16 31.48 164.46 31.18 164.46 30.81C164.46 30.44 164.16 30.14 163.79 30.14C163.42 30.14 163.12 30.44 163.12 30.81C163.12 31.18 163.42 31.48 163.79 31.48Z" fill="#F57118"/>
<path d="M156.76 29.8701C157.014 29.8701 157.22 29.6641 157.22 29.4101C157.22 29.156 157.014 28.9501 156.76 28.9501C156.506 28.9501 156.3 29.156 156.3 29.4101C156.3 29.6641 156.506 29.8701 156.76 29.8701Z" fill="#F57118"/>
<path d="M153.41 30.33C153.664 30.33 153.87 30.1241 153.87 29.87C153.87 29.616 153.664 29.41 153.41 29.41C153.156 29.41 152.95 29.616 152.95 29.87C152.95 30.1241 153.156 30.33 153.41 30.33Z" fill="#F57118"/>
<path d="M159.8 37.0101C160.054 37.0101 160.26 36.8041 160.26 36.5501C160.26 36.296 160.054 36.0901 159.8 36.0901C159.546 36.0901 159.34 36.296 159.34 36.5501C159.34 36.8041 159.546 37.0101 159.8 37.0101Z" fill="#F57118"/>
<path d="M152.95 33.9601C153.204 33.9601 153.41 33.7541 153.41 33.5C153.41 33.246 153.204 33.04 152.95 33.04C152.696 33.04 152.49 33.246 152.49 33.5C152.49 33.7541 152.696 33.9601 152.95 33.9601Z" fill="#F57118"/>
<path d="M160.51 30.7801C160.764 30.7801 160.97 30.5741 160.97 30.3201C160.97 30.066 160.764 29.8601 160.51 29.8601C160.256 29.8601 160.05 30.066 160.05 30.3201C160.05 30.5741 160.256 30.7801 160.51 30.7801Z" fill="#F57118"/>
<path d="M159.16 33.5001C159.414 33.5001 159.62 33.2941 159.62 33.0401C159.62 32.786 159.414 32.5801 159.16 32.5801C158.906 32.5801 158.7 32.786 158.7 33.0401C158.7 33.2941 158.906 33.5001 159.16 33.5001Z" fill="#F57118"/>
<path d="M162.24 33.9601C162.494 33.9601 162.7 33.7541 162.7 33.5C162.7 33.246 162.494 33.04 162.24 33.04C161.986 33.04 161.78 33.246 161.78 33.5C161.78 33.7541 161.986 33.9601 162.24 33.9601Z" fill="#F57118"/>
<path d="M152.63 27.09C152.884 27.09 153.09 26.8841 153.09 26.6301C153.09 26.376 152.884 26.17 152.63 26.17C152.376 26.17 152.17 26.376 152.17 26.6301C152.17 26.8841 152.376 27.09 152.63 27.09Z" fill="#F57118"/>
<path d="M156.3 25.2301C156.554 25.2301 156.76 25.0241 156.76 24.7701C156.76 24.516 156.554 24.3101 156.3 24.3101C156.046 24.3101 155.84 24.516 155.84 24.7701C155.84 25.0241 156.046 25.2301 156.3 25.2301Z" fill="#F57118"/>
<path d="M154.81 36.1002C155.064 36.1002 155.27 35.8942 155.27 35.6402C155.27 35.3861 155.064 35.1802 154.81 35.1802C154.556 35.1802 154.35 35.3861 154.35 35.6402C154.35 35.8942 154.556 36.1002 154.81 36.1002Z" fill="#F57118"/>
<path d="M160.72 25.69C160.974 25.69 161.18 25.4841 161.18 25.23C161.18 24.976 160.974 24.77 160.72 24.77C160.466 24.77 160.26 24.976 160.26 25.23C160.26 25.4841 160.466 25.69 160.72 25.69Z" fill="#F57118"/>
<path d="M100.93 84.4099C101.272 84.4099 101.55 84.1323 101.55 83.7899C101.55 83.4475 101.272 83.1699 100.93 83.1699C100.588 83.1699 100.31 83.4475 100.31 83.7899C100.31 84.1323 100.588 84.4099 100.93 84.4099Z" fill="#F57118"/>
<path d="M104.78 83.03C105.122 83.03 105.4 82.7525 105.4 82.41C105.4 82.0676 105.122 81.79 104.78 81.79C104.437 81.79 104.16 82.0676 104.16 82.41C104.16 82.7525 104.437 83.03 104.78 83.03Z" fill="#F57118"/>
<path d="M98.0699 83.6499C98.4124 83.6499 98.69 83.3723 98.69 83.0299C98.69 82.6875 98.4124 82.4099 98.0699 82.4099C97.7275 82.4099 97.45 82.6875 97.45 83.0299C97.45 83.3723 97.7275 83.6499 98.0699 83.6499Z" fill="#F57118"/>
<path d="M103.59 87.97C103.932 87.97 104.21 87.6924 104.21 87.35C104.21 87.0076 103.932 86.73 103.59 86.73C103.248 86.73 102.97 87.0076 102.97 87.35C102.97 87.6924 103.248 87.97 103.59 87.97Z" fill="#F57118"/>
<path d="M101.55 82.4099C101.892 82.4099 102.17 82.1323 102.17 81.7899C102.17 81.4475 101.892 81.1699 101.55 81.1699C101.208 81.1699 100.93 81.4475 100.93 81.7899C100.93 82.1323 101.208 82.4099 101.55 82.4099Z" fill="#F57118"/>
<path d="M96.62 86.6599C96.9624 86.6599 97.24 86.3823 97.24 86.0399C97.24 85.6975 96.9624 85.4199 96.62 85.4199C96.2776 85.4199 96 85.6975 96 86.0399C96 86.3823 96.2776 86.6599 96.62 86.6599Z" fill="#F57118"/>
<path d="M103.17 85.17C103.407 85.17 103.6 84.9775 103.6 84.7401C103.6 84.5026 103.407 84.3101 103.17 84.3101C102.933 84.3101 102.74 84.5026 102.74 84.7401C102.74 84.9775 102.933 85.17 103.17 85.17Z" fill="#F57118"/>
<path d="M106.28 85.59C106.518 85.59 106.71 85.3975 106.71 85.16C106.71 84.9225 106.518 84.73 106.28 84.73C106.043 84.73 105.85 84.9225 105.85 85.16C105.85 85.3975 106.043 85.59 106.28 85.59Z" fill="#F57118"/>
<path d="M100.33 91.81C100.567 91.81 100.76 91.6174 100.76 91.3799C100.76 91.1425 100.567 90.95 100.33 90.95C100.092 90.95 99.8999 91.1425 99.8999 91.3799C99.8999 91.6174 100.092 91.81 100.33 91.81Z" fill="#F57118"/>
<path d="M106.7 88.9701C106.937 88.9701 107.13 88.7776 107.13 88.5401C107.13 88.3026 106.937 88.1101 106.7 88.1101C106.463 88.1101 106.27 88.3026 106.27 88.5401C106.27 88.7776 106.463 88.9701 106.7 88.9701Z" fill="#F57118"/>
<path d="M99.68 86.0199C99.9175 86.0199 100.11 85.8274 100.11 85.5899C100.11 85.3524 99.9175 85.1599 99.68 85.1599C99.4425 85.1599 99.25 85.3524 99.25 85.5899C99.25 85.8274 99.4425 86.0199 99.68 86.0199Z" fill="#F57118"/>
<path d="M100.93 88.5499C101.167 88.5499 101.36 88.3574 101.36 88.1199C101.36 87.8825 101.167 87.6899 100.93 87.6899C100.693 87.6899 100.5 87.8825 100.5 88.1199C100.5 88.3574 100.693 88.5499 100.93 88.5499Z" fill="#F57118"/>
<path d="M98.0699 88.9701C98.3074 88.9701 98.4999 88.7776 98.4999 88.5401C98.4999 88.3026 98.3074 88.1101 98.0699 88.1101C97.8324 88.1101 97.6399 88.3026 97.6399 88.5401C97.6399 88.7776 97.8324 88.9701 98.0699 88.9701Z" fill="#F57118"/>
<path d="M107 82.58C107.238 82.58 107.43 82.3875 107.43 82.15C107.43 81.9125 107.238 81.72 107 81.72C106.763 81.72 106.57 81.9125 106.57 82.15C106.57 82.3875 106.763 82.58 107 82.58Z" fill="#F57118"/>
<path d="M103.59 80.86C103.827 80.86 104.02 80.6675 104.02 80.43C104.02 80.1925 103.827 80 103.59 80C103.352 80 103.16 80.1925 103.16 80.43C103.16 80.6675 103.352 80.86 103.59 80.86Z" fill="#F57118"/>
<path d="M104.97 90.9601C105.208 90.9601 105.4 90.7676 105.4 90.5301C105.4 90.2926 105.208 90.1001 104.97 90.1001C104.733 90.1001 104.54 90.2926 104.54 90.5301C104.54 90.7676 104.733 90.9601 104.97 90.9601Z" fill="#F57118"/>
<path d="M99.48 81.2799C99.7175 81.2799 99.9101 81.0874 99.9101 80.8499C99.9101 80.6124 99.7175 80.4199 99.48 80.4199C99.2426 80.4199 99.05 80.6124 99.05 80.8499C99.05 81.0874 99.2426 81.2799 99.48 81.2799Z" fill="#F57118"/>
<path d="M105.27 89.49L105.93 89.04V89.89L105.27 89.49Z" fill="#123EB7" stroke="#002484" stroke-width="0.25" stroke-linejoin="round"/>
<path d="M109.39 88.57L105.93 86.58L109.99 84.24L113.41 86.25L109.39 88.57Z" fill="#D0D8F1" stroke="#002484" stroke-width="0.25" stroke-linejoin="round"/>
<path d="M105.93 86.5801V89.8901L105.27 89.4901V90.9301L104.73 93.3301L115.28 99.5601V95.2901L110.22 92.3601L109.39 88.5701L105.93 86.5801Z" fill="#F5F5F5" stroke="#002484" stroke-width="0.25" stroke-linejoin="round"/>
<path d="M106.43 87.52L107.89 88.35V90.84L106.43 90.03V87.52Z" fill="#002484" stroke="#002484" stroke-width="0.25" stroke-linejoin="round"/>
<path d="M108.39 88.5901V91.1001L109.57 91.7701L108.93 88.8901L108.39 88.5901Z" fill="#002484" stroke="#002484" stroke-width="0.25" stroke-linejoin="round"/>
<path d="M109.39 88.57L110.22 92.36L114.24 90.02L113.41 86.25L109.39 88.57Z" fill="#F5F5F5" stroke="#002484" stroke-width="0.25" stroke-linejoin="round"/>
<path d="M113.08 87.03L109.96 88.83L110.58 91.61L113.69 89.8L113.08 87.03Z" fill="#002484" stroke="#002484" stroke-width="0.25" stroke-linejoin="round"/>
<path d="M115.28 95.29L119.3 92.95L114.24 90.02L110.22 92.37L115.28 95.29Z" fill="#D0D8F1" stroke="#002484" stroke-width="0.25" stroke-linejoin="round"/>
<path d="M103.83 93.84L104.91 93.21C104.91 93.21 105.27 92.97 105.83 93.3L113.08 97.49C113.08 97.49 114.28 98.25 114.28 99.86C114.28 99.86 114.28 100.31 113.98 100.55L112.91 101.16L103.83 93.84Z" fill="#D0D8F1" stroke="#002484" stroke-width="0.25" stroke-linejoin="round"/>
<path d="M105.08 97.2801L111.91 101.22C112.26 101.42 112.83 101.36 113.03 101C113.5 100.18 112.69 98.5701 111.79 98.0201L104.73 93.9301C104.02 93.5801 103.69 93.8401 103.48 94.1901C103.13 95.0501 103.71 96.6401 105.08 97.2701V97.2801Z" fill="#002484" stroke="#002484" stroke-width="0.25" stroke-miterlimit="10"/>
<path d="M119.36 92.95V96.7299L115.33 99.0999V95.2899L119.36 92.95Z" fill="#123EB7" stroke="#002484" stroke-width="0.25" stroke-linejoin="round"/>
<path d="M118.25 94.63V97.35L116.32 98.49V95.71C116.32 95.71 116.3 95.28 116.73 95.04L117.94 94.36C117.94 94.36 118.25 94.18 118.25 94.63Z" fill="#002484"/>
<path d="M105.1 97.07L111.53 100.78C111.86 100.97 112.44 100.95 112.63 100.62C113.08 99.85 112.22 98.58 111.45 98.13L104.9 94.29C104.57 94.1 104.14 94.21 103.95 94.54C103.5 95.31 104.32 96.62 105.1 97.07Z" fill="#F5F5F5" stroke="#002484" stroke-width="0.25" stroke-linejoin="round"/>
<path d="M107.72 91.54L105.93 90.5" stroke="#002484" stroke-width="0.25" stroke-linecap="round" stroke-linejoin="round"/>
<path d="M107.72 92.2399L105.93 91.2" stroke="#002484" stroke-width="0.25" stroke-linecap="round" stroke-linejoin="round"/>
<path d="M107.72 92.9499L105.93 91.9099" stroke="#002484" stroke-width="0.25" stroke-linecap="round" stroke-linejoin="round"/>
<path d="M107.72 93.6301L105.93 92.5901" stroke="#002484" stroke-width="0.25" stroke-linecap="round" stroke-linejoin="round"/>
<path d="M112.45 94.35V94.99L110.96 94.12V93.5L112.45 94.35Z" fill="#002484"/>
<path d="M122.78 94.79L124.34 99.89L123.91 100.15L122.32 95.09L122.78 94.79Z" fill="#123EB7" stroke="#002484" stroke-width="0.25" stroke-linejoin="round"/>
<path d="M121.7 94.71L121.76 98.67L123.91 100.15L122.32 95.09L121.7 94.71Z" fill="#4165C5" stroke="#002484" stroke-width="0.25" stroke-linejoin="round"/>
<path d="M114.83 98.72L115.42 99.09L116.29 101.88L121.76 98.67L121.7 94.71L114.83 98.72Z" fill="#123EB7" stroke="#002484" stroke-width="0.25" stroke-linejoin="round"/>
<path d="M117.02 104.21L115.42 99.0901L114.93 99.3901L116.53 104.48L117.02 104.21Z" fill="#123EB7" stroke="#002484" stroke-width="0.25" stroke-linejoin="round"/>
<path d="M121.58 94.0701L113.77 98.6701L114.93 99.3801L115.42 99.0901L114.83 98.7201L121.7 94.7101L122.32 95.0901L122.78 94.7901L121.58 94.0701Z" fill="#A0B2E2" stroke="#002484" stroke-width="0.25" stroke-linejoin="round"/>
<path d="M116.53 104.48L113.76 102.83L113.77 98.6702L114.93 99.3902L116.53 104.48Z" fill="#F5F5F5" stroke="#002484" stroke-width="0.25" stroke-linejoin="round"/>
<path d="M123.91 100.15L117.02 104.21L116.29 101.88L121.76 98.6699L123.91 100.15Z" fill="#A0B2E2" stroke="#002484" stroke-width="0.25" stroke-linejoin="round"/>
</svg>
