<svg width="159" height="132" viewBox="0 0 159 132" fill="none" xmlns="http://www.w3.org/2000/svg">
<path d="M79.24 47.21L12 86.2299L79.09 125L146.13 86.2299L79.24 47.21Z" fill="#F5F5F7" stroke="#333333" stroke-width="0.25" stroke-miterlimit="10"/>
<path d="M79.04 131.69L146.13 92.96V86.22L79.04 124.96V131.69Z" fill="#E2E2E2" stroke="#333333" stroke-width="0.25" stroke-linejoin="round"/>
<path d="M79.09 131.69L12 92.96V86.22L79.09 124.96V131.69Z" fill="#545454" stroke="#333333" stroke-width="0.25" stroke-linejoin="round"/>
<path d="M79.6301 46.1702C79.2801 46.1502 79.7101 46.6802 79.9101 46.8602C79.7701 46.9102 79.5301 46.9802 79.5301 46.9802C79.5301 46.9802 78.2501 46.9602 78.1401 47.2002C78.0501 47.3802 78.6401 47.4302 79.0201 47.5202C78.6501 47.5902 78.1901 47.7002 78.1401 47.8502C78.0801 48.0302 78.61 48.0202 78.99 48.0502C78.78 48.1402 78.6101 48.2302 78.6001 48.3202C78.5501 48.5802 79.6701 48.3302 80.3101 48.2102C80.9501 48.0802 81.3801 47.7202 81.3801 47.7202L82.1001 47.6002L82.1501 46.4402C82.1501 46.4402 81.1201 46.8402 80.4501 46.5202C80.2401 46.3902 79.9001 46.1802 79.6301 46.1602V46.1702Z" fill="#757575" stroke="#333333" stroke-width="0.25" stroke-miterlimit="10"/>
<path d="M90.6801 76.0301L92.1501 75.4301L92.4001 73.3801L90.4701 73.7901L90.6801 76.0301Z" fill="#545454"/>
<path d="M90.5601 75.43C90.5601 75.43 90.0301 76.5 89.4101 76.9C87.1201 78.35 87.5501 78.45 87.4801 78.73C87.3701 79.23 88.9201 79.02 89.5901 78.7C91.7001 77.69 91.6801 77.29 91.6801 77.29V77.58C91.6801 77.58 92.4501 77.29 92.4101 76.82C92.3701 76.35 92.1501 75.28 92.1501 75.28C92.1501 75.28 91.8001 75.67 91.2001 75.67C90.6001 75.67 90.5701 75.43 90.5701 75.43H90.5601Z" fill="#EEEEEE" stroke="#333333" stroke-width="0.25" stroke-miterlimit="10"/>
<path d="M95.47 78.3902L96.95 77.7902L97.19 75.7302L95.26 76.1402L95.47 78.3902Z" fill="#545454"/>
<path d="M92.1201 33.9901C92.1201 33.9901 90.3701 33.8301 89.5401 34.7801C88.7101 35.7301 87.7101 42.1601 86.6401 43.2601C84.9901 44.9601 81.5701 46.3901 81.5701 46.3901L82.1201 48.3601C86.6601 46.7301 87.6701 46.1301 88.9601 45.1301C90.2501 44.1301 92.1201 33.9801 92.1201 33.9801V33.9901Z" fill="#EEEEEE"/>
<mask id="mask0_803_28741" style="mask-type:luminance" maskUnits="userSpaceOnUse" x="81" y="33" width="12" height="16">
<path d="M92.1201 33.9901C92.1201 33.9901 90.3701 33.8301 89.5401 34.7801C88.7101 35.7301 87.7101 42.1601 86.6401 43.2601C84.9901 44.9601 81.5701 46.3901 81.5701 46.3901L82.1201 48.3601C86.6601 46.7301 87.6701 46.1301 88.9601 45.1301C90.2501 44.1301 92.1201 33.9801 92.1201 33.9801V33.9901Z" fill="white"/>
</mask>
<g mask="url(#mask0_803_28741)">
<path d="M89.33 39.6001C89.15 39.6501 85.92 47.9901 86.05 48.0601C86.18 48.1301 93.31 49.4401 93.31 49.4401L93.45 40.4201L89.34 39.6101L89.33 39.6001Z" fill="#EEEEEE"/>
</g>
<path d="M92.1201 33.9901C92.1201 33.9901 90.3701 33.8301 89.5401 34.7801C88.7101 35.7301 87.7101 42.1601 86.6401 43.2601C84.9901 44.9601 81.5701 46.3901 81.5701 46.3901L82.1201 48.3601C86.6601 46.7301 87.6701 46.1301 88.9601 45.1301C90.2501 44.1301 92.1201 33.9801 92.1201 33.9801V33.9901Z" stroke="#333333" stroke-width="0.25" stroke-miterlimit="10"/>
<path d="M97.84 52.0103L97.58 76.5003C97.57 77.1203 97.06 77.6203 96.44 77.6203H94.86L92.94 55.6603L92.67 74.0803C92.67 74.7703 92.11 75.3203 91.43 75.3203L89.98 75.3703L88.74 50.3103C88.74 50.3103 89.98 51.8903 92.03 52.2203C94.08 52.5503 97.83 52.0003 97.83 52.0003L97.84 52.0103Z" fill="#545454"/>
<path d="M89.36 39.4703C89.45 41.4603 89.5901 43.3103 89.5901 43.3103C89.5201 47.1403 88.4501 50.9103 88.4501 50.9103C88.4501 50.9103 88.9401 52.2203 92.6301 53.6503C96.6801 55.2203 98.0901 52.0103 98.0901 52.0103C98.0901 52.0103 98.2401 49.1503 97.7401 44.7703H97.73L97.8401 39.7003C97.8401 39.7003 97.9501 39.0403 97.4701 37.7403C96.9901 36.4403 94.3901 34.7703 94.3901 34.7703L93.98 34.7103L92.5601 33.7903" fill="#EEEEEE"/>
<path d="M89.36 39.4703C89.45 41.4603 89.5901 43.3103 89.5901 43.3103C89.5201 47.1403 88.4501 50.9103 88.4501 50.9103C88.4501 50.9103 88.9401 52.2203 92.6301 53.6503C96.6801 55.2203 98.0901 52.0103 98.0901 52.0103C98.0901 52.0103 98.2401 49.1503 97.7401 44.7703H97.73L97.8401 39.7003C97.8401 39.7003 97.9501 39.0403 97.4701 37.7403C96.9901 36.4403 94.3901 34.7703 94.3901 34.7703L93.98 34.7103L92.5601 33.7903" stroke="#333333" stroke-width="0.25" stroke-miterlimit="10"/>
<path d="M94.5201 33.4402C94.5201 33.4402 94.3401 34.4102 94.5201 35.0502C94.7001 35.6902 93.57 36.2702 92.55 36.2102C91.53 36.1502 91.6 35.5302 91.57 34.7602C91.54 33.9902 94.5201 33.4402 94.5201 33.4402Z" fill="#757575" stroke="#333333" stroke-width="0.25" stroke-miterlimit="10"/>
<path d="M93.2601 34.8302C93.2601 34.8302 92.2401 35.5702 91.6401 35.2302C90.5801 34.6302 90.2401 32.2202 90.6801 30.7902C91.1201 29.3602 94.2701 29.8002 94.2701 29.8002L94.6801 33.3802" fill="#757575"/>
<path d="M93.2601 34.8302C93.2601 34.8302 92.2401 35.5702 91.6401 35.2302C90.5801 34.6302 90.2401 32.2202 90.6801 30.7902C91.1201 29.3602 94.2701 29.8002 94.2701 29.8002L94.6801 33.3802" stroke="#333333" stroke-width="0.25" stroke-miterlimit="10"/>
<path d="M94.2201 32.1902L93.9701 32.9102L93.6501 33.0502V31.3402C93.6501 31.3402 93.2401 31.9502 92.2101 32.1102C90.8701 32.3202 89.9701 31.2902 89.9701 31.2902C89.9701 31.2902 89.88 30.1902 91.18 29.5602C91.96 29.1902 93.07 28.4402 94.18 29.0002C95.29 29.5602 94.9101 30.0502 94.9101 30.0502C94.9101 30.0502 95.97 30.4902 95.17 32.6302C94.8 33.6102 94.3901 33.9902 94.3901 33.9902L94.4701 32.5002L94.2201 32.1902Z" fill="#333333"/>
<path d="M94.9 54.3003C94.9 54.3003 96.17 55.0703 96.8 55.1203C97.43 55.1703 97.57 54.8303 97.57 54.8303L97 57.7503L94.01 56.5603L94.91 54.3003H94.9Z" fill="#545454"/>
<path d="M90.5601 75.4303C90.5601 75.4303 90.0301 76.5003 89.4101 76.9003C87.1201 78.3503 87.5501 78.4503 87.4801 78.7303C87.3701 79.2303 88.9201 79.0203 89.5901 78.7003C91.7001 77.6903 91.6801 77.2903 91.6801 77.2903V77.5803C91.6801 77.5803 92.4501 77.2903 92.4101 76.8203C92.3701 76.3503 92.1501 75.2803 92.1501 75.2803C92.1501 75.2803 91.8001 75.6703 91.2001 75.6703C90.6001 75.6703 90.5701 75.4303 90.5701 75.4303H90.5601Z" fill="#EEEEEE" stroke="#333333" stroke-width="0.25" stroke-miterlimit="10"/>
<path d="M95.5901 78.2002L96.9601 77.6402L97.1901 75.7302L95.4001 76.1202L95.5901 78.2002Z" fill="#545454"/>
<path d="M95.48 77.6402C95.48 77.6402 94.9901 78.6302 94.4101 79.0002C92.2901 80.3402 92.6801 80.4402 92.6201 80.7002C92.5101 81.1602 93.9601 80.9702 94.5801 80.6702C96.5401 79.7302 96.5201 79.3602 96.5201 79.3602V79.6302C96.5201 79.6302 97.2301 79.3602 97.2001 78.9202C97.1701 78.4802 96.9601 77.4902 96.9601 77.4902C96.9601 77.4902 96.6401 77.8502 96.0801 77.8502C95.5201 77.8502 95.4901 77.6302 95.4901 77.6302L95.48 77.6402Z" fill="#EEEEEE" stroke="#333333" stroke-width="0.25" stroke-miterlimit="10"/>
<path d="M93.9601 32.6701C94.0001 32.8601 94.1001 33.1401 94.1001 33.1401C94.1001 33.1401 94.3101 33.0801 94.3901 33.0201C94.6001 32.8801 94.7101 32.5101 94.6401 32.1901C94.5701 31.8701 94.3501 31.7401 94.1501 31.8801C93.9501 32.0201 93.8901 32.3501 93.9501 32.6701H93.9601Z" fill="#757575"/>
<path d="M94.81 54.7903C94.61 55.0903 95.29 54.9803 95.55 54.9003C95.53 55.0503 95.46 55.2903 95.46 55.2903C95.46 55.2903 94.8 56.3803 94.95 56.6003C95.06 56.7703 95.41 56.2903 95.67 56.0103C95.54 56.3603 95.41 56.8202 95.51 56.9402C95.64 57.0802 95.89 56.6202 96.11 56.3002C96.08 56.5202 96.08 56.7202 96.15 56.7802C96.35 56.9602 96.7 55.8702 96.92 55.2502C97.14 54.6302 97.04 54.0703 97.04 54.0703L97.3 53.3902L96.32 52.7502C96.32 52.7502 96.14 53.8403 95.53 54.2603C95.31 54.3703 94.96 54.5603 94.8 54.7903H94.81Z" fill="#757575" stroke="#333333" stroke-width="0.25" stroke-miterlimit="10"/>
<path d="M96.26 36.1802C98.39 37.4102 99.41 40.8502 99.94 44.1202C100.52 47.7102 97.59 53.8802 97.59 53.8802L95.79 53.1502C95.79 53.1502 97.48 47.7702 97.36 45.4902C97.36 43.8602 96.72 42.2102 96.72 42.2102" fill="#EEEEEE"/>
<path d="M96.26 36.1802C98.39 37.4102 99.41 40.8502 99.94 44.1202C100.52 47.7102 97.59 53.8802 97.59 53.8802L95.79 53.1502C95.79 53.1502 97.48 47.7702 97.36 45.4902C97.36 43.8602 96.72 42.2102 96.72 42.2102" stroke="#333333" stroke-width="0.25" stroke-miterlimit="10"/>
<path d="M95.5601 31.6601C95.5601 31.6601 94.9601 31.8801 93.7701 31.9901C92.5801 32.1001 92.4901 32.5501 91.3301 32.5301C90.1701 32.5101 88.8001 32.2401 88.5301 31.8801C88.2601 31.5201 89.1901 31.1801 89.2701 31.0301C89.3501 30.8801 89.25 30.5901 89.55 30.2201C89.85 29.8501 89.1901 29.2401 90.5001 28.2501C91.8101 27.2601 92.7601 27.4701 93.6201 27.6701C93.6201 27.6701 94.3501 28.2001 94.5001 28.3001C95.0401 28.6301 95.3801 29.3001 95.4001 29.7601L95.42 30.2201C95.42 30.2201 95.8101 30.4701 95.6901 31.1801C95.6901 31.1801 95.9001 31.5601 95.5601 31.6601Z" fill="#CBCBCB" stroke="#333333" stroke-width="0.25" stroke-miterlimit="10"/>
<path d="M95.2001 30.2102C95.2001 30.2102 94.6202 30.5102 93.7102 30.5802C92.8002 30.6502 93.1802 31.0602 93.1502 31.4002C93.1202 31.7402 93.8402 31.6202 94.3502 31.5402C94.8602 31.4602 95.5601 31.2002 95.5601 31.2002C95.5601 31.2002 95.6701 30.5202 95.2001 30.2202V30.2102Z" fill="#CBCBCB" stroke="#333333" stroke-width="0.25" stroke-miterlimit="10"/>
<path d="M94.0901 28.0103C94.0901 28.0103 92.2701 28.0303 91.6801 28.5703C91.6801 28.5703 90.1001 29.0202 90.5001 28.2502" stroke="#333333" stroke-width="0.25" stroke-miterlimit="10"/>
<path d="M89.28 31.03C89.28 31.03 90.05 31.9 92.54 31.54L89.28 31.03Z" fill="#CBCBCB"/>
<path d="M89.28 31.03C89.28 31.03 90.05 31.9 92.54 31.54" stroke="#333333" stroke-width="0.25" stroke-miterlimit="10"/>
<path d="M60.9299 67.0701L81.35 75.8701L83.59 74.8301L63.4 65.6401L60.9299 67.0701Z" fill="#757575" stroke="#545454" stroke-width="0.25" stroke-miterlimit="10"/>
<path d="M75.39 74.2303L95.81 83.0403L98.05 81.9903L77.86 72.8103L75.39 74.2303Z" fill="#F6F6F6" stroke="#333333" stroke-width="0.25" stroke-miterlimit="10"/>
<path d="M83.35 89.5301L81.1799 90.7801L92.7499 65.0701H94.21L83.35 89.5301Z" fill="#F6F6F6" stroke="#333333" stroke-width="0.25" stroke-linejoin="round"/>
<path d="M81.1799 90.7802L80.6899 90.5002L91.96 64.9302L92.7499 65.0702L81.1799 90.7802Z" fill="#757575" stroke="#545454" stroke-width="0.25" stroke-miterlimit="10"/>
<path d="M66.17 80.6402L64 81.8902L75.57 56.1802H77.03L66.17 80.6402Z" fill="#F6F6F6" stroke="#333333" stroke-width="0.25" stroke-linejoin="round"/>
<path d="M64 81.8903L63.51 81.6103L74.78 56.0403L75.57 56.1803L64 81.8903Z" fill="#757575" stroke="#545454" stroke-width="0.25" stroke-miterlimit="10"/>
<path d="M78.1 75.2701L78.03 77.2101L59 66.3001L59.06 64.3701L78.1 75.2701Z" fill="#757575" stroke="#545454" stroke-width="0.25" stroke-miterlimit="10"/>
<path d="M96.9101 64.2803L96.8501 66.2403L78.0801 77.2303L78.1501 75.2703L96.9101 64.2803Z" fill="#F6F6F6" stroke="#333333" stroke-width="0.25" stroke-linejoin="round"/>
<path d="M59.0601 64.3202L77.8301 53.4702L96.73 64.1602L96.86 64.2302L78.1001 75.2202L59.0601 64.3202Z" fill="#E2E2E2" stroke="#333333" stroke-width="0.25" stroke-linejoin="round"/>
<path d="M88.6401 76.3903C88.8113 76.3903 88.9501 76.2515 88.9501 76.0803C88.9501 75.9091 88.8113 75.7703 88.6401 75.7703C88.4689 75.7703 88.3301 75.9091 88.3301 76.0803C88.3301 76.2515 88.4689 76.3903 88.6401 76.3903Z" fill="#545454"/>
<path d="M79.46 67.4401L71.5599 62.8801L88.0599 54.1401L95.7299 58.1301L79.46 67.4401Z" fill="#E6E6E6" stroke="#545454" stroke-width="0.25" stroke-miterlimit="10"/>
<path d="M79.46 67.4401V68.0501L95.7299 58.8801V58.1301L79.46 67.4401Z" fill="#E6E6E6" stroke="#545454" stroke-width="0.25" stroke-miterlimit="10"/>
<path d="M79.46 68.0501L71.4399 63.4101L71.5599 62.8801L79.46 67.4401V68.0501Z" fill="#E6E6E6" stroke="#545454" stroke-width="0.25" stroke-miterlimit="10"/>
<path d="M84.25 60.3701L81.36 60.6801L84.45 57.4501L81.11 59.7501L82.32 56.6601L79.85 59.8201L79.94 56.4001L78.81 60.1801L77.25 56.5301C77.25 56.5301 78.14 62.5501 78.43 62.5501C78.72 62.5501 79.23 62.9501 79.23 62.9501L84.25 60.3701Z" fill="#545454" stroke="#333333" stroke-width="0.25" stroke-miterlimit="10"/>
<path d="M78.8 63.2802C79.48 62.9902 78.7 62.4302 78.65 62.3902L78.7 62.3702C78.94 62.1402 79.5 61.6602 79.5 61.6602C79.25 61.4802 78.43 61.3702 78.43 61.3702C78.43 61.3702 78.35 61.3502 78.28 61.3502H78.22C78.44 61.0802 78.96 60.4802 78.96 60.4802C78.66 60.4102 77.73 60.6202 77.73 60.6202C77.9 60.2902 78.31 59.5602 78.31 59.5602C77.96 59.6502 77.01 60.2202 77.01 60.2202C77.01 60.2202 76.99 60.2402 76.92 60.2902L76.84 60.3302C76.96 59.9902 77.27 59.2202 77.27 59.2202C76.91 59.4202 75.98 60.2402 75.98 60.2402C75.98 60.2402 75.89 60.3202 75.82 60.3802L75.72 60.5202C75.79 60.1802 75.98 59.4202 75.98 59.4202C75.62 59.7102 74.77 60.7202 74.77 60.7202C74.77 60.7202 74.72 60.7702 74.67 60.8302V60.8902C74.67 60.5802 74.72 59.8702 74.72 59.8702C74.39 60.2502 73.68 61.4102 73.68 61.4102C73.68 61.4102 73.63 61.4902 73.58 61.5702L73.43 61.7802C73.38 61.5202 73.29 60.9002 73.29 60.9002C73.01 61.3302 72.46 62.5602 72.46 62.5602C72.46 62.5602 72.4 62.6802 72.36 62.7802L71.99 62.2102C71.78 62.6802 71.48 63.9002 71.48 63.9002C71.48 63.9002 71.48 63.9302 71.46 63.9802V64.0402L71.38 64.3002C71.18 64.1802 70.88 63.9702 70.88 63.9702C70.77 64.4302 70.93 65.8702 70.93 65.8702L70.2 65.8302C70.2 66.2402 70.49 67.1702 70.5 67.2202V67.2502L69.91 67.4202C70.02 67.7502 70.53 68.3702 70.53 68.3702C70.53 68.3702 70.57 68.4302 70.61 68.4702L75.56 65.7702V65.0802L78.79 63.2702L78.8 63.2802Z" fill="#FDFDFF"/>
<path d="M78.8 63.2802C79.48 62.9902 78.7 62.4302 78.65 62.3902L78.7 62.3702C78.94 62.1402 79.5 61.6602 79.5 61.6602C79.25 61.4802 78.43 61.3702 78.43 61.3702C78.43 61.3702 78.35 61.3502 78.28 61.3502H78.22C78.44 61.0802 78.96 60.4802 78.96 60.4802C78.66 60.4102 77.73 60.6202 77.73 60.6202C77.9 60.2902 78.31 59.5602 78.31 59.5602C77.96 59.6502 77.01 60.2202 77.01 60.2202C77.01 60.2202 76.99 60.2402 76.92 60.2902L76.84 60.3302C76.96 59.9902 77.27 59.2202 77.27 59.2202C76.91 59.4202 75.98 60.2402 75.98 60.2402C75.98 60.2402 75.89 60.3202 75.82 60.3802L75.72 60.5202C75.79 60.1802 75.98 59.4202 75.98 59.4202C75.62 59.7102 74.77 60.7202 74.77 60.7202C74.77 60.7202 74.72 60.7702 74.67 60.8302V60.8902C74.67 60.5802 74.72 59.8702 74.72 59.8702C74.39 60.2502 73.68 61.4102 73.68 61.4102C73.68 61.4102 73.63 61.4902 73.58 61.5702L73.43 61.7802C73.38 61.5202 73.29 60.9002 73.29 60.9002C73.01 61.3302 72.46 62.5602 72.46 62.5602C72.46 62.5602 72.4 62.6802 72.36 62.7802L71.99 62.2102C71.78 62.6802 71.48 63.9002 71.48 63.9002C71.48 63.9002 71.48 63.9302 71.46 63.9802V64.0402L71.38 64.3002C71.18 64.1802 70.88 63.9702 70.88 63.9702C70.77 64.4302 70.93 65.8702 70.93 65.8702L70.2 65.8302C70.2 66.2402 70.49 67.1702 70.5 67.2202V67.2502L69.91 67.4202C70.02 67.7502 70.53 68.3702 70.53 68.3702C70.53 68.3702 70.57 68.4302 70.61 68.4702L75.56 65.7702V65.0802L78.79 63.2702L78.8 63.2802Z" stroke="#333333" stroke-width="0.25" stroke-linejoin="round"/>
<path d="M93.11 56.7603C93.11 56.7603 89.8101 56.7902 88.6501 58.4102C87.4901 60.0302 86.8801 62.0203 83.9901 63.0903C81.1001 64.1603 78.05 66.5603 78.05 66.5603" fill="#E6E6E6"/>
<path d="M93.11 56.7603C93.11 56.7603 89.8101 56.7902 88.6501 58.4102C87.4901 60.0302 86.8801 62.0203 83.9901 63.0903C81.1001 64.1603 78.05 66.5603 78.05 66.5603" stroke="#545454" stroke-width="0.25" stroke-miterlimit="10"/>
<path d="M93.67 57.0503C93.67 57.0503 90.38 57.1903 89.48 58.6903C88.58 60.1903 87.2501 61.7803 85.1201 63.0803C82.9901 64.3803 80.7901 65.4503 78.5601 67.0503" fill="#E6E6E6"/>
<path d="M93.67 57.0503C93.67 57.0503 90.38 57.1903 89.48 58.6903C88.58 60.1903 87.2501 61.7803 85.1201 63.0803C82.9901 64.3803 80.7901 65.4503 78.5601 67.0503" stroke="#545454" stroke-width="0.25" stroke-miterlimit="10"/>
<path d="M89.7001 54.9902C89.7001 54.9902 90.4401 56.1402 82.8201 57.0502L89.7001 54.9902Z" fill="#E6E6E6"/>
<path d="M89.7001 54.9902C89.7001 54.9902 90.4401 56.1402 82.8201 57.0502" stroke="#545454" stroke-width="0.25" stroke-miterlimit="10"/>
<path d="M88.9501 56.4001C88.9501 56.4001 85.9601 57.4601 85.9001 58.1301C85.8401 58.8001 89.7901 57.0301 88.9501 56.4001Z" fill="#E6E6E6" stroke="#545454" stroke-width="0.25" stroke-miterlimit="10"/>
<path d="M81.18 47.5699C81.7709 47.5699 82.25 47.0909 82.25 46.4999C82.25 45.909 81.7709 45.4299 81.18 45.4299C80.589 45.4299 80.11 45.909 80.11 46.4999C80.11 47.0909 80.589 47.5699 81.18 47.5699Z" fill="#545454"/>
<path d="M74.56 45.19C75.1509 45.19 75.63 44.711 75.63 44.1201C75.63 43.5291 75.1509 43.05 74.56 43.05C73.9691 43.05 73.49 43.5291 73.49 44.1201C73.49 44.711 73.9691 45.19 74.56 45.19Z" fill="#545454"/>
<path d="M86.1201 46.2599C86.711 46.2599 87.1901 45.7808 87.1901 45.1899C87.1901 44.5989 86.711 44.1199 86.1201 44.1199C85.5291 44.1199 85.05 44.5989 85.05 45.1899C85.05 45.7808 85.5291 46.2599 86.1201 46.2599Z" fill="#545454"/>
<path d="M76.6 53.69C77.191 53.69 77.67 53.211 77.67 52.6201C77.67 52.0291 77.191 51.55 76.6 51.55C76.0091 51.55 75.53 52.0291 75.53 52.6201C75.53 53.211 76.0091 53.69 76.6 53.69Z" fill="#545454"/>
<path d="M80.1201 44.13C80.711 44.13 81.1901 43.6509 81.1901 43.06C81.1901 42.4691 80.711 41.99 80.1201 41.99C79.5291 41.99 79.05 42.4691 79.05 43.06C79.05 43.6509 79.5291 44.13 80.1201 44.13Z" fill="#545454"/>
<path d="M88.61 51.4501C89.201 51.4501 89.6801 50.971 89.6801 50.3801C89.6801 49.7891 89.201 49.3101 88.61 49.3101C88.0191 49.3101 87.54 49.7891 87.54 50.3801C87.54 50.971 88.0191 51.4501 88.61 51.4501Z" fill="#545454"/>
<path d="M77.34 48.8599C77.7431 48.8599 78.07 48.5331 78.07 48.1299C78.07 47.7267 77.7431 47.3999 77.34 47.3999C76.9368 47.3999 76.61 47.7267 76.61 48.1299C76.61 48.5331 76.9368 48.8599 77.34 48.8599Z" fill="#545454"/>
<path d="M71.97 49.5899C72.3731 49.5899 72.7 49.263 72.7 48.8599C72.7 48.4567 72.3731 48.1299 71.97 48.1299C71.5668 48.1299 71.24 48.4567 71.24 48.8599C71.24 49.263 71.5668 49.5899 71.97 49.5899Z" fill="#545454"/>
<path d="M82.22 60.3001C82.6231 60.3001 82.95 59.9733 82.95 59.5701C82.95 59.1669 82.6231 58.8401 82.22 58.8401C81.8168 58.8401 81.49 59.1669 81.49 59.5701C81.49 59.9733 81.8168 60.3001 82.22 60.3001Z" fill="#545454"/>
<path d="M71.24 55.4099C71.6432 55.4099 71.97 55.0831 71.97 54.6799C71.97 54.2768 71.6432 53.95 71.24 53.95C70.8368 53.95 70.51 54.2768 70.51 54.6799C70.51 55.0831 70.8368 55.4099 71.24 55.4099Z" fill="#545454"/>
<path d="M83.35 50.3199C83.7531 50.3199 84.08 49.993 84.08 49.5899C84.08 49.1867 83.7531 48.8599 83.35 48.8599C82.9468 48.8599 82.62 49.1867 82.62 49.5899C82.62 49.993 82.9468 50.3199 83.35 50.3199Z" fill="#545454"/>
<path d="M81.1799 54.68C81.5831 54.68 81.9099 54.3531 81.9099 53.95C81.9099 53.5468 81.5831 53.22 81.1799 53.22C80.7768 53.22 80.45 53.5468 80.45 53.95C80.45 54.3531 80.7768 54.68 81.1799 54.68Z" fill="#545454"/>
<path d="M86.12 55.4099C86.5232 55.4099 86.85 55.0831 86.85 54.6799C86.85 54.2768 86.5232 53.95 86.12 53.95C85.7168 53.95 85.39 54.2768 85.39 54.6799C85.39 55.0831 85.7168 55.4099 86.12 55.4099Z" fill="#545454"/>
<path d="M70.73 44.3999C71.1331 44.3999 71.46 44.0731 71.46 43.6699C71.46 43.2668 71.1331 42.9399 70.73 42.9399C70.3268 42.9399 70 43.2668 70 43.6699C70 44.0731 70.3268 44.3999 70.73 44.3999Z" fill="#545454"/>
<path d="M76.6 41.43C77.0031 41.43 77.33 41.1031 77.33 40.7C77.33 40.2968 77.0031 39.97 76.6 39.97C76.1968 39.97 75.87 40.2968 75.87 40.7C75.87 41.1031 76.1968 41.43 76.6 41.43Z" fill="#545454"/>
<path d="M74.23 58.8399C74.6331 58.8399 74.96 58.513 74.96 58.1099C74.96 57.7067 74.6331 57.3799 74.23 57.3799C73.8268 57.3799 73.5 57.7067 73.5 58.1099C73.5 58.513 73.8268 58.8399 74.23 58.8399Z" fill="#545454"/>
<path d="M83.6799 42.1599C84.0831 42.1599 84.4099 41.8331 84.4099 41.4299C84.4099 41.0268 84.0831 40.7 83.6799 40.7C83.2768 40.7 82.95 41.0268 82.95 41.4299C82.95 41.8331 83.2768 42.1599 83.6799 42.1599Z" fill="#545454"/>
<path d="M100.46 86.04L34 47.67V1L100.46 39.37V86.04Z" fill="#F6F6F6" stroke="#333333" stroke-width="0.24" stroke-linejoin="round"/>
<path d="M110.35 69.7001H108.99C106.9 69.6901 105.48 68.4501 105.39 66.5801C105.3 64.6401 106.53 63.2501 108.6 63.0601C109.1 63.0101 109.29 62.9901 109.4 62.4001C109.67 60.8201 110.68 59.7401 112.21 59.3101C113.79 58.8701 115.25 59.2501 116.33 60.5401C116.75 61.0301 117.13 61.1501 117.75 61.1201C119.44 61.0301 120.73 62.0301 121.15 63.7201C121.27 64.2001 121.37 64.4301 121.95 64.4901C123.51 64.6601 124.34 65.6901 124.28 67.2001C124.22 68.6201 123.16 69.6801 121.65 69.7001H117.79" stroke="#333333" stroke-width="0.49" stroke-miterlimit="10"/>
<path d="M110.04 55.84H108.58C106.33 55.83 104.8 54.49 104.7 52.47C104.6 50.38 105.93 48.88 108.16 48.68C108.7 48.63 108.91 48.61 109.02 47.97C109.31 46.27 110.39 45.1 112.05 44.64C113.76 44.17 115.33 44.57 116.49 45.96C116.94 46.49 117.35 46.62 118.02 46.58C119.84 46.48 121.23 47.56 121.68 49.38C121.81 49.9 121.92 50.14 122.54 50.21C124.22 50.39 125.12 51.51 125.05 53.13C124.99 54.66 123.85 55.8 122.22 55.83H118.06" stroke="#333333" stroke-width="0.49" stroke-miterlimit="10"/>
<path d="M97.75 62.7401C97.75 63.1601 97.43 63.3201 97.04 63.1001C96.65 62.8801 96.33 62.3401 96.33 61.9201C96.33 61.5001 96.65 61.3401 97.04 61.5601C97.43 61.7801 97.75 62.3201 97.75 62.7401Z" fill="#545454"/>
<path d="M81.95 60.62C81.95 61.04 81.6301 61.2 81.2401 60.98C80.8501 60.76 80.53 60.22 80.53 59.8C80.53 59.38 80.8501 59.22 81.2401 59.44C81.6301 59.66 81.95 60.2 81.95 60.62Z" fill="#545454"/>
<path d="M41.6299 44.3599L43.8699 36.2899L49.6399 44.5299L59.2499 26.6299L70.4899 47.2299L73.5099 60.3199L81.3599 60.2099L97.0399 62.3299" stroke="#545454" stroke-width="0.24" stroke-miterlimit="10"/>
<path d="M42.3399 44.7701C42.3399 45.1901 42.0199 45.3501 41.6299 45.1301C41.2399 44.9101 40.9199 44.3701 40.9199 43.9501C40.9199 43.5301 41.2399 43.3701 41.6299 43.5901C42.0199 43.8101 42.3399 44.3501 42.3399 44.7701Z" fill="#545454"/>
<path d="M44.5799 36.7001C44.5799 37.1201 44.2599 37.2801 43.8699 37.0601C43.4799 36.8401 43.1599 36.3 43.1599 35.88C43.1599 35.46 43.4799 35.3 43.8699 35.52C44.2599 35.74 44.5799 36.2801 44.5799 36.7001Z" fill="#545454"/>
<path d="M50.4 45.18C50.4 45.6 50.08 45.76 49.69 45.54C49.3 45.32 48.98 44.78 48.98 44.36C48.98 43.94 49.3 43.78 49.69 44C50.08 44.22 50.4 44.76 50.4 45.18Z" fill="#545454"/>
<path d="M60.5699 27.39C60.5699 28.17 59.9799 28.47 59.2499 28.05C58.5199 27.63 57.9299 26.65 57.9299 25.87C57.9299 25.09 58.5199 24.79 59.2499 25.21C59.9799 25.63 60.5699 26.61 60.5699 27.39Z" fill="#545454"/>
<path d="M71.27 47.4501C71.27 47.8701 70.95 48.0301 70.56 47.8101C70.17 47.5901 69.85 47.05 69.85 46.63C69.85 46.21 70.17 46.05 70.56 46.27C70.95 46.49 71.27 47.0301 71.27 47.4501Z" fill="#545454"/>
<path d="M74.22 60.7301C74.22 61.1501 73.9 61.3101 73.51 61.0901C73.12 60.8701 72.8 60.3301 72.8 59.9101C72.8 59.4901 73.12 59.3301 73.51 59.5501C73.9 59.7701 74.22 60.3101 74.22 60.7301Z" fill="#545454"/>
<path d="M97.83 64.98L89.97 55.8L83.75 58.22L75.39 50.39L68.52 54.33L59.54 30.23L54.0699 48.39L50.67 39.12L46.5699 46.54L41.17 31.52L38.87 33.94L36.58 30.99" stroke="#757575" stroke-width="0.24" stroke-miterlimit="10"/>
<path d="M115.88 48.8101H112.85L111.33 51.44L112.85 54.0701H115.88L117.4 51.44L115.88 48.8101Z" stroke="#333333" stroke-width="0.49" stroke-miterlimit="10"/>
<path d="M112.82 48.82L112.08 47.51" stroke="#333333" stroke-width="0.49" stroke-miterlimit="10"/>
<path d="M116.51 55.3301L115.81 54.1101" stroke="#333333" stroke-width="0.49" stroke-miterlimit="10"/>
<path d="M115.82 48.77L116.54 47.53" stroke="#333333" stroke-width="0.49" stroke-miterlimit="10"/>
<path d="M112.05 55.31L112.79 54.03" stroke="#333333" stroke-width="0.49" stroke-miterlimit="10"/>
<path d="M117.4 51.4199H118.79" stroke="#333333" stroke-width="0.49" stroke-miterlimit="10"/>
<path d="M109.8 51.4199H111.33" stroke="#333333" stroke-width="0.49" stroke-miterlimit="10"/>
<path d="M110.974 68.2737C109.818 68.2737 109.082 67.6687 109.076 66.7583H110.022C110.028 67.2255 110.381 67.519 111.004 67.519C111.519 67.519 111.825 67.3153 111.825 66.9739C111.825 66.5666 111.388 66.4827 110.879 66.4048C110.13 66.297 109.117 66.1652 109.117 65.135C109.117 64.3143 109.794 63.7812 110.885 63.7812C111.987 63.7812 112.694 64.3682 112.694 65.2608H111.777C111.783 64.7995 111.448 64.536 110.908 64.536C110.405 64.536 110.112 64.7456 110.112 65.0631C110.112 65.4764 110.591 65.5483 111.13 65.6261C111.879 65.74 112.819 65.9017 112.819 66.914C112.819 67.7406 112.106 68.2737 110.974 68.2737ZM113.88 64.6677C113.568 64.6677 113.347 64.4521 113.347 64.1466C113.347 63.8471 113.568 63.6255 113.88 63.6255C114.191 63.6255 114.413 63.8471 114.413 64.1466C114.413 64.4521 114.191 64.6677 113.88 64.6677ZM114.323 68.1599H113.436V65.093H114.323V68.1599ZM117.273 68.2737C115.877 68.2737 114.913 67.3812 114.913 66.0275C114.913 64.6797 115.877 63.7812 117.273 63.7812C118.669 63.7812 119.633 64.6797 119.633 66.0275C119.633 67.3812 118.669 68.2737 117.273 68.2737ZM117.273 67.4471C118.076 67.4471 118.639 66.8661 118.639 66.0275C118.639 65.1889 118.076 64.6138 117.273 64.6138C116.47 64.6138 115.907 65.1889 115.907 66.0275C115.907 66.8661 116.47 67.4471 117.273 67.4471ZM121.53 68.1599H119.991V67.8913L120.855 67.1233C121.007 66.9861 121.127 66.8839 121.127 66.7291C121.127 66.5481 120.987 66.4167 120.803 66.4167C120.592 66.4167 120.438 66.5831 120.429 66.8372H119.997C119.985 66.367 120.327 66.0254 120.808 66.0254C121.252 66.0254 121.573 66.3057 121.576 66.6882C121.576 66.9394 121.416 67.1292 121.165 67.3452L120.683 67.7628V67.792H121.53V68.1599Z" fill="#333333"/>
<path d="M73.7701 96.0402L72.1902 95.3902L71.9202 93.1902L73.9902 93.6302L73.7701 96.0402Z" fill="#333333"/>
<path d="M73.9001 95.3902C73.9001 95.3902 74.4701 96.5402 75.1401 96.9602C77.5901 98.5102 77.1401 98.6202 77.2001 98.9202C77.3201 99.4502 75.6501 99.2302 74.9401 98.8902C72.6801 97.8002 72.7001 97.3802 72.7001 97.3802V97.6902C72.7001 97.6902 71.8801 97.3802 71.9201 96.8802C71.9601 96.3802 72.2001 95.2302 72.2001 95.2302C72.2001 95.2302 72.5701 95.6502 73.2201 95.6502C73.8701 95.6502 73.9001 95.3902 73.9001 95.3902Z" fill="#EFF2F9" stroke="#333333" stroke-width="0.25" stroke-miterlimit="10"/>
<path d="M68.64 98.5602L67.05 97.9202L66.79 95.7202L68.86 96.1602L68.64 98.5602Z" fill="#333333"/>
<path d="M72.22 50.98C72.22 50.98 73.99 50.91 74.98 51.83C76.29 53.03 77.3599 61.08 78.5099 62.26C80.0099 63.95 82.0099 66.02 82.0099 66.02L81.02 68.06C79.62 66.71 77.2399 65.21 76.0099 62.9C73.2499 57.7 72.22 50.97 72.22 50.97V50.98Z" fill="#333333"/>
<mask id="mask1_803_28741" style="mask-type:luminance" maskUnits="userSpaceOnUse" x="72" y="50" width="11" height="19">
<path d="M72.22 50.98C72.22 50.98 73.99 50.91 74.98 51.83C76.29 53.03 77.3599 61.08 78.5099 62.26C80.0099 63.95 82.0099 66.02 82.0099 66.02L81.02 68.06C79.62 66.71 77.2399 65.21 76.0099 62.9C73.2499 57.7 72.22 50.97 72.22 50.97V50.98Z" fill="white"/>
</mask>
<g mask="url(#mask1_803_28741)">
<path d="M75.21 56.99C75.4 57.04 78.86 65.98 78.73 66.05C78.6 66.12 70.95 67.53 70.95 67.53L70.8 57.86L75.21 56.99Z" fill="#333333"/>
</g>
<path d="M72.22 50.98C72.22 50.98 73.99 50.91 74.98 51.83C76.29 53.03 77.3599 61.08 78.5099 62.26C80.0099 63.95 82.0099 66.02 82.0099 66.02L81.02 68.06C79.62 66.71 77.2399 65.21 76.0099 62.9C73.2499 57.7 72.22 50.97 72.22 50.97V50.98Z" stroke="#333333" stroke-width="0.25" stroke-miterlimit="10"/>
<path d="M66.1 70.29L66.37 96.54C66.38 97.21 66.93 97.74 67.59 97.74H69.28L71.34 74.21L71.6299 93.95C71.6299 94.68 72.23 95.28 72.96 95.28L74.5099 95.34L75.84 68.48C75.84 68.48 74.51 70.17 72.31 70.53C70.11 70.89 66.09 70.3 66.09 70.3L66.1 70.29Z" fill="#333333"/>
<path d="M75.18 56.85C75.08 58.99 74.93 60.96 74.93 60.96C75.01 65.06 76.15 69.1 76.15 69.1C76.15 69.1 75.62 70.5 71.67 72.04C67.33 73.72 65.8199 70.29 65.8199 70.29L66.09 57.09C66.09 57.09 65.97 56.38 66.49 54.99C67.01 53.6 69.79 51.81 69.79 51.81L70.23 51.75L71.75 50.77" fill="#333333"/>
<path d="M75.18 56.85C75.08 58.99 74.93 60.96 74.93 60.96C75.01 65.06 76.15 69.1 76.15 69.1C76.15 69.1 75.62 70.5 71.67 72.04C67.33 73.72 65.8199 70.29 65.8199 70.29L66.09 57.09C66.09 57.09 65.97 56.38 66.49 54.99C67.01 53.6 69.79 51.81 69.79 51.81L70.23 51.75L71.75 50.77" stroke="#333333" stroke-width="0.25" stroke-miterlimit="10"/>
<path d="M69.65 50.3901C69.65 50.3901 69.84 51.4301 69.65 52.1201C69.46 52.8101 70.67 53.4201 71.76 53.3701C72.85 53.3201 72.78 52.6401 72.82 51.8201C72.86 51.0001 69.65 50.4001 69.65 50.4001V50.3901Z" fill="#757575" stroke="#333333" stroke-width="0.25" stroke-miterlimit="10"/>
<path d="M71.0099 51.88C71.0099 51.88 72.1 52.67 72.75 52.3C73.88 51.66 74.26 49.08 73.78 47.54C73.3 46 69.94 46.48 69.94 46.48L69.5 50.32" fill="#757575"/>
<path d="M71.0099 51.88C71.0099 51.88 72.1 52.67 72.75 52.3C73.88 51.66 74.26 49.08 73.78 47.54C73.3 46 69.94 46.48 69.94 46.48L69.5 50.32" stroke="#333333" stroke-width="0.25" stroke-miterlimit="10"/>
<path d="M69.97 49.0501L70.24 49.8201L70.59 49.9701V48.1401C70.59 48.1401 71.03 48.7901 72.14 48.9701C73.58 49.2001 74.54 48.0901 74.54 48.0901C74.54 48.0901 74.64 46.9101 73.24 46.2401C72.4 45.8401 71.21 45.0401 70.03 45.6401C68.85 46.2401 69.24 46.7701 69.24 46.7701C69.24 46.7701 68.1 47.2401 68.96 49.5301C69.35 50.5801 69.8 50.9901 69.8 50.9901L69.71 49.3901L69.98 49.0601L69.97 49.0501Z" fill="#333333"/>
<path d="M69.2399 72.75C69.2399 72.75 67.8799 73.58 67.2099 73.63C66.5399 73.68 66.3899 73.31 66.3899 73.31L66.9999 76.44L70.2099 75.16L69.2399 72.74V72.75Z" fill="#333333"/>
<path d="M73.9 95.39C73.9 95.39 74.47 96.54 75.14 96.96C77.59 98.51 77.14 98.62 77.2 98.92C77.32 99.45 75.65 99.23 74.94 98.89C72.68 97.8 72.7 97.38 72.7 97.38V97.69C72.7 97.69 71.88 97.38 71.92 96.88C71.96 96.38 72.2 95.23 72.2 95.23C72.2 95.23 72.57 95.65 73.22 95.65C73.87 95.65 73.9 95.39 73.9 95.39Z" fill="#333333"/>
<path d="M68.5001 98.36L67.03 97.7599L66.79 95.72L68.71 96.12L68.5001 98.36Z" fill="#333333"/>
<path d="M68.6199 97.7601C68.6199 97.7601 69.1399 98.8301 69.7699 99.2201C72.0499 100.66 71.62 100.76 71.69 101.04C71.8 101.54 70.2499 101.33 69.5899 101.01C67.4899 100 67.5099 99.6101 67.5099 99.6101V99.9001C67.5099 99.9001 66.7499 99.6101 66.7799 99.1401C66.8099 98.6701 67.0399 97.6101 67.0399 97.6101C67.0399 97.6101 67.3899 98.0001 67.9899 98.0001C68.5899 98.0001 68.6199 97.7601 68.6199 97.7601Z" fill="#333333"/>
<path d="M70.25 49.5602C70.21 49.7602 70.1 50.0602 70.1 50.0602C70.1 50.0602 69.87 50.0002 69.78 49.9402C69.56 49.7902 69.4399 49.3902 69.5099 49.0502C69.5799 48.7102 69.82 48.5602 70.04 48.7202C70.26 48.8802 70.32 49.2302 70.25 49.5602Z" fill="#757575"/>
<path d="M67.79 53.3201C65.51 54.6401 64.37 54.9801 62.65 60.5001C62.44 61.1701 61.57 62.9601 62.6 64.4101C64.29 66.7901 67.1999 68.4801 67.1999 68.4801C67.1999 68.4801 69.7399 66.3901 68.6399 66.3501C67.5399 66.3101 65.3399 63.6501 64.8899 63.0701C64.4399 62.4901 67.3899 58.3001 67.3899 58.3001" fill="#333333"/>
<path d="M67.79 53.3201C65.51 54.6401 64.37 54.9801 62.65 60.5001C62.44 61.1701 61.57 62.9601 62.6 64.4101C64.29 66.7901 67.1999 68.4801 67.1999 68.4801C67.1999 68.4801 69.7399 66.3901 68.6399 66.3501C67.5399 66.3101 65.3399 63.6501 64.8899 63.0701C64.4399 62.4901 67.3899 58.3001 67.3899 58.3001" stroke="#333333" stroke-width="0.25" stroke-miterlimit="10"/>
<path d="M75.26 47.2701C75.26 47.2701 75.1601 45.4001 73.1901 45.4201C71.2201 45.4401 69.82 45.3001 69.95 47.2601C69.95 47.2601 72.52 48.6201 73.66 48.4501C74.8 48.2801 75.26 47.2701 75.26 47.2701Z" fill="#F6F6F6" stroke="#333333" stroke-width="0.25" stroke-miterlimit="10"/>
<path d="M69.95 47.26C69.95 47.26 74.3599 48.51 75.2599 47.26C75.2599 47.26 75.4099 51.51 74.8799 52.3C74.3899 53.02 71.98 53.53 70.62 52.19C69.8 51.37 70.08 49.59 69.95 47.25V47.26Z" fill="#F6F6F6" stroke="#333333" stroke-width="0.25" stroke-miterlimit="10"/>
<path d="M71.1201 48.8801L71.2401 50.3901C73.6001 51.1401 75.2101 50.2801 75.2101 50.2801L75.2601 48.8901C73.8101 49.4601 71.5901 49.1001 71.1101 48.8701L71.1201 48.8801Z" fill="#CBCBCB" stroke="#333333" stroke-width="0.25" stroke-miterlimit="10"/>
<path d="M82.2201 68.9101C81.2801 68.5901 79.4401 67.6701 79.4401 67.6701C79.4201 65.2201 81.4001 63.7601 81.4001 63.7601C81.4001 63.7601 83.2801 63.6701 84.1901 64.0701C85.3001 64.7101 82.7001 64.9801 82.9901 65.1301C83.7501 65.5201 86.7701 65.5001 86.9901 66.3301C87.3601 67.7801 86.5001 70.3701 82.2201 68.9001V68.9101Z" fill="#F2F2F2" stroke="#333333" stroke-width="0.25" stroke-linejoin="round"/>
<path d="M72.94 68.3C70.73 68.58 65.4699 69.4901 65.4699 69.4901C65.4699 69.4901 64.7199 70.4301 65.7099 70.8101C66.6999 71.1901 71.4899 70.04 73.1299 69.92" fill="#F6F6F6"/>
<path d="M72.94 68.3C70.73 68.58 65.4699 69.4901 65.4699 69.4901C65.4699 69.4901 64.7199 70.4301 65.7099 70.8101C66.6999 71.1901 71.4899 70.04 73.1299 69.92" stroke="#333333" stroke-width="0.25" stroke-miterlimit="10"/>
<path d="M64.47 66.37L65.48 68.53C65.48 68.53 65.8799 70.09 67.0199 70.74C68.1599 71.39 69.57 71.4 70.11 70.98C70.32 70.81 69.9899 70.06 69.6999 69.5C69.5399 69.19 69.71 68.81 70.05 68.73L71.0199 68.58C71.0199 68.58 71.0599 67.7 69.5799 67.42C69.5799 67.42 68.54 64.99 67.29 63.97C67.29 63.97 64.17 64.95 64.46 66.38L64.47 66.37Z" fill="#F2F2F2" stroke="#333333" stroke-width="0.25" stroke-linejoin="round"/>
<path d="M73.3205 69.8863C73.5807 69.8358 73.72 69.4256 73.6315 68.9702C73.5431 68.5148 73.2605 68.1866 73.0002 68.2371C72.74 68.2876 72.6008 68.6978 72.6892 69.1532C72.7776 69.6086 73.0603 69.9368 73.3205 69.8863Z" fill="#F6F6F6" stroke="#333333" stroke-width="0.25" stroke-miterlimit="10"/>
<path d="M73.3894 69.5282C73.5195 69.5029 73.5823 69.2627 73.5296 68.9916C73.477 68.7205 73.3288 68.5213 73.1987 68.5465C73.0686 68.5718 73.0058 68.812 73.0585 69.0831C73.1111 69.3542 73.2592 69.5535 73.3894 69.5282Z" fill="#333333"/>
<path d="M73.1899 68.5801L78.4699 67.7301C78.8199 67.6701 79.1599 67.8901 79.2599 68.2301L79.7599 70.0301C79.7999 70.1701 79.7299 70.3201 79.5999 70.3901C79.5399 70.4201 79.4599 70.4501 79.3799 70.4601C79.2299 70.4801 78.9299 70.4601 78.8799 70.3201L78.5499 69.1501C78.5099 69.0001 78.5099 68.7901 78.3599 68.8101L73.3799 69.5601" fill="#333333"/>
<path d="M79.3373 70.4662C79.5452 70.4369 79.6974 70.2979 79.6773 70.1557C79.6572 70.0135 79.4725 69.922 79.2647 69.9513C79.0569 69.9806 78.9047 70.1197 78.9247 70.2619C78.9448 70.404 79.1295 70.4955 79.3373 70.4662Z" fill="#F6F6F6" stroke="#333333" stroke-width="0.25" stroke-miterlimit="10"/>
<path d="M97.12 87.1102L76.69 95.9202L74.46 94.8702L94.65 85.6902L97.12 87.1102Z" fill="#757575" stroke="#545454" stroke-width="0.25" stroke-miterlimit="10"/>
<path d="M82.66 94.2801L62.23 103.08L60 102.04L80.19 92.8501L82.66 94.2801Z" fill="#757575" stroke="#545454" stroke-width="0.25" stroke-miterlimit="10"/>
<path d="M74.7 109.57L76.87 110.82L65.3 85.1101H63.84L74.7 109.57Z" fill="#757575" stroke="#545454" stroke-width="0.25" stroke-miterlimit="10"/>
<path d="M76.8701 110.82L77.36 110.54L66.09 84.9702L65.3 85.1102L76.8701 110.82Z" fill="#F6F6F6" stroke="#333333" stroke-width="0.25" stroke-linejoin="round"/>
<path d="M91.43 99.72L93.6 100.98L82.03 75.27H80.58L91.43 99.72Z" fill="#757575" stroke="#545454" stroke-width="0.25" stroke-miterlimit="10"/>
<path d="M93.6 100.98L94.09 100.7L82.82 75.1301L82.03 75.2701L93.6 100.98Z" fill="#F6F6F6" stroke="#333333" stroke-width="0.25" stroke-linejoin="round"/>
<path d="M61.2599 84.2802L80.2199 73.4202L98.9799 84.4102L79.9399 95.3102L61.2499 84.3602C61.2499 84.3602 61.2199 84.2902 61.2499 84.2702L61.2599 84.2802ZM80.0299 95.1902L98.7699 84.3702L80.1599 73.5502L61.4199 84.3702L80.0299 95.1902Z" fill="#333333" stroke="#545454" stroke-width="0.25" stroke-miterlimit="10"/>
<path d="M61.4099 84.3703L80.0299 95.1903L98.7599 84.3703L80.1499 73.5503L61.4099 84.3703Z" fill="#E2E2E2" stroke="#333333" stroke-width="0.25" stroke-linejoin="round"/>
<path d="M79.95 95.3201L80.02 97.2502L99.05 86.3501L98.99 84.4102L79.95 95.3201Z" fill="#F6F6F6" stroke="#333333" stroke-width="0.25" stroke-linejoin="round"/>
<path d="M61.1899 84.3201L61.2499 86.2901L80.0199 97.2801L79.9499 95.3201L61.1899 84.3201Z" fill="#757575" stroke="#545454" stroke-width="0.25" stroke-miterlimit="10"/>
<path d="M74.1398 80.8502L76.4698 80.2502L84.0499 75.2702C84.3799 75.0502 84.8298 75.0502 85.3198 75.3102C85.8198 75.5702 86.2698 76.0402 86.5898 76.6002C86.9198 77.1602 87.1099 77.8002 87.1099 78.3802C87.1099 78.9702 86.9098 79.4002 86.5798 79.6102L79.0198 84.6202L77.5999 86.1202L75.0599 87.9902L71.8298 82.4802L74.1298 80.8402L74.1398 80.8502Z" fill="#F2F2F2" stroke="#333333" stroke-width="0.25" stroke-miterlimit="10"/>
<path d="M76.3 80.2502C76.65 80.2102 77.04 80.2902 77.47 80.5402C78.05 80.8702 78.57 81.4402 78.94 82.0902C79.32 82.7402 79.55 83.4802 79.55 84.1402C79.55 84.6402 79.4599 85.0802 79.2599 85.3502C79.1899 85.4502 79.11 85.5202 79.02 85.5702L77.6 86.9202L77.29 87.1202C77.69 86.8302 77.8799 86.2502 77.8799 85.4902C77.8799 84.6702 77.5999 83.7602 77.1299 82.9502C76.6699 82.1402 76.02 81.4402 75.3 81.0202C74.83 80.7502 74.37 80.6302 73.99 80.6602L75.95 80.3002C76.06 80.2602 76.17 80.2402 76.29 80.2302L76.3 80.2502Z" fill="#F2F2F2" stroke="#333333" stroke-width="0.25" stroke-miterlimit="10"/>
<path d="M73.8099 80.6601L73.9399 80.5801L74.0599 80.5601C74.1499 80.5301 74.2499 80.5101 74.3499 80.5101C74.7399 80.4801 75.1899 80.6001 75.6699 80.8701C76.3799 81.2801 77.0299 81.9901 77.4999 82.8001C77.9699 83.6101 78.2499 84.5201 78.2499 85.3301C78.2499 86.0801 78.0699 86.6501 77.6699 86.9501L77.5499 87.0301L75.0199 88.6601L71.2899 82.2301L73.8099 80.6601Z" fill="#F2F2F2" stroke="#333333" stroke-width="0.25" stroke-miterlimit="10"/>
<path d="M73.0299 82.4902C71.5699 81.6502 70.3899 82.3202 70.3799 84.0002L73.0299 82.4902ZM70.3799 84.0002C70.3799 85.6802 71.5499 87.7202 73.0099 88.5602C74.4699 89.4002 75.6599 88.7302 75.6599 87.0502C75.6599 85.3702 74.4899 83.3302 73.0299 82.4902" fill="#F2F2F2"/>
<path d="M73.0299 82.4902C71.5699 81.6502 70.3899 82.3202 70.3799 84.0002C70.3799 85.6802 71.5499 87.7202 73.0099 88.5602C74.4699 89.4002 75.6599 88.7302 75.6599 87.0502C75.6599 85.3702 74.4899 83.3302 73.0299 82.4902Z" stroke="#333333" stroke-width="0.25" stroke-miterlimit="10"/>
<path d="M71.1499 84.4502C71.1499 83.8602 71.3599 83.4502 71.6999 83.2602C72.0399 83.0702 72.4999 83.1002 73.0099 83.3902C73.5199 83.6802 73.9899 84.1902 74.3199 84.7702C74.6599 85.3502 74.8599 86.0002 74.8599 86.5902C74.8599 87.1802 74.6499 87.5902 74.3099 87.7902C73.9699 87.9802 73.5099 87.9502 72.9899 87.6602C72.4699 87.3702 72.0099 86.8602 71.6799 86.2802C71.3399 85.7002 71.1399 85.0502 71.1399 84.4602" fill="#C0C0C0"/>
<path d="M71.1499 84.4502C71.1499 83.8602 71.3599 83.4502 71.6999 83.2602C72.0399 83.0702 72.4999 83.1002 73.0099 83.3902C73.5199 83.6802 73.9899 84.1902 74.3199 84.7702C74.6599 85.3502 74.8599 86.0002 74.8599 86.5902C74.8599 87.1802 74.6499 87.5902 74.3099 87.7902C73.9699 87.9802 73.5099 87.9502 72.9899 87.6602C72.4699 87.3702 72.0099 86.8602 71.6799 86.2802C71.3399 85.7002 71.1399 85.0502 71.1399 84.4602" stroke="#333333" stroke-width="0.25" stroke-miterlimit="10"/>
<path d="M77.33 75.5101L79.02 73.5101V77.5501L79.77 73.9701L80.91 76.7401L80.55 73.1401L82.62 75.4301L81 72.2601L84.29 73.6701C84.29 73.6701 79.96 70.3001 79.77 70.4801C79.58 70.6601 79 70.7101 79 70.7101L77.33 75.5301V75.5101Z" fill="#545454" stroke="#333333" stroke-width="0.25" stroke-miterlimit="10"/>
<path d="M81.17 56.5699C81.761 56.5699 82.2401 56.0909 82.2401 55.4999C82.2401 54.909 81.761 54.4299 81.17 54.4299C80.5791 54.4299 80.1001 54.909 80.1001 55.4999C80.1001 56.0909 80.5791 56.5699 81.17 56.5699Z" fill="#545454"/>
<path d="M74.55 54.2001C75.1409 54.2001 75.62 53.721 75.62 53.1301C75.62 52.5391 75.1409 52.0601 74.55 52.0601C73.959 52.0601 73.48 52.5391 73.48 53.1301C73.48 53.721 73.959 54.2001 74.55 54.2001Z" fill="#545454"/>
<path d="M86.11 55.2599C86.701 55.2599 87.1801 54.7808 87.1801 54.1899C87.1801 53.5989 86.701 53.1199 86.11 53.1199C85.5191 53.1199 85.04 53.5989 85.04 54.1899C85.04 54.7808 85.5191 55.2599 86.11 55.2599Z" fill="#545454"/>
<path d="M76.6 62.7001C77.191 62.7001 77.67 62.221 77.67 61.6301C77.67 61.0391 77.191 60.5601 76.6 60.5601C76.0091 60.5601 75.53 61.0391 75.53 61.6301C75.53 62.221 76.0091 62.7001 76.6 62.7001Z" fill="#545454"/>
<path d="M80.11 53.13C80.701 53.13 81.1801 52.6509 81.1801 52.06C81.1801 51.4691 80.701 50.99 80.11 50.99C79.5191 50.99 79.04 51.4691 79.04 52.06C79.04 52.6509 79.5191 53.13 80.11 53.13Z" fill="#545454"/>
<path d="M88.61 60.4501C89.201 60.4501 89.6801 59.971 89.6801 59.3801C89.6801 58.7891 89.201 58.3101 88.61 58.3101C88.0191 58.3101 87.54 58.7891 87.54 59.3801C87.54 59.971 88.0191 60.4501 88.61 60.4501Z" fill="#545454"/>
<path d="M77.3301 57.8599C77.7332 57.8599 78.0601 57.5331 78.0601 57.1299C78.0601 56.7267 77.7332 56.3999 77.3301 56.3999C76.9269 56.3999 76.6001 56.7267 76.6001 57.1299C76.6001 57.5331 76.9269 57.8599 77.3301 57.8599Z" fill="#545454"/>
<path d="M71.97 58.5899C72.3732 58.5899 72.7 58.263 72.7 57.8599C72.7 57.4567 72.3732 57.1299 71.97 57.1299C71.5669 57.1299 71.24 57.4567 71.24 57.8599C71.24 58.263 71.5669 58.5899 71.97 58.5899Z" fill="#545454"/>
<path d="M82.21 69.3101C82.6132 69.3101 82.94 68.9833 82.94 68.5801C82.94 68.1769 82.6132 67.8501 82.21 67.8501C81.8069 67.8501 81.48 68.1769 81.48 68.5801C81.48 68.9833 81.8069 69.3101 82.21 69.3101Z" fill="#545454"/>
<path d="M71.23 64.4099C71.6331 64.4099 71.96 64.0831 71.96 63.6799C71.96 63.2768 71.6331 62.95 71.23 62.95C70.8268 62.95 70.5 63.2768 70.5 63.6799C70.5 64.0831 70.8268 64.4099 71.23 64.4099Z" fill="#545454"/>
<path d="M83.34 59.3299C83.7432 59.3299 84.07 59.003 84.07 58.5999C84.07 58.1967 83.7432 57.8699 83.34 57.8699C82.9369 57.8699 82.61 58.1967 82.61 58.5999C82.61 59.003 82.9369 59.3299 83.34 59.3299Z" fill="#545454"/>
<path d="M81.1699 63.68C81.5731 63.68 81.9 63.3531 81.9 62.95C81.9 62.5468 81.5731 62.22 81.1699 62.22C80.7668 62.22 80.4399 62.5468 80.4399 62.95C80.4399 63.3531 80.7668 63.68 81.1699 63.68Z" fill="#545454"/>
<path d="M86.11 64.4099C86.5132 64.4099 86.84 64.0831 86.84 63.6799C86.84 63.2768 86.5132 62.95 86.11 62.95C85.7068 62.95 85.38 63.2768 85.38 63.6799C85.38 64.0831 85.7068 64.4099 86.11 64.4099Z" fill="#545454"/>
<path d="M70.73 53.4099C71.1331 53.4099 71.46 53.0831 71.46 52.6799C71.46 52.2768 71.1331 51.95 70.73 51.95C70.3268 51.95 70 52.2768 70 52.6799C70 53.0831 70.3268 53.4099 70.73 53.4099Z" fill="#545454"/>
<path d="M76.6 50.44C77.0032 50.44 77.33 50.1131 77.33 49.71C77.33 49.3068 77.0032 48.98 76.6 48.98C76.1969 48.98 75.87 49.3068 75.87 49.71C75.87 50.1131 76.1969 50.44 76.6 50.44Z" fill="#545454"/>
<path d="M74.22 67.8399C74.6232 67.8399 74.95 67.513 74.95 67.1099C74.95 66.7067 74.6232 66.3799 74.22 66.3799C73.8169 66.3799 73.49 66.7067 73.49 67.1099C73.49 67.513 73.8169 67.8399 74.22 67.8399Z" fill="#545454"/>
<path d="M83.6699 51.17C84.0731 51.17 84.4 50.8431 84.4 50.44C84.4 50.0368 84.0731 49.71 83.6699 49.71C83.2668 49.71 82.9399 50.0368 82.9399 50.44C82.9399 50.8431 83.2668 51.17 83.6699 51.17Z" fill="#545454"/>
</svg>
