<svg width="152" height="131" viewBox="0 0 152 131" fill="none" xmlns="http://www.w3.org/2000/svg">
<path d="M67.9299 47.32L133.89 85.4V39.09L67.9299 1V47.32Z" fill="#F6F6F6" stroke="#333333" stroke-width="0.25" stroke-miterlimit="10"/>
<path d="M131.67 55.94L123.86 46.83L117.69 49.24L109.4 41.46L102.57 45.37L93.6599 21.46L88.2399 39.48L84.8599 30.28L80.7899 37.64L75.4299 22.74L73.1499 25.14L70.8799 22.21" stroke="#545454" stroke-width="0.25" stroke-miterlimit="10"/>
<path d="M131.67 68.99L126.14 64.34L119.15 61.76L111.35 54.78L105.01 58.87L101.96 61.18L93.6899 39.38L87.6999 46.19L84.5298 41.78L76.7299 45.69L70.8799 35.54" stroke="#757575" stroke-width="0.25" stroke-miterlimit="10"/>
<path d="M131.37 78.1301L125.55 74.0001L118.86 70.9101L110.55 64.8001L105.79 66.1601L103.56 67.0401L91.8399 51.2201L87.9299 54.4201L84.2399 50.9201L78.14 51.8701L70.9199 44.1001" stroke="#757575" stroke-width="0.25" stroke-miterlimit="10"/>
<path d="M131.67 48.9501L70.8799 13.8501" stroke="#545454" stroke-width="0.25" stroke-miterlimit="10"/>
<path d="M131.67 58.33L70.8799 23.23" stroke="#545454" stroke-width="0.25" stroke-miterlimit="10"/>
<path d="M131.67 67.7101L70.8799 32.6101" stroke="#545454" stroke-width="0.25" stroke-miterlimit="10"/>
<path d="M131.67 77.08L70.8799 41.99" stroke="#545454" stroke-width="0.25" stroke-miterlimit="10"/>
<path d="M139.185 46.45H137.895V40.8465H140.358C141.727 40.8465 142.609 41.5706 142.601 42.7274C142.601 43.8765 141.712 44.6162 140.35 44.6162H139.185V46.45ZM139.185 41.8381V43.6246H140.248C140.893 43.6246 141.294 43.2705 141.294 42.7274C141.294 42.1844 140.885 41.8381 140.248 41.8381H139.185ZM144.664 46.45H143.39V40.8465H145.2L146.671 44.8287H146.75L148.214 40.8465H150.04V46.45H148.765V42.5937H148.686L147.246 46.45H146.183L144.743 42.5937H144.664V46.45Z" fill="#333333"/>
<path d="M147.02 70.1301C147.14 70.0101 147.33 70.0201 147.44 70.1401C148.16 70.9601 148.55 72.0001 148.55 73.1001C148.55 74.2001 148.16 75.2401 147.44 76.0601C147.33 76.1901 147.13 76.1901 147.02 76.0701C146.91 75.9601 146.91 75.7901 147.01 75.6801C147.64 74.9701 147.98 74.0601 147.98 73.1001C147.98 72.1401 147.64 71.2401 147.01 70.5201C146.91 70.4101 146.92 70.2301 147.02 70.1301Z" fill="#333333"/>
<path d="M146.2 75.2501C146.09 75.1401 146.09 74.9701 146.18 74.8601C146.59 74.3701 146.81 73.7501 146.81 73.1101C146.81 72.4701 146.59 71.8501 146.18 71.3601C146.08 71.2401 146.09 71.0701 146.2 70.9701C146.32 70.8501 146.52 70.8601 146.63 70.9901C147.13 71.5901 147.4 72.3301 147.4 73.1201C147.4 73.9101 147.13 74.6501 146.63 75.2501C146.52 75.3801 146.32 75.3901 146.2 75.2701V75.2501Z" fill="#333333"/>
<path d="M147.84 69.31C147.96 69.19 148.15 69.2 148.26 69.32C149.2 70.36 149.71 71.69 149.71 73.1C149.71 74.51 149.2 75.84 148.26 76.88C148.15 77 147.96 77.01 147.84 76.89C147.73 76.78 147.73 76.6 147.84 76.49C148.68 75.56 149.14 74.36 149.14 73.1C149.14 71.84 148.68 70.64 147.84 69.71C147.74 69.59 147.74 69.42 147.84 69.31Z" fill="#333333"/>
<path d="M142.48 70.67H139.92C139.77 70.67 139.65 70.79 139.65 70.94V75.27C139.65 75.42 139.77 75.54 139.92 75.54H142.48L144.75 77.23C144.83 77.29 144.93 77.23 144.93 77.14V69.08C144.93 68.99 144.82 68.93 144.75 68.99L142.48 70.68V70.67Z" fill="#333333"/>
<path d="M148.63 55.1301C148.36 54.4901 147.97 53.9101 147.47 53.4101C146.97 52.9101 146.4 52.5201 145.75 52.2501C145.08 51.9701 144.38 51.8301 143.65 51.8301C142.92 51.8301 142.21 51.9701 141.55 52.2501C140.91 52.5201 140.33 52.9101 139.83 53.4101C139.33 53.9101 138.94 54.4801 138.67 55.1301C138.39 55.8001 138.25 56.5001 138.25 57.2301C138.25 57.9601 138.39 58.6701 138.67 59.3301C138.94 59.9701 139.33 60.5501 139.83 61.0501C140.33 61.5501 140.9 61.9401 141.55 62.2101C142.22 62.4901 142.92 62.6301 143.65 62.6301C144.38 62.6301 145.09 62.4901 145.75 62.2101C146.39 61.9401 146.97 61.5501 147.47 61.0501C147.97 60.5501 148.36 59.9801 148.63 59.3301C148.91 58.6601 149.05 57.9601 149.05 57.2301C149.05 56.5001 148.91 55.7901 148.63 55.1301ZM139.67 58.3101C139.7 57.9901 139.83 57.7401 140.05 57.6101C140.22 57.5101 140.62 57.3901 141.12 57.3301C141.62 57.2801 142.06 57.3101 142.36 57.4201C142.41 57.7501 142.58 58.0301 142.83 58.2301C142.78 58.5501 142.59 58.9501 142.29 59.3501C141.99 59.7601 141.69 60.0401 141.51 60.1401C141.29 60.2701 141.01 60.2601 140.72 60.1201C140.41 59.9701 140.14 59.7001 139.94 59.3601C139.74 59.0101 139.65 58.6401 139.67 58.3001V58.3101ZM145.12 53.9301C145.12 54.1301 145.03 54.5301 144.82 55.0001C144.62 55.4601 144.37 55.8201 144.12 56.0301C143.97 55.9701 143.82 55.9401 143.65 55.9401C143.48 55.9401 143.33 55.9701 143.18 56.0301C142.93 55.8201 142.68 55.4601 142.48 55.0001C142.27 54.5401 142.18 54.1301 142.18 53.9301C142.18 53.6801 142.33 53.4401 142.6 53.2501C142.88 53.0601 143.25 52.9501 143.65 52.9501C144.05 52.9501 144.42 53.0601 144.7 53.2501C144.97 53.4301 145.12 53.6701 145.12 53.9301ZM142.56 57.2401C142.56 56.6401 143.05 56.1501 143.65 56.1501C144.25 56.1501 144.74 56.6401 144.74 57.2401C144.74 57.8401 144.25 58.3301 143.65 58.3301C143.05 58.3301 142.56 57.8401 142.56 57.2401ZM146.57 60.1401C146.28 60.2801 145.99 60.2901 145.78 60.1601C145.61 60.0601 145.3 59.7801 145 59.3701C144.7 58.9601 144.52 58.5701 144.46 58.2501C144.71 58.0501 144.88 57.7701 144.93 57.4401C145.23 57.3301 145.67 57.2901 146.17 57.3501C146.67 57.4001 147.07 57.5301 147.24 57.6301C147.46 57.7601 147.59 58.0001 147.62 58.3301C147.65 58.6701 147.55 59.0501 147.35 59.3901C147.15 59.7401 146.87 60.0101 146.57 60.1501V60.1401Z" fill="#333333"/>
<path d="M67.69 47.0901L1.01001 85.7801L67.54 124.24L134.03 85.7801L67.69 47.0901Z" fill="#FDFDFD" stroke="#333333" stroke-width="0.25" stroke-linejoin="round"/>
<path d="M67.49 130.87L134.03 92.46V85.78L67.49 124.19V130.87Z" fill="#E2E2E2" stroke="#333333" stroke-width="0.25" stroke-linejoin="round"/>
<path d="M67.54 130.87L1 92.46V85.78L67.54 124.19V130.87Z" fill="#545454" stroke="#333333" stroke-width="0.25" stroke-linejoin="round"/>
<path d="M38.8099 35.48C38.8099 35.48 40.6599 35.31 41.5399 36.32C42.4199 37.33 43.4799 44.14 44.6199 45.31C46.3699 47.11 49.6599 48.99 49.6599 48.99L49.4099 50.72C44.5899 48.99 43.5299 48.35 42.1599 47.3C40.7899 46.25 38.8099 35.48 38.8099 35.48Z" fill="#EEEEEE"/>
<mask id="mask0_803_28431" style="mask-type:luminance" maskUnits="userSpaceOnUse" x="38" y="35" width="12" height="16">
<path d="M38.8099 35.48C38.8099 35.48 40.6599 35.31 41.5399 36.32C42.4199 37.33 43.4799 44.14 44.6199 45.31C46.3699 47.11 49.6599 48.99 49.6599 48.99L49.4099 50.72C44.5899 48.99 43.5299 48.35 42.1599 47.3C40.7899 46.25 38.8099 35.48 38.8099 35.48Z" fill="white"/>
</mask>
<g mask="url(#mask0_803_28431)">
<path d="M41.77 41.4199C41.96 41.4699 45.3799 50.3099 45.2499 50.3799C45.1199 50.4499 37.5599 51.8399 37.5599 51.8399L37.4099 42.2799L41.77 41.4199Z" fill="#EEEEEE"/>
</g>
<path d="M38.8099 35.48C38.8099 35.48 40.6599 35.31 41.5399 36.32C42.4199 37.33 43.4799 44.14 44.6199 45.31C46.3699 47.11 49.6599 48.99 49.6599 48.99L49.4099 50.72C44.5899 48.99 43.5299 48.35 42.1599 47.3C40.7899 46.25 38.8099 35.48 38.8099 35.48Z" stroke="#333333" stroke-width="0.25" stroke-miterlimit="10"/>
<path d="M32.75 54.58L33.02 80.54C33.03 81.2 33.57 81.73 34.23 81.73H35.9L37.93 58.45L38.21 77.98C38.21 78.71 38.8 79.3 39.53 79.3L41.07 79.36L42.39 52.79C42.39 52.79 41.07 54.46 38.9 54.81C36.72 55.16 32.75 54.58 32.75 54.58Z" fill="#EEEEEE" stroke="#333333" stroke-width="0.25" stroke-miterlimit="10"/>
<path d="M41.73 41.28C41.63 43.39 41.48 45.35 41.48 45.35C41.56 49.41 42.69 53.4 42.69 53.4C42.69 53.4 42.17 54.79 38.26 56.3C33.97 57.96 32.4699 54.56 32.4699 54.56C32.4699 54.56 32.3099 51.53 32.8399 46.88H32.8499L32.73 41.5C32.73 41.5 32.61 40.8 33.12 39.42C33.63 38.04 36.39 36.27 36.39 36.27L36.82 36.21L38.33 35.24" fill="#EEEEEE"/>
<path d="M41.73 41.28C41.63 43.39 41.48 45.35 41.48 45.35C41.56 49.41 42.69 53.4 42.69 53.4C42.69 53.4 42.17 54.79 38.26 56.3C33.97 57.96 32.4699 54.56 32.4699 54.56C32.4699 54.56 32.3099 51.53 32.8399 46.88H32.8499L32.73 41.5C32.73 41.5 32.61 40.8 33.12 39.42C33.63 38.04 36.39 36.27 36.39 36.27L36.82 36.21L38.33 35.24" stroke="#333333" stroke-width="0.25" stroke-miterlimit="10"/>
<path d="M36.27 34.8899C36.27 34.8899 36.46 35.9099 36.27 36.5999C36.08 37.2899 37.28 37.8899 38.36 37.8299C39.44 37.7699 39.37 37.1099 39.4 36.2899C39.43 35.4699 36.27 34.8899 36.27 34.8899Z" fill="#F6F6F6" stroke="#333333" stroke-width="0.25" stroke-miterlimit="10"/>
<path d="M37.6099 36.36C37.6099 36.36 38.6899 37.14 39.3299 36.78C40.4499 36.15 40.8199 33.59 40.3499 32.07C39.8799 30.55 36.5499 31.02 36.5499 31.02L36.1199 34.82" fill="#F6F6F6"/>
<path d="M37.6099 36.36C37.6099 36.36 38.6899 37.14 39.3299 36.78C40.4499 36.15 40.8199 33.59 40.3499 32.07C39.8799 30.55 36.5499 31.02 36.5499 31.02L36.1199 34.82" stroke="#333333" stroke-width="0.25" stroke-miterlimit="10"/>
<path d="M36.58 33.5698L36.8499 34.3298L37.19 34.4798V32.6698C37.19 32.6698 37.6299 33.3098 38.7199 33.4898C40.1399 33.7198 41.0999 32.6198 41.0999 32.6198C41.0999 32.6198 41.2 31.4498 39.82 30.7898C38.99 30.3898 37.81 29.5998 36.64 30.1998C35.47 30.7998 35.8599 31.3098 35.8599 31.3098C35.8599 31.3098 34.74 31.7798 35.58 34.0398C35.97 35.0798 36.4099 35.4798 36.4099 35.4798L36.32 33.8998L36.5899 33.5698H36.58Z" fill="#333333"/>
<path d="M40.4699 79.41C40.4699 79.41 41.03 80.55 41.69 80.97C44.12 82.5 43.6599 82.61 43.7299 82.91C43.8499 83.44 42.2 83.22 41.5 82.88C39.27 81.81 39.2799 81.38 39.2799 81.38V81.69C39.2799 81.69 38.47 81.38 38.51 80.88C38.55 80.38 38.7799 79.25 38.7799 79.25C38.7799 79.25 39.1499 79.67 39.7899 79.67C40.4299 79.67 40.46 79.41 40.46 79.41H40.4699Z" fill="#333333" stroke="#333333" stroke-width="0.25" stroke-miterlimit="10"/>
<path d="M35.25 81.7499C35.25 81.7499 35.77 82.7999 36.39 83.1999C38.64 84.6199 38.2199 84.7299 38.2899 84.9999C38.3999 85.4899 36.8699 85.2899 36.2199 84.9699C34.1499 83.9699 34.1599 83.5799 34.1599 83.5799V83.8599C34.1599 83.8599 33.41 83.5799 33.44 83.1099C33.47 82.6399 33.7 81.5999 33.7 81.5999C33.7 81.5999 34.04 81.9899 34.64 81.9899C35.24 81.9899 35.26 81.7499 35.26 81.7499H35.25Z" fill="#333333" stroke="#333333" stroke-width="0.25" stroke-miterlimit="10"/>
<path d="M36.8599 34.07C36.8199 34.27 36.7099 34.57 36.7099 34.57C36.7099 34.57 36.4899 34.51 36.3999 34.45C36.1799 34.3 36.0599 33.91 36.1299 33.57C36.1999 33.23 36.4299 33.09 36.6499 33.24C36.8699 33.39 36.9299 33.74 36.8599 34.07Z" fill="#F6F6F6"/>
<path d="M40.9199 28.0099C40.9199 28.0099 42.0299 26.9499 41.3499 26.0899C40.6699 25.2299 39.7599 25.7699 39.7599 25.7699C39.7599 25.7699 39.2899 24.8399 38.0799 24.8099C36.5599 24.7699 36.2899 25.8399 36.2899 25.8399C36.2899 25.8399 35.4499 25.5099 34.9499 26.3999C34.4499 27.2899 35.3799 27.9999 35.3799 27.9999V31.6699C38.3099 32.8899 40.8599 31.4699 40.8599 31.4699L40.9199 27.9999V28.0099Z" fill="#EEEEEE" stroke="#333333" stroke-width="0.25" stroke-miterlimit="10"/>
<path d="M38.1799 43.16C38.3566 43.16 38.4999 42.9495 38.4999 42.69C38.4999 42.4304 38.3566 42.22 38.1799 42.22C38.0031 42.22 37.8599 42.4304 37.8599 42.69C37.8599 42.9495 38.0031 43.16 38.1799 43.16Z" fill="#EEEEEE" stroke="#333333" stroke-width="0.25" stroke-miterlimit="10"/>
<path d="M40.0399 42.5499C40.2222 42.5499 40.3699 42.3394 40.3699 42.0799C40.3699 41.8203 40.2222 41.6099 40.0399 41.6099C39.8577 41.6099 39.71 41.8203 39.71 42.0799C39.71 42.3394 39.8577 42.5499 40.0399 42.5499Z" fill="#EEEEEE" stroke="#333333" stroke-width="0.25" stroke-miterlimit="10"/>
<path d="M38.1799 45.5999C38.3566 45.5999 38.4999 45.3895 38.4999 45.1299C38.4999 44.8703 38.3566 44.6599 38.1799 44.6599C38.0031 44.6599 37.8599 44.8703 37.8599 45.1299C37.8599 45.3895 38.0031 45.5999 38.1799 45.5999Z" fill="#EEEEEE" stroke="#333333" stroke-width="0.25" stroke-miterlimit="10"/>
<path d="M40.0399 44.9898C40.2222 44.9898 40.3699 44.7794 40.3699 44.5198C40.3699 44.2602 40.2222 44.0498 40.0399 44.0498C39.8577 44.0498 39.71 44.2602 39.71 44.5198C39.71 44.7794 39.8577 44.9898 40.0399 44.9898Z" fill="#EEEEEE" stroke="#333333" stroke-width="0.25" stroke-miterlimit="10"/>
<path d="M38.1799 48.18C38.3566 48.18 38.4999 47.9696 38.4999 47.71C38.4999 47.4504 38.3566 47.24 38.1799 47.24C38.0031 47.24 37.8599 47.4504 37.8599 47.71C37.8599 47.9696 38.0031 48.18 38.1799 48.18Z" fill="#EEEEEE" stroke="#333333" stroke-width="0.25" stroke-miterlimit="10"/>
<path d="M40.0399 47.5699C40.2222 47.5699 40.3699 47.3595 40.3699 47.0999C40.3699 46.8403 40.2222 46.6299 40.0399 46.6299C39.8577 46.6299 39.71 46.8403 39.71 47.0999C39.71 47.3595 39.8577 47.5699 40.0399 47.5699Z" fill="#EEEEEE" stroke="#333333" stroke-width="0.25" stroke-miterlimit="10"/>
<path d="M38.63 56.1298C38.63 56.1298 36.7 47.4998 37.07 42.7998" stroke="#333333" stroke-width="0.25" stroke-miterlimit="10"/>
<path d="M44.9099 45.8699C44.9099 45.8699 38.0399 46.6099 34.7999 49.5099L33.2299 49.4099C32.9099 49.3899 32.6699 49.6799 32.7499 49.9899C32.8999 50.5899 33.2799 51.5299 34.2299 52.4299C35.7899 53.8999 38.5099 61.7499 44.0999 64.7299C44.0999 64.7299 43.8799 67.0699 44.7099 67.0999C44.7099 67.0999 45.2898 66.2199 46.0898 65.4299C46.6398 64.8899 53.9499 62.0999 55.5799 62.0699C57.2099 62.0399 57.6599 60.2499 55.7899 59.4299C55.7899 59.4299 52.0599 49.8699 47.7999 47.1799C47.7999 47.1799 47.5899 46.3499 47.0799 45.4799C46.5699 44.6099 45.6699 45.6999 45.6699 45.6999L44.9299 45.8599L44.9099 45.8699Z" fill="#E7E5E6" stroke="#333333" stroke-width="0.25" stroke-miterlimit="10"/>
<path d="M45.32 65.51C43.23 65.31 47.47 62.61 48.45 62.19C49.43 61.77 51.16 60.5 54.55 60.33C56.26 60.24 56.35 61.05 56.35 61.05C56.35 61.05 56.92 61.65 54.54 62.03C52.16 62.41 48.68 63.7 47.85 64.19C47.02 64.68 45.31 65.51 45.31 65.51H45.32Z" fill="#C0C0C0" stroke="#333333" stroke-width="0.25" stroke-miterlimit="10"/>
<path d="M37.34 55.28C36.56 55.2 35.84 54.28 35.84 54.28L35.25 55.37L35.84 55.87C35.84 55.87 36.03 56.44 36.55 56.9C37.06 57.36 37.95 58.2 38.04 57.94C38.07 57.85 37.97 57.67 37.83 57.48C38.19 57.66 38.67 57.96 38.71 57.77C38.75 57.61 38.39 57.25 38.09 56.99C38.48 57.11 39.04 57.39 39.06 57.17C39.09 56.89 37.92 56.21 37.92 56.21C37.92 56.21 37.74 56.02 37.64 55.89C37.92 55.84 38.61 55.59 38.27 55.42C38.01 55.28 37.59 55.29 37.33 55.3L37.34 55.28Z" fill="#F6F6F6" stroke="#333333" stroke-width="0.25" stroke-miterlimit="10"/>
<path d="M34.4299 37.79C32.1699 39.09 31.0899 42.74 30.5299 46.21C29.9099 50.02 35.27 56.18 35.27 56.18L36.5099 53.94C36.5099 53.94 33.15 50.08 33.27 47.66C33.27 45.94 33.9499 44.18 33.9499 44.18" fill="#EEEEEE"/>
<path d="M34.4299 37.79C32.1699 39.09 31.0899 42.74 30.5299 46.21C29.9099 50.02 35.27 56.18 35.27 56.18L36.5099 53.94C36.5099 53.94 33.15 50.08 33.27 47.66C33.27 45.94 33.9499 44.18 33.9499 44.18" stroke="#333333" stroke-width="0.25" stroke-miterlimit="10"/>
<path d="M58.7899 108.26L32.9299 93.1398V90.8398L58.7899 105.69V108.26Z" fill="#E2E2E2" stroke="#545454" stroke-width="0.25" stroke-linejoin="round"/>
<path d="M58.7899 108.26L91.7 89.1701V86.8101L58.7899 105.69V108.26Z" fill="#FDFDFD" stroke="#333333" stroke-width="0.25" stroke-linejoin="round"/>
<path d="M58.7899 105.69L91.7 86.8099L66.1099 72.1599L32.9299 90.8399L58.7899 105.69Z" fill="#EEEEEE" stroke="#333333" stroke-width="0.25" stroke-miterlimit="10"/>
<path d="M77.5899 85.18V59.63L74.7799 58.01V83.57L77.5899 85.18Z" fill="#E2E2E2" stroke="#333333" stroke-width="0.25" stroke-linejoin="round"/>
<path d="M77.5898 59.6299V85.1799L82.6099 82.2799V56.6799" fill="#EEEEEE"/>
<path d="M77.5898 59.6299V85.1799L82.6099 82.2799V56.6799" stroke="#333333" stroke-width="0.25" stroke-miterlimit="10"/>
<path d="M39.5099 76.3101C39.5099 76.3101 38.6699 98.6301 57.9199 98.7301C77.1699 98.8301 78.5199 90.1201 79.3099 76.3101" fill="#EEEEEE"/>
<path d="M39.5099 76.3101C39.5099 76.3101 38.6699 98.6301 57.9199 98.7301C77.1699 98.8301 78.5199 90.1201 79.3099 76.3101" stroke="#333333" stroke-width="0.25" stroke-miterlimit="10"/>
<path d="M59.41 86.8199C70.4004 86.8199 79.31 82.4279 79.31 77.0099C79.31 71.592 70.4004 67.2 59.41 67.2C48.4195 67.2 39.51 71.592 39.51 77.0099C39.51 82.4279 48.4195 86.8199 59.41 86.8199Z" fill="#EEEEEE" stroke="#333333" stroke-width="0.25" stroke-miterlimit="10"/>
<path d="M59.41 85.8299C70.058 85.8299 78.69 81.8811 78.69 77.0099C78.69 72.1388 70.058 68.1899 59.41 68.1899C48.7619 68.1899 40.13 72.1388 40.13 77.0099C40.13 81.8811 48.7619 85.8299 59.41 85.8299Z" fill="#E2E2E2" stroke="#333333" stroke-width="0.25" stroke-linejoin="round"/>
<path d="M50.22 69.3899C50.22 69.3899 45.54 75.8699 47.27 83.7499C47.27 83.7499 39.64 81.2499 40.3 76.3099C40.42 75.4099 41.11 74.3499 41.76 73.6299C44.46 70.6199 50.22 69.3999 50.22 69.3999V69.3899Z" fill="#757575"/>
<path d="M43.1799 81.6199C43.1799 81.6199 46.48 79.0999 48.89 79.1199C51.31 79.1399 49.51 79.2599 51.89 78.7999C54.27 78.3399 52.7499 78.3699 55.5399 78.3199C58.3299 78.2699 56.6 77.4999 58.33 78.2799C60.06 79.0599 58.1199 78.4299 60.8799 78.7999C63.6399 79.1699 64.6699 77.2999 64.6699 77.2999C64.6699 77.2999 65.2199 76.4899 66.7299 77.7099C68.2399 78.9299 69.7299 78.1299 70.5599 78.7999C71.3899 79.4699 72.17 79.8299 72.77 80.3099C73.37 80.7899 74.6199 80.8099 75.0399 81.0099C75.4599 81.2099 75.8599 81.6199 75.8599 81.6199C75.8599 81.6199 69.92 85.9699 60.02 85.8299C50.12 85.6799 46.9699 83.9799 43.3199 81.8699" fill="#E7E5E6"/>
<path d="M43.1799 81.6199C43.1799 81.6199 46.48 79.0999 48.89 79.1199C51.31 79.1399 49.51 79.2599 51.89 78.7999C54.27 78.3399 52.7499 78.3699 55.5399 78.3199C58.3299 78.2699 56.6 77.4999 58.33 78.2799C60.06 79.0599 58.1199 78.4299 60.8799 78.7999C63.6399 79.1699 64.6699 77.2999 64.6699 77.2999C64.6699 77.2999 65.2199 76.4899 66.7299 77.7099C68.2399 78.9299 69.7299 78.1299 70.5599 78.7999C71.3899 79.4699 72.17 79.8299 72.77 80.3099C73.37 80.7899 74.6199 80.8099 75.0399 81.0099C75.4599 81.2099 75.8599 81.6199 75.8599 81.6199C75.8599 81.6199 69.92 85.9699 60.02 85.8299C50.12 85.6799 46.9699 83.9799 43.3199 81.8699" stroke="#333333" stroke-width="0.25" stroke-miterlimit="10"/>
<path d="M59.57 67.5898V73.0598C59.57 73.0598 74.03 74.9298 61.53 76.5098C49.03 78.0898 55.11 79.5098 60.03 79.7898C65.02 80.0698 69.9 81.8698 58.82 83.4698" stroke="#333333" stroke-width="0.25" stroke-miterlimit="10"/>
<path d="M61.5 70.7599C61.5 71.3099 60.6 71.7499 59.5 71.7499C58.4 71.7499 57.63 71.3699 57.63 70.8199V65.1499C57.63 64.5999 58.52 64.1599 59.63 64.1599C60.74 64.1599 61.5 64.4799 61.5 65.0199V70.7499V70.7599Z" fill="#EEEEEE" stroke="#333333" stroke-width="0.25" stroke-miterlimit="10"/>
<path d="M82.64 56.6899V52.1499L57.0999 62.5899L57.0699 67.1699C57.0699 67.1699 57.0999 67.7899 57.9299 68.5299C58.7599 69.2699 60.8199 68.9899 61.7999 68.6399C62.5799 68.3599 72.8199 62.3599 74.9699 60.8399C76.9199 59.4499 77.58 59.2199 77.58 60.2199" fill="#EEEEEE"/>
<path d="M82.64 56.6899V52.1499L57.0999 62.5899L57.0699 67.1699C57.0699 67.1699 57.0999 67.7899 57.9299 68.5299C58.7599 69.2699 60.8199 68.9899 61.7999 68.6399C62.5799 68.3599 72.8199 62.3599 74.9699 60.8399C76.9199 59.4499 77.58 59.2199 77.58 60.2199" stroke="#333333" stroke-width="0.25" stroke-miterlimit="10"/>
<path d="M57.8299 63.5799L57.7899 63.5599C56.8899 63.0499 56.8799 61.7499 57.7799 61.2299L78.2999 49.4299L82.6499 51.9799L62.3299 63.5799C60.9399 64.3799 59.2299 64.3799 57.8399 63.5899L57.8299 63.5799Z" fill="#EEEEEE" stroke="#333333" stroke-width="0.25" stroke-miterlimit="10"/>
<path d="M107.47 85.35C107.27 85.32 107.11 85.28 106.98 85.25C106.7 85.18 106.51 84.94 106.49 84.65L106.42 82.57C106.42 82.57 105.79 82.3 105.45 82.37C105.16 82.43 104.97 82.96 104.86 83.57C104.7 84.41 104.51 86.22 104.51 86.24C104.51 86.27 104.49 86.48 104.48 86.56C104.37 87.53 104.37 87.69 104.37 87.69C104.37 87.69 104.59 87.97 105.18 88.03C105.77 88.09 106.11 87.9 106.11 87.9L106.13 87.54L106.54 87.69C106.54 87.69 106.68 87.69 107.63 87.2C108.58 86.71 109.07 86.17 109.07 86.17C109.07 86.17 109.07 85.54 108.64 85.43C108.21 85.32 108.22 85.47 107.47 85.35Z" fill="#333333" stroke="#333333" stroke-width="0.25" stroke-miterlimit="10"/>
<path d="M112.18 87.9C111.98 87.87 111.82 87.83 111.69 87.8C111.41 87.73 111.22 87.49 111.2 87.2L111.13 85.12C111.13 85.12 110.5 84.85 110.16 84.92C109.87 84.98 109.68 85.51 109.57 86.12C109.41 86.96 109.22 88.77 109.22 88.79C109.22 88.82 109.2 89.03 109.19 89.11C109.08 90.08 109.08 90.24 109.08 90.24C109.08 90.24 109.3 90.52 109.89 90.58C110.48 90.64 110.82 90.45 110.82 90.45L110.84 90.09L111.25 90.24C111.25 90.24 111.39 90.24 112.34 89.75C113.29 89.26 113.78 88.72 113.78 88.72C113.78 88.72 113.78 88.09 113.35 87.98C112.92 87.87 112.93 88.02 112.18 87.9Z" fill="#333333" stroke="#333333" stroke-width="0.25" stroke-miterlimit="10"/>
<path d="M112.64 64.1599L112.04 85.7299C112 86.2899 111.53 86.6699 110.97 86.5899L109.56 86.3799L107.96 68.4499L107.09 83.3899C107.06 84.0099 106.54 84.4299 105.93 84.3399L104.63 84.1899L104.57 62.1399C104.57 62.1399 105.62 62.9899 107.44 63.5699C109.26 64.1499 112.64 64.1599 112.64 64.1599Z" fill="#757575"/>
<mask id="mask1_803_28431" style="mask-type:luminance" maskUnits="userSpaceOnUse" x="104" y="62" width="9" height="25">
<path d="M112.64 64.1599L112.04 85.7299C112 86.2899 111.53 86.6699 110.97 86.5899L109.56 86.3799L107.96 68.4499L107.09 83.3899C107.06 84.0099 106.54 84.4299 105.93 84.3399L104.63 84.1899L104.57 62.1399C104.57 62.1399 105.62 62.9899 107.44 63.5699C109.26 64.1499 112.64 64.1599 112.64 64.1599Z" fill="white"/>
</mask>
<g mask="url(#mask1_803_28431)">
<path opacity="0.4" d="M97.8201 61.8998C97.6201 62.0698 101.44 69.0798 101.68 69.0198C101.8 68.9898 113.67 64.8698 113.67 64.8698L105.13 56.2998L97.8201 61.8998Z" fill="#333333"/>
</g>
<path d="M112.64 64.1599L112.04 85.7299C112 86.2899 111.53 86.6699 110.97 86.5899L109.56 86.3799L107.96 68.4499L107.09 83.3899C107.06 84.0099 106.54 84.4299 105.93 84.3399L104.63 84.1899L104.57 62.1399C104.57 62.1399 105.62 62.9899 107.44 63.5699C109.26 64.1499 112.64 64.1599 112.64 64.1599Z" stroke="#333333" stroke-width="0.25" stroke-linejoin="round"/>
<path d="M112.88 51.44C112.65 50.65 111.81 50.17 110.98 49.69C110.14 49.1 109.32 48.67 109.32 48.67L108.22 48.5C107.3 48.86 104.92 51.29 104.08 52.96C103.24 54.63 102.48 58.39 103.07 58.6C103.66 58.81 104.08 58.96 104.81 58.99M104.93 57.19C104.93 57.19 104.87 57.97 104.73 60.64C104.6 63.25 103.26 64.31 107.3 65C111.34 65.68 113.76 63.73 113.76 63.73C113.76 63.73 112.7 60.12 112.48 57.17L112.87 51.45" fill="#EEEEEE"/>
<path d="M112.88 51.44C112.65 50.65 111.81 50.17 110.98 49.69C110.14 49.1 109.32 48.67 109.32 48.67L108.22 48.5C107.3 48.86 104.92 51.29 104.08 52.96C103.24 54.63 102.48 58.39 103.07 58.6C103.66 58.81 104.08 58.96 104.81 58.99M104.93 57.19C104.93 57.19 104.87 57.97 104.73 60.64C104.6 63.25 103.26 64.31 107.3 65C111.34 65.68 113.76 63.73 113.76 63.73C113.76 63.73 112.7 60.12 112.48 57.17L112.87 51.45" stroke="#333333" stroke-width="0.25" stroke-miterlimit="10"/>
<path d="M104.93 57.19L105.2 54.74" stroke="#333333" stroke-width="0.25" stroke-miterlimit="10"/>
<path d="M106.25 48.3899C104.75 50.0799 105.64 52.5199 107.44 52.6199C108.86 52.6999 111.62 50.1199 111.62 50.1199C111.62 50.1199 111.43 48.6499 109.62 48.5899C107.81 48.5299 106.52 48.8199 106.25 48.3899Z" fill="#EEEEEE" stroke="#333333" stroke-width="0.25" stroke-miterlimit="10"/>
<path d="M105.79 47.21C104.45 50.52 107.09 52.35 110.04 49.85C110.82 49.19 111.46 48.84 111.52 47.83C111.54 47.5 111.05 46.79 110.97 46.05C110.91 44.47 109.81 42.64 107.95 43.27C105.86 43.97 106.02 45.32 105.78 47.21H105.79Z" fill="#EEEEEE" stroke="#333333" stroke-width="0.25" stroke-miterlimit="10"/>
<path d="M112.03 64.47L114.34 65.96L116.04 58.7L113.73 57.22L112.03 64.47Z" fill="#333333"/>
<path d="M112.24 64.7499L114.59 65.9999L116.46 57.9299L114.1 56.6799L112.24 64.7499Z" fill="#757575" stroke="#545454" stroke-width="0.25" stroke-miterlimit="10"/>
<path d="M114.67 61.3701C114.14 61.8301 113.57 61.5901 113.57 61.5901L113.27 62.8401H113.71C113.71 62.8401 113.75 63.4501 114.14 63.4701C114.53 63.4901 114.98 63.3501 115.15 63.2301C115.32 63.1101 115.36 62.8501 115.36 62.8501C115.36 62.8501 115.65 62.6101 115.67 62.4201C115.68 62.2701 115.62 62.1501 115.62 62.1501C115.62 62.1501 115.77 61.9301 115.78 61.7801C115.79 61.6301 115.86 61.4001 115.53 61.6401C115.2 61.8801 115.03 61.5501 115.05 61.4301C115.24 61.2001 115.56 60.7501 115.32 60.8401C115.13 60.9101 114.85 61.1901 114.67 61.3801V61.3701Z" fill="#CBCBCB" stroke="#333333" stroke-width="0.25" stroke-miterlimit="10"/>
<path d="M112.81 51.25L112.88 51.44C112.88 51.44 112.88 55.03 112.88 57.46C112.88 59.89 114.25 61.29 114.25 61.29L113.72 62.92C113.72 62.92 110.59 62.91 110.77 58.26V55.28" fill="#EEEEEE"/>
<path d="M112.81 51.25L112.88 51.44C112.88 51.44 112.88 55.03 112.88 57.46C112.88 59.89 114.25 61.29 114.25 61.29L113.72 62.92C113.72 62.92 110.59 62.91 110.77 58.26V55.28" stroke="#333333" stroke-width="0.25" stroke-miterlimit="10"/>
<path d="M111.19 44.4299C112.39 44.6899 112.71 45.1999 112.23 45.8599C111.47 46.9099 109.94 47.8799 108.9 48.2199C107.86 48.5599 106.65 48.8499 105.43 48.3499C104.55 47.9899 104.48 46.5299 104.83 46.2699C104.83 46.2699 104.66 44.7099 105.58 43.9499C106.5 43.1899 107.23 42.5299 108.66 42.6299C110.28 42.7399 110.35 42.9299 110.66 43.1799C111.65 44.0099 110.76 44.4999 111.62 45.3799" fill="#CBCBCB"/>
<path d="M111.19 44.4299C112.39 44.6899 112.71 45.1999 112.23 45.8599C111.47 46.9099 109.94 47.8799 108.9 48.2199C107.86 48.5599 106.65 48.8499 105.43 48.3499C104.55 47.9899 104.48 46.5299 104.83 46.2699C104.83 46.2699 104.66 44.7099 105.58 43.9499C106.5 43.1899 107.23 42.5299 108.66 42.6299C110.28 42.7399 110.35 42.9299 110.66 43.1799C111.65 44.0099 110.76 44.4999 111.62 45.3799" stroke="#333333" stroke-width="0.25" stroke-miterlimit="10"/>
<path d="M108.13 42.64C108.13 42.64 110.34 42.54 109.17 43.34C108 44.14 107.35 44.25 106.78 45.29C106.21 46.33 106.1 46.29 105.61 46.17C105.08 46.04 105.08 45.15 105.61 44.33C106.14 43.51 106.8 42.87 108.12 42.64H108.13Z" fill="#CBCBCB" stroke="#333333" stroke-width="0.25" stroke-miterlimit="10"/>
<path d="M104.83 46.0799C104.83 46.0799 105.7 47.4499 107.95 46.5199C110.2 45.5899 109.71 45.5999 109.97 45.9599C110.23 46.3199 110.12 46.8199 109.79 46.9999C109.46 47.1799 108.01 47.9399 106.9 48.0799C106.05 48.1899 104.73 47.7299 104.62 47.3599C104.51 46.9899 104.29 46.1799 104.81 46.0699L104.83 46.0799Z" fill="#CBCBCB" stroke="#333333" stroke-width="0.25" stroke-miterlimit="10"/>
<path d="M58.65 47.6401C59.1416 47.6401 59.54 47.2416 59.54 46.7501C59.54 46.2586 59.1416 45.8601 58.65 45.8601C58.1585 45.8601 57.76 46.2586 57.76 46.7501C57.76 47.2416 58.1585 47.6401 58.65 47.6401Z" fill="#545454"/>
<path d="M53.12 45.6601C53.6115 45.6601 54.01 45.2617 54.01 44.7701C54.01 44.2786 53.6115 43.8801 53.12 43.8801C52.6285 43.8801 52.23 44.2786 52.23 44.7701C52.23 45.2617 52.6285 45.6601 53.12 45.6601Z" fill="#545454"/>
<path d="M62.7599 46.55C63.2514 46.55 63.6499 46.1516 63.6499 45.66C63.6499 45.1685 63.2514 44.77 62.7599 44.77C62.2684 44.77 61.8699 45.1685 61.8699 45.66C61.8699 46.1516 62.2684 46.55 62.7599 46.55Z" fill="#545454"/>
<path d="M54.83 52.75C55.3215 52.75 55.7199 52.3515 55.7199 51.86C55.7199 51.3684 55.3215 50.97 54.83 50.97C54.3384 50.97 53.9399 51.3684 53.9399 51.86C53.9399 52.3515 54.3384 52.75 54.83 52.75Z" fill="#545454"/>
<path d="M57.7599 44.77C58.2514 44.77 58.6499 44.3715 58.6499 43.88C58.6499 43.3885 58.2514 42.99 57.7599 42.99C57.2684 42.99 56.8699 43.3885 56.8699 43.88C56.8699 44.3715 57.2684 44.77 57.7599 44.77Z" fill="#545454"/>
<path d="M64.8399 50.8801C65.3314 50.8801 65.7299 50.4816 65.7299 49.9901C65.7299 49.4986 65.3314 49.1001 64.8399 49.1001C64.3484 49.1001 63.95 49.4986 63.95 49.9901C63.95 50.4816 64.3484 50.8801 64.8399 50.8801Z" fill="#545454"/>
<path d="M55.4399 48.72C55.7768 48.72 56.0499 48.4469 56.0499 48.11C56.0499 47.7731 55.7768 47.5 55.4399 47.5C55.103 47.5 54.83 47.7731 54.83 48.11C54.83 48.4469 55.103 48.72 55.4399 48.72Z" fill="#545454"/>
<path d="M50.9698 49.3301C51.3067 49.3301 51.5799 49.057 51.5799 48.7201C51.5799 48.3832 51.3067 48.1101 50.9698 48.1101C50.633 48.1101 50.3599 48.3832 50.3599 48.7201C50.3599 49.057 50.633 49.3301 50.9698 49.3301Z" fill="#545454"/>
<path d="M59.5099 58.26C59.8468 58.26 60.1199 57.9869 60.1199 57.65C60.1199 57.3131 59.8468 57.04 59.5099 57.04C59.173 57.04 58.8999 57.3131 58.8999 57.65C58.8999 57.9869 59.173 58.26 59.5099 58.26Z" fill="#545454"/>
<path d="M50.36 54.18C50.6969 54.18 50.97 53.9069 50.97 53.57C50.97 53.2331 50.6969 52.96 50.36 52.96C50.0231 52.96 49.75 53.2331 49.75 53.57C49.75 53.9069 50.0231 54.18 50.36 54.18Z" fill="#545454"/>
<path d="M60.4499 49.94C60.7868 49.94 61.0599 49.6669 61.0599 49.33C61.0599 48.9931 60.7868 48.72 60.4499 48.72C60.113 48.72 59.8398 48.9931 59.8398 49.33C59.8398 49.6669 60.113 49.94 60.4499 49.94Z" fill="#545454"/>
<path d="M58.65 53.5701C58.9869 53.5701 59.2599 53.297 59.2599 52.9601C59.2599 52.6232 58.9869 52.3501 58.65 52.3501C58.3131 52.3501 58.0399 52.6232 58.0399 52.9601C58.0399 53.297 58.3131 53.5701 58.65 53.5701Z" fill="#545454"/>
<path d="M62.7599 54.18C63.0968 54.18 63.3699 53.9069 63.3699 53.57C63.3699 53.2331 63.0968 52.96 62.7599 52.96C62.423 52.96 62.1499 53.2331 62.1499 53.57C62.1499 53.9069 62.423 54.18 62.7599 54.18Z" fill="#545454"/>
<path d="M49.9399 45.01C50.2768 45.01 50.5499 44.7369 50.5499 44.4C50.5499 44.0631 50.2768 43.79 49.9399 43.79C49.603 43.79 49.33 44.0631 49.33 44.4C49.33 44.7369 49.603 45.01 49.9399 45.01Z" fill="#545454"/>
<path d="M54.83 42.5301C55.1669 42.5301 55.44 42.2569 55.44 41.9201C55.44 41.5832 55.1669 41.3101 54.83 41.3101C54.4931 41.3101 54.22 41.5832 54.22 41.9201C54.22 42.2569 54.4931 42.5301 54.83 42.5301Z" fill="#545454"/>
<path d="M52.85 57.0401C53.1869 57.0401 53.46 56.767 53.46 56.4301C53.46 56.0932 53.1869 55.8201 52.85 55.8201C52.5131 55.8201 52.24 56.0932 52.24 56.4301C52.24 56.767 52.5131 57.0401 52.85 57.0401Z" fill="#545454"/>
<path d="M60.7299 43.1402C61.0668 43.1402 61.3398 42.8671 61.3398 42.5302C61.3398 42.1933 61.0668 41.9202 60.7299 41.9202C60.393 41.9202 60.1199 42.1933 60.1199 42.5302C60.1199 42.8671 60.393 43.1402 60.7299 43.1402Z" fill="#545454"/>
<path d="M45.4199 75.04C45.9115 75.04 46.3099 74.6415 46.3099 74.15C46.3099 73.6585 45.9115 73.26 45.4199 73.26C44.9284 73.26 44.5299 73.6585 44.5299 74.15C44.5299 74.6415 44.9284 75.04 45.4199 75.04Z" fill="#545454"/>
<path d="M56.87 78.9799C57.3615 78.9799 57.76 78.5815 57.76 78.09C57.76 77.5984 57.3615 77.2 56.87 77.2C56.3785 77.2 55.98 77.5984 55.98 78.09C55.98 78.5815 56.3785 78.9799 56.87 78.9799Z" fill="#545454"/>
<path d="M64.86 68.81C65.3515 68.81 65.75 68.4116 65.75 67.92C65.75 67.4285 65.3515 67.03 64.86 67.03C64.3685 67.03 63.97 67.4285 63.97 67.92C63.97 68.4116 64.3685 68.81 64.86 68.81Z" fill="#545454"/>
<path d="M44.3199 63.8401C44.6568 63.8401 44.9299 63.567 44.9299 63.2301C44.9299 62.8932 44.6568 62.6201 44.3199 62.6201C43.9831 62.6201 43.71 62.8932 43.71 63.2301C43.71 63.567 43.9831 63.8401 44.3199 63.8401Z" fill="#545454"/>
<path d="M63.37 84.0201C63.7069 84.0201 63.98 83.7469 63.98 83.41C63.98 83.0732 63.7069 82.8 63.37 82.8C63.0331 82.8 62.76 83.0732 62.76 83.41C62.76 83.7469 63.0331 84.0201 63.37 84.0201Z" fill="#545454"/>
<path d="M54.83 70.5901C55.1669 70.5901 55.44 70.317 55.44 69.9801C55.44 69.6432 55.1669 69.3701 54.83 69.3701C54.4931 69.3701 54.22 69.6432 54.22 69.9801C54.22 70.317 54.4931 70.5901 54.83 70.5901Z" fill="#545454"/>
<path d="M50.9698 85.5601C51.3067 85.5601 51.5799 85.287 51.5799 84.9501C51.5799 84.6132 51.3067 84.3401 50.9698 84.3401C50.633 84.3401 50.3599 84.6132 50.3599 84.9501C50.3599 85.287 50.633 85.5601 50.9698 85.5601Z" fill="#545454"/>
</svg>
