<svg width="142" height="116" viewBox="0 0 142 116" fill="none" xmlns="http://www.w3.org/2000/svg">
<path d="M127.16 76.22L137.25 70.38L141.82 67.74V74.81L71.4399 115.44V108.45L86.83 99.55L96.9099 93.72L107 87.88L117.08 82.05L127.16 76.22Z" fill="#CBCBCB"/>
<path d="M141.82 67.7401L137.25 70.3801L131 66.7701L135.6 64.1101L141.82 67.7401Z" fill="#AFAFAF"/>
<path d="M137.25 70.3801L127.16 76.2201L127.15 76.2101L132.08 73.3601L137.25 70.3801Z" fill="#CBCBCB"/>
<path d="M137.25 70.38L132.08 73.36L132.06 73.33L125.85 69.74L131 66.77L137.25 70.38Z" fill="#AFAFAF"/>
<path d="M135.6 64.1101L131 66.7701L125.41 63.5501L130.05 60.8701L135.6 64.1101Z" fill="#AFAFAF"/>
<path d="M132.06 73.33L132.08 73.36L127.15 76.21L120.9 72.6L125.85 69.74L132.06 73.33Z" fill="#AFAFAF"/>
<path d="M131 66.7701L125.85 69.7401L120.26 66.5201L125.41 63.55L131 66.7701Z" fill="#AFAFAF"/>
<path d="M130.05 60.87L125.41 63.55L119.19 59.96L123.86 57.26L130.05 60.87Z" fill="#AFAFAF"/>
<path d="M127.15 76.21L127.16 76.22L117.08 82.05L117.05 82.0399L121.99 79.19L127.15 76.21Z" fill="#CBCBCB"/>
<path d="M127.15 76.2101L121.99 79.1901L121.97 79.1601L115.75 75.5701L120.9 72.6001L127.15 76.2101Z" fill="#AFAFAF"/>
<path d="M125.85 69.74L120.9 72.6L115.32 69.38L120.26 66.52L125.85 69.74Z" fill="#AFAFAF"/>
<path d="M119.19 59.96L125.41 63.55L120.26 66.52L114.04 62.93L119.19 59.96Z" fill="#AFAFAF"/>
<path d="M123.86 57.26L119.19 59.96L113.61 56.74L118.31 54.03L123.86 57.26Z" fill="#AFAFAF"/>
<path d="M121.97 79.1601L121.99 79.1901L117.05 82.04L110.8 78.4301L115.75 75.5701L121.97 79.1601Z" fill="#AFAFAF"/>
<path d="M120.9 72.6001L115.75 75.5701L110.17 72.3501L115.32 69.3801L120.9 72.6001Z" fill="#AFAFAF"/>
<path d="M120.26 66.5199L115.32 69.3799L109.1 65.7799L114.04 62.9299L120.26 66.5199Z" fill="#AFAFAF"/>
<path d="M113.61 56.74L119.19 59.96L114.04 62.93L108.46 59.71L113.61 56.74Z" fill="#AFAFAF"/>
<path d="M112.12 50.4199L118.31 54.0299L113.61 56.7399L107.39 53.1499L112.12 50.4199Z" fill="#AFAFAF"/>
<path d="M117.08 82.05L107 87.8801L106.97 87.86L111.89 85.0201L117.05 82.04L117.08 82.05Z" fill="#CBCBCB"/>
<path d="M110.8 78.4299L117.05 82.0399L111.89 85.0199L111.87 84.9899L105.65 81.3999L110.8 78.4299Z" fill="#AFAFAF"/>
<path d="M115.75 75.5701L110.8 78.4301L105.22 75.2001L110.17 72.3501L115.75 75.5701Z" fill="#AFAFAF"/>
<path d="M115.32 69.38L110.17 72.35L103.95 68.76L109.1 65.78L115.32 69.38Z" fill="#AFAFAF"/>
<path d="M108.46 59.71L114.04 62.93L109.1 65.78L103.52 62.56L108.46 59.71Z" fill="#AFAFAF"/>
<path d="M107.39 53.1499L113.61 56.7399L108.46 59.7099L102.24 56.1199L107.39 53.1499Z" fill="#AFAFAF"/>
<path d="M106.57 47.1799L112.12 50.4199L107.39 53.1499L101.81 49.9299L106.57 47.1799Z" fill="#AFAFAF"/>
<path d="M111.87 84.9899L111.89 85.0199L106.97 87.8599L100.72 84.2499L105.65 81.3999L111.87 84.9899Z" fill="#F6F6F6"/>
<path d="M105.22 75.2L110.8 78.43L105.65 81.4L100.07 78.18L105.22 75.2Z" fill="#AFAFAF"/>
<path d="M103.95 68.76L110.17 72.35L105.22 75.2L99 71.61L103.95 68.76Z" fill="#AFAFAF"/>
<path d="M109.1 65.7801L103.95 68.76L98.37 65.5301L103.52 62.5601L109.1 65.7801Z" fill="#AFAFAF"/>
<path d="M102.24 56.1201L108.46 59.7101L103.52 62.5601L97.3 58.9701L102.24 56.1201Z" fill="#AFAFAF"/>
<path d="M101.81 49.9299L107.39 53.1499L102.24 56.1199L96.67 52.8999L101.81 49.9299Z" fill="#AFAFAF"/>
<path d="M106.97 87.8601L107 87.8801L96.91 93.7201L96.87 93.6901L101.8 90.8401L106.97 87.8601Z" fill="#CBCBCB"/>
<path d="M106.97 87.86L101.8 90.84L101.78 90.81L95.5701 87.22L100.72 84.25L106.97 87.86Z" fill="#F6F6F6"/>
<path d="M106.57 47.1801L101.81 49.9301L95.6 46.3401L100.39 43.5701L106.57 47.1801Z" fill="#AFAFAF"/>
<path d="M105.65 81.3999L100.72 84.2499L95.13 81.0299L100.07 78.1799L105.65 81.3999Z" fill="#F6F6F6"/>
<path d="M105.22 75.2001L100.07 78.1801L93.85 74.5901L99 71.6101L105.22 75.2001Z" fill="#AFAFAF"/>
<path d="M98.37 65.53L103.95 68.76L99 71.61L93.42 68.39L98.37 65.53Z" fill="#AFAFAF"/>
<path d="M103.52 62.56L98.37 65.53L92.15 61.94L97.3 58.97L103.52 62.56Z" fill="#AFAFAF"/>
<path d="M96.67 52.8999L102.24 56.1199L97.3 58.9699L91.72 55.7499L96.67 52.8999Z" fill="#AFAFAF"/>
<path d="M95.5999 46.3401L101.81 49.9301L96.67 52.9001L90.45 49.3101L95.5999 46.3401Z" fill="#AFAFAF"/>
<path d="M101.78 90.81L101.8 90.84L96.87 93.69L90.62 90.08L95.57 87.22L101.78 90.81Z" fill="#F6F6F6"/>
<path d="M100.72 84.25L95.57 87.22L89.98 84L95.13 81.03L100.72 84.25Z" fill="#F6F6F6"/>
<path d="M100.39 43.5701L95.6 46.3401L90.02 43.1201L94.84 40.3401L100.39 43.5701Z" fill="#AFAFAF"/>
<path d="M93.85 74.5901L100.07 78.1801L95.13 81.0301L88.91 77.4401L93.85 74.5901Z" fill="#F6F6F6"/>
<path d="M99 71.6101L93.85 74.5901L88.27 71.3701L93.42 68.3901L99 71.6101Z" fill="#AFAFAF"/>
<path d="M98.3699 65.5299L93.42 68.3899L87.21 64.7999L92.1499 61.9399L98.3699 65.5299Z" fill="#AFAFAF"/>
<path d="M97.3001 58.97L92.1501 61.94L86.5801 58.72L91.7201 55.75L97.3001 58.97Z" fill="#AFAFAF"/>
<path d="M96.87 93.6899L96.91 93.7199L86.83 99.5499L86.77 99.5199L91.71 96.6699L96.87 93.6899Z" fill="#CBCBCB"/>
<path d="M96.87 93.6901L91.71 96.6701L91.69 96.6401L85.47 93.0501L90.62 90.0801L96.87 93.6901Z" fill="#F6F6F6"/>
<path d="M96.67 52.9001L91.72 55.7501L85.51 52.1601L90.45 49.3101L96.67 52.9001Z" fill="#AFAFAF"/>
<path d="M95.6 46.3401L90.45 49.3101L84.87 46.0901L90.02 43.1201L95.6 46.3401Z" fill="#AFAFAF"/>
<path d="M95.57 87.22L90.62 90.08L85.04 86.86L89.98 84L95.57 87.22Z" fill="#F6F6F6"/>
<path d="M88.91 77.4399L95.13 81.0299L89.98 83.9999L83.76 80.4099L88.91 77.4399Z" fill="#F6F6F6"/>
<path d="M88.65 36.73L94.84 40.34L90.0201 43.12L83.8 39.53L88.65 36.73Z" fill="#AFAFAF"/>
<path d="M88.27 71.3701L93.85 74.5901L88.91 77.4401L83.34 74.2201L88.27 71.3701Z" fill="#AFAFAF"/>
<path d="M93.42 68.39L88.2701 71.3701L82.05 67.7701L87.2101 64.8L93.42 68.39Z" fill="#AFAFAF"/>
<path d="M92.15 61.94L87.21 64.8L81.63 61.58L86.58 58.72L92.15 61.94Z" fill="#F6F6F6"/>
<path d="M91.72 55.7502L86.58 58.7202L80.36 55.1302L85.51 52.1602L91.72 55.7502Z" fill="#AFAFAF"/>
<path d="M91.69 96.64L91.71 96.67L86.77 99.5201L80.52 95.9101L85.47 93.05L91.69 96.64Z" fill="#F6F6F6"/>
<path d="M90.62 90.0801L85.47 93.0501L79.89 89.8301L85.04 86.8601L90.62 90.0801Z" fill="#F6F6F6"/>
<path d="M90.45 49.3101L85.5099 52.1601L79.9299 48.9401L84.8699 46.0901L90.45 49.3101Z" fill="#AFAFAF"/>
<path d="M90.0201 43.12L84.87 46.09L78.65 42.5L83.8 39.53L90.0201 43.12Z" fill="#AFAFAF"/>
<path d="M89.9801 84.0002L85.0401 86.8601L78.8201 83.2701L83.7601 80.4102L89.9801 84.0002Z" fill="#F6F6F6"/>
<path d="M83.3399 74.22L88.9099 77.44L83.7599 80.41L78.1899 77.19L83.3399 74.22Z" fill="#F6F6F6"/>
<path d="M83.1 33.49L88.65 36.73L83.8 39.53L78.22 36.31L83.1 33.49Z" fill="#F6F6F6"/>
<path d="M82.05 67.77L88.27 71.37L83.34 74.22L77.12 70.63L82.05 67.77Z" fill="#AFAFAF"/>
<path d="M87.21 64.8001L82.05 67.7701L76.48 64.5501L81.63 61.5801L87.21 64.8001Z" fill="#AFAFAF"/>
<path d="M86.83 99.55L71.44 108.45V108.4L71.41 108.38L76.55 105.42L81.61 102.5L86.7701 99.52L86.83 99.55Z" fill="#CBCBCB"/>
<path d="M80.52 95.9102L86.77 99.5201L81.61 102.5L81.59 102.47L75.37 98.8802L80.52 95.9102Z" fill="#F6F6F6"/>
<path d="M86.58 58.7201L81.63 61.5801L75.41 57.9901L80.36 55.1301L86.58 58.7201Z" fill="#AFAFAF"/>
<path d="M85.51 52.1599L80.36 55.1299L74.78 51.9099L79.93 48.9399L85.51 52.1599Z" fill="#AFAFAF"/>
<path d="M85.4699 93.0501L80.52 95.9101L74.9399 92.6801L79.89 89.8301L85.4699 93.0501Z" fill="#F6F6F6"/>
<path d="M85.04 86.86L79.89 89.83L73.67 86.24L78.82 83.27L85.04 86.86Z" fill="#F6F6F6"/>
<path d="M84.8699 46.09L79.9299 48.94L73.71 45.35L78.6499 42.5L84.8699 46.09Z" fill="#AFAFAF"/>
<path d="M83.8001 39.5301L78.6501 42.5001L73.0701 39.2801L78.2201 36.3101L83.8001 39.5301Z" fill="#F6F6F6"/>
<path d="M78.19 77.1899L83.76 80.4099L78.82 83.2699L73.24 80.0499L78.19 77.1899Z" fill="#F6F6F6"/>
<path d="M83.34 74.2201L78.19 77.1901L71.97 73.6001L77.12 70.6301L83.34 74.2201Z" fill="#E2E2E2"/>
<path d="M83.17 33.45L83.1 33.49L77.15 30.02L77.18 30L83.17 33.45Z" fill="#E2E2E2"/>
<path d="M83.1 33.49L78.22 36.31L72.26 32.87L77.15 30.02L83.1 33.49Z" fill="#E2E2E2"/>
<path d="M82.05 67.7701L77.12 70.6301L71.54 67.4101L76.48 64.55L82.05 67.7701Z" fill="#AFAFAF"/>
<path d="M81.63 61.58L76.48 64.55L70.26 60.97L75.41 57.99L81.63 61.58Z" fill="#E2E2E2"/>
<path d="M81.5901 102.47L81.6101 102.5L76.5501 105.42L76.5301 105.38L70.3201 101.79L75.3701 98.8801L81.5901 102.47Z" fill="#F6F6F6"/>
<path d="M74.94 92.6799L80.5201 95.9099L75.37 98.8799L69.79 95.6599L74.94 92.6799Z" fill="#F6F6F6"/>
<path d="M80.3601 55.1302L75.4101 57.9901L69.8301 54.7701L74.7801 51.9102L80.3601 55.1302Z" fill="#AFAFAF"/>
<path d="M79.9301 48.9401L74.7801 51.9101L68.5601 48.3201L73.7101 45.3501L79.9301 48.9401Z" fill="#AFAFAF"/>
<path d="M79.89 89.83L74.94 92.68L68.72 89.09L73.67 86.24L79.89 89.83Z" fill="#AFAFAF"/>
<path d="M78.82 83.2701L73.67 86.2401L68.09 83.0201L73.24 80.05L78.82 83.2701Z" fill="#F6F6F6"/>
<path d="M73.07 39.28L78.65 42.5L73.71 45.35L68.13 42.13L73.07 39.28Z" fill="#F6F6F6"/>
<path d="M72.26 32.8701L78.22 36.3101L73.07 39.2801L67.13 35.8501L72.26 32.8701Z" fill="#E2E2E2"/>
<path d="M78.19 77.1901L73.24 80.0501L67.02 76.4601L71.97 73.6001L78.19 77.1901Z" fill="#F6F6F6"/>
<path d="M71.6 26.78L77.18 30L77.15 30.02L71.6 26.78Z" fill="#E2E2E2"/>
<path d="M71.5999 26.78L77.1499 30.02L72.2599 32.87L66.6799 29.65L71.5999 26.78Z" fill="#E2E2E2"/>
<path d="M71.54 67.4102L77.12 70.6302L71.97 73.6002L66.39 70.3802L71.54 67.4102Z" fill="#E2E2E2"/>
<path d="M76.53 105.38L76.55 105.42L71.41 108.38L65.25 104.83L65.34 104.67L70.32 101.79L76.53 105.38Z" fill="#F6F6F6"/>
<path d="M76.4801 64.55L71.5401 67.41L65.3201 63.82L70.2601 60.97L76.4801 64.55Z" fill="#E2E2E2"/>
<path d="M75.4099 57.99L70.2599 60.97L64.6799 57.74L69.83 54.77L75.4099 57.99Z" fill="#F6F6F6"/>
<path d="M75.37 98.8802L70.32 101.79L64.74 98.5702L69.79 95.6602L75.37 98.8802Z" fill="#F6F6F6"/>
<path d="M74.9401 92.6801L69.7901 95.6601L63.5701 92.0701L68.7201 89.0901L74.9401 92.6801Z" fill="#E2E2E2"/>
<path d="M74.78 51.9101L69.83 54.7701L63.61 51.1801L68.56 48.3201L74.78 51.9101Z" fill="#F6F6F6"/>
<path d="M73.71 45.3501L68.56 48.3201L62.99 45.1001L68.13 42.1301L73.71 45.3501Z" fill="#F6F6F6"/>
<path d="M68.09 83.02L73.67 86.24L68.72 89.09L63.15 85.87L68.09 83.02Z" fill="#F6F6F6"/>
<path d="M73.24 80.05L68.09 83.02L61.87 79.43L67.02 76.46L73.24 80.05Z" fill="#F6F6F6"/>
<path d="M67.1299 35.8501L73.0699 39.2801L68.1299 42.1301L62.21 38.7101L67.1299 35.8501Z" fill="#E2E2E2"/>
<path d="M66.6801 29.6499L72.2601 32.8699L67.1301 35.8499L61.5601 32.6299L66.6801 29.6499Z" fill="#E2E2E2"/>
<path d="M71.9699 73.6001L67.02 76.4601L61.4399 73.2401L66.39 70.3801L71.9699 73.6001Z" fill="#F6F6F6"/>
<path d="M71.6 26.78L66.68 29.65L66.67 29.64L71.6 26.78Z" fill="#F6F6F6"/>
<path d="M65.32 63.8201L71.54 67.4101L66.39 70.3801L60.17 66.79L65.32 63.8201Z" fill="#E2E2E2"/>
<path d="M71.44 115.44V115.47L71.41 115.45L71.44 115.44Z" fill="#545454"/>
<path d="M71.44 108.45V115.44L71.41 115.45L71.38 115.44V108.42L71.44 108.45Z" fill="#CBCBCB"/>
<path d="M71.44 108.4V108.45L71.38 108.42V108.4L71.41 108.38L71.44 108.4Z" fill="#CBCBCB"/>
<path d="M71.41 108.38L71.3801 108.4V108.42L18.0601 77.5901L24.25 81.1601L29.86 84.4001L36.05 87.9701L41.6501 91.2001L47.8501 94.7801L53.4501 98.0201L59.6501 101.59L65.25 104.83L71.41 108.38Z" fill="#545454"/>
<path d="M71.41 115.45L71.38 115.47V115.44L71.41 115.45Z" fill="#CBCBCB"/>
<path d="M71.38 108.42V115.44L1 74.81V67.74H1.01001L8.3 71.95L18.06 77.59L71.38 108.42Z" fill="#545454"/>
<path d="M70.32 101.79L65.34 104.67L65.25 104.83L59.65 101.59L59.71 101.48L64.74 98.5701L70.32 101.79Z" fill="#F6F6F6"/>
<path d="M64.68 57.74L70.26 60.97L65.32 63.82L59.74 60.6L64.68 57.74Z" fill="#F6F6F6"/>
<path d="M69.83 54.7699L64.6799 57.7399L58.46 54.1499L63.61 51.1799L69.83 54.7699Z" fill="#F6F6F6"/>
<path d="M63.57 92.0701L69.79 95.6601L64.74 98.5701L58.52 94.98L63.57 92.0701Z" fill="#F6F6F6"/>
<path d="M68.72 89.0901L63.57 92.0701L58 88.8501L63.15 85.8701L68.72 89.0901Z" fill="#F6F6F6"/>
<path d="M68.56 48.3201L63.61 51.1801L58.04 47.9601L62.9901 45.1001L68.56 48.3201Z" fill="#E2E2E2"/>
<path d="M68.13 42.13L62.99 45.1L57.09 41.7L62.21 38.71L68.13 42.13Z" fill="#E2E2E2"/>
<path d="M61.87 79.4299L68.09 83.0199L63.15 85.8699L56.9301 82.2799L61.87 79.4299Z" fill="#AFAFAF"/>
<path d="M61.56 32.6301L67.13 35.8501L62.21 38.7101L56.64 35.4901L61.56 32.6301Z" fill="#E2E2E2"/>
<path d="M61.44 73.24L67.0201 76.46L61.87 79.43L56.29 76.21L61.44 73.24Z" fill="#E2E2E2"/>
<path d="M66.67 29.6401L66.68 29.6501L61.56 32.6302L61.54 32.6201L66.67 29.6401Z" fill="#F6F6F6"/>
<path d="M66.39 70.3801L61.44 73.2401L55.22 69.6501L60.17 66.79L66.39 70.3801Z" fill="#F6F6F6"/>
<path d="M59.74 60.6001L65.32 63.8201L60.17 66.7901L54.59 63.5701L59.74 60.6001Z" fill="#F6F6F6"/>
<path d="M64.74 98.57L59.7099 101.48L59.6499 101.59L53.45 98.02L53.5399 97.86L58.5199 94.98L64.74 98.57Z" fill="#F6F6F6"/>
<path d="M64.68 57.7399L59.74 60.5999L53.52 56.9999L58.46 54.1499L64.68 57.7399Z" fill="#AFAFAF"/>
<path d="M58.04 47.96L63.61 51.18L58.46 54.15L52.89 50.93L58.04 47.96Z" fill="#AFAFAF"/>
<path d="M57.9999 88.8501L63.5699 92.0701L58.5199 94.9801L52.95 91.7601L57.9999 88.8501Z" fill="#F6F6F6"/>
<path d="M63.15 85.87L58 88.85L51.78 85.26L56.93 82.28L63.15 85.87Z" fill="#AFAFAF"/>
<path d="M62.9901 45.1L58.04 47.96L52.16 44.57L57.09 41.7L62.9901 45.1Z" fill="#E2E2E2"/>
<path d="M62.21 38.71L57.09 41.7L51.51 38.48L56.64 35.49L62.21 38.71Z" fill="#E2E2E2"/>
<path d="M56.29 76.21L61.87 79.43L56.93 82.28L51.35 79.06L56.29 76.21Z" fill="#F6F6F6"/>
<path d="M61.56 32.6301L56.64 35.4901L56.61 35.4801L61.54 32.6201L61.56 32.6301Z" fill="#F6F6F6"/>
<path d="M55.22 69.6499L61.44 73.2399L56.29 76.2099L50.08 72.6199L55.22 69.6499Z" fill="#AFAFAF"/>
<path d="M60.17 66.79L55.22 69.6501L49.64 66.4301L54.59 63.5701L60.17 66.79Z" fill="#AFAFAF"/>
<path d="M53.52 57L59.74 60.6L54.59 63.57L48.37 59.98L53.52 57Z" fill="#E2E2E2"/>
<path d="M58.52 94.98L53.54 97.86L53.45 98.02L47.85 94.78L47.91 94.67L52.95 91.76L58.52 94.98Z" fill="#F6F6F6"/>
<path d="M58.4599 54.1499L53.5199 56.9999L47.9399 53.7799L52.89 50.9299L58.4599 54.1499Z" fill="#AFAFAF"/>
<path d="M58.04 47.9601L52.89 50.9301L47.04 47.55L52.16 44.5701L58.04 47.9601Z" fill="#E2E2E2"/>
<path d="M58 88.85L52.95 91.76L46.73 88.17L51.78 85.26L58 88.85Z" fill="#E2E2E2"/>
<path d="M51.51 38.48L57.09 41.7L52.16 44.57L46.59 41.35L51.51 38.48Z" fill="#E2E2E2"/>
<path d="M56.9299 82.2801L51.78 85.26L46.2 82.0301L51.3499 79.0601L56.9299 82.2801Z" fill="#AFAFAF"/>
<path d="M56.64 35.49L51.51 38.48L51.48 38.46L56.61 35.48L56.64 35.49Z" fill="#F6F6F6"/>
<path d="M50.08 72.6201L56.29 76.2101L51.35 79.0601L45.14 75.4701L50.08 72.6201Z" fill="#F6F6F6"/>
<path d="M49.64 66.4299L55.22 69.6499L50.08 72.6199L44.5 69.3999L49.64 66.4299Z" fill="#AFAFAF"/>
<path d="M54.59 63.57L49.64 66.43L43.42 62.83L47.62 60.41L48.37 59.98L54.59 63.57Z" fill="#E2E2E2"/>
<path d="M53.52 57L48.37 59.98L42.79 56.76L47.94 53.78L53.52 57Z" fill="#E2E2E2"/>
<path d="M52.95 91.7599L47.91 94.6699L47.85 94.7799L41.65 91.1999L41.74 91.0499L46.73 88.1699L52.95 91.7599Z" fill="#F6F6F6"/>
<path d="M52.89 50.9301L47.94 53.7801L42.11 50.42L47.04 47.55L52.89 50.9301Z" fill="#E2E2E2"/>
<path d="M46.59 41.3501L52.16 44.5701L47.04 47.5501L41.46 44.3301L46.59 41.3501Z" fill="#E2E2E2"/>
<path d="M46.2 82.03L51.78 85.26L46.73 88.17L41.15 84.95L46.2 82.03Z" fill="#F6F6F6"/>
<path d="M51.48 38.46L51.51 38.4799L46.59 41.35L46.54 41.32L51.48 38.46Z" fill="#F6F6F6"/>
<path d="M51.35 79.06L46.2 82.03L39.98 78.45L45.14 75.47L51.35 79.06Z" fill="#F6F6F6"/>
<path d="M50.08 72.6199L45.1401 75.4699L39.55 72.2499L44.5 69.3999L50.08 72.6199Z" fill="#E2E2E2"/>
<path d="M43.42 62.8301L49.64 66.4301L44.5 69.4001L38.28 65.8101L43.42 62.8301Z" fill="#AFAFAF"/>
<path d="M42.79 56.76L48.37 59.98L47.62 60.41L43.42 62.83L37.84 59.61L41.99 57.22L42.79 56.76Z" fill="#AFAFAF"/>
<path d="M42.1101 50.42L47.9401 53.78L42.7901 56.7599L32.3201 50.71L34.0801 48.63L36.5401 47.2L42.1101 50.42Z" fill="#AFAFAF"/>
<path d="M47.04 47.5501L42.11 50.4201L36.54 47.2001L41.46 44.3301L47.04 47.5501Z" fill="#E2E2E2"/>
<path d="M46.7301 88.17L41.7401 91.05L41.6501 91.2L36.05 87.97L36.11 87.86L41.1501 84.95L46.7301 88.17Z" fill="#AFAFAF"/>
<path d="M46.59 41.3501L41.46 44.33L41.4 44.3L46.54 41.3201L46.59 41.3501Z" fill="#F6F6F6"/>
<path d="M46.2001 82.03L41.1501 84.95L34.9301 81.36L39.9801 78.45L46.2001 82.03Z" fill="#AFAFAF"/>
<path d="M45.14 75.47L39.98 78.45L34.4 75.22L39.55 72.25L45.14 75.47Z" fill="#F6F6F6"/>
<path d="M44.5 69.4001L39.55 72.2501L33.34 68.6601L38.28 65.8101L44.5 69.4001Z" fill="#AFAFAF"/>
<path d="M43.42 62.8301L38.28 65.8101L32.7 62.5901L37.84 59.6101L43.42 62.8301Z" fill="#F6F6F6"/>
<path d="M32.32 50.71L42.79 56.7599L41.99 57.22L37.84 59.61L29.09 54.56L32.32 50.71Z" fill="#E2E2E2"/>
<path d="M41.46 44.33L36.54 47.2L36.47 47.1601L41.4 44.3L41.46 44.33Z" fill="#F6F6F6"/>
<path d="M41.15 84.9501L36.11 87.8601L36.05 87.9701L29.86 84.4001L29.95 84.2401L34.93 81.3601L41.15 84.9501Z" fill="#AFAFAF"/>
<path d="M34.4 75.22L39.98 78.45L34.93 81.36L29.35 78.14L34.4 75.22Z" fill="#F6F6F6"/>
<path d="M39.5499 72.2502L34.3999 75.2202L28.1899 71.6302L33.34 68.6602L39.5499 72.2502Z" fill="#AFAFAF"/>
<path d="M32.7 62.5901L38.28 65.8101L33.34 68.6601L27.76 65.4401L32.7 62.5901Z" fill="#F6F6F6"/>
<path d="M37.84 59.61L32.7 62.5901L25.72 58.5601L29.09 54.5601L37.84 59.61Z" fill="#E2E2E2"/>
<path d="M36.54 47.2001L34.08 48.6302L32.32 50.7101L31.34 50.1401L36.47 47.1602L36.54 47.2001Z" fill="#F6F6F6"/>
<path d="M34.93 81.3601L29.95 84.2401L29.86 84.4001L24.25 81.1602L24.31 81.0501L29.35 78.1401L34.93 81.3601Z" fill="#F6F6F6"/>
<path d="M34.4 75.2201L29.35 78.1401L23.14 74.5501L28.19 71.6301L34.4 75.2201Z" fill="#AFAFAF"/>
<path d="M33.34 68.6599L28.19 71.6299L22.61 68.4099L27.76 65.4399L33.34 68.6599Z" fill="#F6F6F6"/>
<path d="M25.72 58.5601L32.7 62.5901L27.76 65.4401L22.49 62.4001L25.72 58.5601Z" fill="#E2E2E2"/>
<path d="M32.32 50.7101L29.09 54.5602L26.4 53.0101L31.34 50.1401L32.32 50.7101Z" fill="#F6F6F6"/>
<path d="M23.1401 74.55L29.3501 78.14L24.3101 81.05L24.25 81.1601L18.0601 77.5901L18.1501 77.4301L23.1401 74.55Z" fill="#AFAFAF"/>
<path d="M29.09 54.56L25.72 58.56L21.27 55.99L26.4 53.01L29.09 54.56Z" fill="#F6F6F6"/>
<path d="M28.19 71.6302L23.1401 74.5501L17.5601 71.3301L22.61 68.4102L28.19 71.6302Z" fill="#F6F6F6"/>
<path d="M27.76 65.4399L22.61 68.4099L19.12 66.3999L22.49 62.3999L27.76 65.4399Z" fill="#E2E2E2"/>
<path d="M21.27 55.99L25.72 58.56L22.49 62.4L16.34 58.85L21.27 55.99Z" fill="#F6F6F6"/>
<path d="M23.14 74.5501L18.15 77.4301L18.06 77.5901L12.46 74.3501L12.52 74.2401L17.56 71.3301L23.14 74.5501Z" fill="#AFAFAF"/>
<path d="M22.6101 68.4099L17.5601 71.3299L15.8201 70.3199L19.1201 66.3999L22.6101 68.4099Z" fill="#E2E2E2"/>
<path d="M16.34 58.8501L22.4899 62.4001L19.1199 66.4001L11.2 61.8301L16.34 58.8501Z" fill="#F6F6F6"/>
<path d="M19.12 66.4001L15.82 70.3201L6.16003 64.7501L11.2 61.8301L19.12 66.4001Z" fill="#F6F6F6"/>
<path d="M12.4601 74.35L18.0601 77.59L8.30005 71.95L12.4601 74.35Z" fill="#545454"/>
<path d="M17.56 71.33L12.52 74.2401L15.82 70.3201L17.56 71.33Z" fill="#E2E2E2"/>
<path d="M15.82 70.32L12.52 74.24L12.46 74.35L8.3 71.95L1.01001 67.74L6.16 64.75L15.82 70.32Z" fill="#AFAFAF"/>
<path d="M141.82 67.74L135.6 64.11L130.05 60.87L123.86 57.26L118.31 54.03L112.12 50.42L106.57 47.18L100.39 43.57L94.84 40.34L88.65 36.73L83.1 33.49" stroke="#333333" stroke-width="0.25" stroke-linejoin="round"/>
<path d="M71.6 26.78L66.67 29.64L61.54 32.62L56.61 35.48L51.48 38.46L46.54 41.32L41.4 44.3L36.47 47.16L31.34 50.14L26.4 53.01L21.27 55.99L16.34 58.85L11.2 61.83L6.16 64.75L1.01001 67.74" stroke="#333333" stroke-width="0.25" stroke-linejoin="round"/>
<path d="M71.38 115.44L1 74.81V67.74H1.01001L8.3 71.95L12.46 74.35L18.06 77.59L24.25 81.16L29.86 84.4L36.05 87.97L41.65 91.2L47.85 94.78L53.45 98.02L59.65 101.59L65.25 104.83L71.41 108.38" stroke="#333333" stroke-width="0.25" stroke-linejoin="round"/>
<path d="M71.44 115.44V115.47L71.41 115.45" stroke="#333333" stroke-width="0.25" stroke-linejoin="round"/>
<path d="M71.38 115.44V115.47L71.41 115.45L71.44 115.44L141.82 74.81V67.74L137.25 70.38L132.08 73.36L127.15 76.21L121.99 79.19L117.05 82.04L111.89 85.02L106.97 87.86L101.8 90.84L96.87 93.69L91.71 96.67L86.77 99.52L81.61 102.5L76.55 105.42L71.41 108.38L71.38 108.4V108.42V115.44Z" stroke="#333333" stroke-width="0.25" stroke-linejoin="round"/>
<path d="M12.52 74.24L17.56 71.33L22.61 68.41L27.76 65.44L32.7 62.59L37.84 59.61L41.99 57.22L42.79 56.76L47.94 53.78L52.89 50.93L58.04 47.96L62.99 45.1L68.13 42.13L73.07 39.28L78.22 36.31L83.1 33.49L83.17 33.45L77.18 30L71.6 26.78L66.68 29.65L61.56 32.63L56.64 35.49L51.51 38.48L46.59 41.35L41.46 44.33L36.54 47.2L34.08 48.63" stroke="#333333" stroke-width="0.25" stroke-miterlimit="10"/>
<path d="M94.97 40.26L94.84 40.34L90.0201 43.12L84.87 46.09L79.93 48.94L74.78 51.91L69.8301 54.77L64.68 57.74L59.7401 60.6L54.5901 63.57L49.6401 66.43L44.5 69.4L39.55 72.25L34.4001 75.22L29.3501 78.14L24.3101 81.05" stroke="#333333" stroke-width="0.25" stroke-linejoin="round"/>
<path d="M106.76 47.0701L106.57 47.1801L101.81 49.9301L96.67 52.9001L91.72 55.7501L86.58 58.7201L81.63 61.58L76.48 64.55L71.54 67.4101L66.39 70.3801L61.44 73.2401L56.29 76.2101L51.35 79.0601L46.2 82.0301L41.15 84.95L36.11 87.86" stroke="#333333" stroke-width="0.25" stroke-linejoin="round"/>
<path d="M118.56 53.8801L118.31 54.0301L113.61 56.7401L108.46 59.7101L103.52 62.5601L98.37 65.5301L93.42 68.3901L88.2701 71.3701L83.34 74.2201L78.19 77.1901L73.2401 80.0501L68.09 83.0201L63.15 85.8701L58 88.8501L52.95 91.7601L47.91 94.6701" stroke="#333333" stroke-width="0.25" stroke-linejoin="round"/>
<path d="M59.71 101.48L64.74 98.5699L69.79 95.6599L74.94 92.6799L79.89 89.8299L85.04 86.8599L89.98 83.9999L95.13 81.0299L100.07 78.1799L105.22 75.1999L110.17 72.3499L115.32 69.3799L120.26 66.5199L125.41 63.5499L130.05 60.8699L130.36 60.6899" stroke="#333333" stroke-width="0.25" stroke-linejoin="round"/>
<path d="M61.28 32.47L61.54 32.62L61.56 32.63L67.13 35.85L73.07 39.28L78.65 42.5L84.87 46.09L90.45 49.31L96.67 52.9L102.24 56.12L108.46 59.71L114.04 62.93L120.26 66.52L125.85 69.74L132.06 73.33" stroke="#333333" stroke-width="0.25" stroke-linejoin="round"/>
<path d="M121.97 79.1601L115.75 75.5701L110.17 72.3501L103.95 68.76L98.3699 65.5301L92.1499 61.9401L86.58 58.7201L80.36 55.1301L74.7799 51.9101L68.5599 48.3201L62.99 45.1001L57.09 41.7L51.5099 38.48L51.4799 38.4601L51.1899 38.29" stroke="#333333" stroke-width="0.25" stroke-linejoin="round"/>
<path d="M111.87 84.9901L105.65 81.4001L100.07 78.1801L93.85 74.5901L88.27 71.3701L82.05 67.7701L76.48 64.5501L70.26 60.9701L64.6799 57.7401L58.46 54.1501L52.89 50.9301L47.04 47.5501L41.46 44.3301L41.4 44.3001L41.09 44.1201" stroke="#333333" stroke-width="0.25" stroke-linejoin="round"/>
<path d="M101.78 90.81L95.57 87.22L89.98 84L83.76 80.41L78.19 77.19L71.97 73.6L66.39 70.38L60.17 66.7899L54.59 63.57L48.37 59.9799L42.79 56.7599L32.32 50.71L31.34 50.14L31 49.95" stroke="#333333" stroke-width="0.25" stroke-linejoin="round"/>
<path d="M91.69 96.64L85.47 93.05L79.89 89.83L73.67 86.24L68.09 83.02L61.87 79.43L56.29 76.21L50.08 72.62L44.5 69.4L38.28 65.81L32.7 62.59L25.72 58.56L21.27 55.99L20.91 55.78" stroke="#333333" stroke-width="0.25" stroke-linejoin="round"/>
<path d="M81.59 102.47L75.37 98.8801L69.7901 95.6601L63.5701 92.0701L58 88.8501L51.7801 85.2601L46.2001 82.0301L39.9801 78.4501L34.4001 75.2201L28.19 71.6301L22.61 68.4101L19.1201 66.4001L11.2001 61.8301L10.8101 61.6001" stroke="#333333" stroke-width="0.25" stroke-linejoin="round"/>
<path d="M18.15 77.43L23.14 74.55L28.19 71.63L33.34 68.66L38.28 65.81L43.42 62.83L47.62 60.41L48.37 59.9799L53.52 57L58.46 54.15L63.61 51.18L68.56 48.32L73.71 45.35L78.65 42.5L83.8 39.53L88.65 36.7299L88.8 36.64L77.23 29.97L77.18 30L77.15 30.02L72.26 32.87L67.13 35.85L62.21 38.71L57.09 41.7L52.16 44.57L47.04 47.55L42.11 50.42L39.71 51.82" stroke="#333333" stroke-width="0.25" stroke-linejoin="round"/>
<path d="M100.6 43.45L100.39 43.57L95.5999 46.34L90.45 49.31L85.5099 52.16L80.36 55.13L75.4099 57.99L70.2599 60.97L65.3199 63.82L60.17 66.7899L55.2199 69.65L50.0799 72.62L45.14 75.47L39.9799 78.45L34.9299 81.36L29.95 84.24" stroke="#333333" stroke-width="0.25" stroke-linejoin="round"/>
<path d="M112.39 50.26L112.12 50.42L107.39 53.15L102.24 56.12L97.3 58.97L92.15 61.94L87.21 64.8L82.05 67.77L77.12 70.63L71.97 73.6L67.02 76.46L61.87 79.43L56.93 82.28L51.78 85.26L46.73 88.17L41.74 91.05" stroke="#333333" stroke-width="0.25" stroke-linejoin="round"/>
<path d="M124.19 57.0701L123.86 57.26L119.19 59.9601L114.04 62.9301L109.1 65.7801L103.95 68.76L99 71.61L93.85 74.5901L88.91 77.4401L83.76 80.4101L78.82 83.2701L73.67 86.2401L68.72 89.0901L63.57 92.0701L58.52 94.98L53.54 97.86" stroke="#333333" stroke-width="0.25" stroke-linejoin="round"/>
<path d="M65.34 104.67L70.32 101.79L75.37 98.8802L80.52 95.9102L85.47 93.0501L90.62 90.0801L95.57 87.2202L100.72 84.2502L105.65 81.4001L110.8 78.4301L115.75 75.5702L120.9 72.6002L125.85 69.7401L131 66.7701L135.6 64.1101L135.99 63.8901" stroke="#333333" stroke-width="0.25" stroke-linejoin="round"/>
<path d="M66.53 29.5601L66.67 29.64L66.68 29.6501L72.26 32.8701L78.22 36.3101L83.8 39.5301L90.0201 43.1201L95.6 46.3401L101.81 49.9301L107.39 53.1501L113.61 56.7401L119.19 59.9601L125.41 63.55L131 66.7701L137.25 70.3801L137.32 70.42" stroke="#333333" stroke-width="0.25" stroke-linejoin="round"/>
<path d="M127.22 76.2501L127.16 76.2201L127.15 76.2101L120.9 72.6001L115.32 69.3801L109.1 65.7801L103.52 62.5601L97.3 58.9701L91.7199 55.7501L85.5099 52.1601L79.9299 48.9401L73.71 45.3501L68.1299 42.1301L62.21 38.7101L56.64 35.4901L56.6099 35.4801L56.4399 35.3801" stroke="#333333" stroke-width="0.25" stroke-linejoin="round"/>
<path d="M117.13 82.08L117.08 82.05L117.05 82.0399L110.8 78.43L105.22 75.2L99 71.61L93.42 68.39L87.21 64.8L81.63 61.58L75.41 57.99L69.83 54.77L63.61 51.18L58.04 47.96L52.16 44.57L46.59 41.35L46.54 41.32L46.35 41.21" stroke="#333333" stroke-width="0.25" stroke-linejoin="round"/>
<path d="M107.04 87.9001L107 87.8801L106.97 87.86L100.72 84.2501L95.13 81.0301L88.91 77.4401L83.34 74.2201L77.12 70.6301L71.54 67.4101L65.32 63.8201L59.74 60.6001L53.52 57.0001L47.94 53.7801L42.11 50.42L36.54 47.2L36.47 47.1601L36.26 47.04" stroke="#333333" stroke-width="0.25" stroke-linejoin="round"/>
<path d="M96.94 93.7301L96.91 93.7201L96.87 93.6901L90.62 90.0801L85.04 86.8601L78.82 83.2701L73.2401 80.0501L67.0201 76.4601L61.44 73.2401L55.22 69.6501L49.64 66.4301L43.42 62.8301L37.84 59.6101L29.09 54.5601L26.4 53.0101L26.16 52.8701" stroke="#333333" stroke-width="0.25" stroke-linejoin="round"/>
<path d="M86.8501 99.5599L86.8301 99.5499L86.7701 99.5199L80.5201 95.9099L74.9401 92.6799L68.7201 89.0899L63.1501 85.8699L56.9301 82.2799L51.3501 79.0599L45.1401 75.4699L39.5501 72.2499L33.3401 68.6599L27.7601 65.4399L22.4901 62.3999L16.3401 58.8499L16.0701 58.6899" stroke="#333333" stroke-width="0.25" stroke-linejoin="round"/>
<path d="M76.53 105.38L70.32 101.79L64.74 98.57L58.52 94.98L52.95 91.76L46.73 88.17L41.15 84.95L34.93 81.36L29.35 78.14L23.14 74.55L17.56 71.33L15.82 70.32L6.16 64.75L5.75 64.51" stroke="#333333" stroke-width="0.25" stroke-linejoin="round"/>
<path fill-rule="evenodd" clip-rule="evenodd" d="M21.6899 39.3501L29.1599 54.8801L42.53 49.8201L26.4099 40.2901L21.6899 39.3501Z" fill="#E2E2E2" stroke="#545454" stroke-width="0.25" stroke-linejoin="round"/>
<path fill-rule="evenodd" clip-rule="evenodd" d="M37.9499 48.8601L31.9698 55.7001L42.5299 49.8201L37.9499 48.8601Z" fill="#E2E2E2" stroke="#545454" stroke-width="0.25" stroke-linejoin="round"/>
<path d="M15.8298 46.27L15.8698 62.13L31.8998 71.54L31.9498 55.74L15.8298 46.27Z" fill="#E2E2E2" stroke="#545454" stroke-width="0.25" stroke-linejoin="round"/>
<path fill-rule="evenodd" clip-rule="evenodd" d="M42.3899 65.4701L31.8999 71.54L31.9699 55.7L42.5199 49.8101L42.3899 65.4701Z" fill="white" stroke="#545454" stroke-width="0.25" stroke-linejoin="round"/>
<path fill-rule="evenodd" clip-rule="evenodd" d="M37.9499 48.8601L21.6899 39.3501L15.7799 46.2301L32.0299 55.7401L37.9499 48.8601Z" fill="#757575" stroke="#545454" stroke-width="0.25" stroke-linejoin="round"/>
<path fill-rule="evenodd" clip-rule="evenodd" d="M11.09 45.28L18.57 60.82L31.94 55.75L15.81 46.23L11.09 45.28Z" fill="#E2E2E2" stroke="#545454" stroke-width="0.25" stroke-linejoin="round"/>
<path fill-rule="evenodd" clip-rule="evenodd" d="M27.3499 54.79L21.3699 61.64L31.9399 55.7501L27.3499 54.79Z" fill="#E2E2E2" stroke="#545454" stroke-width="0.25" stroke-linejoin="round"/>
<path d="M5.23999 52.2L5.26999 68.07L21.38 77.5399L21.35 61.67L5.23999 52.2Z" fill="#E2E2E2" stroke="#545454" stroke-width="0.25" stroke-linejoin="round"/>
<path fill-rule="evenodd" clip-rule="evenodd" d="M31.9 71.54L21.34 77.54L21.37 61.64L31.93 55.74L31.9 71.54Z" fill="white" stroke="#545454" stroke-width="0.25" stroke-linejoin="round"/>
<path fill-rule="evenodd" clip-rule="evenodd" d="M27.3499 54.79L11.0899 45.28L5.17993 52.17L21.4399 61.67L27.3499 54.79Z" fill="#757575" stroke="#545454" stroke-width="0.25" stroke-linejoin="round"/>
<path d="M41.09 52L37.54 54.1V58.68L41.09 56.63V52Z" fill="#E2E2E2" stroke="#333333" stroke-width="0.25" stroke-linejoin="round"/>
<path d="M36.7099 54.5601L33.1599 56.67V61.2401L36.7099 59.2V54.5601Z" fill="#E2E2E2" stroke="#333333" stroke-width="0.25" stroke-linejoin="round"/>
<path d="M26.32 60.52L22.77 62.63V67.2L26.32 65.16V60.52Z" fill="#E2E2E2" stroke="#333333" stroke-width="0.25" stroke-linejoin="round"/>
<path d="M26.4999 66.6001L22.9399 68.7001V73.2801L26.4999 71.2301V66.6001Z" fill="#E2E2E2" stroke="#333333" stroke-width="0.25" stroke-linejoin="round"/>
<path d="M36.3799 68.8201V61.55L33.6899 63.0601L33.6599 70.36L36.3799 68.8201Z" fill="#545454"/>
<path d="M125.41 24.73L120.76 24.76L119.26 57.85C119.26 57.85 119.26 57.88 119.26 57.89C119.26 57.89 119.26 57.93 119.26 57.94V58C119.29 59.43 121.04 60.39 123.19 60.39C125.36 60.39 127.13 59.27 127.13 57.91L125.41 24.73Z" fill="white" stroke="#333333" stroke-width="0.25" stroke-miterlimit="10"/>
<path d="M120.44 31.88L120.76 24.75L125.41 24.72L125.78 31.88C125.78 31.88 125.1 33.11 123.19 33.11C121.28 33.11 120.44 31.88 120.44 31.88Z" fill="#AFAFAF" stroke="#333333" stroke-width="0.25" stroke-miterlimit="10"/>
<path d="M125.41 24.7C125.41 25.5 124.37 26.15 123.1 26.15C121.82 26.15 120.79 25.5 120.79 24.7C120.79 23.9 121.83 23.25 123.1 23.25C124.38 23.25 125.41 23.9 125.41 24.7Z" fill="#333333" stroke="#333333" stroke-width="0.25" stroke-miterlimit="10"/>
<path d="M125.41 24.73L120.76 24.76L119.26 57.85C119.26 57.85 119.26 57.88 119.26 57.89C119.26 57.89 119.26 57.93 119.26 57.94V58C119.29 59.43 121.04 60.39 123.19 60.39C125.36 60.39 127.13 59.27 127.13 57.91L125.41 24.73Z" stroke="#333333" stroke-width="0.25" stroke-miterlimit="10"/>
<path d="M117.54 21.3699L112.89 21.3999L111.39 54.4899C111.39 54.4899 111.39 54.5199 111.39 54.5299C111.39 54.5299 111.39 54.5699 111.39 54.5799V54.6399C111.42 56.0699 113.17 57.0299 115.32 57.0299C117.49 57.0299 119.26 55.9099 119.26 54.5499L117.54 21.3699Z" fill="white" stroke="#333333" stroke-width="0.25" stroke-miterlimit="10"/>
<path d="M112.57 28.5299L112.89 21.3999L117.54 21.3699L117.91 28.5299C117.91 28.5299 117.23 29.7599 115.32 29.7599C113.41 29.7599 112.57 28.5299 112.57 28.5299Z" fill="#AFAFAF" stroke="#333333" stroke-width="0.25" stroke-miterlimit="10"/>
<path d="M117.54 21.3399C117.54 22.1399 116.5 22.7899 115.23 22.7899C113.96 22.7899 112.92 22.1399 112.92 21.3399C112.92 20.5399 113.96 19.8899 115.23 19.8899C116.51 19.8899 117.54 20.5399 117.54 21.3399Z" fill="#333333" stroke="#333333" stroke-width="0.25" stroke-miterlimit="10"/>
<path d="M117.54 21.3699L112.89 21.3999L111.39 54.4899C111.39 54.4899 111.39 54.5199 111.39 54.5299C111.39 54.5299 111.39 54.5699 111.39 54.5799V54.6399C111.42 56.0699 113.17 57.0299 115.32 57.0299C117.49 57.0299 119.26 55.9099 119.26 54.5499L117.54 21.3699Z" stroke="#333333" stroke-width="0.25" stroke-miterlimit="10"/>
<path d="M79.6899 42.7399L101.75 29.9199L110.57 42.9299L88.4999 55.7499L79.6899 42.7399Z" fill="#AFAFAF" stroke="#333333" stroke-width="0.25" stroke-linejoin="round"/>
<path d="M88.53 47.85L110.59 35.02L119.4 48.02L97.34 60.85L88.53 47.85Z" fill="#AFAFAF" stroke="#333333" stroke-width="0.25" stroke-linejoin="round"/>
<path d="M97.36 52.9399L119.42 40.1199L128.21 53.0799L106.14 65.8999L97.36 52.9399Z" fill="#AFAFAF" stroke="#333333" stroke-width="0.25" stroke-linejoin="round"/>
<path d="M106.17 58.03L114.98 71.03L114.95 80.72L106.15 75.79L97.31 70.69L88.48 65.59L79.64 60.49L79.69 42.74L88.5 55.75L88.53 47.85L97.34 60.85L97.36 52.94L106.14 65.9L106.17 58.03Z" fill="#CBCBCB" stroke="#545454" stroke-width="0.25" stroke-linejoin="round"/>
<path d="M106.17 58.03L128.23 45.21L137.04 58.21L114.98 71.03L106.17 58.03Z" fill="#AFAFAF" stroke="#333333" stroke-width="0.25" stroke-linejoin="round"/>
<path d="M114.98 71.03L137.04 58.21L137.01 68.05L114.95 80.87L114.98 71.03Z" fill="#FCFCFF" stroke="#333333" stroke-width="0.25" stroke-linejoin="round"/>
<path d="M107.28 76.5598V69.2898L109.97 70.8098L110 78.0998L107.28 76.5598Z" fill="#545454"/>
<path d="M117.92 71.2498L120.44 69.7898L120.58 74.1798L117.91 75.6898V71.2398L117.92 71.2498Z" fill="#CBCBCB" stroke="#333333" stroke-width="0.25" stroke-linejoin="round"/>
<path d="M122.47 68.6399L124.99 67.1799L125.13 71.5699L122.46 73.0799V68.6299L122.47 68.6399Z" fill="#CBCBCB" stroke="#333333" stroke-width="0.25" stroke-linejoin="round"/>
<path d="M127.4 65.8799L129.92 64.4199L130.06 68.8099L127.39 70.3199V65.8699L127.4 65.8799Z" fill="#CBCBCB" stroke="#333333" stroke-width="0.25" stroke-linejoin="round"/>
<path d="M132.31 63.2L134.83 61.74L134.97 66.13L132.3 67.64V63.19L132.31 63.2Z" fill="#CBCBCB" stroke="#333333" stroke-width="0.25" stroke-linejoin="round"/>
<path d="M100 70.6698C100.15 70.5198 100.28 70.3698 100.33 70.2698L99.57 69.9998V69.9698C99.57 69.9698 99.9501 69.0098 99.9601 68.5898L99.01 68.5098C99.01 68.5098 99.22 67.0498 99.08 66.5498C99.08 66.5498 98.68 66.7198 98.42 66.8098L98.34 66.5298L98.32 66.4698L98.29 66.3898C98.29 66.3898 97.9 65.0698 97.63 64.5498L97.14 65.0798C97.09 64.9798 97.0201 64.8398 97.0201 64.8398C97.0201 64.8398 96.32 63.4698 95.95 62.9698C95.95 62.9698 95.83 63.5998 95.76 63.8598L95.57 63.6098C95.51 63.5198 95.44 63.4198 95.44 63.4198C95.44 63.4198 94.51 62.0898 94.09 61.6398C94.09 61.6398 94.15 62.3898 94.16 62.7098V62.6498C94.09 62.5798 94.03 62.5198 94.03 62.5198C94.03 62.5198 92.93 61.3298 92.47 60.9598C92.47 60.9598 92.72 61.7898 92.81 62.1498L92.68 61.9898C92.59 61.9098 92.47 61.8098 92.47 61.8098C92.47 61.8098 91.27 60.7998 90.81 60.5298C90.81 60.5298 91.2 61.3798 91.36 61.7598L91.25 61.7098C91.16 61.6398 91.13 61.6198 91.13 61.6198C91.13 61.6198 89.9 60.8698 89.44 60.7198C89.44 60.7198 89.97 61.5498 90.19 61.9198C90.19 61.9198 88.99 61.5598 88.6 61.5898C88.6 61.5898 89.27 62.2998 89.56 62.6298L89.4901 62.6098C89.4101 62.5998 89.3 62.6098 89.3 62.6098C89.3 62.6098 88.24 62.6098 87.92 62.7598C87.92 62.7598 88.6401 63.3498 88.9601 63.6298L89.0201 63.6598C88.95 63.6898 88.88 63.7398 88.88 63.7398C88.88 63.7398 88.73 63.8298 88.54 63.9598L99.9901 70.6498L100 70.6698Z" fill="#FDFDFF" stroke="#333333" stroke-width="0.25" stroke-linejoin="round"/>
<path d="M93.3301 66.6799C93.3301 66.1399 93.7701 65.9599 94.3301 66.2799C94.8901 66.5999 95.3401 67.2899 95.3401 67.8199" fill="#333333"/>
<path d="M55.3401 41.7599C55.3001 41.6299 55.1501 41.4899 55.0101 41.4699C54.9401 41.4599 54.8901 41.4699 54.8601 41.5099L54.3201 42.1199V35.1699H53.0701V46.5499C53.0701 46.6399 53.1301 46.7399 53.2601 46.8099C53.5101 46.9499 53.9001 46.9499 54.1501 46.8099C54.2701 46.7399 54.3301 46.6499 54.3301 46.5499V43.0699L55.3401 41.9299C55.3401 41.9299 55.3801 41.8399 55.3601 41.7699L55.3401 41.7599Z" fill="#333333"/>
<path d="M55.6701 40.1401C55.1401 40.1401 54.6201 40.0502 54.1301 39.8802C52.9201 39.4502 51.9101 39.2502 50.9701 39.2502C50.2101 39.2502 49.4401 38.7801 49.0401 38.0901C48.6701 37.4601 48.6701 36.7601 49.0301 36.1201C49.0501 36.0801 49.0501 36.0201 49.0301 35.9801C47.3801 33.8401 47.8501 30.9402 48.8401 28.9402C49.9701 26.6502 51.8501 25.1602 53.6301 25.1602C54.4401 25.1602 55.2201 25.4601 55.9301 26.0501C56.4601 26.4901 57.2101 26.8002 58.0001 27.1302C59.3301 27.6802 60.7001 28.2401 61.1801 29.4801C61.5301 30.4001 61.3401 31.6002 60.6001 33.1302C60.5801 33.1602 60.5801 33.2001 60.6001 33.2301C61.2201 34.7801 61.0501 36.3801 60.1301 37.7301C59.1301 39.2101 57.4301 40.1201 55.7001 40.1201L55.6701 40.1401Z" fill="#545454"/>
<path d="M53.6101 25.3C54.3901 25.3 55.1401 25.59 55.8301 26.17C56.3701 26.62 57.1301 26.93 57.9301 27.26C59.2401 27.8 60.5801 28.35 61.0401 29.54C61.3801 30.43 61.1901 31.5901 60.4601 33.0901C60.4301 33.1501 60.4301 33.23 60.4601 33.29C61.0601 34.8 60.9001 36.3601 60.0001 37.6801C59.0401 39.1001 57.3401 40.0201 55.6701 40.0201C55.1501 40.0201 54.6501 39.93 54.1701 39.7701C52.9401 39.34 51.9201 39.1401 50.9701 39.1301C50.2601 39.1301 49.5201 38.6901 49.1401 38.0301C48.9401 37.6901 48.6701 36.9901 49.1301 36.1901C49.1801 36.1001 49.1701 35.9901 49.1101 35.9101C47.5001 33.8201 47.9601 30.9701 48.9301 29.0001C50.0401 26.7501 51.8801 25.29 53.6101 25.29M53.6101 25.05C49.6001 25.05 45.8801 32.1201 48.9101 36.0701C48.0001 37.6601 49.4301 39.3801 50.9601 39.3801C52.0301 39.3801 53.0701 39.6501 54.0801 40.0001C54.6001 40.1801 55.1301 40.2701 55.6601 40.2701C58.9901 40.2701 62.1601 36.91 60.6801 33.2C63.4501 27.5 57.9601 27.63 55.9901 25.98C55.2201 25.34 54.4101 25.0601 53.6101 25.0601V25.05Z" fill="#333333"/>
<path d="M46.6801 49.92C46.6801 49.92 46.3401 50.36 45.9301 50.36C45.5201 50.36 45.1801 49.92 45.1801 49.92V46.04H46.6701V49.92H46.6801Z" fill="#333333"/>
<path d="M45.7601 46.4698C42.4401 46.4698 39.7301 42.7598 39.7301 38.2098C39.7301 33.4498 44.5101 27.2998 45.5101 27.2998C46.5701 27.2998 51.7801 33.5998 51.7801 38.2098C51.7801 42.8198 49.0801 46.4698 45.7501 46.4698H45.7601Z" fill="#EEEEEE"/>
<path d="M45.5101 27.4199C46.5501 27.4199 51.6601 33.6499 51.6601 38.2099C51.6601 40.3999 51.0401 42.4499 49.9101 43.9899C48.8001 45.5099 47.3201 46.3399 45.7601 46.3399C42.5101 46.3399 39.8601 42.6899 39.8601 38.1999C39.8601 36.2499 40.7601 33.6499 42.3301 31.0699C43.7701 28.7099 45.1301 27.4099 45.5201 27.4099M45.5101 27.1699C44.3101 27.1699 39.6001 33.5799 39.6001 38.2099C39.6001 42.8399 42.3501 46.5999 45.7501 46.5999C49.1501 46.5999 51.9001 42.8499 51.9001 38.2099C51.9001 33.5799 46.7001 27.1699 45.5001 27.1699H45.5101Z" fill="#333333"/>
<path d="M63.66 99.4101C63.66 99.4101 63.26 99.9301 62.78 99.9301C62.3 99.9301 61.9 99.4101 61.9 99.4101V94.8101H63.66V99.4101Z" fill="#545454"/>
<path d="M62.57 95.3499C58.62 95.3499 55.41 90.9499 55.41 85.5499C55.41 80.1499 60.88 72.6099 62.28 72.6099C63.54 72.6099 69.73 80.0899 69.73 85.5499C69.73 91.0099 66.52 95.3499 62.57 95.3499Z" fill="#AFAFAF"/>
<path d="M62.28 72.73C63.3 72.73 69.61 79.88 69.61 85.55C69.61 88.15 68.87 90.59 67.53 92.42C66.2 94.23 64.44 95.23 62.58 95.23C58.7 95.23 55.55 90.89 55.55 85.55C55.55 83.23 56.62 80.15 58.48 77.09C60.19 74.28 61.82 72.73 62.29 72.73M62.28 72.48C60.86 72.48 55.29 80.07 55.29 85.55C55.29 91.03 58.55 95.48 62.57 95.48C66.59 95.48 69.85 91.04 69.85 85.55C69.85 80.07 63.6901 72.48 62.2701 72.48H62.28Z" fill="#545454"/>
<path d="M72.62 103.13C72.62 103.13 72.22 103.65 71.74 103.65C71.26 103.65 70.86 103.13 70.86 103.13V98.53H72.62V103.13Z" fill="#545454"/>
<path d="M71.53 99.0701C67.58 99.0701 64.37 94.67 64.37 89.2701C64.37 86.93 65.44 83.8201 67.32 80.7401C68.98 78.0101 70.65 76.3201 71.24 76.3201C72.5 76.3201 78.69 83.8 78.69 89.26C78.69 94.72 75.48 99.0601 71.53 99.0601V99.0701Z" fill="#AFAFAF"/>
<path d="M71.24 76.45C72.26 76.45 78.57 83.6 78.57 89.27C78.57 91.87 77.83 94.31 76.48 96.14C75.15 97.95 73.39 98.95 71.53 98.95C67.65 98.95 64.5 94.61 64.5 89.27C64.5 86.95 65.57 83.87 67.43 80.81C69.14 78 70.77 76.45 71.24 76.45ZM71.24 76.2C69.82 76.2 64.25 83.79 64.25 89.27C64.25 94.75 67.51 99.2 71.53 99.2C75.55 99.2 78.81 94.76 78.81 89.27C78.81 83.79 72.65 76.2 71.23 76.2H71.24Z" fill="#545454"/>
<path d="M121.4 17.6199C122.019 17.6199 122.52 17.1184 122.52 16.4999C122.52 15.8813 122.019 15.3799 121.4 15.3799C120.781 15.3799 120.28 15.8813 120.28 16.4999C120.28 17.1184 120.781 17.6199 121.4 17.6199Z" fill="#757575"/>
<path d="M114.41 15.1099C115.029 15.1099 115.53 14.6084 115.53 13.9899C115.53 13.3713 115.029 12.8699 114.41 12.8699C113.791 12.8699 113.29 13.3713 113.29 13.9899C113.29 14.6084 113.791 15.1099 114.41 15.1099Z" fill="#757575"/>
<path d="M126.61 16.24C127.229 16.24 127.73 15.7386 127.73 15.12C127.73 14.5014 127.229 14 126.61 14C125.992 14 125.49 14.5014 125.49 15.12C125.49 15.7386 125.992 16.24 126.61 16.24Z" fill="#757575"/>
<path d="M116.57 24.0798C117.189 24.0798 117.69 23.5784 117.69 22.9598C117.69 22.3413 117.189 21.8398 116.57 21.8398C115.952 21.8398 115.45 22.3413 115.45 22.9598C115.45 23.5784 115.952 24.0798 116.57 24.0798Z" fill="#757575"/>
<path d="M120.28 13.99C120.899 13.99 121.4 13.4886 121.4 12.87C121.4 12.2514 120.899 11.75 120.28 11.75C119.662 11.75 119.16 12.2514 119.16 12.87C119.16 13.4886 119.662 13.99 120.28 13.99Z" fill="#757575"/>
<path d="M129.24 21.72C129.859 21.72 130.36 21.2186 130.36 20.6C130.36 19.9814 129.859 19.48 129.24 19.48C128.622 19.48 128.12 19.9814 128.12 20.6C128.12 21.2186 128.622 21.72 129.24 21.72Z" fill="#757575"/>
<path d="M117.34 18.99C117.765 18.99 118.11 18.6452 118.11 18.22C118.11 17.7947 117.765 17.45 117.34 17.45C116.915 17.45 116.57 17.7947 116.57 18.22C116.57 18.6452 116.915 18.99 117.34 18.99Z" fill="#757575"/>
<path d="M111.69 19.7599C112.115 19.7599 112.46 19.4152 112.46 18.99C112.46 18.5647 112.115 18.22 111.69 18.22C111.265 18.22 110.92 18.5647 110.92 18.99C110.92 19.4152 111.265 19.7599 111.69 19.7599Z" fill="#757575"/>
<path d="M122.49 31.0698C122.915 31.0698 123.26 30.725 123.26 30.2998C123.26 29.8745 122.915 29.5298 122.49 29.5298C122.065 29.5298 121.72 29.8745 121.72 30.2998C121.72 30.725 122.065 31.0698 122.49 31.0698Z" fill="#757575"/>
<path d="M110.91 25.8999C111.335 25.8999 111.68 25.5551 111.68 25.1299C111.68 24.7046 111.335 24.3599 110.91 24.3599C110.485 24.3599 110.14 24.7046 110.14 25.1299C110.14 25.5551 110.485 25.8999 110.91 25.8999Z" fill="#757575"/>
<path d="M123.69 20.54C124.115 20.54 124.46 20.1952 124.46 19.77C124.46 19.3447 124.115 19 123.69 19C123.265 19 122.92 19.3447 122.92 19.77C122.92 20.1952 123.265 20.54 123.69 20.54Z" fill="#757575"/>
<path d="M121.4 25.1299C121.825 25.1299 122.17 24.7851 122.17 24.3598C122.17 23.9346 121.825 23.5898 121.4 23.5898C120.975 23.5898 120.63 23.9346 120.63 24.3598C120.63 24.7851 120.975 25.1299 121.4 25.1299Z" fill="#757575"/>
<path d="M126.61 25.8999C127.035 25.8999 127.38 25.5551 127.38 25.1299C127.38 24.7046 127.035 24.3599 126.61 24.3599C126.185 24.3599 125.84 24.7046 125.84 25.1299C125.84 25.5551 126.185 25.8999 126.61 25.8999Z" fill="#757575"/>
<path d="M110.38 14.29C110.805 14.29 111.15 13.9452 111.15 13.52C111.15 13.0947 110.805 12.75 110.38 12.75C109.955 12.75 109.61 13.0947 109.61 13.52C109.61 13.9452 109.955 14.29 110.38 14.29Z" fill="#757575"/>
<path d="M116.57 11.1499C116.995 11.1499 117.34 10.8051 117.34 10.3799C117.34 9.95462 116.995 9.60986 116.57 9.60986C116.145 9.60986 115.8 9.95462 115.8 10.3799C115.8 10.8051 116.145 11.1499 116.57 11.1499Z" fill="#757575"/>
<path d="M114.06 29.52C114.485 29.52 114.83 29.1753 114.83 28.75C114.83 28.3247 114.485 27.98 114.06 27.98C113.635 27.98 113.29 28.3247 113.29 28.75C113.29 29.1753 113.635 29.52 114.06 29.52Z" fill="#757575"/>
<path d="M124.04 11.9299C124.465 11.9299 124.81 11.5852 124.81 11.1599C124.81 10.7347 124.465 10.3899 124.04 10.3899C123.615 10.3899 123.27 10.7347 123.27 11.1599C123.27 11.5852 123.615 11.9299 124.04 11.9299Z" fill="#757575"/>
<path d="M83.03 6.25H84.65C84.65 6.25 84.69 6.26998 84.69 6.28998V36.67C84.69 37.11 84.33 37.48 83.88 37.48H83.77C83.33 37.48 82.98 37.13 82.98 36.69V6.29999C82.98 6.29999 83 6.25998 83.02 6.25998L83.03 6.25Z" fill="#E2E2E2" stroke="#333333" stroke-width="0.25" stroke-miterlimit="10"/>
<path d="M86.82 8.00986C85.78 7.90986 84.5501 7.77986 83.2401 7.63986V7.56989C84.6901 5.47989 83.31 2.05986 83.17 1.72986L86.41 1.37988C86.41 1.37988 89.2 4.44986 86.82 8.00986Z" fill="#757575"/>
<path d="M86.82 8.00998C89.2 4.44998 86.41 1.38 86.41 1.38L89.9901 1C89.9901 1 93.3401 5 89.9901 8.34C89.9901 8.34 88.71 8.20998 86.82 8.00998Z" fill="#F6F6F6"/>
<path d="M78.7701 2.19995C78.9101 2.41995 80.4701 5.05997 79.0301 7.18997V7.20996C77.9401 7.09996 76.8901 6.98995 75.9301 6.88995V6.81998C76.8701 5.25998 75.8301 2.93997 75.6301 2.52997L78.7701 2.19995Z" fill="#757575"/>
<path d="M79.03 7.19C80.47 5.06 78.91 2.41998 78.77 2.19998L83.17 1.72998C83.31 2.05998 84.69 5.48001 83.25 7.57001V7.63998C81.88 7.50998 80.43 7.35999 79.03 7.20999V7.19Z" fill="#F6F6F6"/>
<path d="M71.51 2.96997C71.88 3.18997 72.15 3.82997 72.15 4.58997C72.15 5.52997 71.74 6.28995 71.23 6.28995C71.11 6.28995 70.99 6.23997 70.88 6.15997H70.87C70.87 6.15997 70.81 6.09998 70.78 6.06998C70.77 6.05998 70.77 6.04995 70.76 6.03995C70.11 5.19995 70.79 3.21996 70.85 3.04996C70.85 3.04996 70.85 3.03995 70.86 3.03995L71.51 2.96997Z" fill="#E2E2E2"/>
<path d="M71.5101 2.96991L70.8601 3.03989C70.9701 2.93989 71.1001 2.88989 71.2301 2.88989C71.3301 2.88989 71.4201 2.91991 71.5101 2.96991Z" fill="#E2E2E2"/>
<path d="M70.8501 3.05005C70.7901 3.22005 70.1101 5.20004 70.7601 6.04004C70.5001 5.75004 70.3201 5.21006 70.3201 4.59006C70.3201 3.91006 70.5401 3.32005 70.8501 3.05005Z" fill="#E2E2E2"/>
<path d="M71.5101 2.97L75.6301 2.53L78.7701 2.19998L83.1701 1.72998L86.4101 1.38L89.9901 1C89.9901 1 93.3401 5 89.9901 8.34C89.9901 8.34 88.7101 8.20998 86.8201 8.00998C85.7801 7.90998 84.5501 7.77998 83.2401 7.63998C81.8801 7.50998 80.4301 7.35999 79.0301 7.20999C77.9401 7.09999 76.8901 6.98998 75.9301 6.88998C73.6801 6.64998 71.9301 6.45999 71.4301 6.39999C71.2001 6.36999 71.0201 6.29 70.8801 6.16" stroke="#333333" stroke-width="0.25" stroke-miterlimit="10"/>
<path d="M70.87 6.15005C70.87 6.15005 70.81 6.10007 70.78 6.07007" stroke="#333333" stroke-width="0.25" stroke-miterlimit="10"/>
<path d="M70.8601 3.03989C70.9701 2.93989 71.1001 2.88989 71.2301 2.88989C71.3301 2.88989 71.4201 2.91991 71.5101 2.96991C71.8801 3.18991 72.1501 3.8299 72.1501 4.5899C72.1501 5.5299 71.7401 6.28989 71.2301 6.28989C71.1101 6.28989 70.9901 6.23991 70.8801 6.15991" stroke="#333333" stroke-width="0.25" stroke-miterlimit="10"/>
<path d="M70.7601 6.04004C70.5001 5.75004 70.3201 5.21006 70.3201 4.59006C70.3201 3.91006 70.5401 3.32005 70.8501 3.05005" stroke="#333333" stroke-width="0.25" stroke-miterlimit="10"/>
<path d="M70.87 6.15005C70.87 6.15005 70.81 6.10007 70.78 6.07007" stroke="#333333" stroke-width="0.25" stroke-miterlimit="10"/>
<path d="M86.41 1.37988C86.41 1.37988 89.2 4.44986 86.82 8.00986C86.81 8.02986 86.8 8.03988 86.79 8.05988" stroke="#333333" stroke-width="0.25" stroke-miterlimit="10"/>
<path d="M83.16 1.69995C83.16 1.69995 83.16 1.69995 83.17 1.72995C83.31 2.05995 84.69 5.47998 83.25 7.56998" stroke="#333333" stroke-width="0.25" stroke-miterlimit="10"/>
<path d="M78.76 2.17993C78.76 2.17993 78.76 2.18992 78.77 2.19992C78.91 2.41992 80.47 5.05994 79.03 7.18994" stroke="#333333" stroke-width="0.25" stroke-miterlimit="10"/>
<path d="M75.6001 2.46997L75.6301 2.52997C75.8301 2.93997 76.8701 5.25998 75.9401 6.81998" stroke="#333333" stroke-width="0.25" stroke-miterlimit="10"/>
<path d="M71.52 5.11994C71.52 5.11994 63.15 4.52994 61.43 6.83994C59.71 9.14994 63.19 10.7999 64.22 8.95993" stroke="#333333" stroke-width="0.25" stroke-miterlimit="10"/>
<path d="M71.6 3.81006L57.77 4.28006" stroke="#333333" stroke-width="0.25" stroke-miterlimit="10"/>
</svg>
