<svg width="154" height="134" viewBox="0 0 154 134" fill="none" xmlns="http://www.w3.org/2000/svg">
<path d="M136.22 87.47L68.64 48.46V1L136.22 40.02V87.47Z" fill="#F6F6F6" stroke="#333333" stroke-width="0.25" stroke-linejoin="round"/>
<path d="M76.4 45.0901L78.67 36.8901L84.54 45.2701L94.31 27.0601L105.74 48.0101L108.81 61.3201L116.79 61.2101L132.74 63.3601" stroke="#545454" stroke-width="0.25" stroke-miterlimit="10"/>
<path d="M77.12 45.5101C77.12 45.9401 76.79 46.1001 76.39 45.8701C75.99 45.6401 75.66 45.1001 75.66 44.6701C75.66 44.2401 75.99 44.0801 76.39 44.3101C76.79 44.5401 77.12 45.0801 77.12 45.5101Z" fill="#545454"/>
<path d="M79.4001 37.3102C79.4001 37.7402 79.0701 37.9002 78.6701 37.6702C78.2701 37.4402 77.9401 36.9002 77.9401 36.4702C77.9401 36.0402 78.2701 35.8802 78.6701 36.1102C79.0701 36.3402 79.4001 36.8802 79.4001 37.3102Z" fill="#545454"/>
<path d="M85.3201 45.9201C85.3201 46.3501 84.9901 46.5101 84.5901 46.2801C84.1901 46.0501 83.8601 45.5102 83.8601 45.0802C83.8601 44.6502 84.1901 44.4902 84.5901 44.7202C84.9901 44.9502 85.3201 45.4901 85.3201 45.9201Z" fill="#545454"/>
<path d="M95.6501 27.8401C95.6501 28.6401 95.0501 28.9401 94.3101 28.5101C93.5701 28.0801 92.9701 27.0901 92.9701 26.2901C92.9701 25.4901 93.5701 25.1901 94.3101 25.6201C95.0501 26.0501 95.6501 27.0401 95.6501 27.8401Z" fill="#545454"/>
<path d="M106.53 48.2301C106.53 48.6601 106.2 48.8201 105.8 48.5901C105.4 48.3601 105.07 47.8201 105.07 47.3901C105.07 46.9601 105.4 46.8001 105.8 47.0301C106.2 47.2601 106.53 47.8001 106.53 48.2301Z" fill="#545454"/>
<path d="M133.46 63.7801C133.46 64.2101 133.13 64.3701 132.73 64.1401C132.33 63.9101 132 63.3701 132 62.9401C132 62.5101 132.33 62.3501 132.73 62.5801C133.13 62.8101 133.46 63.3501 133.46 63.7801Z" fill="#545454"/>
<path d="M109.53 61.7401C109.53 62.1701 109.2 62.3301 108.8 62.1001C108.4 61.8701 108.07 61.3301 108.07 60.9001C108.07 60.4701 108.4 60.3101 108.8 60.5401C109.2 60.7701 109.53 61.3101 109.53 61.7401Z" fill="#545454"/>
<path d="M117.39 61.6201C117.39 62.0501 117.06 62.2101 116.66 61.9801C116.26 61.7501 115.93 61.2101 115.93 60.7801C115.93 60.3501 116.26 60.1901 116.66 60.4201C117.06 60.6501 117.39 61.1901 117.39 61.6201Z" fill="#545454"/>
<path d="M68.79 48.39L1.01001 87.72L68.64 126.81L136.22 87.72L68.79 48.39Z" fill="#F6F6F6" stroke="#333333" stroke-width="0.25" stroke-linejoin="round"/>
<path d="M68.59 133.55L136.22 94.5099V87.72L68.59 126.76V133.55Z" fill="#E2E2E2" stroke="#333333" stroke-width="0.25" stroke-linejoin="round"/>
<path d="M68.64 133.55L1 94.5099V87.72L68.64 126.76V133.55Z" fill="#545454" stroke="#333333" stroke-width="0.25" stroke-linejoin="round"/>
<path d="M59.3299 59.1001L13.1899 85.9001L35.0499 98.5701L77.0999 73.4201L108.92 91.8201L58.5199 120.72L63.6999 123.7L118.69 91.6801L77.5299 68.0001L35.6199 93.0401L22.7599 85.8101L73.1599 56.5301L68.3999 53.8601L59.3299 59.1001Z" fill="#F6F6F6"/>
<path d="M141.186 54.5801H139.874V48.8841H142.378C143.77 48.8841 144.666 49.6201 144.658 50.7961C144.658 51.9641 143.754 52.7161 142.37 52.7161H141.186V54.5801ZM141.186 49.8921V51.7081H142.266C142.922 51.7081 143.33 51.3481 143.33 50.7961C143.33 50.2441 142.914 49.8921 142.266 49.8921H141.186ZM146.756 54.5801H145.46V48.8841H147.3L148.796 52.9321H148.876L150.364 48.8841H152.22V54.5801H150.924V50.6601H150.844L149.38 54.5801H148.3L146.836 50.6601H146.756V54.5801Z" fill="#333333"/>
<path d="M37.05 99.8901L77.59 76.6101L102.65 90.8801L63.23 114.72L37.05 99.8901Z" fill="#E2E2E2"/>
<path d="M34.68 70.94C34.68 70.94 34.29 71.45 33.82 71.45C33.35 71.45 32.96 70.94 32.96 70.94V66.45H34.68V70.94Z" fill="#333333"/>
<path d="M33.61 66.98C29.76 66.98 26.62 62.69 26.62 57.41C26.62 52.13 31.96 44.78 33.32 44.78C34.55 44.78 40.59 52.08 40.59 57.41C40.59 62.74 37.46 66.98 33.6 66.98H33.61Z" fill="#EEEEEE"/>
<path d="M33.33 44.9C34.33 44.9 40.47 51.88 40.47 57.41C40.47 59.95 39.75 62.33 38.44 64.11C37.15 65.87 35.43 66.85 33.61 66.85C29.83 66.85 26.75 62.61 26.75 57.41C26.75 55.15 27.79 52.14 29.61 49.15C31.28 46.41 32.87 44.9 33.33 44.9ZM33.33 44.65C31.95 44.65 26.5 52.06 26.5 57.41C26.5 62.76 29.68 67.1 33.61 67.1C37.54 67.1 40.72 62.76 40.72 57.41C40.72 52.06 34.71 44.65 33.33 44.65Z" fill="#333333"/>
<path d="M27.1899 85.3401L35.4899 89.9201L77.0299 65.8201L120.3 90.6901L126.96 87.1201L74.9599 57.8401L27.1899 85.3401Z" fill="#E2E2E2"/>
<path d="M99.28 97.69C99.3 97.6 99.35 97.51 99.41 97.46C99.56 97.33 99.84 97.13 100.12 96.66C100.27 96.4 100.85 95.61 100.85 95.61C100.85 95.61 100.92 95.6 101.17 95.77C101.3 95.86 101.53 95.37 101.53 95.37C101.53 95.37 101.57 95.4 101.6 95.47C101.62 95.53 101.64 95.62 101.62 95.75C101.59 95.93 101.65 96.22 101.69 96.41C101.71 96.51 101.66 96.66 101.57 96.73L101.15 97.05L100.59 97.34L99.23 98.04C99.2 97.99 99.23 97.81 99.27 97.68L99.28 97.69Z" fill="#545454"/>
<path d="M102.2 90.64L102.99 91.13C102.99 91.13 103.26 91.02 103.35 90.77C103.45 90.52 103.43 90.32 103.43 90.32L102.69 89.53L102.2 90.64Z" fill="#545454" stroke="#545454" stroke-width="0.16" stroke-linejoin="round"/>
<path d="M102.1 93.25C102.07 93.19 102.07 93.11 102.1 93.02C102.16 92.8 102.32 92.4 102.31 91.93C102.31 91.67 102.41 90.74 102.41 90.74C102.41 90.74 102.47 90.65 102.79 90.4C102.95 90.27 102.91 89.84 102.91 89.84C102.91 89.84 102.96 89.8 103.03 89.79C103.08 89.78 103.15 89.79 103.2 89.85C103.28 89.93 103.48 89.95 103.63 89.95C103.71 89.95 103.74 90.06 103.7 90.19L103.49 90.79L103.13 91.55L102.26 93.4C102.2 93.42 102.14 93.33 102.1 93.24V93.25Z" fill="#545454" stroke="#545454" stroke-width="0.16" stroke-linejoin="round"/>
<path d="M102.39 81.5C102.39 81.5 97.86 86.82 97.86 88.34C97.86 89.24 101.17 91.32 101.17 91.32L101.89 89.83C101.89 89.83 100.17 88.47 100.25 88.06C100.33 87.65 104.49 82.29 104.63 81.63C104.77 80.97 104.04 80.38 104.04 80.38L102.38 81.49L102.39 81.5Z" fill="#333333"/>
<path d="M96.84 88.71L102.22 89.56C102.32 89.58 102.45 89.45 102.51 89.27C102.57 89.09 102.53 88.94 102.42 88.92L97.04 88.07C96.94 88.05 96.81 88.18 96.75 88.36C96.69 88.54 96.73 88.69 96.84 88.71Z" fill="#333333"/>
<path d="M96.1101 90.8799L101.35 92.4C101.45 92.43 101.58 92.31 101.65 92.14C101.71 91.97 101.68 91.8 101.58 91.77L96.3401 90.25C96.2401 90.22 96.1101 90.3399 96.0401 90.5099C95.9801 90.6799 96.0101 90.8499 96.1101 90.8799Z" fill="#333333"/>
<path d="M89.38 100.82C89.38 97.67 91.24 94.0401 93.53 92.7201C95.82 91.4001 97.68 92.8901 97.68 96.0301C97.68 99.1801 95.82 102.81 93.53 104.13C91.24 105.45 89.38 103.96 89.38 100.82ZM89.9 100.52C89.9 103.27 91.53 104.57 93.53 103.42C95.53 102.27 97.16 99.0901 97.16 96.3301C97.16 93.5801 95.53 92.2801 93.53 93.4301C91.53 94.5801 89.9 97.7601 89.9 100.52Z" fill="#333333"/>
<path d="M98.01 96.1C98.12 96.04 98.2 95.87 98.2 95.72C98.2 92.17 96.1 90.49 93.52 91.98C92.41 92.62 91.34 93.78 90.5 95.25C90.42 95.39 90.41 95.57 90.48 95.64C90.55 95.71 90.67 95.66 90.75 95.51C91.52 94.16 92.51 93.1 93.52 92.51C95.89 91.14 97.81 92.68 97.81 95.94C97.81 96.09 97.9 96.16 98 96.1H98.01Z" fill="#333333" stroke="#333333" stroke-width="0.16" stroke-linejoin="round"/>
<path d="M102.37 93.32C102.37 90.17 104.23 86.5401 106.52 85.2201C108.81 83.9001 110.67 85.3901 110.67 88.5301C110.67 91.6801 108.81 95.31 106.52 96.63C104.23 97.95 102.37 96.46 102.37 93.32ZM102.89 93.0201C102.89 95.7701 104.52 97.07 106.52 95.92C108.52 94.77 110.15 91.5901 110.15 88.8301C110.15 86.0801 108.52 84.7801 106.52 85.9301C104.52 87.0801 102.89 90.2601 102.89 93.0201Z" fill="#333333" stroke="#333333" stroke-width="0.16" stroke-linejoin="round"/>
<path d="M103.62 88.15C103.62 88.15 103.71 88.08 103.75 88.01C104.52 86.66 105.51 85.6 106.52 85.01C107.38 84.52 108.2 84.38 108.91 84.63C109 84.66 109.12 84.56 109.18 84.4C109.24 84.24 109.22 84.09 109.13 84.06C108.36 83.79 107.46 83.93 106.52 84.47C105.41 85.11 104.34 86.27 103.5 87.74C103.42 87.88 103.41 88.06 103.48 88.13C103.52 88.17 103.57 88.17 103.63 88.13L103.62 88.15Z" fill="#333333" stroke="#333333" stroke-width="0.16" stroke-linejoin="round"/>
<path d="M106.52 90.34C106.52 90.34 106.57 90.28 106.57 90.24C106.57 90.2 106.55 90.18 106.52 90.19L100.81 93.12C100.81 93.12 100.76 93.18 100.75 93.22C100.75 93.26 100.77 93.28 100.8 93.27L106.51 90.34H106.52Z" fill="#545454" stroke="#545454" stroke-width="0.16" stroke-linejoin="round"/>
<path d="M100.73 95.37L106.52 91.67C106.52 91.67 106.57 91.6 106.57 91.56C106.57 91.52 106.67 90.17 106.65 90.19L100.81 93.05C100.81 93.05 100.67 95.29 100.68 95.33C100.68 95.37 100.71 95.39 100.73 95.37Z" fill="#545454"/>
<path d="M101.03 93.97C101.09 93.94 101.14 93.86 101.17 93.77L104.74 82.91C104.78 82.78 104.76 82.66 104.68 82.64C104.6 82.62 104.5 82.72 104.46 82.85L100.89 93.71C100.85 93.84 100.87 93.96 100.95 93.98C100.98 93.98 101 93.98 101.03 93.96V93.97Z" fill="#545454" stroke="#545454" stroke-width="0.16" stroke-linejoin="round"/>
<path d="M106.52 91.1C106.52 91.1 106.56 91.07 106.58 91.04C106.64 90.95 106.66 90.83 106.63 90.77L103.76 85.63C103.72 85.57 103.64 85.58 103.58 85.67C103.52 85.76 103.5 85.88 103.53 85.94L106.4 91.08C106.4 91.08 106.47 91.13 106.51 91.1H106.52Z" fill="#545454" stroke="#545454" stroke-width="0.16" stroke-linejoin="round"/>
<path d="M100.81 95.4C101.28 95.13 101.66 94.38 101.66 93.73C101.66 93.08 101.28 92.78 100.81 93.05C100.34 93.32 99.96 94.07 99.96 94.72C99.96 95.37 100.34 95.67 100.81 95.4Z" fill="#545454" stroke="#545454" stroke-width="0.16" stroke-linejoin="round"/>
<path d="M101.56 93.7899C101.56 94.3599 101.23 95.01 100.81 95.25C100.39 95.49 100.06 95.22 100.06 94.65C100.06 94.08 100.39 93.43 100.81 93.19C101.23 92.95 101.56 93.2199 101.56 93.7899Z" fill="#545454"/>
<path d="M105.49 81.96L104.23 82.69C104.14 82.74 104.06 82.89 104.06 83.02V83.3C104.06 83.43 104.14 83.49 104.23 83.44L105.83 82.52C105.95 82.45 106.04 82.22 105.98 82.1C105.89 81.91 105.71 81.84 105.49 81.97V81.96Z" fill="#545454" stroke="#545454" stroke-width="0.16" stroke-linejoin="round"/>
<path d="M103.54 81.3301C103.25 81.8101 100.07 85.6201 99.72 88.0701C99.35 90.6701 100.58 95.8101 100.58 95.8101C100.58 95.8101 100.99 95.9101 101.77 95.4601C101.77 95.4601 101.71 89.2001 101.89 88.3501C102.07 87.5001 104.99 85.7601 106.05 83.9301C106.19 83.7001 103.54 81.3201 103.54 81.3201V81.3301Z" fill="#545454"/>
<path d="M97.74 84.96L93.38 98.4C93.34 98.53 93.37 98.65 93.44 98.67C93.46 98.67 93.49 98.67 93.52 98.65C93.58 98.62 93.63 98.54 93.66 98.45L98.02 85.0099" fill="#333333"/>
<path d="M94 98.15C94 98.52 93.78 98.94 93.52 99.09C93.26 99.24 93.04 99.07 93.04 98.7C93.04 98.33 93.26 97.91 93.52 97.76C93.78 97.61 94 97.78 94 98.15Z" fill="#333333"/>
<path d="M106.52 91.74C106.84 91.55 107.11 91.04 107.11 90.59C107.11 90.14 106.85 89.93 106.52 90.12C106.19 90.31 105.93 90.82 105.93 91.27C105.93 91.72 106.19 91.93 106.52 91.74Z" fill="#545454"/>
<path d="M95.97 82.04C95.77 82.03 96.02 82.3301 96.13 82.4401C96.05 82.4701 95.91 82.51 95.91 82.51C95.91 82.51 95.18 82.51 95.11 82.64C95.06 82.74 95.4 82.77 95.61 82.83C95.4 82.87 95.13 82.9401 95.1 83.02C95.07 83.12 95.37 83.12 95.59 83.13C95.47 83.18 95.37 83.23 95.36 83.29C95.33 83.44 95.97 83.29 96.34 83.23C96.71 83.16 96.96 82.95 96.96 82.95L97.37 82.88L97.4 82.2101C97.4 82.2101 96.81 82.44 96.43 82.26C96.31 82.18 96.12 82.06 95.96 82.05L95.97 82.04Z" fill="#757575" stroke="#333333" stroke-width="0.16" stroke-miterlimit="10"/>
<path d="M102.98 74.91C102.98 74.91 101.98 74.82 101.5 75.36C101.02 75.9 100.45 79.59 99.8401 80.22C98.8901 81.2 96.9301 82.02 96.9301 82.02L97.2501 83.15C99.8601 82.21 100.43 81.87 101.17 81.3C101.91 80.73 102.98 74.9 102.98 74.9V74.91Z" fill="#333333"/>
<path d="M101.17 76.82C101.22 77.96 101.3 79.0201 101.3 79.0201C101.26 81.22 100.65 83.38 100.65 83.38C100.65 83.38 100.93 84.13 103.05 84.95C105.37 85.85 106.18 84.01 106.18 84.01C106.18 84.01 106.26 82.37 105.98 79.86L106.04 76.95C106.04 76.95 106.11 76.57 105.83 75.82C105.55 75.07 104.06 74.1201 104.06 74.1201L103.83 74.0901L103.01 73.5601" fill="#333333"/>
<path d="M104.13 73.36C104.13 73.36 104.03 73.91 104.13 74.28C104.23 74.65 103.59 74.98 103 74.95C102.41 74.92 102.46 74.56 102.44 74.12C102.42 73.68 104.13 73.36 104.13 73.36Z" fill="#757575" stroke="#333333" stroke-width="0.16" stroke-miterlimit="10"/>
<path d="M103.4 74.16C103.4 74.16 102.82 74.58 102.47 74.39C101.86 74.05 101.66 72.66 101.92 71.84C102.18 71.02 103.98 71.27 103.98 71.27L104.22 73.33" fill="#757575"/>
<path d="M103.4 74.16C103.4 74.16 102.82 74.58 102.47 74.39C101.86 74.05 101.66 72.66 101.92 71.84C102.18 71.02 103.98 71.27 103.98 71.27L104.22 73.33" stroke="#333333" stroke-width="0.16" stroke-miterlimit="10"/>
<path d="M103.96 72.65L103.82 73.06L103.64 73.14V72.16C103.64 72.16 103.4 72.51 102.81 72.6C102.04 72.72 101.52 72.13 101.52 72.13C101.52 72.13 101.47 71.5 102.22 71.14C102.67 70.93 103.31 70.5 103.94 70.82C104.57 71.14 104.36 71.42 104.36 71.42C104.36 71.42 104.97 71.67 104.51 72.9C104.3 73.46 104.06 73.68 104.06 73.68L104.11 72.82L103.97 72.64L103.96 72.65Z" fill="#333333"/>
<path d="M103.81 72.92C103.83 73.03 103.89 73.19 103.89 73.19C103.89 73.19 104.01 73.16 104.06 73.12C104.18 73.04 104.24 72.83 104.21 72.65C104.18 72.47 104.05 72.39 103.93 72.47C103.81 72.55 103.78 72.74 103.82 72.92H103.81Z" fill="#757575"/>
<path d="M95.11 83.15L97.38 84.17L97.77 85.25L98.57 84.77L100.65 85.81" fill="#333333"/>
<path d="M95.11 83.15L97.38 84.17L97.77 85.25L98.57 84.77L100.65 85.81" stroke="#333333" stroke-width="0.16" stroke-linejoin="round"/>
<path d="M99.6301 84.6501C99.4301 84.6801 99.7301 84.93 99.8701 85.01C99.8001 85.06 99.6701 85.1201 99.6701 85.1201C99.6701 85.1201 98.9501 85.2501 98.9101 85.4001C98.8801 85.5101 99.2201 85.4801 99.4401 85.4901C99.2401 85.5701 98.9901 85.6901 98.9801 85.7701C98.9701 85.8801 99.2601 85.81 99.4801 85.79C99.3701 85.86 99.2901 85.9301 99.2901 85.9901C99.2901 86.1401 99.8901 85.8801 100.24 85.7401C100.59 85.6001 100.79 85.3401 100.79 85.3401L101.18 85.2L101.08 84.54C101.08 84.54 100.54 84.8801 100.13 84.7801C100 84.7301 99.7801 84.65 99.6301 84.67V84.6501Z" fill="#757575" stroke="#333333" stroke-width="0.16" stroke-miterlimit="10"/>
<path d="M105.29 76.38C105.29 76.38 104.29 76.49 103.93 77.11C103.57 77.73 103.72 81.46 103.24 82.21C102.5 83.35 100.74 84.54 100.74 84.54L101.27 85.59C103.64 84.16 104.14 83.72 104.76 83.01C105.38 82.3 105.3 76.38 105.3 76.38H105.29Z" fill="#333333"/>
<path d="M22.8001 73.8401C22.7501 73.6901 22.5801 73.5401 22.4301 73.5101C22.3501 73.4901 22.2901 73.5101 22.2601 73.5501L21.6501 74.2401V66.3901H20.2301V79.2401C20.2301 79.3501 20.3001 79.4502 20.4401 79.5302C20.7201 79.6902 21.1701 79.6902 21.4401 79.5302C21.5801 79.4502 21.6501 79.3401 21.6501 79.2401V75.3102L22.7901 74.0302C22.7901 74.0302 22.8301 73.9301 22.8101 73.8501L22.8001 73.8401Z" fill="#333333"/>
<path d="M23.1801 72.0201C22.5801 72.0201 21.9901 71.9201 21.4301 71.7201C20.0601 71.2401 18.9301 71.0101 17.8701 71.0101C17.0001 71.0101 16.1401 70.4901 15.6701 69.6901C15.2501 68.9701 15.2501 68.1701 15.6601 67.4501C15.6801 67.4101 15.6801 67.3501 15.6601 67.3101C13.8001 64.8901 14.3301 61.6101 15.4401 59.3501C16.7201 56.7601 18.8501 55.0801 20.8601 55.0801C21.7801 55.0801 22.6601 55.4201 23.4601 56.0901C24.0501 56.5901 24.9001 56.9301 25.7901 57.3001C27.2901 57.9201 28.8501 58.5601 29.3801 59.9601C29.7801 61.0001 29.5601 62.3601 28.7201 64.0901C28.7001 64.1201 28.7001 64.1601 28.7201 64.1901C29.4201 65.9401 29.2301 67.7501 28.1901 69.2901C27.0601 70.9601 25.1401 72.0001 23.1701 72.0001L23.1801 72.0201Z" fill="#757575"/>
<path d="M20.85 55.2201C21.74 55.2201 22.5901 55.5501 23.3701 56.2001C23.9801 56.7101 24.8301 57.0601 25.7401 57.4301C27.2201 58.0401 28.7501 58.6701 29.2701 60.0201C29.6601 61.0301 29.4401 62.3501 28.6101 64.0501C28.5801 64.1101 28.5801 64.1901 28.6101 64.2501C29.2901 65.9601 29.1101 67.7301 28.0901 69.2401C27.0001 70.8501 25.0701 71.8901 23.1801 71.8901C22.5901 71.8901 22.0201 71.7901 21.4701 71.6001C20.0901 71.1101 18.9401 70.8901 17.8701 70.8801C17.0501 70.8801 16.2101 70.3701 15.7801 69.6301C15.5501 69.2401 15.2501 68.4401 15.7701 67.5201C15.8201 67.4301 15.8101 67.3201 15.7501 67.2401C13.9201 64.8601 14.4501 61.6401 15.5401 59.4101C16.8001 56.8601 18.88 55.2101 20.85 55.2101M20.85 54.9701C16.33 54.9701 12.1201 62.9501 15.5501 67.4101C14.5301 69.2001 16.1401 71.1501 17.8701 71.1501C19.0701 71.1501 20.2501 71.4501 21.3901 71.8501C21.9801 72.0601 22.5801 72.1501 23.1801 72.1501C26.9301 72.1501 30.5201 68.3601 28.8401 64.1701C31.9701 57.7301 25.7701 57.8801 23.5401 56.0101C22.6701 55.2801 21.7601 54.9701 20.8601 54.9701H20.85Z" fill="#333333"/>
<path d="M10.2701 85.6602C10.2701 85.6602 9.88005 86.1702 9.41005 86.1702C8.94005 86.1702 8.55005 85.6602 8.55005 85.6602V81.1702H10.2701V85.6602Z" fill="#333333"/>
<path d="M9.20009 81.7001C5.35009 81.7001 2.21008 77.4101 2.21008 72.1301C2.21008 66.8501 7.55009 59.5001 8.91009 59.5001C10.1401 59.5001 16.1801 66.8001 16.1801 72.1301C16.1801 77.4601 13.0501 81.7001 9.19009 81.7001H9.20009Z" fill="#EEEEEE"/>
<path d="M8.92009 59.6201C9.92009 59.6201 16.0601 66.6001 16.0601 72.1301C16.0601 74.6701 15.3401 77.0501 14.0301 78.8301C12.7401 80.5901 11.0201 81.5701 9.20009 81.5701C5.42009 81.5701 2.34009 77.3301 2.34009 72.1301C2.34009 69.8701 3.38009 66.8601 5.20009 63.8701C6.87009 61.1301 8.46009 59.6201 8.92009 59.6201ZM8.92009 59.3701C7.54009 59.3701 2.09009 66.7801 2.09009 72.1301C2.09009 77.4801 5.27009 81.8201 9.20009 81.8201C13.1301 81.8201 16.3101 77.4801 16.3101 72.1301C16.3101 66.7801 10.3001 59.3701 8.92009 59.3701Z" fill="#333333"/>
<path d="M44.98 74.9001L44.75 74.8501L44.94 74.7401L44.83 74.2501L44.6 74.2001L44.79 74.0901L44.68 73.6101L44.45 73.5501L44.65 73.4401L44.54 72.9601L44.3 72.9101L44.49 72.7901L44.38 72.3101L44.03 72.2301L33.14 78.5301L33.25 79.0201L33.49 79.0701L33.3 79.1801L33.41 79.6601L33.64 79.7201L33.44 79.8301L33.55 80.3101L33.78 80.3601L33.59 80.4801L33.7 80.9601L33.93 81.0101L33.74 81.1301L33.85 81.6101L34.21 81.6901L45.09 75.3901L44.98 74.9001Z" fill="#333333" stroke="#333333" stroke-width="0.25" stroke-linejoin="round"/>
<path d="M37.95 84.4201C37.95 84.4201 37.9 84.2201 37.85 84.1801C37.8 84.1401 34.49 82.2501 34.49 82.2501L34.11 82.4701L37.38 84.3601L37.56 84.5101" fill="#333333"/>
<path d="M37.92 84.3202C37.92 84.3202 37.88 84.2402 37.85 84.2102C37.83 84.1802 37.8 84.1602 37.77 84.1402L34.5 82.2502L33.6 78.2602C33.6 78.2602 33.6 78.2502 33.6 78.2402C33.6 78.2302 33.58 78.2102 33.57 78.2002C33.55 78.1802 33.52 78.1502 33.49 78.1302C33.38 78.0602 33.21 78.0302 33.14 78.0702L32.76 78.2902C32.76 78.2902 32.72 78.3302 32.73 78.3602L33.68 82.5402V85.8102L34.19 86.1102L34.57 85.8902V83.6702L37.06 85.1102V87.7802L37.53 88.0402L37.96 87.8502V84.4502C37.96 84.4502 37.95 84.3602 37.93 84.3102L37.92 84.3202Z" fill="#333333"/>
<path d="M34.36 83.1001L34.75 83.3201V82.9501L34.36 82.7201V83.1001Z" fill="#333333"/>
<path d="M49 78.0101C49 78.0101 48.96 77.9301 48.93 77.9001C48.91 77.8701 48.88 77.8501 48.85 77.8301L45.58 75.9401L44.68 71.9501C44.68 71.9501 44.68 71.9401 44.68 71.9301C44.68 71.9201 44.66 71.9001 44.65 71.8901C44.63 71.8701 44.6 71.8401 44.57 71.8201C44.46 71.7501 44.29 71.7201 44.22 71.7601L43.84 71.9801C43.84 71.9801 43.8 72.0201 43.81 72.0501L44.76 76.2301V76.7201L34.87 82.4501L35.26 82.6701V82.9301L35.02 83.0701V83.4401L35.41 83.6601L35.66 83.5201V83.8101L36.05 84.0301L36.3 83.8901V84.1801L36.69 84.4001L36.94 84.2601V84.5501L37.33 84.7701V84.4001L37.97 84.3801L47.93 78.6501L48.15 78.7801V81.4501L48.62 81.7101L49.05 81.5201V78.1201C49.05 78.1201 49.04 78.0301 49.02 77.9801L49 78.0101Z" fill="#333333"/>
<path d="M60.86 39.29C62.49 38.35 64.13 38.12 65.37 38.83L62.79 37.33C61.54 36.62 59.91 36.84 58.28 37.79C56.65 38.73 55.02 40.39 53.78 42.54C51.82 45.94 51.36 49.68 52.66 51.77L58.35 60.93L60.93 62.43L55.24 53.27C53.94 51.18 54.39 47.44 56.36 44.04C57.6 41.89 59.23 40.23 60.86 39.29Z" fill="#757575" stroke="#545454" stroke-width="0.25" stroke-linejoin="round"/>
<path d="M60.8599 39.29C62.4899 38.35 64.1299 38.12 65.3699 38.83C67.3499 39.96 67.8199 43.16 66.5399 46.74L60.9299 62.42L55.2399 53.26C53.9399 51.17 54.3899 47.43 56.3599 44.03C57.5999 41.88 59.2299 40.22 60.8599 39.28V39.29Z" fill="white" stroke="#545454" stroke-width="0.25" stroke-linejoin="round"/>
<path d="M65.4699 44.0201C65.4699 46.7501 63.5599 50.0601 61.1899 51.4301C58.8299 52.7901 56.9099 51.6901 56.9099 48.9601C56.9099 46.2301 58.8199 42.9201 61.1899 41.5501C63.5499 40.1901 65.4699 41.2901 65.4699 44.0201Z" fill="#F6F6F6" stroke="#333333" stroke-width="0.25" stroke-miterlimit="10"/>
<path d="M71.0399 92.29C72.7799 91.28 74.5299 91.04 75.8599 91.8L73.0999 90.2C71.7699 89.44 70.0199 89.68 68.2799 90.69C66.5399 91.7 64.7999 93.47 63.4699 95.76C61.3699 99.39 60.8899 103.39 62.2799 105.62L68.3499 115.4L71.1099 117L65.0399 107.22C63.6499 104.99 64.1399 100.99 66.2299 97.36C67.5599 95.06 69.2999 93.29 71.0399 92.29Z" fill="#757575" stroke="#545454" stroke-width="0.25" stroke-linejoin="round"/>
<path d="M71.0399 92.29C72.7799 91.28 74.5299 91.04 75.8599 91.8C77.9699 93 78.4799 96.43 77.0999 100.26L71.0999 117.01L65.0299 107.23C63.6399 105 64.1299 101 66.2199 97.37C67.5499 95.07 69.2899 93.3 71.0299 92.3L71.0399 92.29Z" fill="white" stroke="#545454" stroke-width="0.25" stroke-linejoin="round"/>
<path d="M75.97 97.33C75.97 100.24 73.9199 103.79 71.3999 105.24C68.8799 106.7 66.83 105.52 66.83 102.6C66.83 99.68 68.8799 96.1401 71.3999 94.6901C73.9199 93.2301 75.97 94.41 75.97 97.33Z" fill="#F6F6F6" stroke="#333333" stroke-width="0.25" stroke-miterlimit="10"/>
</svg>
