<svg xmlns:xlink="http://www.w3.org/1999/xlink" xmlns="http://www.w3.org/2000/svg" width="112" height="40" viewBox="0 0 112 40" fill="none">
<path d="M92.2893 25.8917C91.1269 25.8917 89.9906 25.5469 89.0243 24.9008C88.0579 24.2548 87.3049 23.3366 86.8606 22.2625C86.4163 21.1883 86.3006 20.0066 86.5281 18.8666C86.7557 17.7267 87.3164 16.6799 88.1391 15.8587C88.9618 15.0376 90.0096 14.4789 91.15 14.2535C92.2903 14.0281 93.4719 14.1459 94.5452 14.5923C95.6185 15.0386 96.5352 15.7934 97.1794 16.761C97.8237 17.7285 98.1664 18.8654 98.1642 20.0278C98.1642 20.7988 98.0121 21.5622 97.7168 22.2744C97.4214 22.9865 96.9885 23.6335 96.4428 24.1781C95.8971 24.7228 95.2494 25.1544 94.5367 25.4484C93.824 25.7425 93.0603 25.8931 92.2893 25.8917ZM92.2893 0.342073C87.6448 0.261604 83.1277 1.86286 79.5707 4.85061C76.0138 7.83836 73.6568 12.0112 72.9342 16.5999V5.16983C72.9342 2.23791 71.6667 0.981383 68.7348 0.981383H58.8147V15.8173L50.3607 4.34316C49.6404 3.24412 48.639 2.35789 47.4606 1.77643C46.2822 1.19498 44.9696 0.939486 43.6591 1.03648H0V11.1439C0 14.0317 1.24551 15.2772 4.13335 15.2772H10.6695V34.8968C10.6695 37.8177 11.9261 39.0853 14.869 39.0853H25.5385V15.2772H34.5658V34.8968C34.5658 37.8177 35.8223 39.0853 38.7542 39.0853H48.6743V24.2163L57.0953 35.6905C57.819 36.7887 58.8226 37.6741 60.0025 38.2554C61.1824 38.8366 62.496 39.0926 63.8078 38.9971H72.9342V23.566C74.4663 33.0892 82.1268 39.6805 92.3114 39.6805C94.9084 39.7268 97.488 39.2496 99.8966 38.2774C102.305 37.3051 104.493 35.8578 106.33 34.0216C108.168 32.1855 109.616 29.9982 110.59 27.5902C111.563 25.1822 112.042 22.6028 111.997 20.0058C111.997 8.58675 103.73 0.320007 92.3114 0.320007" fill="#000000"/>
</svg>